0
SECTION
2
HEADER
9
$INSUNITS
70
4
0
ENDSEC
0
SECTION
2
TABLES
0
TABLE
2
LTYPE
0
LTYPE
72
65
70
64
2
CONTINUOUS
3
______
73
0
40
0
0
ENDTAB
0
TABLE
2
LAYER
0
ENDTAB
0
ENDSEC
0
SECTION
2
ENTITIES
0
LINE
8
0
10
3.025
20
-2.525
11
16.025
21
-2.525
0
LINE
8
0
10
3.025
20
-16.525
11
16.025
21
-16.525
0
LINE
8
0
10
2.525
20
-3.025
11
2.525
21
-16.025
0
LINE
8
0
10
16.525
20
-3.025
11
16.525
21
-16.025
0
ARC
8
0
10
3.025
20
-3.025
40
0.5
50
90
51
180
0
ARC
8
0
10
16.025
20
-3.025
40
0.5
50
0
51
90
0
ARC
8
0
10
3.025
20
-16.025
40
0.5
50
180
51
270
0
ARC
8
0
10
16.025
20
-16.025
40
0.5
50
270
51
0
0
LINE
8
0
10
22.075
20
-2.525
11
35.075
21
-2.525
0
LINE
8
0
10
22.075
20
-16.525
11
35.075
21
-16.525
0
LINE
8
0
10
21.575
20
-3.025
11
21.575
21
-16.025
0
LINE
8
0
10
35.575
20
-3.025
11
35.575
21
-16.025
0
ARC
8
0
10
22.075
20
-3.025
40
0.5
50
90
51
180
0
ARC
8
0
10
35.075
20
-3.025
40
0.5
50
0
51
90
0
ARC
8
0
10
22.075
20
-16.025
40
0.5
50
180
51
270
0
ARC
8
0
10
35.075
20
-16.025
40
0.5
50
270
51
0
0
LINE
8
0
10
41.125
20
-2.525
11
54.125
21
-2.525
0
LINE
8
0
10
41.125
20
-16.525
11
54.125
21
-16.525
0
LINE
8
0
10
40.625
20
-3.025
11
40.625
21
-16.025
0
LINE
8
0
10
54.625
20
-3.025
11
54.625
21
-16.025
0
ARC
8
0
10
41.125
20
-3.025
40
0.5
50
90
51
180
0
ARC
8
0
10
54.125
20
-3.025
40
0.5
50
0
51
90
0
ARC
8
0
10
41.125
20
-16.025
40
0.5
50
180
51
270
0
ARC
8
0
10
54.125
20
-16.025
40
0.5
50
270
51
0
0
LINE
8
0
10
60.175
20
-2.525
11
73.175
21
-2.525
0
LINE
8
0
10
60.175
20
-16.525
11
73.175
21
-16.525
0
LINE
8
0
10
59.675
20
-3.025
11
59.675
21
-16.025
0
LINE
8
0
10
73.675
20
-3.025
11
73.675
21
-16.025
0
ARC
8
0
10
60.175
20
-3.025
40
0.5
50
90
51
180
0
ARC
8
0
10
73.175
20
-3.025
40
0.5
50
0
51
90
0
ARC
8
0
10
60.175
20
-16.025
40
0.5
50
180
51
270
0
ARC
8
0
10
73.175
20
-16.025
40
0.5
50
270
51
0
0
LINE
8
0
10
3.025
20
-26.3375
11
16.025
21
-26.3375
0
LINE
8
0
10
3.025
20
-40.3375
11
16.025
21
-40.3375
0
LINE
8
0
10
2.525
20
-26.8375
11
2.525
21
-39.8375
0
LINE
8
0
10
16.525
20
-26.8375
11
16.525
21
-39.8375
0
ARC
8
0
10
3.025
20
-26.8375
40
0.5
50
90
51
180
0
ARC
8
0
10
16.025
20
-26.8375
40
0.5
50
0
51
90
0
ARC
8
0
10
3.025
20
-39.8375
40
0.5
50
180
51
270
0
ARC
8
0
10
16.025
20
-39.8375
40
0.5
50
270
51
0
0
LINE
8
0
10
22.075
20
-26.3375
11
35.075
21
-26.3375
0
LINE
8
0
10
22.075
20
-40.3375
11
35.075
21
-40.3375
0
LINE
8
0
10
21.575
20
-26.8375
11
21.575
21
-39.8375
0
LINE
8
0
10
35.575
20
-26.8375
11
35.575
21
-39.8375
0
ARC
8
0
10
22.075
20
-26.8375
40
0.5
50
90
51
180
0
ARC
8
0
10
35.075
20
-26.8375
40
0.5
50
0
51
90
0
ARC
8
0
10
22.075
20
-39.8375
40
0.5
50
180
51
270
0
ARC
8
0
10
35.075
20
-39.8375
40
0.5
50
270
51
0
0
LINE
8
0
10
41.125
20
-26.3375
11
54.125
21
-26.3375
0
LINE
8
0
10
41.125
20
-40.3375
11
54.125
21
-40.3375
0
LINE
8
0
10
40.625
20
-26.8375
11
40.625
21
-39.8375
0
LINE
8
0
10
54.625
20
-26.8375
11
54.625
21
-39.8375
0
ARC
8
0
10
41.125
20
-26.8375
40
0.5
50
90
51
180
0
ARC
8
0
10
54.125
20
-26.8375
40
0.5
50
0
51
90
0
ARC
8
0
10
41.125
20
-39.8375
40
0.5
50
180
51
270
0
ARC
8
0
10
54.125
20
-39.8375
40
0.5
50
270
51
0
0
LINE
8
0
10
60.175
20
-26.3375
11
73.175
21
-26.3375
0
LINE
8
0
10
60.175
20
-40.3375
11
73.175
21
-40.3375
0
LINE
8
0
10
59.675
20
-26.8375
11
59.675
21
-39.8375
0
LINE
8
0
10
73.675
20
-26.8375
11
73.675
21
-39.8375
0
ARC
8
0
10
60.175
20
-26.8375
40
0.5
50
90
51
180
0
ARC
8
0
10
73.175
20
-26.8375
40
0.5
50
0
51
90
0
ARC
8
0
10
60.175
20
-39.8375
40
0.5
50
180
51
270
0
ARC
8
0
10
73.175
20
-39.8375
40
0.5
50
270
51
0
0
LINE
8
0
10
3.025
20
-45.3875
11
16.025
21
-45.3875
0
LINE
8
0
10
3.025
20
-59.3875
11
16.025
21
-59.3875
0
LINE
8
0
10
2.525
20
-45.8875
11
2.525
21
-58.8875
0
LINE
8
0
10
16.525
20
-45.8875
11
16.525
21
-58.8875
0
ARC
8
0
10
3.025
20
-45.8875
40
0.5
50
90
51
180
0
ARC
8
0
10
16.025
20
-45.8875
40
0.5
50
0
51
90
0
ARC
8
0
10
3.025
20
-58.8875
40
0.5
50
180
51
270
0
ARC
8
0
10
16.025
20
-58.8875
40
0.5
50
270
51
0
0
LINE
8
0
10
22.075
20
-45.3875
11
35.075
21
-45.3875
0
LINE
8
0
10
22.075
20
-59.3875
11
35.075
21
-59.3875
0
LINE
8
0
10
21.575
20
-45.8875
11
21.575
21
-58.8875
0
LINE
8
0
10
35.575
20
-45.8875
11
35.575
21
-58.8875
0
ARC
8
0
10
22.075
20
-45.8875
40
0.5
50
90
51
180
0
ARC
8
0
10
35.075
20
-45.8875
40
0.5
50
0
51
90
0
ARC
8
0
10
22.075
20
-58.8875
40
0.5
50
180
51
270
0
ARC
8
0
10
35.075
20
-58.8875
40
0.5
50
270
51
0
0
LINE
8
0
10
41.125
20
-45.3875
11
54.125
21
-45.3875
0
LINE
8
0
10
41.125
20
-59.3875
11
54.125
21
-59.3875
0
LINE
8
0
10
40.625
20
-45.8875
11
40.625
21
-58.8875
0
LINE
8
0
10
54.625
20
-45.8875
11
54.625
21
-58.8875
0
ARC
8
0
10
41.125
20
-45.8875
40
0.5
50
90
51
180
0
ARC
8
0
10
54.125
20
-45.8875
40
0.5
50
0
51
90
0
ARC
8
0
10
41.125
20
-58.8875
40
0.5
50
180
51
270
0
ARC
8
0
10
54.125
20
-58.8875
40
0.5
50
270
51
0
0
LINE
8
0
10
73.675
20
-55.4125
11
73.675
21
-68.4125
0
LINE
8
0
10
59.675
20
-55.4125
11
59.675
21
-68.4125
0
LINE
8
0
10
73.175
20
-54.9125
11
60.175
21
-54.9125
0
LINE
8
0
10
73.175
20
-68.9125
11
60.175
21
-68.9125
0
ARC
8
0
10
73.175
20
-55.4125
40
0.5
50
0
51
90
0
ARC
8
0
10
73.175
20
-68.4125
40
0.5
50
270
51
0
0
ARC
8
0
10
60.175
20
-55.4125
40
0.5
50
90
51
180
0
ARC
8
0
10
60.175
20
-68.4125
40
0.5
50
180
51
270
0
LINE
8
0
10
72.675
20
-46.9745
11
72.675
21
-52.9745
0
LINE
8
0
10
57.675
20
-46.9745
11
57.675
21
-52.9745
0
LINE
8
0
10
72.175
20
-46.4745
11
58.175
21
-46.4745
0
LINE
8
0
10
72.175
20
-53.4745
11
58.175
21
-53.4745
0
ARC
8
0
10
72.175
20
-46.9745
40
0.5
50
0
51
90
0
ARC
8
0
10
72.175
20
-52.9745
40
0.5
50
270
51
0
0
ARC
8
0
10
58.175
20
-46.9745
40
0.5
50
90
51
180
0
ARC
8
0
10
58.175
20
-52.9745
40
0.5
50
180
51
270
0
LINE
8
0
10
72.675
20
-70.8505
11
72.675
21
-76.8505
0
LINE
8
0
10
57.675
20
-70.8505
11
57.675
21
-76.8505
0
LINE
8
0
10
72.175
20
-70.3505
11
58.175
21
-70.3505
0
LINE
8
0
10
72.175
20
-77.3505
11
58.175
21
-77.3505
0
ARC
8
0
10
72.175
20
-70.8505
40
0.5
50
0
51
90
0
ARC
8
0
10
72.175
20
-76.8505
40
0.5
50
270
51
0
0
ARC
8
0
10
58.175
20
-70.8505
40
0.5
50
90
51
180
0
ARC
8
0
10
58.175
20
-76.8505
40
0.5
50
180
51
270
0
LINE
8
0
10
3.025
20
-64.4375
11
16.025
21
-64.4375
0
LINE
8
0
10
3.025
20
-78.4375
11
16.025
21
-78.4375
0
LINE
8
0
10
2.525
20
-64.9375
11
2.525
21
-77.9375
0
LINE
8
0
10
16.525
20
-64.9375
11
16.525
21
-77.9375
0
ARC
8
0
10
3.025
20
-64.9375
40
0.5
50
90
51
180
0
ARC
8
0
10
16.025
20
-64.9375
40
0.5
50
0
51
90
0
ARC
8
0
10
3.025
20
-77.9375
40
0.5
50
180
51
270
0
ARC
8
0
10
16.025
20
-77.9375
40
0.5
50
270
51
0
0
LINE
8
0
10
22.075
20
-64.4375
11
35.075
21
-64.4375
0
LINE
8
0
10
22.075
20
-78.4375
11
35.075
21
-78.4375
0
LINE
8
0
10
21.575
20
-64.9375
11
21.575
21
-77.9375
0
LINE
8
0
10
35.575
20
-64.9375
11
35.575
21
-77.9375
0
ARC
8
0
10
22.075
20
-64.9375
40
0.5
50
90
51
180
0
ARC
8
0
10
35.075
20
-64.9375
40
0.5
50
0
51
90
0
ARC
8
0
10
22.075
20
-77.9375
40
0.5
50
180
51
270
0
ARC
8
0
10
35.075
20
-77.9375
40
0.5
50
270
51
0
0
LINE
8
0
10
41.125
20
-64.4375
11
54.125
21
-64.4375
0
LINE
8
0
10
41.125
20
-78.4375
11
54.125
21
-78.4375
0
LINE
8
0
10
40.625
20
-64.9375
11
40.625
21
-77.9375
0
LINE
8
0
10
54.625
20
-64.9375
11
54.625
21
-77.9375
0
ARC
8
0
10
41.125
20
-64.9375
40
0.5
50
90
51
180
0
ARC
8
0
10
54.125
20
-64.9375
40
0.5
50
0
51
90
0
ARC
8
0
10
41.125
20
-77.9375
40
0.5
50
180
51
270
0
ARC
8
0
10
54.125
20
-77.9375
40
0.5
50
270
51
0
0
LINE
8
0
10
3.025
20
-83.4875
11
16.025
21
-83.4875
0
LINE
8
0
10
3.025
20
-97.4875
11
16.025
21
-97.4875
0
LINE
8
0
10
2.525
20
-83.9875
11
2.525
21
-96.9875
0
LINE
8
0
10
16.525
20
-83.9875
11
16.525
21
-96.9875
0
ARC
8
0
10
3.025
20
-83.9875
40
0.5
50
90
51
180
0
ARC
8
0
10
16.025
20
-83.9875
40
0.5
50
0
51
90
0
ARC
8
0
10
3.025
20
-96.9875
40
0.5
50
180
51
270
0
ARC
8
0
10
16.025
20
-96.9875
40
0.5
50
270
51
0
0
LINE
8
0
10
22.075
20
-83.4875
11
35.075
21
-83.4875
0
LINE
8
0
10
22.075
20
-97.4875
11
35.075
21
-97.4875
0
LINE
8
0
10
21.575
20
-83.9875
11
21.575
21
-96.9875
0
LINE
8
0
10
35.575
20
-83.9875
11
35.575
21
-96.9875
0
ARC
8
0
10
22.075
20
-83.9875
40
0.5
50
90
51
180
0
ARC
8
0
10
35.075
20
-83.9875
40
0.5
50
0
51
90
0
ARC
8
0
10
22.075
20
-96.9875
40
0.5
50
180
51
270
0
ARC
8
0
10
35.075
20
-96.9875
40
0.5
50
270
51
0
0
LINE
8
0
10
41.125
20
-83.4875
11
54.125
21
-83.4875
0
LINE
8
0
10
41.125
20
-97.4875
11
54.125
21
-97.4875
0
LINE
8
0
10
40.625
20
-83.9875
11
40.625
21
-96.9875
0
LINE
8
0
10
54.625
20
-83.9875
11
54.625
21
-96.9875
0
ARC
8
0
10
41.125
20
-83.9875
40
0.5
50
90
51
180
0
ARC
8
0
10
54.125
20
-83.9875
40
0.5
50
0
51
90
0
ARC
8
0
10
41.125
20
-96.9875
40
0.5
50
180
51
270
0
ARC
8
0
10
54.125
20
-96.9875
40
0.5
50
270
51
0
0
LINE
8
0
10
73.675
20
-93.5125
11
73.675
21
-106.5125
0
LINE
8
0
10
59.675
20
-93.5125
11
59.675
21
-106.5125
0
LINE
8
0
10
73.175
20
-93.0125
11
60.175
21
-93.0125
0
LINE
8
0
10
73.175
20
-107.0125
11
60.175
21
-107.0125
0
ARC
8
0
10
73.175
20
-93.5125
40
0.5
50
0
51
90
0
ARC
8
0
10
73.175
20
-106.5125
40
0.5
50
270
51
0
0
ARC
8
0
10
60.175
20
-93.5125
40
0.5
50
90
51
180
0
ARC
8
0
10
60.175
20
-106.5125
40
0.5
50
180
51
270
0
LINE
8
0
10
72.675
20
-85.0745
11
72.675
21
-91.0745
0
LINE
8
0
10
57.675
20
-85.0745
11
57.675
21
-91.0745
0
LINE
8
0
10
72.175
20
-84.5745
11
58.175
21
-84.5745
0
LINE
8
0
10
72.175
20
-91.5745
11
58.175
21
-91.5745
0
ARC
8
0
10
72.175
20
-85.0745
40
0.5
50
0
51
90
0
ARC
8
0
10
72.175
20
-91.0745
40
0.5
50
270
51
0
0
ARC
8
0
10
58.175
20
-85.0745
40
0.5
50
90
51
180
0
ARC
8
0
10
58.175
20
-91.0745
40
0.5
50
180
51
270
0
LINE
8
0
10
72.675
20
-108.9505
11
72.675
21
-114.9505
0
LINE
8
0
10
57.675
20
-108.9505
11
57.675
21
-114.9505
0
LINE
8
0
10
72.175
20
-108.4505
11
58.175
21
-108.4505
0
LINE
8
0
10
72.175
20
-115.4505
11
58.175
21
-115.4505
0
ARC
8
0
10
72.175
20
-108.9505
40
0.5
50
0
51
90
0
ARC
8
0
10
72.175
20
-114.9505
40
0.5
50
270
51
0
0
ARC
8
0
10
58.175
20
-108.9505
40
0.5
50
90
51
180
0
ARC
8
0
10
58.175
20
-114.9505
40
0.5
50
180
51
270
0
LINE
8
0
10
12.55
20
-102.5375
11
25.55
21
-102.5375
0
LINE
8
0
10
12.55
20
-116.5375
11
25.55
21
-116.5375
0
LINE
8
0
10
12.05
20
-103.0375
11
12.05
21
-116.0375
0
LINE
8
0
10
26.05
20
-103.0375
11
26.05
21
-116.0375
0
ARC
8
0
10
12.55
20
-103.0375
40
0.5
50
90
51
180
0
ARC
8
0
10
25.55
20
-103.0375
40
0.5
50
0
51
90
0
ARC
8
0
10
12.55
20
-116.0375
40
0.5
50
180
51
270
0
ARC
8
0
10
25.55
20
-116.0375
40
0.5
50
270
51
0
0
LINE
8
0
10
4.112
20
-103.5375
11
10.112
21
-103.5375
0
LINE
8
0
10
4.112
20
-118.5375
11
10.112
21
-118.5375
0
LINE
8
0
10
3.612
20
-104.0375
11
3.612
21
-118.0375
0
LINE
8
0
10
10.612
20
-104.0375
11
10.612
21
-118.0375
0
ARC
8
0
10
4.112
20
-104.0375
40
0.5
50
90
51
180
0
ARC
8
0
10
10.112
20
-104.0375
40
0.5
50
0
51
90
0
ARC
8
0
10
4.112
20
-118.0375
40
0.5
50
180
51
270
0
ARC
8
0
10
10.112
20
-118.0375
40
0.5
50
270
51
0
0
LINE
8
0
10
27.988
20
-103.5375
11
33.988
21
-103.5375
0
LINE
8
0
10
27.988
20
-118.5375
11
33.988
21
-118.5375
0
LINE
8
0
10
27.488
20
-104.0375
11
27.488
21
-118.0375
0
LINE
8
0
10
34.488
20
-104.0375
11
34.488
21
-118.0375
0
ARC
8
0
10
27.988
20
-104.0375
40
0.5
50
90
51
180
0
ARC
8
0
10
33.988
20
-104.0375
40
0.5
50
0
51
90
0
ARC
8
0
10
27.988
20
-118.0375
40
0.5
50
180
51
270
0
ARC
8
0
10
33.988
20
-118.0375
40
0.5
50
270
51
0
0
LINE
8
0
10
41.125
20
-102.5375
11
54.125
21
-102.5375
0
LINE
8
0
10
41.125
20
-116.5375
11
54.125
21
-116.5375
0
LINE
8
0
10
40.625
20
-103.0375
11
40.625
21
-116.0375
0
LINE
8
0
10
54.625
20
-103.0375
11
54.625
21
-116.0375
0
ARC
8
0
10
41.125
20
-103.0375
40
0.5
50
90
51
180
0
ARC
8
0
10
54.125
20
-103.0375
40
0.5
50
0
51
90
0
ARC
8
0
10
41.125
20
-116.0375
40
0.5
50
180
51
270
0
ARC
8
0
10
54.125
20
-116.0375
40
0.5
50
270
51
0
0
LINE
8
0
10
0
20
-119.0625
11
76.2
21
-119.0625
0
LINE
8
0
10
0
20
0
11
76.2
21
0
0
LINE
8
0
10
0
20
-119.0625
11
0
21
0
0
LINE
8
0
10
76.2
20
-119.0625
11
76.2
21
0
0
ENDSEC
0
EOF