  0
SECTION
  2
HEADER
  9
$ACADVER
  1
AC1032
  9
$ACADMAINTVER
 90
      174
  9
$DWGCODEPAGE
  3
ANSI_1251
  9
$LASTSAVEDBY
  1
Greenevsky
  9
$REQUIREDVERSIONS
160
                 0
  9
$INSBASE
 10
0.0
 20
0.0
 30
0.0
  9
$EXTMIN
 10
-5.355997681621374
 20
-28.8934338655763
 30
0.0
  9
$EXTMAX
 10
298.7000000000002
 20
1410.974999999999
 30
0.0
  9
$LIMMIN
 10
0.0
 20
0.0
  9
$LIMMAX
 10
12.0
 20
9.0
  9
$ORTHOMODE
 70
     0
  9
$REGENMODE
 70
     1
  9
$FILLMODE
 70
     0
  9
$QTEXTMODE
 70
     0
  9
$MIRRTEXT
 70
     0
  9
$LTSCALE
 40
1.0
  9
$ATTMODE
 70
     1
  9
$TEXTSIZE
 40
0.2
  9
$TRACEWID
 40
0.05
  9
$TEXTSTYLE
  7
Standard
  9
$CLAYER
  8
0
  9
$CELTYPE
  6
Continuous
  9
$CECOLOR
 62
   256
  9
$CELTSCALE
 40
1.0
  9
$DISPSILH
 70
     0
  9
$DIMSCALE
 40
1.0
  9
$DIMASZ
 40
0.18
  9
$DIMEXO
 40
0.0625
  9
$DIMDLI
 40
0.38
  9
$DIMRND
 40
0.0
  9
$DIMDLE
 40
0.0
  9
$DIMEXE
 40
0.18
  9
$DIMTP
 40
0.0
  9
$DIMTM
 40
0.0
  9
$DIMTXT
 40
0.18
  9
$DIMCEN
 40
0.09
  9
$DIMTSZ
 40
0.0
  9
$DIMTOL
 70
     0
  9
$DIMLIM
 70
     0
  9
$DIMTIH
 70
     1
  9
$DIMTOH
 70
     1
  9
$DIMSE1
 70
     0
  9
$DIMSE2
 70
     0
  9
$DIMTAD
 70
     0
  9
$DIMZIN
 70
     0
  9
$DIMBLK
  1

  9
$DIMASO
 70
     1
  9
$DIMSHO
 70
     1
  9
$DIMPOST
  1

  9
$DIMAPOST
  1

  9
$DIMALT
 70
     0
  9
$DIMALTD
 70
     2
  9
$DIMALTF
 40
25.4
  9
$DIMLFAC
 40
1.0
  9
$DIMTOFL
 70
     0
  9
$DIMTVP
 40
0.0
  9
$DIMTIX
 70
     0
  9
$DIMSOXD
 70
     0
  9
$DIMSAH
 70
     0
  9
$DIMBLK1
  1

  9
$DIMBLK2
  1

  9
$DIMSTYLE
  2
Standard
  9
$DIMCLRD
 70
     0
  9
$DIMCLRE
 70
     0
  9
$DIMCLRT
 70
     0
  9
$DIMTFAC
 40
1.0
  9
$DIMGAP
 40
0.09
  9
$DIMJUST
 70
     0
  9
$DIMSD1
 70
     0
  9
$DIMSD2
 70
     0
  9
$DIMTOLJ
 70
     1
  9
$DIMTZIN
 70
     0
  9
$DIMALTZ
 70
     0
  9
$DIMALTTZ
 70
     0
  9
$DIMUPT
 70
     0
  9
$DIMDEC
 70
     4
  9
$DIMTDEC
 70
     4
  9
$DIMALTU
 70
     2
  9
$DIMALTTD
 70
     2
  9
$DIMTXSTY
  7
Standard
  9
$DIMAUNIT
 70
     0
  9
$DIMADEC
 70
     0
  9
$DIMALTRND
 40
0.0
  9
$DIMAZIN
 70
     0
  9
$DIMDSEP
 70
    46
  9
$DIMATFIT
 70
     3
  9
$DIMFRAC
 70
     0
  9
$DIMLDRBLK
  1

  9
$DIMLUNIT
 70
     2
  9
$DIMLWD
 70
    -2
  9
$DIMLWE
 70
    -2
  9
$DIMTMOVE
 70
     0
  9
$DIMFXL
 40
1.0
  9
$DIMFXLON
 70
     0
  9
$DIMJOGANG
 40
0.7853981633974483
  9
$DIMTFILL
 70
     0
  9
$DIMTFILLCLR
 70
     0
  9
$DIMARCSYM
 70
     0
  9
$DIMLTYPE
  6

  9
$DIMLTEX1
  6

  9
$DIMLTEX2
  6

  9
$DIMTXTDIRECTION
 70
     0
  9
$LUNITS
 70
     2
  9
$LUPREC
 70
     4
  9
$SKETCHINC
 40
0.1
  9
$FILLETRAD
 40
2.0
  9
$AUNITS
 70
     0
  9
$AUPREC
 70
     0
  9
$MENU
  1
.
  9
$ELEVATION
 40
0.0
  9
$PELEVATION
 40
0.0
  9
$THICKNESS
 40
0.0
  9
$LIMCHECK
 70
     0
  9
$CHAMFERA
 40
0.0
  9
$CHAMFERB
 40
0.0
  9
$CHAMFERC
 40
0.0
  9
$CHAMFERD
 40
0.0
  9
$SKPOLY
 70
     0
  9
$TDCREATE
 40
2459482.611990741
  9
$TDUCREATE
 40
2459482.486990741
  9
$TDUPDATE
 40
2459514.968657408
  9
$TDUUPDATE
 40
2459514.843657407
  9
$TDINDWG
 40
0.5517476852
  9
$TDUSRTIMER
 40
0.5517245370
  9
$USRTIMER
 70
     1
  9
$ANGBASE
 50
0.0
  9
$ANGDIR
 70
     0
  9
$PDMODE
 70
     0
  9
$PDSIZE
 40
0.0
  9
$PLINEWID
 40
0.0
  9
$SPLFRAME
 70
     1
  9
$SPLINETYPE
 70
     6
  9
$SPLINESEGS
 70
     8
  9
$HANDSEED
  5
1353
  9
$SURFTAB1
 70
     6
  9
$SURFTAB2
 70
     6
  9
$SURFTYPE
 70
     6
  9
$SURFU
 70
     6
  9
$SURFV
 70
     6
  9
$UCSBASE
  2

  9
$UCSNAME
  2

  9
$UCSORG
 10
0.0
 20
0.0
 30
0.0
  9
$UCSXDIR
 10
1.0
 20
0.0
 30
0.0
  9
$UCSYDIR
 10
0.0
 20
1.0
 30
0.0
  9
$UCSORTHOREF
  2

  9
$UCSORTHOVIEW
 70
     0
  9
$UCSORGTOP
 10
0.0
 20
0.0
 30
0.0
  9
$UCSORGBOTTOM
 10
0.0
 20
0.0
 30
0.0
  9
$UCSORGLEFT
 10
0.0
 20
0.0
 30
0.0
  9
$UCSORGRIGHT
 10
0.0
 20
0.0
 30
0.0
  9
$UCSORGFRONT
 10
0.0
 20
0.0
 30
0.0
  9
$UCSORGBACK
 10
0.0
 20
0.0
 30
0.0
  9
$PUCSBASE
  2

  9
$PUCSNAME
  2

  9
$PUCSORG
 10
0.0
 20
0.0
 30
0.0
  9
$PUCSXDIR
 10
1.0
 20
0.0
 30
0.0
  9
$PUCSYDIR
 10
0.0
 20
1.0
 30
0.0
  9
$PUCSORTHOREF
  2

  9
$PUCSORTHOVIEW
 70
     0
  9
$PUCSORGTOP
 10
0.0
 20
0.0
 30
0.0
  9
$PUCSORGBOTTOM
 10
0.0
 20
0.0
 30
0.0
  9
$PUCSORGLEFT
 10
0.0
 20
0.0
 30
0.0
  9
$PUCSORGRIGHT
 10
0.0
 20
0.0
 30
0.0
  9
$PUCSORGFRONT
 10
0.0
 20
0.0
 30
0.0
  9
$PUCSORGBACK
 10
0.0
 20
0.0
 30
0.0
  9
$USERI1
 70
     0
  9
$USERI2
 70
     0
  9
$USERI3
 70
     0
  9
$USERI4
 70
     0
  9
$USERI5
 70
     0
  9
$USERR1
 40
0.0
  9
$USERR2
 40
0.0
  9
$USERR3
 40
0.0
  9
$USERR4
 40
0.0
  9
$USERR5
 40
0.0
  9
$WORLDVIEW
 70
     1
  9
$SHADEDGE
 70
     3
  9
$SHADEDIF
 70
    70
  9
$TILEMODE
 70
     1
  9
$MAXACTVP
 70
    64
  9
$PINSBASE
 10
0.0
 20
0.0
 30
0.0
  9
$PLIMCHECK
 70
     0
  9
$PEXTMIN
 10
1.000000000000000E+20
 20
1.000000000000000E+20
 30
1.000000000000000E+20
  9
$PEXTMAX
 10
-1.000000000000000E+20
 20
-1.000000000000000E+20
 30
-1.000000000000000E+20
  9
$PLIMMIN
 10
0.0
 20
0.0
  9
$PLIMMAX
 10
12.0
 20
9.0
  9
$UNITMODE
 70
     0
  9
$VISRETAIN
 70
     1
  9
$PLINEGEN
 70
     0
  9
$PSLTSCALE
 70
     1
  9
$TREEDEPTH
 70
  3020
  9
$CMLSTYLE
  2
Standard
  9
$CMLJUST
 70
     0
  9
$CMLSCALE
 40
1.0
  9
$PROXYGRAPHICS
 70
     1
  9
$MEASUREMENT
 70
     0
  9
$CELWEIGHT
370
    -1
  9
$ENDCAPS
280
     0
  9
$JOINSTYLE
280
     0
  9
$LWDISPLAY
290
     0
  9
$INSUNITS
 70
     0
  9
$HYPERLINKBASE
  1

  9
$STYLESHEET
  1

  9
$XEDIT
290
     1
  9
$CEPSNTYPE
380
     0
  9
$PSTYLEMODE
290
     1
  9
$FINGERPRINTGUID
  2
{6F052757-BA4A-2E41-9CA6-91206D721FFF}
  9
$VERSIONGUID
  2
{C40B6267-5B14-5241-87CE-92563B1BE5ED}
  9
$EXTNAMES
290
     1
  9
$PSVPSCALE
 40
0.0
  9
$OLESTARTUP
290
     0
  9
$SORTENTS
280
   127
  9
$INDEXCTL
280
     0
  9
$HIDETEXT
280
     0
  9
$XCLIPFRAME
280
     2
  9
$HALOGAP
280
     0
  9
$OBSCOLOR
 70
   257
  9
$OBSLTYPE
280
     0
  9
$INTERSECTIONDISPLAY
280
     0
  9
$INTERSECTIONCOLOR
 70
   257
  9
$DIMASSOC
280
     1
  9
$PROJECTNAME
  1

  9
$CAMERADISPLAY
290
     0
  9
$LENSLENGTH
 40
50.0
  9
$CAMERAHEIGHT
 40
0.0
  9
$STEPSPERSEC
 40
2.0
  9
$STEPSIZE
 40
6.0
  9
$3DDWFPREC
 40
2.0
  9
$PSOLWIDTH
 40
0.25
  9
$PSOLHEIGHT
 40
4.0
  9
$LOFTANG1
 40
1.570796326794896
  9
$LOFTANG2
 40
1.570796326794896
  9
$LOFTMAG1
 40
0.0
  9
$LOFTMAG2
 40
0.0
  9
$LOFTPARAM
 70
     7
  9
$LOFTNORMALS
280
     1
  9
$LATITUDE
 40
37.795
  9
$LONGITUDE
 40
-122.394
  9
$NORTHDIRECTION
 40
0.0
  9
$TIMEZONE
 70
 -8000
  9
$LIGHTGLYPHDISPLAY
280
     1
  9
$TILEMODELIGHTSYNCH
280
     1
  9
$CMATERIAL
347
11
  9
$SOLIDHIST
280
     0
  9
$SHOWHIST
280
     1
  9
$DWFFRAME
280
     2
  9
$DGNFRAME
280
     0
  9
$REALWORLDSCALE
290
     1
  9
$INTERFERECOLOR
 62
     1
  9
$INTERFEREOBJVS
345
33
  9
$INTERFEREVPVS
346
30
  9
$CSHADOW
280
     0
  9
$SHADOWPLANELOCATION
 40
0.0
  0
ENDSEC
  0
SECTION
  2
CLASSES
  0
CLASS
  1
ACDBDICTIONARYWDFLT
  2
AcDbDictionaryWithDefault
  3
ObjectDBX Classes
 90
        0
 91
        1
280
     0
281
     0
  0
CLASS
  1
MATERIAL
  2
AcDbMaterial
  3
ObjectDBX Classes
 90
     1153
 91
        3
280
     0
281
     0
  0
CLASS
  1
VISUALSTYLE
  2
AcDbVisualStyle
  3
ObjectDBX Classes
 90
     4095
 91
       24
280
     0
281
     0
  0
CLASS
  1
SCALE
  2
AcDbScale
  3
ObjectDBX Classes
 90
     1153
 91
       17
280
     0
281
     0
  0
CLASS
  1
TABLESTYLE
  2
AcDbTableStyle
  3
ObjectDBX Classes
 90
     4095
 91
        1
280
     0
281
     0
  0
CLASS
  1
MLEADERSTYLE
  2
AcDbMLeaderStyle
  3
ACDB_MLEADERSTYLE_CLASS
 90
     4095
 91
        1
280
     0
281
     0
  0
CLASS
  1
ACDBSECTIONVIEWSTYLE
  2
AcDbSectionViewStyle
  3
ObjectDBX Classes
 90
     1025
 91
        1
280
     0
281
     0
  0
CLASS
  1
ACDBDETAILVIEWSTYLE
  2
AcDbDetailViewStyle
  3
ObjectDBX Classes
 90
     1025
 91
        1
280
     0
281
     0
  0
CLASS
  1
DICTIONARYVAR
  2
AcDbDictionaryVar
  3
ObjectDBX Classes
 90
        0
 91
        9
280
     0
281
     0
  0
CLASS
  1
CELLSTYLEMAP
  2
AcDbCellStyleMap
  3
ObjectDBX Classes
 90
     1152
 91
        3
280
     0
281
     0
  0
CLASS
  1
RASTERVARIABLES
  2
AcDbRasterVariables
  3
ISM
 90
        0
 91
        1
280
     0
281
     0
  0
CLASS
  1
IMAGEDEF
  2
AcDbRasterImageDef
  3
ISM
 90
        0
 91
        0
280
     0
281
     0
  0
CLASS
  1
IMAGEDEF_REACTOR
  2
AcDbRasterImageDefReactor
  3
ISM
 90
        1
 91
        0
280
     0
281
     0
  0
CLASS
  1
IMAGE
  2
AcDbRasterImage
  3
ISM
 90
     2175
 91
        0
280
     0
281
     1
  0
CLASS
  1
SORTENTSTABLE
  2
AcDbSortentsTable
  3
ObjectDBX Classes
 90
        0
 91
        1
280
     0
281
     0
  0
CLASS
  1
EXACXREFPANELOBJECT
  2
ExAcXREFPanelObject
  3
EXAC_ESW
 90
     1025
 91
        0
280
     0
281
     0
  0
CLASS
  1
NPOCOLLECTION
  2
AcDbImpNonPersistentObjectsCollection
  3
ObjectDBX Classes
 90
     1153
 91
        0
280
     0
281
     0
  0
CLASS
  1
RAPIDRTRENDERSETTINGS
  2
AcDbRapidRTRenderSettings
  3
ObjectDBX Classes
 90
     1024
 91
        7
280
     0
281
     0
  0
ENDSEC
  0
SECTION
  2
TABLES
  0
TABLE
  2
VPORT
  5
8
330
0
100
AcDbSymbolTable
 70
     1
  0
VPORT
  5
74
330
8
100
AcDbSymbolTableRecord
100
AcDbViewportTableRecord
  2
*Active
 70
     0
 10
0.0
 20
0.0
 11
1.0
 21
1.0
 12
134.7078628102335
 22
682.5104470855286
 13
0.0
 23
0.0
 14
1.0
 24
1.0
 15
0.0
 25
0.0
 16
0.0
 26
0.0
 36
1.0
 17
0.0
 27
0.0
 37
0.0
 40
1753.706928779566
 41
2.190639269406392
 42
50.0
 43
0.0
 44
0.0
 50
0.0
 51
0.0
 71
     0
 72
   100
 73
     1
 74
     1
 75
     0
 76
     1
 77
     0
 78
     1
281
     0
 65
     1
110
0.0
120
0.0
130
0.0
111
1.0
121
0.0
131
0.0
112
0.0
122
1.0
132
0.0
 79
     0
146
0.0
348
2F
 60
     3
 61
     5
292
     1
282
     1
141
0.0
142
0.0
 63
   250
421
  3355443
1001
ACAD_NAV_VCDISPLAY
1070
     3
  0
ENDTAB
  0
TABLE
  2
LTYPE
  5
5
330
0
100
AcDbSymbolTable
 70
     2
  0
LTYPE
  5
5A
330
5
100
AcDbSymbolTableRecord
100
AcDbLinetypeTableRecord
  2
ByBlock
 70
     0
  3

 72
    65
 73
     0
 40
0.0
  0
LTYPE
  5
5B
330
5
100
AcDbSymbolTableRecord
100
AcDbLinetypeTableRecord
  2
ByLayer
 70
     0
  3

 72
    65
 73
     0
 40
0.0
  0
LTYPE
  5
5C
330
5
100
AcDbSymbolTableRecord
100
AcDbLinetypeTableRecord
  2
Continuous
 70
     0
  3
Solid line
 72
    65
 73
     0
 40
0.0
  0
ENDTAB
  0
TABLE
  2
LAYER
  5
2
102
{ACAD_XDICTIONARY
360
22B
102
}
330
0
100
AcDbSymbolTable
 70
     1
  0
LAYER
  5
54
102
{ACAD_XDICTIONARY
360
216
102
}
330
2
100
AcDbSymbolTableRecord
100
AcDbLayerTableRecord
  2
0
 70
     0
 62
     7
  6
Continuous
370
    -3
390
F
347
21
348
0
  0
ENDTAB
  0
TABLE
  2
STYLE
  5
3
330
0
100
AcDbSymbolTable
 70
     2
  0
STYLE
  5
55
330
3
100
AcDbSymbolTableRecord
100
AcDbTextStyleTableRecord
  2
Standard
 70
     0
 40
0.0
 41
1.0
 50
0.0
 71
     0
 42
0.2
  3
txt
  4

  0
STYLE
  5
59
330
3
100
AcDbSymbolTableRecord
100
AcDbTextStyleTableRecord
  2
Annotative
 70
     0
 40
0.0
 41
1.0
 50
0.0
 71
     0
 42
0.2
  3
txt
  4

1001
AcadAnnotative
1000
AnnotativeData
1002
{
1070
     1
1070
     1
1002
}
  0
ENDTAB
  0
TABLE
  2
VIEW
  5
6
330
0
100
AcDbSymbolTable
 70
     1
  0
ENDTAB
  0
TABLE
  2
UCS
  5
7
330
0
100
AcDbSymbolTable
 70
     0
  0
ENDTAB
  0
TABLE
  2
APPID
  5
9
330
0
100
AcDbSymbolTable
 70
     4
  0
APPID
  5
56
330
9
100
AcDbSymbolTableRecord
100
AcDbRegAppTableRecord
  2
ACAD
 70
     0
  0
APPID
  5
5D
330
9
100
AcDbSymbolTableRecord
100
AcDbRegAppTableRecord
  2
AcadAnnotative
 70
     0
  0
APPID
  5
20F
330
9
100
AcDbSymbolTableRecord
100
AcDbRegAppTableRecord
  2
ACAD_EXEMPT_FROM_CAD_STANDARDS
 70
     0
  0
APPID
  5
222
330
9
100
AcDbSymbolTableRecord
100
AcDbRegAppTableRecord
  2
ACAD_NAV_VCDISPLAY
 70
     0
  0
ENDTAB
  0
TABLE
  2
DIMSTYLE
  5
A
330
0
100
AcDbSymbolTable
 70
     3
100
AcDbDimStyleTable
 71
     1
340
57
  0
DIMSTYLE
105
57
330
A
100
AcDbSymbolTableRecord
100
AcDbDimStyleTableRecord
  2
Standard
 70
     0
340
55
  0
DIMSTYLE
105
58
330
A
100
AcDbSymbolTableRecord
100
AcDbDimStyleTableRecord
  2
Annotative
 70
     0
340
55
1001
AcadAnnotative
1000
AnnotativeData
1002
{
1070
     1
1070
     1
1002
}
  0
ENDTAB
  0
TABLE
  2
BLOCK_RECORD
  5
1
330
0
100
AcDbSymbolTable
 70
     1
  0
BLOCK_RECORD
  5
6F
102
{ACAD_XDICTIONARY
360
396
102
}
330
1
100
AcDbSymbolTableRecord
100
AcDbBlockTableRecord
  2
*Model_Space
340
72
 70
     0
280
     1
281
     0
  0
BLOCK_RECORD
  5
6B
330
1
100
AcDbSymbolTableRecord
100
AcDbBlockTableRecord
  2
*Paper_Space
340
6E
 70
     0
280
     1
281
     0
  0
ENDTAB
  0
ENDSEC
  0
SECTION
  2
BLOCKS
  0
BLOCK
  5
70
330
6F
100
AcDbEntity
  8
0
100
AcDbBlockBegin
  2
*Model_Space
 70
     0
 10
0.0
 20
0.0
 30
0.0
  3
*Model_Space
  1

  0
ENDBLK
  5
71
330
6F
100
AcDbEntity
  8
0
100
AcDbBlockEnd
  0
BLOCK
  5
6C
330
6B
100
AcDbEntity
 67
     1
  8
0
100
AcDbBlockBegin
  2
*Paper_Space
 70
     0
 10
0.0
 20
0.0
 30
0.0
  3
*Paper_Space
  1

  0
ENDBLK
  5
6D
330
6B
100
AcDbEntity
 67
     1
  8
0
100
AcDbBlockEnd
  0
ENDSEC
  0
SECTION
  2
ENTITIES
  0
LINE
  5
F5C
330
6F
100
AcDbEntity
  8
0
  6
Continuous
100
AcDbLine
 10
6.139040045797969
 20
1100.974999999999
 30
0.0
 11
39.63904004579808
 21
1100.974999999999
 31
0.0
  0
LINE
  5
F5D
330
6F
100
AcDbEntity
  8
0
  6
Continuous
100
AcDbLine
 10
64.63904004579785
 20
1100.974999999999
 30
0.0
 11
135.9890400457981
 21
1100.974999999998
 31
0.0
  0
LINE
  5
F5E
330
6F
100
AcDbEntity
  8
0
  6
Continuous
100
AcDbLine
 10
160.9890400457981
 20
1100.974999999998
 30
0.0
 11
232.3390400457981
 21
1100.974999999999
 31
0.0
  0
LINE
  5
F5F
330
6F
100
AcDbEntity
  8
0
  6
Continuous
100
AcDbLine
 10
257.3390400457981
 20
1100.974999999999
 30
0.0
 11
290.8390400457981
 21
1100.974999999999
 31
0.0
  0
LINE
  5
F60
330
6F
100
AcDbEntity
  8
0
  6
Continuous
100
AcDbLine
 10
4.139040045797968
 20
1098.974999999999
 30
0.0
 11
4.139040045798083
 21
980.9624999999988
 31
0.0
  0
ARC
  5
F61
330
6F
100
AcDbEntity
  8
0
  6
Continuous
100
AcDbCircle
 10
6.139040045797969
 20
1098.974999999999
 30
0.0
 40
2.0
100
AcDbArc
 50
90.0
 51
180.0
  0
ARC
  5
F62
330
6F
100
AcDbEntity
  8
0
  6
Continuous
100
AcDbCircle
 10
6.139040045798082
 20
980.9624999999988
 30
0.0
 40
2.0
100
AcDbArc
 50
180.0
 51
270.0
  0
LINE
  5
F63
330
6F
100
AcDbEntity
  8
0
  6
Continuous
100
AcDbLine
 10
292.8390400457981
 20
1098.974999999999
 30
0.0
 11
292.8390400457981
 21
980.9624999999988
 31
0.0
  0
ARC
  5
F64
330
6F
100
AcDbEntity
  8
0
  6
Continuous
100
AcDbCircle
 10
290.8390400457981
 20
980.9624999999988
 30
0.0
 40
2.0
100
AcDbArc
 50
270.0
 51
0.0
  0
ARC
  5
F65
330
6F
100
AcDbEntity
  8
0
  6
Continuous
100
AcDbCircle
 10
290.8390400457981
 20
1098.974999999999
 30
0.0
 40
2.0
100
AcDbArc
 50
0.0
 51
90.0
  0
LINE
  5
F66
330
6F
100
AcDbEntity
  8
0
  6
Continuous
100
AcDbLine
 10
290.8390400457981
 20
978.962499999999
 30
0.0
 11
257.3390400457981
 21
978.962499999999
 31
0.0
  0
LINE
  5
F67
330
6F
100
AcDbEntity
  8
0
  6
Continuous
100
AcDbLine
 10
232.3390400457981
 20
978.962499999999
 30
0.0
 11
160.989040045798
 21
978.962499999999
 31
0.0
  0
LINE
  5
F68
330
6F
100
AcDbEntity
  8
0
  6
Continuous
100
AcDbLine
 10
135.9890400457981
 20
978.962499999999
 30
0.0
 11
64.63904004579808
 21
978.962499999999
 31
0.0
  0
LINE
  5
F69
330
6F
100
AcDbEntity
  8
0
  6
Continuous
100
AcDbLine
 10
39.63904004579808
 20
978.962499999999
 30
0.0
 11
6.139040045798082
 21
978.962499999999
 31
0.0
  0
LINE
  5
F6A
330
6F
100
AcDbEntity
  8
0
  6
Continuous
100
AcDbLine
 10
135.9890400457981
 20
1100.974999999999
 30
0.0
 11
135.9890400457981
 21
1105.974999999999
 31
0.0
  0
LINE
  5
F6B
330
6F
100
AcDbEntity
  8
0
  6
Continuous
100
AcDbLine
 10
135.9890400457981
 20
1105.974999999999
 30
0.0
 11
160.9890400457981
 21
1105.974999999999
 31
0.0
  0
LINE
  5
F6C
330
6F
100
AcDbEntity
  8
0
  6
Continuous
100
AcDbLine
 10
160.9890400457981
 20
1105.974999999999
 30
0.0
 11
160.9890400457981
 21
1100.974999999999
 31
0.0
  0
LINE
  5
F6D
330
6F
100
AcDbEntity
  8
0
  6
Continuous
100
AcDbLine
 10
160.9890400457981
 20
973.9624999999987
 30
0.0
 11
135.9890400457981
 21
973.9624999999987
 31
0.0
  0
LINE
  5
F6E
330
6F
100
AcDbEntity
  8
0
  6
Continuous
100
AcDbLine
 10
135.9890400457981
 20
973.9624999999987
 30
0.0
 11
135.9890400457981
 21
978.962499999999
 31
0.0
  0
LINE
  5
F6F
330
6F
100
AcDbEntity
  8
0
  6
Continuous
100
AcDbLine
 10
160.9890400457981
 20
973.9624999999987
 30
0.0
 11
160.9890400457981
 21
978.962499999999
 31
0.0
  0
LINE
  5
F70
330
6F
100
AcDbEntity
  8
0
  6
Continuous
100
AcDbLine
 10
39.63904004579797
 20
1100.974999999999
 30
0.0
 11
39.63904004579797
 21
1105.974999999999
 31
0.0
  0
LINE
  5
F71
330
6F
100
AcDbEntity
  8
0
  6
Continuous
100
AcDbLine
 10
39.63904004579797
 20
1105.974999999999
 30
0.0
 11
64.63904004579785
 21
1105.974999999999
 31
0.0
  0
LINE
  5
F72
330
6F
100
AcDbEntity
  8
0
  6
Continuous
100
AcDbLine
 10
64.63904004579785
 20
1105.974999999999
 30
0.0
 11
64.63904004579785
 21
1100.974999999999
 31
0.0
  0
LINE
  5
F73
330
6F
100
AcDbEntity
  8
0
  6
Continuous
100
AcDbLine
 10
64.63904004579785
 20
973.9624999999987
 30
0.0
 11
39.63904004579797
 21
973.9624999999987
 31
0.0
  0
LINE
  5
F74
330
6F
100
AcDbEntity
  8
0
  6
Continuous
100
AcDbLine
 10
39.63904004579797
 20
973.9624999999987
 30
0.0
 11
39.63904004579797
 21
978.962499999999
 31
0.0
  0
LINE
  5
F75
330
6F
100
AcDbEntity
  8
0
  6
Continuous
100
AcDbLine
 10
64.63904004579785
 20
973.9624999999987
 30
0.0
 11
64.63904004579785
 21
978.962499999999
 31
0.0
  0
LINE
  5
F76
330
6F
100
AcDbEntity
  8
0
  6
Continuous
100
AcDbLine
 10
232.3390400457981
 20
1100.974999999999
 30
0.0
 11
232.3390400457981
 21
1105.974999999999
 31
0.0
  0
LINE
  5
F77
330
6F
100
AcDbEntity
  8
0
  6
Continuous
100
AcDbLine
 10
232.3390400457981
 20
1105.974999999999
 30
0.0
 11
257.3390400457981
 21
1105.974999999999
 31
0.0
  0
LINE
  5
F78
330
6F
100
AcDbEntity
  8
0
  6
Continuous
100
AcDbLine
 10
257.3390400457981
 20
1105.974999999999
 30
0.0
 11
257.3390400457981
 21
1100.974999999999
 31
0.0
  0
LINE
  5
F79
330
6F
100
AcDbEntity
  8
0
  6
Continuous
100
AcDbLine
 10
257.3390400457981
 20
973.9624999999987
 30
0.0
 11
232.3390400457981
 21
973.9624999999987
 31
0.0
  0
LINE
  5
F7A
330
6F
100
AcDbEntity
  8
0
  6
Continuous
100
AcDbLine
 10
232.3390400457981
 20
973.9624999999987
 30
0.0
 11
232.3390400457981
 21
978.962499999999
 31
0.0
  0
LINE
  5
F7B
330
6F
100
AcDbEntity
  8
0
  6
Continuous
100
AcDbLine
 10
257.3390400457981
 20
973.9624999999987
 30
0.0
 11
257.3390400457981
 21
978.962499999999
 31
0.0
  0
LINE
  5
F80
330
6F
100
AcDbEntity
  8
0
  6
Continuous
100
AcDbLine
 10
297.8390400457979
 20
976.4624999999988
 30
0.0
 11
297.8390400457982
 21
1103.474999999999
 31
0.0
  0
LINE
  5
F81
330
6F
100
AcDbEntity
  8
0
  6
Continuous
100
AcDbLine
 10
6.639040045797969
 20
968.9624999999987
 30
0.0
 11
290.3390400457979
 21
968.9624999999987
 31
0.0
  0
LINE
  5
F82
330
6F
100
AcDbEntity
  8
0
  6
Continuous
100
AcDbLine
 10
-0.8609599542020305
 20
1103.474999999999
 30
0.0
 11
-0.8609599542020305
 21
976.4624999999986
 31
0.0
  0
LINE
  5
F83
330
6F
100
AcDbEntity
  8
0
  6
Continuous
100
AcDbLine
 10
290.3390400457983
 20
1110.974999999998
 30
0.0
 11
6.639040045797969
 21
1110.974999999998
 31
0.0
  0
ARC
  5
F84
330
6F
100
AcDbEntity
  8
0
  6
Continuous
100
AcDbCircle
 10
290.3390400457979
 20
976.4624999999988
 30
0.0
 40
7.5
100
AcDbArc
 50
270.0
 51
359.9999999999998
  0
ARC
  5
F85
330
6F
100
AcDbEntity
  8
0
  6
Continuous
100
AcDbCircle
 10
290.3390400457983
 20
1103.474999999999
 30
0.0
 40
7.5
100
AcDbArc
 50
359.9999999999998
 51
90.0
  0
ARC
  5
F86
330
6F
100
AcDbEntity
  8
0
  6
Continuous
100
AcDbCircle
 10
6.639040045797969
 20
1103.474999999999
 30
0.0
 40
7.5
100
AcDbArc
 50
90.0
 51
180.0
  0
ARC
  5
F87
330
6F
100
AcDbEntity
  8
0
  6
Continuous
100
AcDbCircle
 10
6.639040045797969
 20
976.4624999999986
 30
0.0
 40
7.5
100
AcDbArc
 50
180.0
 51
270.0
  0
CIRCLE
  5
F8C
330
6F
100
AcDbEntity
  8
0
  6
Continuous
100
AcDbCircle
 10
11.13904004579797
 20
1105.974999999999
 30
0.0
 40
2.0
  0
CIRCLE
  5
F8D
330
6F
100
AcDbEntity
  8
0
  6
Continuous
100
AcDbCircle
 10
100.314040045798
 20
1105.974999999999
 30
0.0
 40
2.0
  0
CIRCLE
  5
F8E
330
6F
100
AcDbEntity
  8
0
  6
Continuous
100
AcDbCircle
 10
196.6640400457982
 20
1105.974999999999
 30
0.0
 40
2.0
  0
CIRCLE
  5
F8F
330
6F
100
AcDbEntity
  8
0
  6
Continuous
100
AcDbCircle
 10
285.8390400457981
 20
1105.974999999999
 30
0.0
 40
2.0
  0
CIRCLE
  5
F91
330
6F
100
AcDbEntity
  8
0
  6
Continuous
100
AcDbCircle
 10
11.13904004579797
 20
973.9624999999987
 30
0.0
 40
2.0
  0
CIRCLE
  5
F92
330
6F
100
AcDbEntity
  8
0
  6
Continuous
100
AcDbCircle
 10
100.314040045798
 20
973.9624999999987
 30
0.0
 40
2.0
  0
CIRCLE
  5
F93
330
6F
100
AcDbEntity
  8
0
  6
Continuous
100
AcDbCircle
 10
196.6640400457982
 20
973.9624999999987
 30
0.0
 40
2.0
  0
CIRCLE
  5
F94
330
6F
100
AcDbEntity
  8
0
  6
Continuous
100
AcDbCircle
 10
285.8390400457981
 20
973.9624999999987
 30
0.0
 40
2.0
  0
LINE
  5
F95
330
6F
100
AcDbEntity
  8
0
  6
Continuous
100
AcDbLine
 10
6.139040045797969
 20
1250.974999999999
 30
0.0
 11
290.8390400457981
 21
1250.974999999999
 31
0.0
  0
LINE
  5
F99
330
6F
100
AcDbEntity
  8
0
  6
Continuous
100
AcDbLine
 10
4.139040045797968
 20
1248.974999999999
 30
0.0
 11
4.139040045798083
 21
1130.962499999998
 31
0.0
  0
ARC
  5
F9A
330
6F
100
AcDbEntity
  8
0
  6
Continuous
100
AcDbCircle
 10
6.139040045797969
 20
1248.974999999999
 30
0.0
 40
2.0
100
AcDbArc
 50
90.0
 51
180.0
  0
ARC
  5
F9B
330
6F
100
AcDbEntity
  8
0
  6
Continuous
100
AcDbCircle
 10
6.139040045798082
 20
1130.962499999998
 30
0.0
 40
2.0
100
AcDbArc
 50
180.0
 51
270.0
  0
LINE
  5
F9C
330
6F
100
AcDbEntity
  8
0
  6
Continuous
100
AcDbLine
 10
292.8390400457981
 20
1248.974999999999
 30
0.0
 11
292.8390400457981
 21
1130.962499999998
 31
0.0
  0
ARC
  5
F9D
330
6F
100
AcDbEntity
  8
0
  6
Continuous
100
AcDbCircle
 10
290.8390400457981
 20
1130.962499999998
 30
0.0
 40
2.0
100
AcDbArc
 50
270.0
 51
0.0
  0
ARC
  5
F9E
330
6F
100
AcDbEntity
  8
0
  6
Continuous
100
AcDbCircle
 10
290.8390400457981
 20
1248.974999999999
 30
0.0
 40
2.0
100
AcDbArc
 50
0.0
 51
90.0
  0
LINE
  5
FA2
330
6F
100
AcDbEntity
  8
0
  6
Continuous
100
AcDbLine
 10
290.8390400457981
 20
1128.962499999998
 30
0.0
 11
6.139040045798082
 21
1128.962499999999
 31
0.0
  0
LINE
  5
FB5
330
6F
100
AcDbEntity
  8
0
  6
Continuous
100
AcDbLine
 10
297.8390400457979
 20
1126.462499999998
 30
0.0
 11
297.8390400457982
 21
1253.474999999999
 31
0.0
  0
ARC
  5
FB6
330
6F
100
AcDbEntity
  8
0
  6
Continuous
100
AcDbCircle
 10
290.3390400457983
 20
1253.474999999999
 30
0.0
 40
7.5
100
AcDbArc
 50
0.0
 51
90.0
  0
LINE
  5
FB7
330
6F
100
AcDbEntity
  8
0
  6
Continuous
100
AcDbLine
 10
6.639040045797969
 20
1118.962499999998
 30
0.0
 11
290.3390400457979
 21
1118.962499999998
 31
0.0
  0
ARC
  5
FB8
330
6F
100
AcDbEntity
  8
0
  6
Continuous
100
AcDbCircle
 10
290.3390400457979
 20
1126.462499999998
 30
0.0
 40
7.5
100
AcDbArc
 50
270.0
 51
0.0
  0
LINE
  5
FB9
330
6F
100
AcDbEntity
  8
0
  6
Continuous
100
AcDbLine
 10
-0.8609599542020305
 20
1253.474999999999
 30
0.0
 11
-0.8609599542020305
 21
1126.462499999998
 31
0.0
  0
ARC
  5
FBA
330
6F
100
AcDbEntity
  8
0
  6
Continuous
100
AcDbCircle
 10
6.639040045797969
 20
1126.462499999998
 30
0.0
 40
7.5
100
AcDbArc
 50
180.0
 51
270.0
  0
ARC
  5
FBB
330
6F
100
AcDbEntity
  8
0
  6
Continuous
100
AcDbCircle
 10
6.639040045797969
 20
1253.474999999999
 30
0.0
 40
7.5
100
AcDbArc
 50
90.0
 51
180.0
  0
LINE
  5
FBC
330
6F
100
AcDbEntity
  8
0
  6
Continuous
100
AcDbLine
 10
290.3390400457983
 20
1260.974999999999
 30
0.0
 11
6.639040045797969
 21
1260.974999999999
 31
0.0
  0
CIRCLE
  5
FBD
330
6F
100
AcDbEntity
  8
0
  6
Continuous
100
AcDbCircle
 10
11.13904004579797
 20
1255.974999999999
 30
0.0
 40
2.0
  0
CIRCLE
  5
FBE
330
6F
100
AcDbEntity
  8
0
  6
Continuous
100
AcDbCircle
 10
100.314040045798
 20
1255.974999999999
 30
0.0
 40
2.0
  0
CIRCLE
  5
FBF
330
6F
100
AcDbEntity
  8
0
  6
Continuous
100
AcDbCircle
 10
196.6640400457982
 20
1255.974999999999
 30
0.0
 40
2.0
  0
CIRCLE
  5
FC0
330
6F
100
AcDbEntity
  8
0
  6
Continuous
100
AcDbCircle
 10
285.8390400457981
 20
1255.974999999999
 30
0.0
 40
2.0
  0
CIRCLE
  5
FC1
330
6F
100
AcDbEntity
  8
0
  6
Continuous
100
AcDbCircle
 10
11.13904004579797
 20
1123.962499999998
 30
0.0
 40
2.0
  0
CIRCLE
  5
FC2
330
6F
100
AcDbEntity
  8
0
  6
Continuous
100
AcDbCircle
 10
100.314040045798
 20
1123.962499999998
 30
0.0
 40
2.0
  0
CIRCLE
  5
FC3
330
6F
100
AcDbEntity
  8
0
  6
Continuous
100
AcDbCircle
 10
196.6640400457982
 20
1123.962499999998
 30
0.0
 40
2.0
  0
CIRCLE
  5
FC4
330
6F
100
AcDbEntity
  8
0
  6
Continuous
100
AcDbCircle
 10
285.8390400457981
 20
1123.962499999998
 30
0.0
 40
2.0
  0
LINE
  5
FC5
330
6F
100
AcDbEntity
  8
0
  6
Continuous
100
AcDbLine
 10
6.139040045797512
 20
950.9749999999987
 30
0.0
 11
290.8390400457977
 21
950.9749999999987
 31
0.0
  0
LINE
  5
FC6
330
6F
100
AcDbEntity
  8
0
  6
Continuous
100
AcDbLine
 10
4.139040045797512
 20
948.9749999999988
 30
0.0
 11
4.139040045797628
 21
830.9624999999988
 31
0.0
  0
ARC
  5
FC7
330
6F
100
AcDbEntity
  8
0
  6
Continuous
100
AcDbCircle
 10
6.139040045797512
 20
948.9749999999988
 30
0.0
 40
2.0
100
AcDbArc
 50
90.0
 51
180.0
  0
ARC
  5
FC8
330
6F
100
AcDbEntity
  8
0
  6
Continuous
100
AcDbCircle
 10
6.139040045797628
 20
830.9624999999988
 30
0.0
 40
2.0
100
AcDbArc
 50
180.0
 51
270.0
  0
LINE
  5
FC9
330
6F
100
AcDbEntity
  8
0
  6
Continuous
100
AcDbLine
 10
292.8390400457977
 20
948.9749999999988
 30
0.0
 11
292.8390400457977
 21
830.9624999999988
 31
0.0
  0
ARC
  5
FCA
330
6F
100
AcDbEntity
  8
0
  6
Continuous
100
AcDbCircle
 10
290.8390400457977
 20
830.9624999999988
 30
0.0
 40
2.0
100
AcDbArc
 50
270.0
 51
0.0
  0
ARC
  5
FCB
330
6F
100
AcDbEntity
  8
0
  6
Continuous
100
AcDbCircle
 10
290.8390400457977
 20
948.9749999999988
 30
0.0
 40
2.0
100
AcDbArc
 50
0.0
 51
90.0
  0
LINE
  5
FCC
330
6F
100
AcDbEntity
  8
0
  6
Continuous
100
AcDbLine
 10
290.8390400457977
 20
828.9624999999986
 30
0.0
 11
6.139040045797628
 21
828.962499999999
 31
0.0
  0
LINE
  5
FCD
330
6F
100
AcDbEntity
  8
0
  6
Continuous
100
AcDbLine
 10
297.8390400457974
 20
826.4624999999988
 30
0.0
 11
297.8390400457978
 21
953.4749999999988
 31
0.0
  0
ARC
  5
FCE
330
6F
100
AcDbEntity
  8
0
  6
Continuous
100
AcDbCircle
 10
290.3390400457978
 20
953.4749999999988
 30
0.0
 40
7.5
100
AcDbArc
 50
0.0
 51
90.0
  0
LINE
  5
FCF
330
6F
100
AcDbEntity
  8
0
  6
Continuous
100
AcDbLine
 10
6.639040045797512
 20
818.9624999999985
 30
0.0
 11
290.3390400457975
 21
818.9624999999987
 31
0.0
  0
ARC
  5
FD0
330
6F
100
AcDbEntity
  8
0
  6
Continuous
100
AcDbCircle
 10
290.3390400457975
 20
826.4624999999988
 30
0.0
 40
7.5
100
AcDbArc
 50
270.0
 51
0.0
  0
LINE
  5
FD1
330
6F
100
AcDbEntity
  8
0
  6
Continuous
100
AcDbLine
 10
-0.8609599542024851
 20
953.4749999999988
 30
0.0
 11
-0.8609599542024851
 21
826.4624999999982
 31
0.0
  0
ARC
  5
FD2
330
6F
100
AcDbEntity
  8
0
  6
Continuous
100
AcDbCircle
 10
6.639040045797512
 20
826.4624999999982
 30
0.0
 40
7.5
100
AcDbArc
 50
180.0
 51
270.0
  0
ARC
  5
FD3
330
6F
100
AcDbEntity
  8
0
  6
Continuous
100
AcDbCircle
 10
6.639040045797512
 20
953.4749999999988
 30
0.0
 40
7.5
100
AcDbArc
 50
90.0
 51
180.0
  0
LINE
  5
FD4
330
6F
100
AcDbEntity
  8
0
  6
Continuous
100
AcDbLine
 10
290.3390400457978
 20
960.9749999999987
 30
0.0
 11
6.639040045797512
 21
960.9749999999987
 31
0.0
  0
CIRCLE
  5
FD5
330
6F
100
AcDbEntity
  8
0
  6
Continuous
100
AcDbCircle
 10
11.13904004579751
 20
955.9749999999988
 30
0.0
 40
2.0
  0
CIRCLE
  5
FD6
330
6F
100
AcDbEntity
  8
0
  6
Continuous
100
AcDbCircle
 10
100.3140400457976
 20
955.9749999999988
 30
0.0
 40
2.0
  0
CIRCLE
  5
FD7
330
6F
100
AcDbEntity
  8
0
  6
Continuous
100
AcDbCircle
 10
196.6640400457977
 20
955.9749999999988
 30
0.0
 40
2.0
  0
CIRCLE
  5
FD8
330
6F
100
AcDbEntity
  8
0
  6
Continuous
100
AcDbCircle
 10
285.8390400457977
 20
955.9749999999988
 30
0.0
 40
2.0
  0
CIRCLE
  5
FD9
330
6F
100
AcDbEntity
  8
0
  6
Continuous
100
AcDbCircle
 10
11.13904004579751
 20
823.9624999999987
 30
0.0
 40
2.0
  0
CIRCLE
  5
FDA
330
6F
100
AcDbEntity
  8
0
  6
Continuous
100
AcDbCircle
 10
100.3140400457976
 20
823.9624999999987
 30
0.0
 40
2.0
  0
CIRCLE
  5
FDB
330
6F
100
AcDbEntity
  8
0
  6
Continuous
100
AcDbCircle
 10
196.6640400457977
 20
823.9624999999987
 30
0.0
 40
2.0
  0
CIRCLE
  5
FDC
330
6F
100
AcDbEntity
  8
0
  6
Continuous
100
AcDbCircle
 10
285.8390400457977
 20
823.9624999999987
 30
0.0
 40
2.0
  0
LINE
  5
FDD
330
6F
100
AcDbEntity
  8
0
  6
Continuous
100
AcDbLine
 10
6.139040045797855
 20
800.9749999999989
 30
0.0
 11
290.839040045798
 21
800.9749999999989
 31
0.0
  0
LINE
  5
FDE
330
6F
100
AcDbEntity
  8
0
  6
Continuous
100
AcDbLine
 10
4.139040045797853
 20
798.9749999999989
 30
0.0
 11
4.139040045797968
 21
680.9624999999987
 31
0.0
  0
ARC
  5
FDF
330
6F
100
AcDbEntity
  8
0
  6
Continuous
100
AcDbCircle
 10
6.139040045797855
 20
798.9749999999989
 30
0.0
 40
2.0
100
AcDbArc
 50
90.0
 51
180.0
  0
ARC
  5
FE0
330
6F
100
AcDbEntity
  8
0
  6
Continuous
100
AcDbCircle
 10
6.139040045797969
 20
680.9624999999987
 30
0.0
 40
2.0
100
AcDbArc
 50
180.0
 51
270.0
  0
LINE
  5
FE1
330
6F
100
AcDbEntity
  8
0
  6
Continuous
100
AcDbLine
 10
292.839040045798
 20
798.9749999999989
 30
0.0
 11
292.839040045798
 21
680.9624999999987
 31
0.0
  0
ARC
  5
FE2
330
6F
100
AcDbEntity
  8
0
  6
Continuous
100
AcDbCircle
 10
290.839040045798
 20
680.9624999999987
 30
0.0
 40
2.0
100
AcDbArc
 50
270.0
 51
0.0
  0
ARC
  5
FE3
330
6F
100
AcDbEntity
  8
0
  6
Continuous
100
AcDbCircle
 10
290.839040045798
 20
798.9749999999989
 30
0.0
 40
2.0
100
AcDbArc
 50
0.0
 51
90.0
  0
LINE
  5
FE4
330
6F
100
AcDbEntity
  8
0
  6
Continuous
100
AcDbLine
 10
290.839040045798
 20
678.9624999999987
 30
0.0
 11
6.139040045797969
 21
678.9624999999987
 31
0.0
  0
LINE
  5
FE5
330
6F
100
AcDbEntity
  8
0
  6
Continuous
100
AcDbLine
 10
297.8390400457978
 20
676.4624999999987
 30
0.0
 11
297.8390400457982
 21
803.4749999999988
 31
0.0
  0
ARC
  5
FE6
330
6F
100
AcDbEntity
  8
0
  6
Continuous
100
AcDbCircle
 10
290.3390400457981
 20
803.4749999999988
 30
0.0
 40
7.5
100
AcDbArc
 50
0.0
 51
90.0
  0
LINE
  5
FE7
330
6F
100
AcDbEntity
  8
0
  6
Continuous
100
AcDbLine
 10
6.639040045797855
 20
668.9624999999985
 30
0.0
 11
290.3390400457978
 21
668.9624999999987
 31
0.0
  0
ARC
  5
FE8
330
6F
100
AcDbEntity
  8
0
  6
Continuous
100
AcDbCircle
 10
290.3390400457978
 20
676.4624999999987
 30
0.0
 40
7.5
100
AcDbArc
 50
270.0
 51
0.0
  0
LINE
  5
FE9
330
6F
100
AcDbEntity
  8
0
  6
Continuous
100
AcDbLine
 10
-0.8609599542021442
 20
803.4749999999988
 30
0.0
 11
-0.8609599542021442
 21
676.4624999999985
 31
0.0
  0
ARC
  5
FEA
330
6F
100
AcDbEntity
  8
0
  6
Continuous
100
AcDbCircle
 10
6.639040045797855
 20
676.4624999999985
 30
0.0
 40
7.5
100
AcDbArc
 50
180.0
 51
270.0
  0
ARC
  5
FEB
330
6F
100
AcDbEntity
  8
0
  6
Continuous
100
AcDbCircle
 10
6.639040045797855
 20
803.4749999999988
 30
0.0
 40
7.5
100
AcDbArc
 50
90.0
 51
180.0
  0
LINE
  5
FEC
330
6F
100
AcDbEntity
  8
0
  6
Continuous
100
AcDbLine
 10
290.3390400457981
 20
810.9749999999989
 30
0.0
 11
6.639040045797855
 21
810.9749999999989
 31
0.0
  0
CIRCLE
  5
FED
330
6F
100
AcDbEntity
  8
0
  6
Continuous
100
AcDbCircle
 10
11.13904004579785
 20
805.9749999999988
 30
0.0
 40
2.0
  0
CIRCLE
  5
FEE
330
6F
100
AcDbEntity
  8
0
  6
Continuous
100
AcDbCircle
 10
100.3140400457979
 20
805.9749999999988
 30
0.0
 40
2.0
  0
CIRCLE
  5
FEF
330
6F
100
AcDbEntity
  8
0
  6
Continuous
100
AcDbCircle
 10
196.6640400457981
 20
805.9749999999988
 30
0.0
 40
2.0
  0
CIRCLE
  5
FF0
330
6F
100
AcDbEntity
  8
0
  6
Continuous
100
AcDbCircle
 10
285.839040045798
 20
805.9749999999988
 30
0.0
 40
2.0
  0
CIRCLE
  5
FF1
330
6F
100
AcDbEntity
  8
0
  6
Continuous
100
AcDbCircle
 10
11.13904004579785
 20
673.9624999999987
 30
0.0
 40
2.0
  0
CIRCLE
  5
FF2
330
6F
100
AcDbEntity
  8
0
  6
Continuous
100
AcDbCircle
 10
100.3140400457979
 20
673.9624999999987
 30
0.0
 40
2.0
  0
CIRCLE
  5
FF3
330
6F
100
AcDbEntity
  8
0
  6
Continuous
100
AcDbCircle
 10
196.6640400457981
 20
673.9624999999987
 30
0.0
 40
2.0
  0
CIRCLE
  5
FF4
330
6F
100
AcDbEntity
  8
0
  6
Continuous
100
AcDbCircle
 10
285.839040045798
 20
673.9624999999987
 30
0.0
 40
2.0
  0
LINE
  5
FFD
330
6F
100
AcDbEntity
  8
0
  6
Continuous
100
AcDbLine
 10
297.8390400457979
 20
1276.462499999998
 30
0.0
 11
297.8390400457982
 21
1403.474999999999
 31
0.0
  0
ARC
  5
FFE
330
6F
100
AcDbEntity
  8
0
  6
Continuous
100
AcDbCircle
 10
290.3390400457983
 20
1403.474999999999
 30
0.0
 40
7.5
100
AcDbArc
 50
0.0
 51
90.0
  0
LINE
  5
FFF
330
6F
100
AcDbEntity
  8
0
  6
Continuous
100
AcDbLine
 10
6.639040045797969
 20
1268.962499999998
 30
0.0
 11
290.3390400457979
 21
1268.962499999998
 31
0.0
  0
ARC
  5
1000
330
6F
100
AcDbEntity
  8
0
  6
Continuous
100
AcDbCircle
 10
290.3390400457979
 20
1276.462499999998
 30
0.0
 40
7.5
100
AcDbArc
 50
270.0
 51
0.0
  0
LINE
  5
1001
330
6F
100
AcDbEntity
  8
0
  6
Continuous
100
AcDbLine
 10
-0.8609599542020305
 20
1403.474999999999
 30
0.0
 11
-0.8609599542020305
 21
1276.462499999998
 31
0.0
  0
ARC
  5
1002
330
6F
100
AcDbEntity
  8
0
  6
Continuous
100
AcDbCircle
 10
6.639040045797969
 20
1276.462499999998
 30
0.0
 40
7.5
100
AcDbArc
 50
180.0
 51
270.0
  0
ARC
  5
1003
330
6F
100
AcDbEntity
  8
0
  6
Continuous
100
AcDbCircle
 10
6.639040045797969
 20
1403.474999999999
 30
0.0
 40
7.5
100
AcDbArc
 50
90.0
 51
180.0
  0
LINE
  5
1004
330
6F
100
AcDbEntity
  8
0
  6
Continuous
100
AcDbLine
 10
290.3390400457983
 20
1410.974999999998
 30
0.0
 11
6.639040045797969
 21
1410.974999999998
 31
0.0
  0
CIRCLE
  5
1005
330
6F
100
AcDbEntity
  8
0
  6
Continuous
100
AcDbCircle
 10
11.13904004579797
 20
1405.974999999999
 30
0.0
 40
2.0
  0
CIRCLE
  5
1006
330
6F
100
AcDbEntity
  8
0
  6
Continuous
100
AcDbCircle
 10
100.314040045798
 20
1405.974999999999
 30
0.0
 40
2.0
  0
CIRCLE
  5
1007
330
6F
100
AcDbEntity
  8
0
  6
Continuous
100
AcDbCircle
 10
196.6640400457982
 20
1405.974999999999
 30
0.0
 40
2.0
  0
CIRCLE
  5
1008
330
6F
100
AcDbEntity
  8
0
  6
Continuous
100
AcDbCircle
 10
285.8390400457981
 20
1405.974999999999
 30
0.0
 40
2.0
  0
CIRCLE
  5
1009
330
6F
100
AcDbEntity
  8
0
  6
Continuous
100
AcDbCircle
 10
11.13904004579797
 20
1273.962499999998
 30
0.0
 40
2.0
  0
CIRCLE
  5
100A
330
6F
100
AcDbEntity
  8
0
  6
Continuous
100
AcDbCircle
 10
100.314040045798
 20
1273.962499999998
 30
0.0
 40
2.0
  0
CIRCLE
  5
100B
330
6F
100
AcDbEntity
  8
0
  6
Continuous
100
AcDbCircle
 10
196.6640400457982
 20
1273.962499999998
 30
0.0
 40
2.0
  0
CIRCLE
  5
100C
330
6F
100
AcDbEntity
  8
0
  6
Continuous
100
AcDbCircle
 10
285.8390400457981
 20
1273.962499999998
 30
0.0
 40
2.0
  0
LINE
  5
1166
330
6F
100
AcDbEntity
  8
0
  6
Continuous
100
AcDbLine
 10
5.614040045797991
 20
1399.499999999999
 30
0.0
 11
24.66404004579795
 21
1399.499999999999
 31
0.0
  0
LINE
  5
1167
330
6F
100
AcDbEntity
  8
0
  6
Continuous
100
AcDbLine
 10
24.66404004579795
 20
1399.499999999999
 30
0.0
 11
24.66404004579795
 21
1380.449999999999
 31
0.0
  0
LINE
  5
1168
330
6F
100
AcDbEntity
  8
0
  6
Continuous
100
AcDbLine
 10
24.66404004579795
 20
1380.449999999999
 30
0.0
 11
5.614040045797991
 21
1380.449999999999
 31
0.0
  0
LINE
  5
1169
330
6F
100
AcDbEntity
  8
0
  6
Continuous
100
AcDbLine
 10
5.614040045797991
 20
1380.449999999999
 30
0.0
 11
5.614040045797991
 21
1399.499999999999
 31
0.0
  0
LINE
  5
116B
330
6F
100
AcDbEntity
  8
0
  6
Continuous
100
AcDbLine
 10
29.42654004579799
 20
1399.499999999999
 30
0.0
 11
105.626540045798
 21
1399.499999999999
 31
0.0
  0
LINE
  5
116D
330
6F
100
AcDbEntity
  8
0
  6
Continuous
100
AcDbLine
 10
105.626540045798
 20
1380.449999999999
 30
0.0
 11
29.42654004579799
 21
1380.449999999999
 31
0.0
  0
LINE
  5
116E
330
6F
100
AcDbEntity
  8
0
  6
Continuous
100
AcDbLine
 10
29.42654004579799
 20
1380.449999999999
 30
0.0
 11
29.42654004579799
 21
1399.499999999999
 31
0.0
  0
LINE
  5
1170
330
6F
100
AcDbEntity
  8
0
  6
Continuous
100
AcDbLine
 10
105.626540045798
 20
1399.499999999999
 30
0.0
 11
105.626540045798
 21
1380.449999999999
 31
0.0
  0
LINE
  5
1173
330
6F
100
AcDbEntity
  8
0
  6
Continuous
100
AcDbLine
 10
110.3890400457979
 20
1399.499999999999
 30
0.0
 11
186.5890400457979
 21
1399.499999999999
 31
0.0
  0
LINE
  5
1175
330
6F
100
AcDbEntity
  8
0
  6
Continuous
100
AcDbLine
 10
186.5890400457979
 20
1380.449999999999
 30
0.0
 11
110.3890400457979
 21
1380.449999999999
 31
0.0
  0
LINE
  5
1176
330
6F
100
AcDbEntity
  8
0
  6
Continuous
100
AcDbLine
 10
110.3890400457979
 20
1380.449999999999
 30
0.0
 11
110.3890400457979
 21
1399.499999999999
 31
0.0
  0
LINE
  5
117B
330
6F
100
AcDbEntity
  8
0
  6
Continuous
100
AcDbLine
 10
191.3515400457981
 20
1399.499999999999
 30
0.0
 11
267.551540045798
 21
1399.499999999999
 31
0.0
  0
LINE
  5
117D
330
6F
100
AcDbEntity
  8
0
  6
Continuous
100
AcDbLine
 10
267.551540045798
 20
1380.449999999999
 30
0.0
 11
191.3515400457981
 21
1380.449999999999
 31
0.0
  0
LINE
  5
117E
330
6F
100
AcDbEntity
  8
0
  6
Continuous
100
AcDbLine
 10
191.3515400457981
 20
1380.449999999999
 30
0.0
 11
191.3515400457981
 21
1399.499999999999
 31
0.0
  0
LINE
  5
1180
330
6F
100
AcDbEntity
  8
0
  6
Continuous
100
AcDbLine
 10
267.551540045798
 20
1399.499999999999
 30
0.0
 11
267.551540045798
 21
1380.449999999999
 31
0.0
  0
LINE
  5
1183
330
6F
100
AcDbEntity
  8
0
  6
Continuous
100
AcDbLine
 10
272.3140400457978
 20
1399.499999999999
 30
0.0
 11
291.3640400457979
 21
1399.499999999999
 31
0.0
  0
LINE
  5
1184
330
6F
100
AcDbEntity
  8
0
  6
Continuous
100
AcDbLine
 10
291.3640400457979
 20
1399.499999999999
 30
0.0
 11
291.3640400457979
 21
1380.449999999999
 31
0.0
  0
LINE
  5
1185
330
6F
100
AcDbEntity
  8
0
  6
Continuous
100
AcDbLine
 10
291.3640400457979
 20
1380.449999999999
 30
0.0
 11
272.3140400457978
 21
1380.449999999999
 31
0.0
  0
LINE
  5
1186
330
6F
100
AcDbEntity
  8
0
  6
Continuous
100
AcDbLine
 10
272.3140400457978
 20
1380.449999999999
 30
0.0
 11
272.3140400457978
 21
1399.499999999999
 31
0.0
  0
LINE
  5
1188
330
6F
100
AcDbEntity
  8
0
  6
Continuous
100
AcDbLine
 10
186.5890400457979
 20
1399.499999999999
 30
0.0
 11
186.5890400457979
 21
1380.449999999999
 31
0.0
  0
LINE
  5
118D
330
6F
100
AcDbEntity
  8
0
  6
Continuous
100
AcDbLine
 10
27.426540045798
 20
1299.4875
 30
0.0
 11
5.614040045797991
 21
1299.4875
 31
0.0
  0
LINE
  5
1192
330
6F
100
AcDbEntity
  8
0
  6
Continuous
100
AcDbLine
 10
29.42654004579799
 20
1280.4375
 30
0.0
 11
29.42654004579799
 21
1297.4875
 31
0.0
  0
LINE
  5
1194
330
6F
100
AcDbEntity
  8
0
  6
Continuous
100
AcDbLine
 10
267.551540045798
 20
1297.4875
 30
0.0
 11
267.551540045798
 21
1280.4375
 31
0.0
  0
LINE
  5
1199
330
6F
100
AcDbEntity
  8
0
  6
Continuous
100
AcDbLine
 10
291.3640400457979
 20
1299.4875
 30
0.0
 11
269.551540045798
 21
1299.4875
 31
0.0
  0
LINE
  5
119B
330
6F
100
AcDbEntity
  8
0
  6
Continuous
100
AcDbLine
 10
5.614040045797991
 20
1375.687499999999
 30
0.0
 11
291.3640400457979
 21
1375.687499999999
 31
0.0
  0
LINE
  5
119E
330
6F
100
AcDbEntity
  8
0
  6
Continuous
100
AcDbLine
 10
5.614040045797991
 20
1299.4875
 30
0.0
 11
5.614040045797991
 21
1375.687499999999
 31
0.0
  0
LINE
  5
11A0
330
6F
100
AcDbEntity
  8
0
  6
Continuous
100
AcDbLine
 10
291.3640400457979
 20
1375.687499999999
 30
0.0
 11
291.3640400457979
 21
1299.4875
 31
0.0
  0
LINE
  5
11A3
330
6F
100
AcDbEntity
  8
0
  6
Continuous
100
AcDbLine
 10
29.42654004579799
 20
1280.4375
 30
0.0
 11
267.551540045798
 21
1280.4375
 31
0.0
  0
ARC
  5
11A4
330
6F
100
AcDbEntity
  8
0
  6
Continuous
100
AcDbCircle
 10
269.551540045798
 20
1297.4875
 30
0.0
 40
2.0
100
AcDbArc
 50
90.0
 51
180.0
  0
ARC
  5
11A5
330
6F
100
AcDbEntity
  8
0
  6
Continuous
100
AcDbCircle
 10
27.426540045798
 20
1297.4875
 30
0.0
 40
2.0
100
AcDbArc
 50
0.0
 51
90.0
  0
LINE
  5
11A6
330
6F
100
AcDbEntity
  8
0
  6
Continuous
100
AcDbLine
 10
6.139040045797855
 20
650.9749999999987
 30
0.0
 11
143.489040045798
 21
650.9749999999987
 31
0.0
  0
LINE
  5
11A7
330
6F
100
AcDbEntity
  8
0
  6
Continuous
100
AcDbLine
 10
4.139040045797853
 20
648.974999999999
 30
0.0
 11
4.139040045797968
 21
530.9624999999987
 31
0.0
  0
ARC
  5
11A8
330
6F
100
AcDbEntity
  8
0
  6
Continuous
100
AcDbCircle
 10
6.139040045797855
 20
648.974999999999
 30
0.0
 40
2.0
100
AcDbArc
 50
90.0
 51
180.0
  0
ARC
  5
11A9
330
6F
100
AcDbEntity
  8
0
  6
Continuous
100
AcDbCircle
 10
6.139040045797969
 20
530.9624999999987
 30
0.0
 40
2.0
100
AcDbArc
 50
180.0
 51
270.0
  0
LINE
  5
11AA
330
6F
100
AcDbEntity
  8
0
  6
Continuous
100
AcDbLine
 10
292.839040045798
 20
648.974999999999
 30
0.0
 11
292.839040045798
 21
530.9624999999987
 31
0.0
  0
ARC
  5
11AB
330
6F
100
AcDbEntity
  8
0
  6
Continuous
100
AcDbCircle
 10
290.839040045798
 20
530.9624999999987
 30
0.0
 40
2.0
100
AcDbArc
 50
270.0
 51
0.0
  0
ARC
  5
11AC
330
6F
100
AcDbEntity
  8
0
  6
Continuous
100
AcDbCircle
 10
290.839040045798
 20
648.974999999999
 30
0.0
 40
2.0
100
AcDbArc
 50
0.0
 51
90.0
  0
LINE
  5
11AD
330
6F
100
AcDbEntity
  8
0
  6
Continuous
100
AcDbLine
 10
290.839040045798
 20
528.9624999999987
 30
0.0
 11
6.139040045797969
 21
528.9624999999987
 31
0.0
  0
LINE
  5
11AE
330
6F
100
AcDbEntity
  8
0
  6
Continuous
100
AcDbLine
 10
297.8390400457978
 20
526.4624999999987
 30
0.0
 11
297.8390400457982
 21
653.474999999999
 31
0.0
  0
ARC
  5
11AF
330
6F
100
AcDbEntity
  8
0
  6
Continuous
100
AcDbCircle
 10
290.3390400457981
 20
653.474999999999
 30
0.0
 40
7.5
100
AcDbArc
 50
0.0
 51
90.0
  0
LINE
  5
11B0
330
6F
100
AcDbEntity
  8
0
  6
Continuous
100
AcDbLine
 10
6.639040045797855
 20
518.9624999999985
 30
0.0
 11
290.3390400457978
 21
518.9624999999987
 31
0.0
  0
ARC
  5
11B1
330
6F
100
AcDbEntity
  8
0
  6
Continuous
100
AcDbCircle
 10
290.3390400457978
 20
526.4624999999987
 30
0.0
 40
7.5
100
AcDbArc
 50
270.0
 51
0.0
  0
LINE
  5
11B2
330
6F
100
AcDbEntity
  8
0
  6
Continuous
100
AcDbLine
 10
-0.8609599542021442
 20
653.474999999999
 30
0.0
 11
-0.8609599542021442
 21
526.4624999999985
 31
0.0
  0
ARC
  5
11B3
330
6F
100
AcDbEntity
  8
0
  6
Continuous
100
AcDbCircle
 10
6.639040045797855
 20
526.4624999999985
 30
0.0
 40
7.5
100
AcDbArc
 50
180.0
 51
270.0
  0
ARC
  5
11B4
330
6F
100
AcDbEntity
  8
0
  6
Continuous
100
AcDbCircle
 10
6.639040045797855
 20
653.474999999999
 30
0.0
 40
7.5
100
AcDbArc
 50
90.0
 51
180.0
  0
LINE
  5
11B5
330
6F
100
AcDbEntity
  8
0
  6
Continuous
100
AcDbLine
 10
290.3390400457981
 20
660.974999999999
 30
0.0
 11
153.4890400457979
 21
660.974999999999
 31
0.0
  0
CIRCLE
  5
11B6
330
6F
100
AcDbEntity
  8
0
  6
Continuous
100
AcDbCircle
 10
11.13904004579785
 20
655.974999999999
 30
0.0
 40
2.0
  0
CIRCLE
  5
11B7
330
6F
100
AcDbEntity
  8
0
  6
Continuous
100
AcDbCircle
 10
100.3140400457979
 20
655.974999999999
 30
0.0
 40
2.0
  0
CIRCLE
  5
11B8
330
6F
100
AcDbEntity
  8
0
  6
Continuous
100
AcDbCircle
 10
196.6640400457981
 20
655.974999999999
 30
0.0
 40
2.0
  0
CIRCLE
  5
11B9
330
6F
100
AcDbEntity
  8
0
  6
Continuous
100
AcDbCircle
 10
285.839040045798
 20
655.974999999999
 30
0.0
 40
2.0
  0
CIRCLE
  5
11BA
330
6F
100
AcDbEntity
  8
0
  6
Continuous
100
AcDbCircle
 10
11.13904004579785
 20
523.9624999999987
 30
0.0
 40
2.0
  0
CIRCLE
  5
11BB
330
6F
100
AcDbEntity
  8
0
  6
Continuous
100
AcDbCircle
 10
100.3140400457979
 20
523.9624999999987
 30
0.0
 40
2.0
  0
CIRCLE
  5
11BC
330
6F
100
AcDbEntity
  8
0
  6
Continuous
100
AcDbCircle
 10
196.6640400457981
 20
523.9624999999987
 30
0.0
 40
2.0
  0
CIRCLE
  5
11BD
330
6F
100
AcDbEntity
  8
0
  6
Continuous
100
AcDbCircle
 10
285.839040045798
 20
523.9624999999987
 30
0.0
 40
2.0
  0
LINE
  5
11BE
330
6F
100
AcDbEntity
  8
0
  6
Continuous
100
AcDbLine
 10
6.139040045797855
 20
500.9749999999987
 30
0.0
 11
143.489040045798
 21
500.9749999999987
 31
0.0
  0
LINE
  5
11BF
330
6F
100
AcDbEntity
  8
0
  6
Continuous
100
AcDbLine
 10
4.139040045797853
 20
498.974999999999
 30
0.0
 11
4.139040045797968
 21
380.9624999999987
 31
0.0
  0
ARC
  5
11C0
330
6F
100
AcDbEntity
  8
0
  6
Continuous
100
AcDbCircle
 10
6.139040045797855
 20
498.974999999999
 30
0.0
 40
2.0
100
AcDbArc
 50
90.0
 51
180.0
  0
ARC
  5
11C1
330
6F
100
AcDbEntity
  8
0
  6
Continuous
100
AcDbCircle
 10
6.139040045797969
 20
380.9624999999987
 30
0.0
 40
2.0
100
AcDbArc
 50
180.0
 51
270.0
  0
LINE
  5
11C2
330
6F
100
AcDbEntity
  8
0
  6
Continuous
100
AcDbLine
 10
292.839040045798
 20
498.974999999999
 30
0.0
 11
292.839040045798
 21
380.9624999999987
 31
0.0
  0
ARC
  5
11C3
330
6F
100
AcDbEntity
  8
0
  6
Continuous
100
AcDbCircle
 10
290.839040045798
 20
380.9624999999987
 30
0.0
 40
2.0
100
AcDbArc
 50
270.0
 51
0.0
  0
ARC
  5
11C4
330
6F
100
AcDbEntity
  8
0
  6
Continuous
100
AcDbCircle
 10
290.839040045798
 20
498.974999999999
 30
0.0
 40
2.0
100
AcDbArc
 50
0.0
 51
90.0
  0
LINE
  5
11C5
330
6F
100
AcDbEntity
  8
0
  6
Continuous
100
AcDbLine
 10
290.839040045798
 20
378.9624999999987
 30
0.0
 11
6.139040045797969
 21
378.962499999999
 31
0.0
  0
LINE
  5
11C6
330
6F
100
AcDbEntity
  8
0
  6
Continuous
100
AcDbLine
 10
297.8390400457978
 20
376.4624999999987
 30
0.0
 11
297.8390400457982
 21
503.474999999999
 31
0.0
  0
ARC
  5
11C7
330
6F
100
AcDbEntity
  8
0
  6
Continuous
100
AcDbCircle
 10
290.3390400457981
 20
503.474999999999
 30
0.0
 40
7.5
100
AcDbArc
 50
0.0
 51
90.0
  0
LINE
  5
11C8
330
6F
100
AcDbEntity
  8
0
  6
Continuous
100
AcDbLine
 10
6.639040045797855
 20
368.9624999999985
 30
0.0
 11
290.3390400457978
 21
368.9624999999987
 31
0.0
  0
ARC
  5
11C9
330
6F
100
AcDbEntity
  8
0
  6
Continuous
100
AcDbCircle
 10
290.3390400457978
 20
376.4624999999987
 30
0.0
 40
7.5
100
AcDbArc
 50
270.0
 51
0.0
  0
LINE
  5
11CA
330
6F
100
AcDbEntity
  8
0
  6
Continuous
100
AcDbLine
 10
-0.8609599542021442
 20
503.474999999999
 30
0.0
 11
-0.8609599542021442
 21
376.4624999999985
 31
0.0
  0
ARC
  5
11CB
330
6F
100
AcDbEntity
  8
0
  6
Continuous
100
AcDbCircle
 10
6.639040045797855
 20
376.4624999999985
 30
0.0
 40
7.5
100
AcDbArc
 50
180.0
 51
270.0
  0
ARC
  5
11CC
330
6F
100
AcDbEntity
  8
0
  6
Continuous
100
AcDbCircle
 10
6.639040045797855
 20
503.474999999999
 30
0.0
 40
7.5
100
AcDbArc
 50
90.0
 51
180.0
  0
LINE
  5
11CD
330
6F
100
AcDbEntity
  8
0
  6
Continuous
100
AcDbLine
 10
290.3390400457981
 20
510.974999999999
 30
0.0
 11
153.4890400457979
 21
510.974999999999
 31
0.0
  0
CIRCLE
  5
11CE
330
6F
100
AcDbEntity
  8
0
  6
Continuous
100
AcDbCircle
 10
11.13904004579785
 20
505.974999999999
 30
0.0
 40
2.0
  0
CIRCLE
  5
11CF
330
6F
100
AcDbEntity
  8
0
  6
Continuous
100
AcDbCircle
 10
100.3140400457979
 20
505.974999999999
 30
0.0
 40
2.0
  0
CIRCLE
  5
11D0
330
6F
100
AcDbEntity
  8
0
  6
Continuous
100
AcDbCircle
 10
196.6640400457981
 20
505.974999999999
 30
0.0
 40
2.0
  0
CIRCLE
  5
11D1
330
6F
100
AcDbEntity
  8
0
  6
Continuous
100
AcDbCircle
 10
285.839040045798
 20
505.974999999999
 30
0.0
 40
2.0
  0
CIRCLE
  5
11D2
330
6F
100
AcDbEntity
  8
0
  6
Continuous
100
AcDbCircle
 10
11.13904004579785
 20
373.9624999999987
 30
0.0
 40
2.0
  0
CIRCLE
  5
11D3
330
6F
100
AcDbEntity
  8
0
  6
Continuous
100
AcDbCircle
 10
100.3140400457979
 20
373.9624999999987
 30
0.0
 40
2.0
  0
CIRCLE
  5
11D4
330
6F
100
AcDbEntity
  8
0
  6
Continuous
100
AcDbCircle
 10
196.6640400457981
 20
373.9624999999987
 30
0.0
 40
2.0
  0
CIRCLE
  5
11D5
330
6F
100
AcDbEntity
  8
0
  6
Continuous
100
AcDbCircle
 10
285.839040045798
 20
373.9624999999987
 30
0.0
 40
2.0
  0
LINE
  5
11DE
330
6F
100
AcDbEntity
  8
0
  6
Continuous
100
AcDbLine
 10
297.8390400457977
 20
226.4624999999987
 30
0.0
 11
297.839040045798
 21
353.474999999999
 31
0.0
  0
ARC
  5
11DF
330
6F
100
AcDbEntity
  8
0
  6
Continuous
100
AcDbCircle
 10
290.339040045798
 20
353.474999999999
 30
0.0
 40
7.5
100
AcDbArc
 50
0.0
 51
90.0
  0
LINE
  5
11E0
330
6F
100
AcDbEntity
  8
0
  6
Continuous
100
AcDbLine
 10
6.639040045797742
 20
218.9624999999985
 30
0.0
 11
290.3390400457977
 21
218.9624999999987
 31
0.0
  0
ARC
  5
11E1
330
6F
100
AcDbEntity
  8
0
  6
Continuous
100
AcDbCircle
 10
290.3390400457977
 20
226.4624999999987
 30
0.0
 40
7.5
100
AcDbArc
 50
270.0
 51
0.0
  0
LINE
  5
11E2
330
6F
100
AcDbEntity
  8
0
  6
Continuous
100
AcDbLine
 10
-0.8609599542022579
 20
353.474999999999
 30
0.0
 11
-0.8609599542022579
 21
226.4624999999985
 31
0.0
  0
ARC
  5
11E3
330
6F
100
AcDbEntity
  8
0
  6
Continuous
100
AcDbCircle
 10
6.639040045797742
 20
226.4624999999985
 30
0.0
 40
7.5
100
AcDbArc
 50
180.0
 51
270.0
  0
ARC
  5
11E4
330
6F
100
AcDbEntity
  8
0
  6
Continuous
100
AcDbCircle
 10
6.639040045797742
 20
353.474999999999
 30
0.0
 40
7.5
100
AcDbArc
 50
90.0
 51
180.0
  0
LINE
  5
11E5
330
6F
100
AcDbEntity
  8
0
  6
Continuous
100
AcDbLine
 10
290.339040045798
 20
360.974999999999
 30
0.0
 11
153.4890400457979
 21
360.974999999999
 31
0.0
  0
CIRCLE
  5
11E6
330
6F
100
AcDbEntity
  8
0
  6
Continuous
100
AcDbCircle
 10
11.13904004579774
 20
355.974999999999
 30
0.0
 40
2.0
  0
CIRCLE
  5
11E7
330
6F
100
AcDbEntity
  8
0
  6
Continuous
100
AcDbCircle
 10
100.3140400457978
 20
355.974999999999
 30
0.0
 40
2.0
  0
CIRCLE
  5
11E8
330
6F
100
AcDbEntity
  8
0
  6
Continuous
100
AcDbCircle
 10
196.6640400457979
 20
355.974999999999
 30
0.0
 40
2.0
  0
CIRCLE
  5
11E9
330
6F
100
AcDbEntity
  8
0
  6
Continuous
100
AcDbCircle
 10
285.8390400457979
 20
355.974999999999
 30
0.0
 40
2.0
  0
CIRCLE
  5
11EA
330
6F
100
AcDbEntity
  8
0
  6
Continuous
100
AcDbCircle
 10
11.13904004579774
 20
223.9624999999987
 30
0.0
 40
2.0
  0
CIRCLE
  5
11EB
330
6F
100
AcDbEntity
  8
0
  6
Continuous
100
AcDbCircle
 10
100.3140400457978
 20
223.9624999999987
 30
0.0
 40
2.0
  0
CIRCLE
  5
11EC
330
6F
100
AcDbEntity
  8
0
  6
Continuous
100
AcDbCircle
 10
196.6640400457979
 20
223.9624999999987
 30
0.0
 40
2.0
  0
CIRCLE
  5
11ED
330
6F
100
AcDbEntity
  8
0
  6
Continuous
100
AcDbCircle
 10
285.8390400457979
 20
223.9624999999987
 30
0.0
 40
2.0
  0
LINE
  5
11F6
330
6F
100
AcDbEntity
  8
0
  6
Continuous
100
AcDbLine
 10
297.8390400457977
 20
76.46249999999873
 30
0.0
 11
297.839040045798
 21
203.474999999999
 31
0.0
  0
ARC
  5
11F7
330
6F
100
AcDbEntity
  8
0
  6
Continuous
100
AcDbCircle
 10
290.339040045798
 20
203.474999999999
 30
0.0
 40
7.5
100
AcDbArc
 50
0.0
 51
90.0
  0
LINE
  5
11F8
330
6F
100
AcDbEntity
  8
0
  6
Continuous
100
AcDbLine
 10
6.639040045797742
 20
68.9624999999985
 30
0.0
 11
290.3390400457977
 21
68.96249999999873
 31
0.0
  0
ARC
  5
11F9
330
6F
100
AcDbEntity
  8
0
  6
Continuous
100
AcDbCircle
 10
290.3390400457977
 20
76.46249999999873
 30
0.0
 40
7.5
100
AcDbArc
 50
270.0
 51
0.0
  0
LINE
  5
11FA
330
6F
100
AcDbEntity
  8
0
  6
Continuous
100
AcDbLine
 10
-0.8609599542022579
 20
203.474999999999
 30
0.0
 11
-0.8609599542022579
 21
76.4624999999985
 31
0.0
  0
ARC
  5
11FB
330
6F
100
AcDbEntity
  8
0
  6
Continuous
100
AcDbCircle
 10
6.639040045797742
 20
76.4624999999985
 30
0.0
 40
7.5
100
AcDbArc
 50
180.0
 51
270.0
  0
ARC
  5
11FC
330
6F
100
AcDbEntity
  8
0
  6
Continuous
100
AcDbCircle
 10
6.639040045797742
 20
203.474999999999
 30
0.0
 40
7.5
100
AcDbArc
 50
90.0
 51
180.0
  0
LINE
  5
11FD
330
6F
100
AcDbEntity
  8
0
  6
Continuous
100
AcDbLine
 10
290.339040045798
 20
210.974999999999
 30
0.0
 11
6.639040045797742
 21
210.974999999999
 31
0.0
  0
LINE
  5
1207
330
6F
100
AcDbEntity
  8
0
  6
Continuous
100
AcDbLine
 10
153.489040045798
 20
660.974999999999
 30
0.0
 11
153.489040045798
 21
650.9749999999987
 31
0.0
  0
LINE
  5
1209
330
6F
100
AcDbEntity
  8
0
  6
Continuous
100
AcDbLine
 10
143.489040045798
 20
650.9749999999987
 30
0.0
 11
143.489040045798
 21
660.974999999999
 31
0.0
  0
LINE
  5
120B
330
6F
100
AcDbEntity
  8
0
  6
Continuous
100
AcDbLine
 10
153.489040045798
 20
510.974999999999
 30
0.0
 11
153.489040045798
 21
500.9749999999987
 31
0.0
  0
LINE
  5
1210
330
6F
100
AcDbEntity
  8
0
  6
Continuous
100
AcDbLine
 10
143.489040045798
 20
500.9749999999987
 30
0.0
 11
143.489040045798
 21
510.974999999999
 31
0.0
  0
LINE
  5
1211
330
6F
100
AcDbEntity
  8
0
  6
Continuous
100
AcDbLine
 10
143.4890400457978
 20
510.974999999999
 30
0.0
 11
6.639040045797855
 21
510.974999999999
 31
0.0
  0
LINE
  5
1212
330
6F
100
AcDbEntity
  8
0
  6
Continuous
100
AcDbLine
 10
153.489040045798
 20
500.9749999999987
 30
0.0
 11
290.839040045798
 21
500.9749999999987
 31
0.0
  0
LINE
  5
1213
330
6F
100
AcDbEntity
  8
0
  6
Continuous
100
AcDbLine
 10
143.4890400457978
 20
660.974999999999
 30
0.0
 11
6.639040045797855
 21
660.974999999999
 31
0.0
  0
LINE
  5
1214
330
6F
100
AcDbEntity
  8
0
  6
Continuous
100
AcDbLine
 10
153.489040045798
 20
650.9749999999987
 30
0.0
 11
290.839040045798
 21
650.9749999999987
 31
0.0
  0
LINE
  5
121F
330
6F
100
AcDbEntity
  8
0
  6
Continuous
100
AcDbLine
 10
238.4890400457977
 20
334.9687499999988
 30
0.0
 11
58.48904004579775
 21
334.9687499999988
 31
0.0
  0
LINE
  5
1220
330
6F
100
AcDbEntity
  8
0
  6
Continuous
100
AcDbLine
 10
58.48904004579775
 20
334.9687499999988
 30
0.0
 11
58.48904004579775
 21
244.9687499999988
 31
0.0
  0
LINE
  5
1221
330
6F
100
AcDbEntity
  8
0
  6
Continuous
100
AcDbLine
 10
58.48904004579775
 20
244.9687499999988
 30
0.0
 11
238.4890400457977
 21
244.9687499999988
 31
0.0
  0
LINE
  5
1222
330
6F
100
AcDbEntity
  8
0
  6
Continuous
100
AcDbLine
 10
238.4890400457977
 20
244.9687499999988
 30
0.0
 11
238.4890400457977
 21
334.9687499999988
 31
0.0
  0
LINE
  5
122D
330
6F
100
AcDbEntity
  8
0
  6
Continuous
100
AcDbLine
 10
140.7194158142551
 20
130.0121198073383
 30
0.0
 11
137.9573167364537
 21
136.1329788842552
 31
0.0
  0
LINE
  5
122E
330
6F
100
AcDbEntity
  8
0
  6
Continuous
100
AcDbLine
 10
137.9573167364537
 20
136.1329788842552
 30
0.0
 11
121.5208379469413
 21
106.4730524600116
 31
0.0
  0
ARC
  5
122F
330
6F
100
AcDbEntity
  8
0
  6
Continuous
100
AcDbCircle
 10
84.22640571564034
 20
118.8817088754871
 30
0.0
 40
39.30457262828888
100
AcDbArc
 50
341.5966110616194
 51
9.761615571462902
  0
ARC
  5
1230
330
6F
100
AcDbEntity
  8
0
  6
Continuous
100
AcDbCircle
 10
141.0698624299599
 20
104.5751151447787
 30
0.0
 40
27.70678960769568
100
AcDbArc
 50
130.8102722896526
 51
149.1753153516041
  0
ARC
  5
1231
330
6F
100
AcDbEntity
  8
0
  6
Continuous
100
AcDbCircle
 10
112.7131695773964
 20
113.5722986323814
 30
0.0
 40
6.918780294490209
100
AcDbArc
 50
48.72887864207188
 51
114.01844299998
  0
ARC
  5
1232
330
6F
100
AcDbEntity
  8
0
  6
Continuous
100
AcDbCircle
 10
138.1077672799999
 20
65.75096711436707
 30
0.0
 40
61.04997496079374
100
AcDbArc
 50
117.522234417337
 51
139.8735333329141
  0
ARC
  5
1233
330
6F
100
AcDbEntity
  8
0
  6
Continuous
100
AcDbCircle
 10
77.23610694834701
 20
108.5151981825996
 30
0.0
 40
14.59742680084486
100
AcDbArc
 50
346.4546617152836
 51
18.45715901469752
  0
ARC
  5
1234
330
6F
100
AcDbEntity
  8
0
  6
Continuous
100
AcDbCircle
 10
89.05451340528339
 20
111.2385355124903
 30
0.0
 40
2.777820709636026
100
AcDbArc
 50
43.10367620788507
 51
134.2271727897088
  0
ARC
  5
1235
330
6F
100
AcDbEntity
  8
0
  6
Continuous
100
AcDbCircle
 10
120.1031831508655
 20
72.89507103749659
 30
0.0
 40
52.10490800775663
100
AcDbArc
 50
129.2772131290286
 51
147.6145896333149
  0
ARC
  5
1236
330
6F
100
AcDbEntity
  8
0
  6
Continuous
100
AcDbCircle
 10
74.54942144427365
 20
101.1846849592138
 30
0.0
 40
1.599222883500314
100
AcDbArc
 50
346.1947164566222
 51
116.7685580209145
  0
LINE
  5
1237
330
6F
100
AcDbEntity
  8
0
  6
Continuous
100
AcDbLine
 10
73.82915120471205
 20
102.6125241004034
 30
0.0
 11
69.08655450348817
 21
99.81186907062259
 31
0.0
  0
ARC
  5
1238
330
6F
100
AcDbEntity
  8
0
  6
Continuous
100
AcDbCircle
 10
19.91999050775189
 20
165.839048620961
 30
0.0
 40
82.3221686699242
100
AcDbArc
 50
306.6728914571327
 51
328.6176370425973
  0
ARC
  5
1239
330
6F
100
AcDbEntity
  8
0
  6
Continuous
100
AcDbCircle
 10
99.01397336858714
 20
132.9186498853265
 30
0.0
 40
13.29182465695551
100
AcDbArc
 50
228.4585403058197
 51
312.759252161189
  0
LINE
  5
123A
330
6F
100
AcDbEntity
  8
0
  6
Continuous
100
AcDbLine
 10
108.0380498674591
 20
123.1596209349772
 30
0.0
 11
138.0307067124643
 21
153.0846593115315
 31
0.0
  0
ARC
  5
123B
330
6F
100
AcDbEntity
  8
0
  6
Continuous
100
AcDbCircle
 10
184.5611147871952
 20
186.4183874233646
 30
0.0
 40
57.23824163472015
100
AcDbArc
 50
215.6172776961382
 51
236.5681723556352
  0
ARC
  5
123C
330
6F
100
AcDbEntity
  8
0
  6
Continuous
100
AcDbCircle
 10
161.3345313857433
 20
151.0996190756868
 30
0.0
 40
14.96688025066429
100
AcDbArc
 50
236.2805991109385
 51
276.3159739883758
  0
LINE
  5
123D
330
6F
100
AcDbEntity
  8
0
  6
Continuous
100
AcDbLine
 10
162.981059162581
 20
136.2235829531901
 30
0.0
 11
191.1046469298139
 21
111.2232680846322
 31
0.0
  0
ARC
  5
123E
330
6F
100
AcDbEntity
  8
0
  6
Continuous
100
AcDbCircle
 10
199.0121103393528
 20
118.6984616692335
 30
0.0
 40
10.88147493221661
100
AcDbArc
 50
223.3903482773196
 51
316.0445798044427
  0
LINE
  5
123F
330
6F
100
AcDbEntity
  8
0
  6
Continuous
100
AcDbLine
 10
206.8454672912687
 20
111.1456465937581
 30
0.0
 11
222.0821837078968
 21
97.44665738110221
 31
0.0
  0
ARC
  5
1240
330
6F
100
AcDbEntity
  8
0
  6
Continuous
100
AcDbCircle
 10
200.33180932402
 20
71.04765626091065
 30
0.0
 40
34.20505877765255
100
AcDbArc
 50
50.51458326634829
 51
77.84427309166878
  0
ARC
  5
1241
330
6F
100
AcDbEntity
  8
0
  6
Continuous
100
AcDbCircle
 10
206.6360272376642
 20
99.4954124215681
 30
0.0
 40
5.070596744389346
100
AcDbArc
 50
79.79543065687512
 51
183.5981198048633
  0
LINE
  5
1242
330
6F
100
AcDbEntity
  8
0
  6
Continuous
100
AcDbLine
 10
201.5754257124003
 20
99.1771930841466
 30
0.0
 11
201.5754257124003
 21
95.75488993415628
 31
0.0
  0
ARC
  5
1243
330
6F
100
AcDbEntity
  8
0
  6
Continuous
100
AcDbCircle
 10
-19.6539027641703
 20
-150.3932560329319
 30
0.0
 40
330.9551714979377
100
AcDbArc
 50
48.05190688072178
 51
55.49387325956857
  0
ARC
  5
1244
330
6F
100
AcDbEntity
  8
0
  6
Continuous
100
AcDbCircle
 10
176.0145045169556
 20
121.0880115352705
 30
0.0
 40
8.278702351011657
100
AcDbArc
 50
171.3331380355762
 51
227.0384410108894
  0
LINE
  5
1245
330
6F
100
AcDbEntity
  8
0
  6
Continuous
100
AcDbLine
 10
170.3725065661572
 20
115.029565221253
 30
0.0
 11
154.8085758827593
 21
128.7600646473765
 31
0.0
  0
LINE
  5
1246
330
6F
100
AcDbEntity
  8
0
  6
Continuous
100
AcDbLine
 10
154.8085758827593
 20
128.7600646473765
 30
0.0
 11
154.1960823657019
 21
122.8784381626069
 31
0.0
  0
ARC
  5
1247
330
6F
100
AcDbEntity
  8
0
  6
Continuous
100
AcDbCircle
 10
138.3827019156786
 20
113.6673928863584
 30
0.0
 40
18.30044688903198
100
AcDbArc
 50
30.22012673948637
 51
67.8309739879804
  0
ARC
  5
1248
330
6F
100
AcDbEntity
  8
0
  6
Continuous
100
AcDbCircle
 10
143.6579691860437
 20
125.3559168463151
 30
0.0
 40
5.505935155184143
100
AcDbArc
 50
72.77736426629281
 51
122.2562317754168
  0
LINE
  5
1249
330
6F
100
AcDbEntity
  8
0
  6
Continuous
100
AcDbLine
 10
220.8640400457979
 20
177.1826100658413
 30
0.0
 11
220.8640400457979
 21
155.1826100658417
 31
0.0
  0
LINE
  5
124A
330
6F
100
AcDbEntity
  8
0
  6
Continuous
100
AcDbLine
 10
220.8640400457979
 20
155.1826100658417
 30
0.0
 11
224.364040045798
 21
155.1826100658417
 31
0.0
  0
LINE
  5
124B
330
6F
100
AcDbEntity
  8
0
  6
Continuous
100
AcDbLine
 10
231.864040045798
 20
155.1826100658417
 30
0.0
 11
231.864040045798
 21
177.1826100658413
 31
0.0
  0
LINE
  5
124C
330
6F
100
AcDbEntity
  8
0
  6
Continuous
100
AcDbLine
 10
231.864040045798
 20
155.1826100658417
 30
0.0
 11
228.364040045798
 21
155.1826100658417
 31
0.0
  0
LINE
  5
124D
330
6F
100
AcDbEntity
  8
0
  6
Continuous
100
AcDbLine
 10
228.364040045798
 20
155.1826100658417
 30
0.0
 11
228.364040045798
 21
164.6826100658415
 31
0.0
  0
LINE
  5
124E
330
6F
100
AcDbEntity
  8
0
  6
Continuous
100
AcDbLine
 10
228.364040045798
 20
164.6826100658415
 30
0.0
 11
224.364040045798
 21
164.6826100658415
 31
0.0
  0
LINE
  5
124F
330
6F
100
AcDbEntity
  8
0
  6
Continuous
100
AcDbLine
 10
224.364040045798
 20
164.6826100658415
 30
0.0
 11
224.364040045798
 21
155.1826100658417
 31
0.0
  0
LINE
  5
1250
330
6F
100
AcDbEntity
  8
0
  6
Continuous
100
AcDbLine
 10
220.8640400457979
 20
177.1826100658413
 30
0.0
 11
224.364040045798
 21
177.1826100658413
 31
0.0
  0
LINE
  5
1251
330
6F
100
AcDbEntity
  8
0
  6
Continuous
100
AcDbLine
 10
224.364040045798
 20
177.1826100658413
 30
0.0
 11
224.364040045798
 21
168.1826100658417
 31
0.0
  0
LINE
  5
1252
330
6F
100
AcDbEntity
  8
0
  6
Continuous
100
AcDbLine
 10
224.364040045798
 20
168.1826100658417
 30
0.0
 11
228.364040045798
 21
168.1826100658417
 31
0.0
  0
LINE
  5
1253
330
6F
100
AcDbEntity
  8
0
  6
Continuous
100
AcDbLine
 10
228.364040045798
 20
168.1826100658417
 30
0.0
 11
228.364040045798
 21
177.1826100658413
 31
0.0
  0
LINE
  5
1254
330
6F
100
AcDbEntity
  8
0
  6
Continuous
100
AcDbLine
 10
228.364040045798
 20
177.1826100658413
 30
0.0
 11
231.864040045798
 21
177.1826100658413
 31
0.0
  0
LINE
  5
1255
330
6F
100
AcDbEntity
  8
0
  6
Continuous
100
AcDbLine
 10
209.864040045798
 20
177.1826100658413
 30
0.0
 11
209.864040045798
 21
155.1826100658417
 31
0.0
  0
LINE
  5
1256
330
6F
100
AcDbEntity
  8
0
  6
Continuous
100
AcDbLine
 10
209.864040045798
 20
155.1826100658417
 30
0.0
 11
213.364040045798
 21
155.1826100658417
 31
0.0
  0
LINE
  5
1257
330
6F
100
AcDbEntity
  8
0
  6
Continuous
100
AcDbLine
 10
213.364040045798
 20
155.1826100658417
 30
0.0
 11
213.364040045798
 21
172.1826100658416
 31
0.0
  0
LINE
  5
1258
330
6F
100
AcDbEntity
  8
0
  6
Continuous
100
AcDbLine
 10
213.364040045798
 20
172.1826100658416
 30
0.0
 11
216.8640400457979
 21
172.1826100658416
 31
0.0
  0
LINE
  5
1259
330
6F
100
AcDbEntity
  8
0
  6
Continuous
100
AcDbLine
 10
216.8640400457979
 20
172.1826100658416
 30
0.0
 11
216.8640400457979
 21
175.6826100658414
 31
0.0
  0
LINE
  5
125A
330
6F
100
AcDbEntity
  8
0
  6
Continuous
100
AcDbLine
 10
209.864040045798
 20
177.1826100658413
 30
0.0
 11
213.364040045798
 21
177.1826100658413
 31
0.0
  0
LINE
  5
125B
330
6F
100
AcDbEntity
  8
0
  6
Continuous
100
AcDbLine
 10
213.364040045798
 20
177.1826100658413
 30
0.0
 11
216.8640400457979
 21
175.6826100658414
 31
0.0
  0
ARC
  5
125C
330
6F
100
AcDbEntity
  8
0
  6
Continuous
100
AcDbCircle
 10
200.3640400457979
 20
171.6826100658414
 30
0.0
 40
5.5
100
AcDbArc
 50
0.0
 51
180.0
  0
ARC
  5
125D
330
6F
100
AcDbEntity
  8
0
  6
Continuous
100
AcDbCircle
 10
200.3640400457979
 20
171.6826100658414
 30
0.0
 40
2.0
100
AcDbArc
 50
0.0
 51
180.0
  0
ARC
  5
125E
330
6F
100
AcDbEntity
  8
0
  6
Continuous
100
AcDbCircle
 10
200.3640400457979
 20
160.6826100658415
 30
0.0
 40
5.5
100
AcDbArc
 50
180.0
 51
0.0
  0
ARC
  5
125F
330
6F
100
AcDbEntity
  8
0
  6
Continuous
100
AcDbCircle
 10
200.3640400457979
 20
160.6826100658415
 30
0.0
 40
2.0
100
AcDbArc
 50
180.0
 51
0.0
  0
LINE
  5
1260
330
6F
100
AcDbEntity
  8
0
  6
Continuous
100
AcDbLine
 10
205.8640400457979
 20
171.6826100658414
 30
0.0
 11
205.8640400457979
 21
160.6826100658415
 31
0.0
  0
LINE
  5
1261
330
6F
100
AcDbEntity
  8
0
  6
Continuous
100
AcDbLine
 10
202.364040045798
 20
171.6826100658414
 30
0.0
 11
202.364040045798
 21
160.6826100658415
 31
0.0
  0
LINE
  5
1262
330
6F
100
AcDbEntity
  8
0
  6
Continuous
100
AcDbLine
 10
198.3640400457979
 20
171.6826100658414
 30
0.0
 11
198.3640400457979
 21
169.6826100658417
 31
0.0
  0
LINE
  5
1263
330
6F
100
AcDbEntity
  8
0
  6
Continuous
100
AcDbLine
 10
198.3640400457979
 20
163.6826100658417
 30
0.0
 11
198.3640400457979
 21
160.6826100658415
 31
0.0
  0
LINE
  5
1264
330
6F
100
AcDbEntity
  8
0
  6
Continuous
100
AcDbLine
 10
194.8640400457979
 20
171.6826100658414
 30
0.0
 11
194.8640400457979
 21
169.6826100658417
 31
0.0
  0
LINE
  5
1265
330
6F
100
AcDbEntity
  8
0
  6
Continuous
100
AcDbLine
 10
194.8640400457979
 20
169.6826100658417
 30
0.0
 11
198.3640400457979
 21
169.6826100658417
 31
0.0
  0
LINE
  5
1266
330
6F
100
AcDbEntity
  8
0
  6
Continuous
100
AcDbLine
 10
194.8640400457979
 20
160.6826100658415
 30
0.0
 11
194.8640400457979
 21
167.1826100658414
 31
0.0
  0
LINE
  5
1267
330
6F
100
AcDbEntity
  8
0
  6
Continuous
100
AcDbLine
 10
194.8640400457979
 20
167.1826100658414
 30
0.0
 11
198.3640400457979
 21
167.1826100658414
 31
0.0
  0
LINE
  5
1268
330
6F
100
AcDbEntity
  8
0
  6
Continuous
100
AcDbLine
 10
198.3640400457979
 20
167.1826100658414
 30
0.0
 11
199.8640400457979
 21
167.1826100658414
 31
0.0
  0
LINE
  5
1269
330
6F
100
AcDbEntity
  8
0
  6
Continuous
100
AcDbLine
 10
199.8640400457979
 20
167.1826100658414
 30
0.0
 11
199.8640400457979
 21
163.6826100658417
 31
0.0
  0
LINE
  5
126A
330
6F
100
AcDbEntity
  8
0
  6
Continuous
100
AcDbLine
 10
199.8640400457979
 20
163.6826100658417
 30
0.0
 11
198.3640400457979
 21
163.6826100658417
 31
0.0
  0
LINE
  5
126B
330
6F
100
AcDbEntity
  8
0
  6
Continuous
100
AcDbLine
 10
179.8640400457979
 20
177.1826100658413
 30
0.0
 11
179.8640400457979
 21
155.1826100658417
 31
0.0
  0
LINE
  5
126C
330
6F
100
AcDbEntity
  8
0
  6
Continuous
100
AcDbLine
 10
179.8640400457979
 20
155.1826100658417
 30
0.0
 11
183.3640400457978
 21
155.1826100658417
 31
0.0
  0
LINE
  5
126D
330
6F
100
AcDbEntity
  8
0
  6
Continuous
100
AcDbLine
 10
190.8640400457979
 20
155.1826100658417
 30
0.0
 11
190.8640400457979
 21
177.1826100658413
 31
0.0
  0
LINE
  5
126E
330
6F
100
AcDbEntity
  8
0
  6
Continuous
100
AcDbLine
 10
190.8640400457979
 20
155.1826100658417
 30
0.0
 11
187.3640400457978
 21
155.1826100658417
 31
0.0
  0
LINE
  5
126F
330
6F
100
AcDbEntity
  8
0
  6
Continuous
100
AcDbLine
 10
187.3640400457978
 20
155.1826100658417
 30
0.0
 11
187.3640400457978
 21
164.6826100658415
 31
0.0
  0
LINE
  5
1270
330
6F
100
AcDbEntity
  8
0
  6
Continuous
100
AcDbLine
 10
187.3640400457978
 20
164.6826100658415
 30
0.0
 11
183.3640400457978
 21
164.6826100658415
 31
0.0
  0
LINE
  5
1271
330
6F
100
AcDbEntity
  8
0
  6
Continuous
100
AcDbLine
 10
183.3640400457978
 20
164.6826100658415
 30
0.0
 11
183.3640400457978
 21
155.1826100658417
 31
0.0
  0
LINE
  5
1272
330
6F
100
AcDbEntity
  8
0
  6
Continuous
100
AcDbLine
 10
179.8640400457979
 20
177.1826100658413
 30
0.0
 11
183.3640400457978
 21
177.1826100658413
 31
0.0
  0
LINE
  5
1273
330
6F
100
AcDbEntity
  8
0
  6
Continuous
100
AcDbLine
 10
183.3640400457978
 20
177.1826100658413
 30
0.0
 11
183.3640400457978
 21
168.1826100658417
 31
0.0
  0
LINE
  5
1274
330
6F
100
AcDbEntity
  8
0
  6
Continuous
100
AcDbLine
 10
183.3640400457978
 20
168.1826100658417
 30
0.0
 11
187.3640400457978
 21
168.1826100658417
 31
0.0
  0
LINE
  5
1275
330
6F
100
AcDbEntity
  8
0
  6
Continuous
100
AcDbLine
 10
187.3640400457978
 20
168.1826100658417
 30
0.0
 11
187.3640400457978
 21
177.1826100658413
 31
0.0
  0
LINE
  5
1276
330
6F
100
AcDbEntity
  8
0
  6
Continuous
100
AcDbLine
 10
187.3640400457978
 20
177.1826100658413
 30
0.0
 11
190.8640400457979
 21
177.1826100658413
 31
0.0
  0
LINE
  5
1277
330
6F
100
AcDbEntity
  8
0
  6
Continuous
100
AcDbLine
 10
160.8640400457978
 20
177.1826100658413
 30
0.0
 11
160.8640400457978
 21
167.6179986359221
 31
0.0
  0
LINE
  5
1278
330
6F
100
AcDbEntity
  8
0
  6
Continuous
100
AcDbLine
 10
175.8640400457978
 20
155.1826100658417
 30
0.0
 11
175.8640400457978
 21
177.1826100658413
 31
0.0
  0
LINE
  5
1279
330
6F
100
AcDbEntity
  8
0
  6
Continuous
100
AcDbLine
 10
175.8640400457978
 20
155.1826100658417
 30
0.0
 11
172.3640400457979
 21
155.1826100658417
 31
0.0
  0
LINE
  5
127A
330
6F
100
AcDbEntity
  8
0
  6
Continuous
100
AcDbLine
 10
172.3640400457979
 20
155.1826100658417
 30
0.0
 11
172.3640400457979
 21
171.1826100658414
 31
0.0
  0
LINE
  5
127B
330
6F
100
AcDbEntity
  8
0
  6
Continuous
100
AcDbLine
 10
164.3640400457976
 20
171.1826100658414
 30
0.0
 11
164.3640400457976
 21
156.7222107836807
 31
0.0
  0
LINE
  5
127C
330
6F
100
AcDbEntity
  8
0
  6
Continuous
100
AcDbLine
 10
160.8640400457978
 20
177.1826100658413
 30
0.0
 11
165.8640400457978
 21
177.1826100658413
 31
0.0
  0
LINE
  5
127D
330
6F
100
AcDbEntity
  8
0
  6
Continuous
100
AcDbLine
 10
170.8640400457977
 20
177.1826100658413
 30
0.0
 11
175.8640400457978
 21
177.1826100658413
 31
0.0
  0
LINE
  5
127E
330
6F
100
AcDbEntity
  8
0
  6
Continuous
100
AcDbLine
 10
169.8640400457977
 20
159.1826100658416
 30
0.0
 11
166.8640400457977
 21
159.1826100658416
 31
0.0
  0
LINE
  5
127F
330
6F
100
AcDbEntity
  8
0
  6
Continuous
100
AcDbLine
 10
172.3640400457979
 20
171.1826100658414
 30
0.0
 11
169.8640400457977
 21
159.1826100658416
 31
0.0
  0
LINE
  5
1280
330
6F
100
AcDbEntity
  8
0
  6
Continuous
100
AcDbLine
 10
166.8640400457977
 20
159.1826100658416
 30
0.0
 11
164.3640400457976
 21
171.1826100658414
 31
0.0
  0
LINE
  5
1281
330
6F
100
AcDbEntity
  8
0
  6
Continuous
100
AcDbLine
 10
168.3640400457977
 20
165.1826100658416
 30
0.0
 11
165.8640400457978
 21
177.1826100658413
 31
0.0
  0
LINE
  5
1282
330
6F
100
AcDbEntity
  8
0
  6
Continuous
100
AcDbLine
 10
170.8640400457977
 20
177.1826100658413
 30
0.0
 11
168.3640400457977
 21
165.1826100658416
 31
0.0
  0
ARC
  5
1283
330
6F
100
AcDbEntity
  8
0
  6
Continuous
100
AcDbCircle
 10
151.3640400457977
 20
171.6826100658414
 30
0.0
 40
5.5
100
AcDbArc
 50
129.0073929535584
 51
180.0
  0
ARC
  5
1284
330
6F
100
AcDbEntity
  8
0
  6
Continuous
100
AcDbCircle
 10
151.3640400457977
 20
171.6826100658414
 30
0.0
 40
2.0
100
AcDbArc
 50
0.0
 51
180.0
  0
ARC
  5
1285
330
6F
100
AcDbEntity
  8
0
  6
Continuous
100
AcDbCircle
 10
151.3640400457977
 20
160.6826100658415
 30
0.0
 40
5.5
100
AcDbArc
 50
291.3236862634986
 51
0.0
  0
ARC
  5
1286
330
6F
100
AcDbEntity
  8
0
  6
Continuous
100
AcDbCircle
 10
151.3640400457977
 20
160.6826100658415
 30
0.0
 40
5.5
100
AcDbArc
 50
180.0
 51
248.6763137365014
  0
LINE
  5
1287
330
6F
100
AcDbEntity
  8
0
  6
Continuous
100
AcDbLine
 10
156.8640400457977
 20
168.385092997304
 30
0.0
 11
156.8640400457977
 21
160.6826100658415
 31
0.0
  0
LINE
  5
1288
330
6F
100
AcDbEntity
  8
0
  6
Continuous
100
AcDbLine
 10
153.3640400457978
 20
171.6826100658414
 30
0.0
 11
153.3640400457978
 21
155.5591346828617
 31
0.0
  0
LINE
  5
1289
330
6F
100
AcDbEntity
  8
0
  6
Continuous
100
AcDbLine
 10
149.3640400457977
 20
171.6826100658414
 30
0.0
 11
149.3640400457977
 21
155.5591346828617
 31
0.0
  0
LINE
  5
128A
330
6F
100
AcDbEntity
  8
0
  6
Continuous
100
AcDbLine
 10
145.8640400457976
 20
171.6826100658414
 30
0.0
 11
145.8640400457976
 21
160.6826100658415
 31
0.0
  0
ARC
  5
128B
330
6F
100
AcDbEntity
  8
0
  6
Continuous
100
AcDbCircle
 10
136.3640400457977
 20
160.6826100658415
 30
0.0
 40
5.5
100
AcDbArc
 50
180.0
 51
0.0
  0
ARC
  5
128C
330
6F
100
AcDbEntity
  8
0
  6
Continuous
100
AcDbCircle
 10
136.3640400457977
 20
160.6826100658415
 30
0.0
 40
2.0
100
AcDbArc
 50
180.0
 51
0.0
  0
LINE
  5
128D
330
6F
100
AcDbEntity
  8
0
  6
Continuous
100
AcDbLine
 10
141.8640400457977
 20
177.8609159010569
 30
0.0
 11
141.8640400457977
 21
160.6826100658415
 31
0.0
  0
LINE
  5
128E
330
6F
100
AcDbEntity
  8
0
  6
Continuous
100
AcDbLine
 10
138.3640400457977
 20
177.4850671797834
 30
0.0
 11
138.3640400457977
 21
160.6826100658415
 31
0.0
  0
LINE
  5
128F
330
6F
100
AcDbEntity
  8
0
  6
Continuous
100
AcDbLine
 10
134.3640400457977
 20
180.9227646021989
 30
0.0
 11
134.3640400457977
 21
160.6826100658415
 31
0.0
  0
LINE
  5
1290
330
6F
100
AcDbEntity
  8
0
  6
Continuous
100
AcDbLine
 10
130.8640400457977
 20
177.0375611957089
 30
0.0
 11
130.8640400457977
 21
160.6826100658415
 31
0.0
  0
LINE
  5
1291
330
6F
100
AcDbEntity
  8
0
  6
Continuous
100
AcDbLine
 10
115.0307067124644
 20
177.1826100658417
 30
0.0
 11
115.0307067124644
 21
167.3069657188239
 31
0.0
  0
LINE
  5
1292
330
6F
100
AcDbEntity
  8
0
  6
Continuous
100
AcDbLine
 10
126.8640400457977
 20
155.1826100658417
 30
0.0
 11
126.8640400457977
 21
175.2899608499592
 31
0.0
  0
LINE
  5
1293
330
6F
100
AcDbEntity
  8
0
  6
Continuous
100
AcDbLine
 10
126.8640400457977
 20
155.1826100658417
 30
0.0
 11
123.3640400457977
 21
155.1826100658417
 31
0.0
  0
LINE
  5
1294
330
6F
100
AcDbEntity
  8
0
  6
Continuous
100
AcDbLine
 10
123.3640400457977
 20
155.1826100658417
 30
0.0
 11
123.3640400457977
 21
171.1826100658414
 31
0.0
  0
LINE
  5
1295
330
6F
100
AcDbEntity
  8
0
  6
Continuous
100
AcDbLine
 10
121.8640400457977
 20
177.1826100658413
 30
0.0
 11
124.1743002519132
 21
177.1826100658413
 31
0.0
  0
LINE
  5
1296
330
6F
100
AcDbEntity
  8
0
  6
Continuous
100
AcDbLine
 10
123.3640400457977
 20
171.1826100658414
 30
0.0
 11
120.0307067124644
 21
155.1826100658417
 31
0.0
  0
LINE
  5
1297
330
6F
100
AcDbEntity
  8
0
  6
Continuous
100
AcDbLine
 10
121.8640400457977
 20
177.1826100658413
 30
0.0
 11
121.4536196599937
 21
175.2125922139817
 31
0.0
  0
LINE
  5
1298
330
6F
100
AcDbEntity
  8
0
  6
Continuous
100
AcDbLine
 10
120.0307067124644
 20
155.1826100658417
 30
0.0
 11
115.0307067124644
 21
155.1826100658417
 31
0.0
  0
LINE
  5
1299
330
6F
100
AcDbEntity
  8
0
  6
Continuous
100
AcDbLine
 10
115.0307067124644
 20
177.1826100658417
 30
0.0
 11
118.5307067124644
 21
177.1826100658417
 31
0.0
  0
LINE
  5
129A
330
6F
100
AcDbEntity
  8
0
  6
Continuous
100
AcDbLine
 10
118.5307067124644
 20
177.1826100658417
 30
0.0
 11
118.5307067124643
 21
175.4191239341948
 31
0.0
  0
LINE
  5
129B
330
6F
100
AcDbEntity
  8
0
  6
Continuous
100
AcDbLine
 10
111.0307067124644
 20
177.1826100658417
 30
0.0
 11
100.5307067124645
 21
177.1826100658417
 31
0.0
  0
LINE
  5
129C
330
6F
100
AcDbEntity
  8
0
  6
Continuous
100
AcDbLine
 10
100.5307067124645
 20
177.1826100658417
 30
0.0
 11
100.5307067124645
 21
173.6826100658417
 31
0.0
  0
LINE
  5
129D
330
6F
100
AcDbEntity
  8
0
  6
Continuous
100
AcDbLine
 10
100.5307067124645
 20
173.6826100658417
 30
0.0
 11
104.0307067124644
 21
173.6826100658417
 31
0.0
  0
LINE
  5
129E
330
6F
100
AcDbEntity
  8
0
  6
Continuous
100
AcDbLine
 10
107.5307067124646
 20
173.6826100658417
 30
0.0
 11
111.0307067124644
 21
173.6826100658417
 31
0.0
  0
LINE
  5
129F
330
6F
100
AcDbEntity
  8
0
  6
Continuous
100
AcDbLine
 10
111.0307067124644
 20
173.6826100658417
 30
0.0
 11
111.0307067124644
 21
177.1826100658417
 31
0.0
  0
LINE
  5
12A0
330
6F
100
AcDbEntity
  8
0
  6
Continuous
100
AcDbLine
 10
107.5307067124646
 20
173.6826100658417
 30
0.0
 11
107.5307067124646
 21
155.1826100658417
 31
0.0
  0
LINE
  5
12A1
330
6F
100
AcDbEntity
  8
0
  6
Continuous
100
AcDbLine
 10
107.5307067124646
 20
155.1826100658417
 30
0.0
 11
104.0307067124644
 21
155.1826100658417
 31
0.0
  0
LINE
  5
12A2
330
6F
100
AcDbEntity
  8
0
  6
Continuous
100
AcDbLine
 10
104.0307067124644
 20
155.1826100658417
 30
0.0
 11
104.0307067124644
 21
173.6826100658417
 31
0.0
  0
LINE
  5
12A3
330
6F
100
AcDbEntity
  8
0
  6
Continuous
100
AcDbLine
 10
96.53070671246453
 20
177.1826100658417
 30
0.0
 11
93.03070671246462
 21
177.1826100658417
 31
0.0
  0
LINE
  5
12A4
330
6F
100
AcDbEntity
  8
0
  6
Continuous
100
AcDbLine
 10
101.1140400457977
 20
155.1826100658417
 30
0.0
 11
96.53070671246453
 21
177.1826100658417
 31
0.0
  0
LINE
  5
12A5
330
6F
100
AcDbEntity
  8
0
  6
Continuous
100
AcDbLine
 10
93.03070671246462
 20
177.1826100658417
 30
0.0
 11
88.44737337913114
 21
155.1826100658417
 31
0.0
  0
LINE
  5
12A6
330
6F
100
AcDbEntity
  8
0
  6
Continuous
100
AcDbLine
 10
101.1140400457977
 20
155.1826100658417
 30
0.0
 11
97.61404004579777
 21
155.1826100658417
 31
0.0
  0
LINE
  5
12A7
330
6F
100
AcDbEntity
  8
0
  6
Continuous
100
AcDbLine
 10
88.44737337913114
 20
155.1826100658417
 30
0.0
 11
91.94737337913123
 21
155.1826100658417
 31
0.0
  0
LINE
  5
12A8
330
6F
100
AcDbEntity
  8
0
  6
Continuous
100
AcDbLine
 10
97.61404004579777
 20
155.1826100658417
 30
0.0
 11
94.78070671246452
 21
168.7826100658413
 31
0.0
  0
LINE
  5
12A9
330
6F
100
AcDbEntity
  8
0
  6
Continuous
100
AcDbLine
 10
94.78070671246452
 20
168.7826100658411
 30
0.0
 11
91.94737337913123
 21
155.1826100658417
 31
0.0
  0
LINE
  5
12AA
330
6F
100
AcDbEntity
  8
0
  6
Continuous
100
AcDbLine
 10
84.44737337913114
 20
155.1826100658417
 30
0.0
 11
84.44737337913114
 21
177.1826100658417
 31
0.0
  0
LINE
  5
12AB
330
6F
100
AcDbEntity
  8
0
  6
Continuous
100
AcDbLine
 10
84.44737337913114
 20
177.1826100658417
 30
0.0
 11
80.94737337913114
 21
177.1826100658417
 31
0.0
  0
LINE
  5
12AC
330
6F
100
AcDbEntity
  8
0
  6
Continuous
100
AcDbLine
 10
80.94737337913114
 20
177.1826100658417
 30
0.0
 11
80.94737337913114
 21
155.1826100658417
 31
0.0
  0
LINE
  5
12AD
330
6F
100
AcDbEntity
  8
0
  6
Continuous
100
AcDbLine
 10
80.94737337913114
 20
155.1826100658417
 30
0.0
 11
84.44737337913114
 21
155.1826100658417
 31
0.0
  0
LINE
  5
12AE
330
6F
100
AcDbEntity
  8
0
  6
Continuous
100
AcDbLine
 10
65.11404004579778
 20
177.1826100658417
 30
0.0
 11
65.11404004579778
 21
155.1826100658417
 31
0.0
  0
LINE
  5
12AF
330
6F
100
AcDbEntity
  8
0
  6
Continuous
100
AcDbLine
 10
76.94737337913114
 20
155.1826100658417
 30
0.0
 11
76.94737337913114
 21
177.1826100658413
 31
0.0
  0
LINE
  5
12B0
330
6F
100
AcDbEntity
  8
0
  6
Continuous
100
AcDbLine
 10
76.94737337913114
 20
155.1826100658417
 30
0.0
 11
73.44737337913112
 21
155.1826100658417
 31
0.0
  0
LINE
  5
12B1
330
6F
100
AcDbEntity
  8
0
  6
Continuous
100
AcDbLine
 10
73.44737337913112
 20
155.1826100658417
 30
0.0
 11
73.44737337913112
 21
171.1826100658414
 31
0.0
  0
LINE
  5
12B2
330
6F
100
AcDbEntity
  8
0
  6
Continuous
100
AcDbLine
 10
71.94737337913114
 20
177.1826100658413
 30
0.0
 11
76.94737337913114
 21
177.1826100658413
 31
0.0
  0
LINE
  5
12B3
330
6F
100
AcDbEntity
  8
0
  6
Continuous
100
AcDbLine
 10
73.44737337913112
 20
171.1826100658414
 30
0.0
 11
70.11404004579778
 21
155.1826100658417
 31
0.0
  0
LINE
  5
12B4
330
6F
100
AcDbEntity
  8
0
  6
Continuous
100
AcDbLine
 10
71.94737337913114
 20
177.1826100658413
 30
0.0
 11
68.61404004579776
 21
161.1826100658413
 31
0.0
  0
LINE
  5
12B5
330
6F
100
AcDbEntity
  8
0
  6
Continuous
100
AcDbLine
 10
70.11404004579778
 20
155.1826100658417
 30
0.0
 11
65.11404004579778
 21
155.1826100658417
 31
0.0
  0
LINE
  5
12B6
330
6F
100
AcDbEntity
  8
0
  6
Continuous
100
AcDbLine
 10
65.11404004579778
 20
177.1826100658417
 30
0.0
 11
68.61404004579776
 21
177.1826100658417
 31
0.0
  0
LINE
  5
12B7
330
6F
100
AcDbEntity
  8
0
  6
Continuous
100
AcDbLine
 10
68.61404004579776
 20
177.1826100658417
 30
0.0
 11
68.61404004579776
 21
161.1826100658414
 31
0.0
  0
ARC
  5
12B8
330
6F
100
AcDbEntity
  8
0
  6
Continuous
100
AcDbCircle
 10
138.0307067124644
 20
155.1826100658417
 30
0.0
 40
26.0
100
AcDbArc
 50
48.89635520303095
 51
86.10364479697109
  0
ARC
  5
12B9
330
6F
100
AcDbEntity
  8
0
  6
Continuous
100
AcDbCircle
 10
138.0307067124644
 20
155.1826100658417
 30
0.0
 40
26.0
100
AcDbArc
 50
28.57339867277819
 51
41.10364479696673
  0
ARC
  5
12BA
330
6F
100
AcDbEntity
  8
0
  6
Continuous
100
AcDbCircle
 10
138.0307067124644
 20
155.1826100658417
 30
0.0
 40
26.0
100
AcDbArc
 50
328.0880307757799
 51
356.1036447969709
  0
ARC
  5
12BB
330
6F
100
AcDbEntity
  8
0
  6
Continuous
100
AcDbCircle
 10
138.0307067124644
 20
155.1826100658417
 30
0.0
 40
26.0
100
AcDbArc
 50
183.8963552030289
 51
216.4890224751317
  0
ARC
  5
12BC
330
6F
100
AcDbEntity
  8
0
  6
Continuous
100
AcDbCircle
 10
138.0307067124644
 20
155.1826100658417
 30
0.0
 40
26.0
100
AcDbArc
 50
152.2042275039694
 51
176.1036447969708
  0
ARC
  5
12BD
330
6F
100
AcDbEntity
  8
0
  6
Continuous
100
AcDbCircle
 10
138.0307067124644
 20
155.1826100658417
 30
0.0
 40
26.0
100
AcDbArc
 50
129.6116221517088
 51
131.103644796969
  0
ARC
  5
12BE
330
6F
100
AcDbEntity
  8
0
  6
Continuous
100
AcDbCircle
 10
138.0307067124644
 20
155.1826100658417
 30
0.0
 40
26.0
100
AcDbArc
 50
98.1072000091958
 51
122.2042275039723
  0
ARC
  5
12BF
330
6F
100
AcDbEntity
  8
0
  6
Continuous
100
AcDbCircle
 10
138.0307067124644
 20
155.1826100658417
 30
0.0
 40
23.0
100
AcDbArc
 50
108.1553308498236
 51
119.0457111554775
  0
ARC
  5
12C0
330
6F
100
AcDbEntity
  8
0
  6
Continuous
100
AcDbCircle
 10
138.0307067124644
 20
155.1826100658417
 30
0.0
 40
23.0
100
AcDbArc
 50
64.58342065135346
 51
80.40593177313516
  0
ARC
  5
12C1
330
6F
100
AcDbEntity
  8
0
  6
Continuous
100
AcDbCircle
 10
138.0307067124644
 20
155.1826100658417
 30
0.0
 40
23.0
100
AcDbArc
 50
325.8289577551265
 51
35.03110081092835
  0
ARC
  5
12C2
330
6F
100
AcDbEntity
  8
0
  6
Continuous
100
AcDbCircle
 10
138.0307067124644
 20
155.1826100658417
 30
0.0
 40
23.0
100
AcDbArc
 50
180.0
 51
215.3776080217338
  0
LINE
  5
12C3
330
6F
100
AcDbEntity
  8
0
  6
Continuous
100
AcDbLine
 10
138.0307067124644
 20
184.1826100658417
 30
0.0
 11
139.797454139885
 21
181.1225137574073
 31
0.0
  0
LINE
  5
12C4
330
6F
100
AcDbEntity
  8
0
  6
Continuous
100
AcDbLine
 10
138.0307067124644
 20
184.1826100658417
 30
0.0
 11
136.2639592850437
 21
181.1225137574073
 31
0.0
  0
LINE
  5
12C6
330
6F
100
AcDbEntity
  8
0
  6
Continuous
100
AcDbLine
 10
109.0307067124644
 20
155.1826100658417
 30
0.0
 11
112.0908030208987
 21
156.9493574932625
 31
0.0
  0
LINE
  5
12C7
330
6F
100
AcDbEntity
  8
0
  6
Continuous
100
AcDbLine
 10
109.0307067124644
 20
155.1826100658417
 30
0.0
 11
112.0908030208987
 21
153.4158626384209
 31
0.0
  0
LINE
  5
12C8
330
6F
100
AcDbEntity
  8
0
  6
Continuous
100
AcDbLine
 10
167.0307067124644
 20
155.1826100658417
 30
0.0
 11
164.3640400457976
 21
156.7222107836807
 31
0.0
  0
LINE
  5
12C9
330
6F
100
AcDbEntity
  8
0
  6
Continuous
100
AcDbLine
 10
163.9706104040301
 20
153.4158626384209
 30
0.0
 11
167.0307067124644
 21
155.1826100658417
 31
0.0
  0
LINE
  5
12CA
330
6F
100
AcDbEntity
  8
0
  6
Continuous
100
AcDbLine
 10
158.5368033668743
 20
175.6887067202517
 30
0.0
 11
157.6222676026694
 21
172.2756127829007
 31
0.0
  0
LINE
  5
12CB
330
6F
100
AcDbEntity
  8
0
  6
Continuous
100
AcDbLine
 10
158.5368033668743
 20
175.6887067202517
 30
0.0
 11
155.1237094295234
 21
174.7741709560468
 31
0.0
  0
LINE
  5
12CC
330
6F
100
AcDbEntity
  8
0
  6
Continuous
100
AcDbLine
 10
118.5307067124644
 20
175.4191239341948
 30
0.0
 11
120.9377039954055
 21
174.7741709560468
 31
0.0
  0
LINE
  5
12CD
330
6F
100
AcDbEntity
  8
0
  6
Continuous
100
AcDbLine
 10
136.2639592850437
 20
181.1225137574073
 30
0.0
 11
138.3640400457977
 21
177.4850671797834
 31
0.0
  0
ARC
  5
12CE
330
6F
100
AcDbEntity
  8
0
  6
Continuous
100
AcDbCircle
 10
162.4806678416933
 20
156.2151095668525
 30
0.0
 40
14.96688025066429
100
AcDbArc
 50
248.7663887877068
 51
260.8517863767958
  0
LINE
  5
12CF
330
6F
100
AcDbEntity
  8
0
  6
Continuous
100
AcDbLine
 10
117.127465644371
 20
139.7212222610821
 30
0.0
 11
119.2775618485321
 21
141.8664710716597
 31
0.0
  0
ARC
  5
12D5
330
6F
100
AcDbEntity
  8
0
  6
Continuous
100
AcDbCircle
 10
290.3390266971988
 20
53.474999999999
 30
0.0
 40
7.5
100
AcDbArc
 50
0.0
 51
90.0
  0
ARC
  5
12D6
330
6F
100
AcDbEntity
  8
0
  6
Continuous
100
AcDbCircle
 10
6.639026697198517
 20
53.474999999999
 30
0.0
 40
7.5
100
AcDbArc
 50
90.0
 51
180.0
  0
LINE
  5
12D7
330
6F
100
AcDbEntity
  8
0
  6
Continuous
100
AcDbLine
 10
290.3390266971988
 20
60.974999999999
 30
0.0
 11
6.639026697198517
 21
60.974999999999
 31
0.0
  0
LINE
  5
12D8
330
6F
100
AcDbEntity
  8
0
  6
Continuous
100
AcDbLine
 10
6.639026697198517
 20
45.97499999999899
 30
0.0
 11
290.3390266971984
 21
45.97499999999921
 31
0.0
  0
ARC
  5
12D9
330
6F
100
AcDbEntity
  8
0
  6
Continuous
100
AcDbCircle
 10
290.3390266971984
 20
53.47499999999921
 30
0.0
 40
7.5
100
AcDbArc
 50
270.0
 51
0.0
  0
ARC
  5
12DA
330
6F
100
AcDbEntity
  8
0
  6
Continuous
100
AcDbCircle
 10
6.639026697198517
 20
53.474999999999
 30
0.0
 40
7.5
100
AcDbArc
 50
180.0
 51
270.0
  0
ARC
  5
12DB
330
6F
100
AcDbEntity
  8
0
  6
Continuous
100
AcDbCircle
 10
290.3390133485995
 20
30.4874999999995
 30
0.0
 40
7.5
100
AcDbArc
 50
0.0
 51
90.0
  0
ARC
  5
12DC
330
6F
100
AcDbEntity
  8
0
  6
Continuous
100
AcDbCircle
 10
6.639013348599245
 20
30.4874999999995
 30
0.0
 40
7.5
100
AcDbArc
 50
90.0
 51
180.0
  0
LINE
  5
12DD
330
6F
100
AcDbEntity
  8
0
  6
Continuous
100
AcDbLine
 10
290.3390133485995
 20
37.9874999999995
 30
0.0
 11
6.639013348599245
 21
37.9874999999995
 31
0.0
  0
LINE
  5
12DE
330
6F
100
AcDbEntity
  8
0
  6
Continuous
100
AcDbLine
 10
6.639013348599245
 20
22.9874999999995
 30
0.0
 11
290.3390133485991
 21
22.98749999999973
 31
0.0
  0
ARC
  5
12DF
330
6F
100
AcDbEntity
  8
0
  6
Continuous
100
AcDbCircle
 10
290.3390133485991
 20
30.48749999999973
 30
0.0
 40
7.5
100
AcDbArc
 50
270.0
 51
0.0
  0
ARC
  5
12E0
330
6F
100
AcDbEntity
  8
0
  6
Continuous
100
AcDbCircle
 10
6.639013348599245
 20
30.4874999999995
 30
0.0
 40
7.5
100
AcDbArc
 50
180.0
 51
270.0
  0
ARC
  5
12E1
330
6F
100
AcDbEntity
  8
0
  6
Continuous
100
AcDbCircle
 10
290.3390000000002
 20
7.499999999999997
 30
0.0
 40
7.5
100
AcDbArc
 50
0.0
 51
90.0
  0
ARC
  5
12E2
330
6F
100
AcDbEntity
  8
0
  6
Continuous
100
AcDbCircle
 10
6.63900000000001
 20
7.499999999999997
 30
0.0
 40
7.5
100
AcDbArc
 50
90.0
 51
180.0
  0
LINE
  5
12E3
330
6F
100
AcDbEntity
  8
0
  6
Continuous
100
AcDbLine
 10
290.3390000000002
 20
15.0
 30
0.0
 11
6.63900000000001
 21
15.0
 31
0.0
  0
LINE
  5
12E4
330
6F
100
AcDbEntity
  8
0
  6
Continuous
100
AcDbLine
 10
6.63900000000001
 20
-0.0000000000000018
 30
0.0
 11
290.3389999999999
 21
0.0000000000002256
 31
0.0
  0
ARC
  5
12E5
330
6F
100
AcDbEntity
  8
0
  6
Continuous
100
AcDbCircle
 10
290.3389999999999
 20
7.500000000000222
 30
0.0
 40
7.5
100
AcDbArc
 50
270.0
 51
0.0
  0
ARC
  5
12E6
330
6F
100
AcDbEntity
  8
0
  6
Continuous
100
AcDbCircle
 10
6.63900000000001
 20
7.499999999999997
 30
0.0
 40
7.5
100
AcDbArc
 50
180.0
 51
270.0
  0
CIRCLE
  5
12FC
330
6F
100
AcDbEntity
  8
0
  6
Continuous
100
AcDbCircle
 10
285.8390400457979
 20
73.96249999999873
 30
0.0
 40
1.75
  0
CIRCLE
  5
12FD
330
6F
100
AcDbEntity
  8
0
  6
Continuous
100
AcDbCircle
 10
196.6640400457979
 20
73.96249999999873
 30
0.0
 40
1.75
  0
CIRCLE
  5
12FE
330
6F
100
AcDbEntity
  8
0
  6
Continuous
100
AcDbCircle
 10
100.3140400457978
 20
73.96249999999873
 30
0.0
 40
1.75
  0
CIRCLE
  5
12FF
330
6F
100
AcDbEntity
  8
0
  6
Continuous
100
AcDbCircle
 10
11.13904004579774
 20
73.96249999999873
 30
0.0
 40
1.75
  0
CIRCLE
  5
1300
330
6F
100
AcDbEntity
  8
0
  6
Continuous
100
AcDbCircle
 10
285.8390400457979
 20
205.974999999999
 30
0.0
 40
1.75
  0
CIRCLE
  5
1301
330
6F
100
AcDbEntity
  8
0
  6
Continuous
100
AcDbCircle
 10
196.6640400457979
 20
205.974999999999
 30
0.0
 40
1.75
  0
CIRCLE
  5
1302
330
6F
100
AcDbEntity
  8
0
  6
Continuous
100
AcDbCircle
 10
100.3140400457978
 20
205.974999999999
 30
0.0
 40
1.75
  0
CIRCLE
  5
1303
330
6F
100
AcDbEntity
  8
0
  6
Continuous
100
AcDbCircle
 10
11.13904004579774
 20
205.974999999999
 30
0.0
 40
1.75
  0
LINE
  5
1318
330
6F
100
AcDbEntity
  8
0
  6
Continuous
100
AcDbLine
 10
153.4890400457979
 20
360.974999999999
 30
0.0
 11
153.4890400457979
 21
340.9749999999988
 31
0.0
  0
LINE
  5
131A
330
6F
100
AcDbEntity
  8
0
  6
Continuous
100
AcDbLine
 10
143.4890400457978
 20
340.974999999999
 30
0.0
 11
143.4890400457978
 21
360.974999999999
 31
0.0
  0
LINE
  5
131B
330
6F
100
AcDbEntity
  8
0
  6
Continuous
100
AcDbLine
 10
153.4890400457979
 20
340.9749999999988
 30
0.0
 11
143.4890400457978
 21
340.974999999999
 31
0.0
  0
LINE
  5
131C
330
6F
100
AcDbEntity
  8
0
  6
Continuous
100
AcDbLine
 10
143.4890400457978
 20
360.9749999999984
 30
0.0
 11
6.639040045797742
 21
360.974999999999
 31
0.0
  0
ENDSEC
  0
SECTION
  2
OBJECTS
  0
DICTIONARY
  5
C
330
0
100
AcDbDictionary
281
     1
  3
ACAD_CIP_PREVIOUS_PRODUCT_INFO
350
20E
  3
ACAD_COLOR
350
62
  3
ACAD_DETAILVIEWSTYLE
350
69
  3
ACAD_GROUP
350
D
  3
ACAD_IMAGE_DICT
350
354
  3
ACAD_IMAGE_VARS
350
355
  3
ACAD_LAYOUT
350
61
  3
ACAD_MATERIAL
350
10
  3
ACAD_MLEADERSTYLE
350
65
  3
ACAD_MLINESTYLE
350
5E
  3
ACAD_PLOTSETTINGS
350
60
  3
ACAD_PLOTSTYLENAME
350
E
  3
ACAD_RENDER_ACTIVE_RAPIDRT_SETTINGS
350
69A
  3
ACAD_RENDER_RAPIDRT_SETTINGS
350
693
  3
ACAD_SCALELIST
350
42
  3
ACAD_SECTIONVIEWSTYLE
350
67
  3
ACAD_TABLESTYLE
350
63
  3
ACAD_VISUALSTYLE
350
29
  3
ACDB_RECOMPOSE_DATA
350
1352
  3
AcDbVariableDictionary
350
218
  0
DICTIONARY
  5
22B
330
2
100
AcDbDictionary
280
     1
281
     1
  3
ACAD_LAYERSTATES
360
22C
  0
DICTIONARY
  5
216
330
54
100
AcDbDictionary
280
     1
281
     1
  3
ADSK_XREC_LAYER_RECONCILED
360
217
  0
DICTIONARY
  5
396
330
6F
100
AcDbDictionary
280
     1
281
     1
  3
ACAD_SORTENTS
360
397
  0
XRECORD
  5
20E
102
{ACAD_REACTORS
330
C
102
}
330
C
100
AcDbXrecord
280
     1
300
ACD
300
2021
300

  0
DICTIONARY
  5
62
102
{ACAD_REACTORS
330
C
102
}
330
C
100
AcDbDictionary
281
     1
  0
DICTIONARY
  5
69
102
{ACAD_REACTORS
330
C
102
}
330
C
100
AcDbDictionary
281
     1
  3
Imperial24
350
6A
  0
DICTIONARY
  5
D
102
{ACAD_REACTORS
330
C
102
}
330
C
100
AcDbDictionary
281
     1
  0
DICTIONARY
  5
354
102
{ACAD_REACTORS
330
C
102
}
330
C
100
AcDbDictionary
281
     1
  0
RASTERVARIABLES
  5
355
102
{ACAD_REACTORS
330
C
102
}
330
C
100
AcDbRasterVariables
 90
        0
 70
     1
 71
     1
 72
     0
  0
DICTIONARY
  5
61
102
{ACAD_REACTORS
330
C
102
}
330
C
100
AcDbDictionary
281
     1
  3
Model
350
72
  3
1
350
6E
  0
DICTIONARY
  5
10
102
{ACAD_REACTORS
330
C
102
}
330
C
100
AcDbDictionary
281
     1
  3
ByBlock
350
19
  3
ByLayer
350
11
  3
Global
350
21
  0
DICTIONARY
  5
65
102
{ACAD_REACTORS
330
C
102
}
330
C
100
AcDbDictionary
281
     1
  3
Standard
350
66
  0
DICTIONARY
  5
5E
102
{ACAD_REACTORS
330
C
102
}
330
C
100
AcDbDictionary
281
     1
  3
Standard
350
5F
  0
DICTIONARY
  5
60
102
{ACAD_REACTORS
330
C
102
}
330
C
100
AcDbDictionary
281
     1
  0
ACDBDICTIONARYWDFLT
  5
E
102
{ACAD_REACTORS
330
C
102
}
330
C
100
AcDbDictionary
281
     1
  3
Normal
350
F
100
AcDbDictionaryWithDefault
340
F
  0
RAPIDRTRENDERSETTINGS
  5
69A
102
{ACAD_REACTORS
330
C
102
}
330
C
100
AcDbRenderSettings
 90
        2
  1

290
     1
290
     0
290
     1
290
     1
  1

  1
 5  
 90
        0
100
AcDbRapidRTRenderSettings
 90
        3
 70
     0
 90
        5
 90
        1
 70
     1
 70
     2
 40
3.0
 40
3.0
290
     1
  0
DICTIONARY
  5
693
102
{ACAD_REACTORS
330
C
102
}
330
C
100
AcDbDictionary
281
     1
  3
1- 
350
699
  3
2- 
350
698
  3
3- 
350
697
  3

350
696
  3

350
694
  3

350
695
  0
DICTIONARY
  5
42
102
{ACAD_REACTORS
330
C
102
}
330
C
100
AcDbDictionary
281
     1
  3
A0
350
43
  3
A1
350
44
  3
A2
350
45
  3
A3
350
46
  3
A4
350
47
  3
A5
350
48
  3
A6
350
49
  3
A7
350
4A
  3
A8
350
4B
  3
A9
350
4C
  3
B0
350
4D
  3
B1
350
4E
  3
B2
350
4F
  3
B3
350
50
  3
B4
350
51
  3
B5
350
52
  3
B6
350
53
  0
DICTIONARY
  5
67
102
{ACAD_REACTORS
330
C
102
}
330
C
100
AcDbDictionary
281
     1
  3
Imperial24
350
68
  0
DICTIONARY
  5
63
102
{ACAD_REACTORS
330
C
102
}
330
C
100
AcDbDictionary
281
     1
  3
Standard
350
64
  0
DICTIONARY
  5
29
102
{ACAD_REACTORS
330
C
102
}
330
C
100
AcDbDictionary
281
     1
  3
2dWireframe
350
2F
  3
Basic
350
2E
  3
Brighten
350
35
  3
ColorChange
350
39
  3
Conceptual
350
32
  3
Dim
350
34
  3
EdgeColorOff
350
41
  3
Facepattern
350
38
  3
Flat
350
2A
  3
FlatWithEdges
350
2B
  3
Gouraud
350
2C
  3
GouraudWithEdges
350
2D
  3
Hidden
350
31
  3
JitterOff
350
3F
  3
Linepattern
350
37
  3
OverhangOff
350
40
  3
Realistic
350
33
  3
Shaded
350
3E
  3
Shaded with edges
350
3D
  3
Shades of Gray
350
3A
  3
Sketchy
350
3B
  3
Thicken
350
36
  3
Wireframe
350
30
  3
X-Ray
350
3C
  0
XRECORD
  5
1352
102
{ACAD_REACTORS
330
C
102
}
330
C
100
AcDbXrecord
280
     1
 90
        1
330
64
  0
DICTIONARY
  5
218
102
{ACAD_REACTORS
330
C
102
}
330
C
100
AcDbDictionary
281
     1
  3
CANNOSCALE
350
21E
  3
CMLEADERSTYLE
350
21A
  3
CTABLESTYLE
350
219
  3
CVIEWDETAILSTYLE
350
21B
  3
CVIEWSECTIONSTYLE
350
21C
  3
LAYEREVAL
350
220
  3
LAYERNOTIFY
350
221
  3
LIGHTINGUNITS
350
21F
  3
MSLTSCALE
350
21D
  0
DICTIONARY
  5
22C
102
{ACAD_REACTORS
330
22B
102
}
330
22B
100
AcDbDictionary
281
     1
  0
XRECORD
  5
217
102
{ACAD_REACTORS
330
216
102
}
330
216
100
AcDbXrecord
280
     1
290
     1
  0
SORTENTSTABLE
  5
397
102
{ACAD_REACTORS
330
396
102
}
330
396
100
AcDbSortentsTable
330
6F
331
F81
  5
F82
331
F82
  5
F84
331
F83
  5
F87
331
F84
  5
F83
331
F85
  5
F81
331
F87
  5
F85
331
1192
  5
1194
331
1194
  5
1199
331
1199
  5
119E
331
119B
  5
11A0
331
119E
  5
11A3
331
11A0
  5
11A4
331
11A3
  5
11A5
331
11A4
  5
119B
331
11A5
  5
1192
331
11A7
  5
11A8
331
11A8
  5
11A9
331
11A9
  5
11AA
331
11AA
  5
11AB
331
11AB
  5
11AC
331
11AC
  5
11AD
331
11AD
  5
11AE
331
11AE
  5
11AF
331
11AF
  5
11B0
331
11B0
  5
11B1
331
11B1
  5
11B2
331
11B2
  5
11B3
331
11B3
  5
11B4
331
11B4
  5
11B5
331
11B5
  5
11B6
331
11B6
  5
11B8
331
11B7
  5
11B9
331
11B8
  5
11BA
331
11B9
  5
11BB
331
11BA
  5
11BC
331
11BB
  5
11BD
331
11BC
  5
11BE
331
11BD
  5
11BF
331
11BE
  5
11C0
331
11BF
  5
11C2
331
11C0
  5
11C3
331
11C1
  5
11C4
331
11C2
  5
11C5
331
11C3
  5
11C6
331
11C4
  5
11C7
331
11C5
  5
11C8
331
11C6
  5
11C9
331
11C7
  5
11CA
331
11C8
  5
11CB
331
11C9
  5
11CC
331
11CA
  5
11CD
331
11CB
  5
11CE
331
11CC
  5
11CF
331
11CD
  5
11D0
331
11CE
  5
11D2
331
11CF
  5
11D3
331
11D0
  5
11D4
331
11D1
  5
11D5
331
11D2
  5
11D6
331
11D3
  5
11D7
331
11D4
  5
11D8
331
11D5
  5
11D9
331
11DE
  5
11E2
331
11DF
  5
11E3
331
11E0
  5
11E4
331
11E1
  5
11E5
331
11E2
  5
11E6
331
11E3
  5
11E7
331
11E4
  5
11E8
331
11E5
  5
11E9
331
11E6
  5
11EB
331
11E7
  5
11EC
331
11E8
  5
11ED
331
11E9
  5
11EE
331
11EA
  5
11EF
331
11EB
  5
11F0
331
11EC
  5
11F1
331
11ED
  5
11FA
331
11F6
  5
11FB
331
11F7
  5
11FC
331
11F8
  5
11FD
331
11F9
  5
11FE
331
11FA
  5
11FF
331
11FB
  5
1200
331
11FC
  5
1201
331
11FD
  5
1211
331
1207
  5
1212
331
1209
  5
1213
331
120B
  5
1214
331
1210
  5
121F
331
1211
  5
11D1
331
1212
  5
11C1
331
1213
  5
11B7
331
1214
  5
11A7
331
121F
  5
1220
331
1220
  5
1221
331
1221
  5
1222
331
1222
  5
122D
331
122D
  5
122E
331
122E
  5
122F
331
122F
  5
1230
331
1230
  5
1231
331
1231
  5
1232
331
1232
  5
1233
331
1233
  5
1234
331
1234
  5
1235
331
1235
  5
1236
331
1236
  5
1237
331
1237
  5
1238
331
1238
  5
1239
331
1239
  5
123A
331
123A
  5
123B
331
123B
  5
123C
331
123C
  5
123D
331
123D
  5
123E
331
123E
  5
123F
331
123F
  5
1240
331
1240
  5
1241
331
1241
  5
1242
331
1242
  5
1243
331
1243
  5
1244
331
1244
  5
1245
331
1245
  5
1246
331
1246
  5
1247
331
1247
  5
1248
331
1248
  5
1249
331
1249
  5
124A
331
124A
  5
124B
331
124B
  5
124C
331
124C
  5
124D
331
124D
  5
124E
331
124E
  5
124F
331
124F
  5
1250
331
1250
  5
1251
331
1251
  5
1252
331
1252
  5
1253
331
1253
  5
1254
331
1254
  5
1255
331
1255
  5
1256
331
1256
  5
1257
331
1257
  5
1258
331
1258
  5
1259
331
1259
  5
125A
331
125A
  5
125B
331
125B
  5
125C
331
125C
  5
125D
331
125D
  5
125E
331
125E
  5
125F
331
125F
  5
1260
331
1260
  5
1261
331
1261
  5
1262
331
1262
  5
1263
331
1263
  5
1264
331
1264
  5
1265
331
1265
  5
1266
331
1266
  5
1267
331
1267
  5
1268
331
1268
  5
1269
331
1269
  5
126A
331
126A
  5
126B
331
126B
  5
126C
331
126C
  5
126D
331
126D
  5
126E
331
126E
  5
126F
331
126F
  5
1270
331
1270
  5
1271
331
1271
  5
1272
331
1272
  5
1273
331
1273
  5
1274
331
1274
  5
1275
331
1275
  5
1276
331
1276
  5
1277
331
1277
  5
1278
331
1278
  5
1279
331
1279
  5
127A
331
127A
  5
127B
331
127B
  5
127C
331
127C
  5
127D
331
127D
  5
127E
331
127E
  5
127F
331
127F
  5
1280
331
1280
  5
1281
331
1281
  5
1282
331
1282
  5
1283
331
1283
  5
1284
331
1284
  5
1285
331
1285
  5
1286
331
1286
  5
1287
331
1287
  5
1288
331
1288
  5
1289
331
1289
  5
128A
331
128A
  5
128B
331
128B
  5
128C
331
128C
  5
128D
331
128D
  5
128E
331
128E
  5
128F
331
128F
  5
1290
331
1290
  5
1291
331
1291
  5
1292
331
1292
  5
1293
331
1293
  5
1294
331
1294
  5
1295
331
1295
  5
1296
331
1296
  5
1297
331
1297
  5
1298
331
1298
  5
1299
331
1299
  5
129A
331
129A
  5
129B
331
129B
  5
129C
331
129C
  5
129D
331
129D
  5
129E
331
129E
  5
129F
331
129F
  5
12A0
331
12A0
  5
12A1
331
12A1
  5
12A2
331
12A2
  5
12A3
331
12A3
  5
12A4
331
12A4
  5
12A5
331
12A5
  5
12A6
331
12A6
  5
12A7
331
12A7
  5
12A8
331
12A8
  5
12A9
331
12A9
  5
12AA
331
12AA
  5
12AB
331
12AB
  5
12AC
331
12AC
  5
12AD
331
12AD
  5
12AE
331
12AE
  5
12AF
331
12AF
  5
12B0
331
12B0
  5
12B1
331
12B1
  5
12B2
331
12B2
  5
12B3
331
12B3
  5
12B4
331
12B4
  5
12B5
331
12B5
  5
12B6
331
12B6
  5
12B7
331
12B7
  5
12B8
331
12B8
  5
12B9
331
12B9
  5
12BA
331
12BA
  5
12BB
331
12BB
  5
12BC
331
12BC
  5
12BD
331
12BD
  5
12BE
331
12BE
  5
12BF
331
12BF
  5
12C0
331
12C0
  5
12C1
331
12C1
  5
12C2
331
12C2
  5
12C3
331
12C3
  5
12C4
331
12C4
  5
12C5
331
12C6
  5
12C7
331
12C7
  5
12C8
331
12C8
  5
12C9
331
12C9
  5
12CA
331
12CA
  5
12CB
331
12CB
  5
12CC
331
12CC
  5
12CD
331
12CD
  5
12CE
331
12CE
  5
12CF
331
12CF
  5
12D5
331
12D5
  5
12D6
331
12D6
  5
12D7
331
12D7
  5
12D8
331
12D8
  5
12D9
331
12D9
  5
12DA
331
12DA
  5
12DB
331
12DB
  5
12DC
331
12DC
  5
12DD
331
12DD
  5
12DE
331
12DE
  5
12DF
331
12DF
  5
12E0
331
12E0
  5
12E1
331
12E1
  5
12E2
331
12E2
  5
12E3
331
12E3
  5
12E4
331
12E4
  5
12E5
331
12E5
  5
12E6
331
12E6
  5
12FC
331
12FC
  5
12FD
331
12FD
  5
12FE
331
12FE
  5
12FF
331
12FF
  5
1300
331
1300
  5
1301
331
1301
  5
1302
331
1302
  5
1303
331
1303
  5
1313
331
1318
  5
131A
331
131A
  5
131B
331
131B
  5
131C
331
131C
  5
11EA
  0
ACDBDETAILVIEWSTYLE
  5
6A
102
{ACAD_REACTORS
330
69
102
}
330
69
100
AcDbModelDocViewStyle
 70
     0
  3
Imperial24
290
     0
300
Imperial24
 90
        0
100
AcDbDetailViewStyle
 70
     0
 71
     0
 90
        3
 71
     1
340
55
 62
   256
 40
0.24
340
0
 62
   256
 40
0.24
300

 40
0.36
280
     3
 71
     2
340
5C
 90
       25
 62
   256
 71
     3
340
55
 62
   256
 40
0.24
 90
        1
 40
0.75
 90
        1
300
%<\AcVar ViewType \f "%tc1">% %<\AcVar ViewDetailId>%\P %<\AcVar ViewScale \f "%sn">%
 71
     4
340
5C
 90
       25
 62
   256
340
5C
 90
       25
 62
   256
280
     0
  0
LAYOUT
  5
72
102
{ACAD_REACTORS
330
61
102
}
330
61
100
AcDbPlotSettings
  1

  2
Epson Stylus SX130
  4

  6

 40
0.0
 41
0.0
 42
0.0
 43
0.0
 44
0.0
 45
0.0
 46
0.0
 47
0.0
 48
0.0
 49
0.0
140
0.0
141
0.0
142
1.0
143
1.0
 70
  1712
 72
     0
 73
     0
 74
     0
  7

 75
     0
147
1.0
 76
     0
 77
     2
 78
   300
148
0.0
149
0.0
100
AcDbLayout
  1
Model
 70
     1
 71
     0
 10
0.0
 20
0.0
 11
12.0
 21
9.0
 12
0.0
 22
0.0
 32
0.0
 14
0.0
 24
0.0
 34
0.0
 15
0.0
 25
0.0
 35
0.0
146
0.0
 13
0.0
 23
0.0
 33
0.0
 16
1.0
 26
0.0
 36
0.0
 17
0.0
 27
1.0
 37
0.0
 76
     0
330
6F
331
74
  0
LAYOUT
  5
6E
102
{ACAD_REACTORS
330
61
102
}
330
61
100
AcDbPlotSettings
  1

  2
Epson Stylus SX130
  4

  6

 40
0.0
 41
0.0
 42
0.0
 43
0.0
 44
0.0
 45
0.0
 46
0.0
 47
0.0
 48
0.0
 49
0.0
140
0.0
141
0.0
142
1.0
143
1.0
 70
   688
 72
     0
 73
     0
 74
     5
  7

 75
    16
147
1.0
 76
     0
 77
     2
 78
   300
148
0.0
149
0.0
100
AcDbLayout
  1
1
 70
     1
 71
     1
 10
0.0
 20
0.0
 11
12.0
 21
9.0
 12
0.0
 22
0.0
 32
0.0
 14
1.000000000000000E+20
 24
1.000000000000000E+20
 34
1.000000000000000E+20
 15
-1.000000000000000E+20
 25
-1.000000000000000E+20
 35
-1.000000000000000E+20
146
0.0
 13
0.0
 23
0.0
 33
0.0
 16
1.0
 26
0.0
 36
0.0
 17
0.0
 27
1.0
 37
0.0
 76
     0
330
6B
  0
MATERIAL
  5
19
102
{ACAD_XDICTIONARY
360
1A
102
}
102
{ACAD_REACTORS
330
10
102
}
330
10
100
AcDbMaterial
  1
ByBlock
 72
     0
 43
0.0208333333333333
 43
0.0
 43
0.0
 43
0.0
 43
0.0
 43
0.0208333333333333
 43
0.0
 43
0.0
 43
0.0
 43
0.0
 43
1.0
 43
0.0
 43
0.0
 43
0.0
 43
0.0
 43
1.0
 77
     0
 47
0.0208333333333333
 47
0.0
 47
0.0
 47
0.0
 47
0.0
 47
0.0208333333333333
 47
0.0
 47
0.0
 47
0.0
 47
0.0
 47
1.0
 47
0.0
 47
0.0
 47
0.0
 47
0.0
 47
1.0
171
     0
 49
0.0208333333333333
 49
0.0
 49
0.0
 49
0.0
 49
0.0
 49
0.0208333333333333
 49
0.0
 49
0.0
 49
0.0
 49
0.0
 49
1.0
 49
0.0
 49
0.0
 49
0.0
 49
0.0
 49
1.0
175
     0
142
0.0208333333333333
142
0.0
142
0.0
142
0.0
142
0.0
142
0.0208333333333333
142
0.0
142
0.0
142
0.0
142
0.0
142
1.0
142
0.0
142
0.0
142
0.0
142
0.0
142
1.0
179
     0
144
0.0208333333333333
144
0.0
144
0.0
144
0.0
144
0.0
144
0.0208333333333333
144
0.0
144
0.0
144
0.0
144
0.0
144
1.0
144
0.0
144
0.0
144
0.0
144
0.0
144
1.0
147
0.0208333333333333
147
0.0
147
0.0
147
0.0
147
0.0
147
0.0208333333333333
147
0.0
147
0.0
147
0.0
147
0.0
147
1.0
147
0.0
147
0.0
147
0.0
147
0.0
147
1.0
  0
MATERIAL
  5
11
102
{ACAD_XDICTIONARY
360
12
102
}
102
{ACAD_REACTORS
330
10
102
}
330
10
100
AcDbMaterial
  1
ByLayer
 72
     0
 43
0.0208333333333333
 43
0.0
 43
0.0
 43
0.0
 43
0.0
 43
0.0208333333333333
 43
0.0
 43
0.0
 43
0.0
 43
0.0
 43
1.0
 43
0.0
 43
0.0
 43
0.0
 43
0.0
 43
1.0
 77
     0
 47
0.0208333333333333
 47
0.0
 47
0.0
 47
0.0
 47
0.0
 47
0.0208333333333333
 47
0.0
 47
0.0
 47
0.0
 47
0.0
 47
1.0
 47
0.0
 47
0.0
 47
0.0
 47
0.0
 47
1.0
171
     0
 49
0.0208333333333333
 49
0.0
 49
0.0
 49
0.0
 49
0.0
 49
0.0208333333333333
 49
0.0
 49
0.0
 49
0.0
 49
0.0
 49
1.0
 49
0.0
 49
0.0
 49
0.0
 49
0.0
 49
1.0
175
     0
142
0.0208333333333333
142
0.0
142
0.0
142
0.0
142
0.0
142
0.0208333333333333
142
0.0
142
0.0
142
0.0
142
0.0
142
1.0
142
0.0
142
0.0
142
0.0
142
0.0
142
1.0
179
     0
144
0.0208333333333333
144
0.0
144
0.0
144
0.0
144
0.0
144
0.0208333333333333
144
0.0
144
0.0
144
0.0
144
0.0
144
1.0
144
0.0
144
0.0
144
0.0
144
0.0
144
1.0
147
0.0208333333333333
147
0.0
147
0.0
147
0.0
147
0.0
147
0.0208333333333333
147
0.0
147
0.0
147
0.0
147
0.0
147
1.0
147
0.0
147
0.0
147
0.0
147
0.0
147
1.0
  0
MATERIAL
  5
21
102
{ACAD_XDICTIONARY
360
22
102
}
102
{ACAD_REACTORS
330
10
102
}
330
10
100
AcDbMaterial
  1
Global
 72
     0
 43
0.0208333333333333
 43
0.0
 43
0.0
 43
0.0
 43
0.0
 43
0.0208333333333333
 43
0.0
 43
0.0
 43
0.0
 43
0.0
 43
1.0
 43
0.0
 43
0.0
 43
0.0
 43
0.0
 43
1.0
 77
     0
 47
0.0208333333333333
 47
0.0
 47
0.0
 47
0.0
 47
0.0
 47
0.0208333333333333
 47
0.0
 47
0.0
 47
0.0
 47
0.0
 47
1.0
 47
0.0
 47
0.0
 47
0.0
 47
0.0
 47
1.0
171
     0
 49
0.0208333333333333
 49
0.0
 49
0.0
 49
0.0
 49
0.0
 49
0.0208333333333333
 49
0.0
 49
0.0
 49
0.0
 49
0.0
 49
1.0
 49
0.0
 49
0.0
 49
0.0
 49
0.0
 49
1.0
175
     0
142
0.0208333333333333
142
0.0
142
0.0
142
0.0
142
0.0
142
0.0208333333333333
142
0.0
142
0.0
142
0.0
142
0.0
142
1.0
142
0.0
142
0.0
142
0.0
142
0.0
142
1.0
179
     0
144
0.0208333333333333
144
0.0
144
0.0
144
0.0
144
0.0
144
0.0208333333333333
144
0.0
144
0.0
144
0.0
144
0.0
144
1.0
144
0.0
144
0.0
144
0.0
144
0.0
144
1.0
147
0.0208333333333333
147
0.0
147
0.0
147
0.0
147
0.0
147
0.0208333333333333
147
0.0
147
0.0
147
0.0
147
0.0
147
1.0
147
0.0
147
0.0
147
0.0
147
0.0
147
1.0
  0
MLEADERSTYLE
  5
66
102
{ACAD_REACTORS
330
65
102
}
330
65
100
AcDbMLeaderStyle
179
     2
170
     2
171
     1
172
     0
 90
        2
 40
0.0
 41
0.0
173
     1
 91
-1056964608
340
5A
 92
       -2
290
     1
 42
0.09
291
     1
 43
0.36
  3
Standard
 44
0.18
300

342
55
174
     1
178
     6
175
     1
176
     0
 93
-1056964608
 45
0.18
292
     0
297
     0
 46
0.18
 94
-1056964608
 47
1.0
 49
1.0
140
1.0
293
     1
141
0.0
294
     1
177
     0
142
1.0
295
     0
296
     0
143
0.125
271
     0
272
     9
273
     9
298
     0
  0
MLINESTYLE
  5
5F
102
{ACAD_REACTORS
330
5E
102
}
330
5E
100
AcDbMlineStyle
  2
STANDARD
 70
     0
  3

 62
   256
 51
90.0
 52
90.0
 71
     2
 49
0.5
 62
   256
  6
BYLAYER
 49
-0.5
 62
   256
  6
BYLAYER
  0
ACDBPLACEHOLDER
  5
F
102
{ACAD_REACTORS
330
E
102
}
330
E
  0
RAPIDRTRENDERSETTINGS
  5
699
102
{ACAD_REACTORS
330
693
102
}
330
693
100
AcDbRenderSettings
 90
        2
  1
1- 
290
     1
290
     0
290
     1
290
     1
  1

  1
   12 
 90
        5
100
AcDbRapidRTRenderSettings
 90
        3
 70
     1
 90
        1
 90
      720
 70
     2
 70
     2
 40
3.0
 40
3.0
290
     1
  0
RAPIDRTRENDERSETTINGS
  5
698
102
{ACAD_REACTORS
330
693
102
}
330
693
100
AcDbRenderSettings
 90
        2
  1
2- 
290
     1
290
     0
290
     1
290
     1
  1

  1
   60 
 90
        4
100
AcDbRapidRTRenderSettings
 90
        3
 70
     1
 90
        1
 90
       60
 70
     2
 70
     2
 40
3.0
 40
3.0
290
     1
  0
RAPIDRTRENDERSETTINGS
  5
697
102
{ACAD_REACTORS
330
693
102
}
330
693
100
AcDbRenderSettings
 90
        2
  1
3- 
290
     1
290
     0
290
     1
290
     1
  1

  1
   10 
 90
        3
100
AcDbRapidRTRenderSettings
 90
        3
 70
     1
 90
        1
 90
       10
 70
     1
 70
     2
 40
3.0
 40
3.0
290
     1
  0
RAPIDRTRENDERSETTINGS
  5
696
102
{ACAD_REACTORS
330
693
102
}
330
693
100
AcDbRenderSettings
 90
        2
  1

290
     1
290
     0
290
     1
290
     1
  1

  1
 10  
 90
        2
100
AcDbRapidRTRenderSettings
 90
        3
 70
     0
 90
       10
 90
        1
 70
     2
 70
     2
 40
3.0
 40
3.0
290
     1
  0
RAPIDRTRENDERSETTINGS
  5
694
102
{ACAD_REACTORS
330
693
102
}
330
693
100
AcDbRenderSettings
 90
        2
  1

290
     1
290
     0
290
     1
290
     1
  1

  1
 1  
 90
        0
100
AcDbRapidRTRenderSettings
 90
        3
 70
     0
 90
        1
 90
        1
 70
     0
 70
     2
 40
3.0
 40
3.0
290
     1
  0
RAPIDRTRENDERSETTINGS
  5
695
102
{ACAD_REACTORS
330
693
102
}
330
693
100
AcDbRenderSettings
 90
        2
  1

290
     1
290
     0
290
     1
290
     1
  1

  1
 5  
 90
        1
100
AcDbRapidRTRenderSettings
 90
        3
 70
     0
 90
        5
 90
        1
 70
     1
 70
     2
 40
3.0
 40
3.0
290
     1
  0
SCALE
  5
43
102
{ACAD_REACTORS
330
42
102
}
330
42
100
AcDbScale
 70
     0
300
1:1
140
1.0
141
1.0
290
     1
  0
SCALE
  5
44
102
{ACAD_REACTORS
330
42
102
}
330
42
100
AcDbScale
 70
     0
300
1/128" = 1'-0"
140
0.0078125
141
12.0
290
     0
  0
SCALE
  5
45
102
{ACAD_REACTORS
330
42
102
}
330
42
100
AcDbScale
 70
     0
300
1/64" = 1'-0"
140
0.015625
141
12.0
290
     0
  0
SCALE
  5
46
102
{ACAD_REACTORS
330
42
102
}
330
42
100
AcDbScale
 70
     0
300
1/32" = 1'-0"
140
0.03125
141
12.0
290
     0
  0
SCALE
  5
47
102
{ACAD_REACTORS
330
42
102
}
330
42
100
AcDbScale
 70
     0
300
1/16" = 1'-0"
140
0.0625
141
12.0
290
     0
  0
SCALE
  5
48
102
{ACAD_REACTORS
330
42
102
}
330
42
100
AcDbScale
 70
     0
300
3/32" = 1'-0"
140
0.09375
141
12.0
290
     0
  0
SCALE
  5
49
102
{ACAD_REACTORS
330
42
102
}
330
42
100
AcDbScale
 70
     0
300
1/8" = 1'-0"
140
0.125
141
12.0
290
     0
  0
SCALE
  5
4A
102
{ACAD_REACTORS
330
42
102
}
330
42
100
AcDbScale
 70
     0
300
3/16" = 1'-0"
140
0.1875
141
12.0
290
     0
  0
SCALE
  5
4B
102
{ACAD_REACTORS
330
42
102
}
330
42
100
AcDbScale
 70
     0
300
1/4" = 1'-0"
140
0.25
141
12.0
290
     0
  0
SCALE
  5
4C
102
{ACAD_REACTORS
330
42
102
}
330
42
100
AcDbScale
 70
     0
300
3/8" = 1'-0"
140
0.375
141
12.0
290
     0
  0
SCALE
  5
4D
102
{ACAD_REACTORS
330
42
102
}
330
42
100
AcDbScale
 70
     0
300
1/2" = 1'-0"
140
0.5
141
12.0
290
     0
  0
SCALE
  5
4E
102
{ACAD_REACTORS
330
42
102
}
330
42
100
AcDbScale
 70
     0
300
3/4" = 1'-0"
140
0.75
141
12.0
290
     0
  0
SCALE
  5
4F
102
{ACAD_REACTORS
330
42
102
}
330
42
100
AcDbScale
 70
     0
300
1" = 1'-0"
140
1.0
141
12.0
290
     0
  0
SCALE
  5
50
102
{ACAD_REACTORS
330
42
102
}
330
42
100
AcDbScale
 70
     0
300
1-1/2" = 1'-0"
140
1.5
141
12.0
290
     0
  0
SCALE
  5
51
102
{ACAD_REACTORS
330
42
102
}
330
42
100
AcDbScale
 70
     0
300
3" = 1'-0"
140
3.0
141
12.0
290
     0
  0
SCALE
  5
52
102
{ACAD_REACTORS
330
42
102
}
330
42
100
AcDbScale
 70
     0
300
6" = 1'-0"
140
6.0
141
12.0
290
     0
  0
SCALE
  5
53
102
{ACAD_REACTORS
330
42
102
}
330
42
100
AcDbScale
 70
     0
300
1'-0" = 1'-0"
140
12.0
141
12.0
290
     0
  0
ACDBSECTIONVIEWSTYLE
  5
68
102
{ACAD_REACTORS
330
67
102
}
330
67
100
AcDbModelDocViewStyle
 70
     0
  3
Imperial24
290
     0
300
Imperial24
 90
        0
100
AcDbSectionViewStyle
 70
     0
 71
     0
 90
       78
 71
     1
340
55
 62
   256
 40
0.24
340
0
340
0
 62
   256
 40
0.24
300
I, O, Q, S, X, Z
 40
0.48
 90
        3
 40
0.18
 90
        1
 71
     2
340
5C
 90
       25
 62
   256
340
5C
 90
       50
 62
   256
 40
0.24
 40
0.0
 40
0.24
 71
     3
340
55
 62
   256
 40
0.24
 90
        1
 40
0.75
 90
        1
300
%<\AcVar ViewType \f "%tc1">% %<\AcVar ViewSectionStartId>%-%<\AcVar ViewSectionEndId>%\P %<\AcVar ViewScale \f "%sn">%
 71
     4
 62
   256
 62
   257
300
ANSI31
 40
1.0
 90
        0
290
     0
290
     0
 90
        6
 40
0.0
 40
1.570796326794896
 40
0.2617993877991494
 40
1.308996938995747
 40
-0.2617993877991494
 40
1.832595714594044
  0
TABLESTYLE
  5
64
102
{ACAD_XDICTIONARY
360
25B
102
}
102
{ACAD_REACTORS
330
63
102
}
330
63
100
AcDbTableStyle
280
     0
  3
Standard
 70
     0
 71
     0
 40
0.06
 41
0.06
280
     0
281
     0
  7
Standard
140
0.18
170
     2
 62
     0
 63
     7
283
     0
 90
      512
 91
        0
  1

274
    -2
284
     1
 64
     0
275
    -2
285
     1
 65
     0
276
    -2
286
     1
 66
     0
277
    -2
287
     1
 67
     0
278
    -2
288
     1
 68
     0
279
    -2
289
     1
 69
     0
  7
Standard
140
0.25
170
     5
 62
     0
 63
     7
283
     0
 90
      512
 91
        0
  1

274
    -2
284
     1
 64
     0
275
    -2
285
     1
 65
     0
276
    -2
286
     1
 66
     0
277
    -2
287
     1
 67
     0
278
    -2
288
     1
 68
     0
279
    -2
289
     1
 69
     0
  7
Standard
140
0.18
170
     5
 62
     0
 63
     7
283
     0
 90
      512
 91
        0
  1

274
    -2
284
     1
 64
     0
275
    -2
285
     1
 65
     0
276
    -2
286
     1
 66
     0
277
    -2
287
     1
 67
     0
278
    -2
288
     1
 68
     0
279
    -2
289
     1
 69
     0
  0
VISUALSTYLE
  5
2F
102
{ACAD_REACTORS
330
29
102
}
330
29
100
AcDbVisualStyle
  2
2dWireframe
 70
     4
177
     3
291
     0
 70
    58
 90
        0
176
     1
 90
        2
176
     1
 90
        0
176
     1
 90
        0
176
     1
 40
0.6
176
     1
 40
30.0
176
     1
 62
     7
420
 16777215
176
     1
 90
        1
176
     1
 90
        4
176
     1
 62
     7
176
     1
 62
   257
176
     1
 90
        1
176
     1
 90
        1
176
     1
 40
1.0
176
     1
 90
        0
176
     1
 62
   257
176
     1
 40
1.0
176
     1
 90
        1
176
     1
 90
        6
176
     1
 90
        2
176
     1
 62
     7
176
     1
 90
        5
176
     1
 90
        0
176
     1
 90
        0
176
     1
290
     0
176
     1
 90
        1
176
     1
 40
0.0
176
     1
 90
        0
176
     1
290
     1
176
     1
290
     1
176
     1
290
     0
176
     1
290
     0
176
     1
290
     0
176
     1
290
     0
176
     1
290
     0
176
     1
290
     0
176
     1
290
     0
176
     1
 90
       50
176
     1
 40
0.0
176
     1
 40
1.0
176
     1
 90
        0
176
     1
 62
    18
176
     1
 90
       50
176
     1
 90
        3
176
     1
 62
     5
420
      255
176
     1
290
     0
176
     1
 90
       50
176
     1
 90
       50
176
     1
 90
       50
176
     1
290
     0
176
     1
 90
       50
176
     1
 62
   256
176
     0
 40
1.0
176
     0
 90
        2
176
     1
  1
strokes_ogs.tif
176
     1
290
     0
176
     1
 40
1.0
176
     1
 40
1.0
176
     1
  0
VISUALSTYLE
  5
2E
102
{ACAD_REACTORS
330
29
102
}
330
29
100
AcDbVisualStyle
  2
Basic
 70
     7
177
     3
291
     1
 70
    58
 90
        1
176
     1
 90
        0
176
     1
 90
        1
176
     1
 90
        0
176
     1
 40
0.6
176
     1
 40
30.0
176
     1
 62
     7
420
 16777215
176
     1
 90
        0
176
     1
 90
        4
176
     1
 62
     7
176
     1
 62
   257
176
     1
 90
        1
176
     1
 90
        1
176
     1
 40
1.0
176
     1
 90
        8
176
     1
 62
     7
176
     1
 40
1.0
176
     1
 90
        1
176
     1
 90
        6
176
     1
 90
        2
176
     1
 62
     7
176
     1
 90
        5
176
     1
 90
        0
176
     1
 90
        0
176
     1
290
     0
176
     1
 90
        1
176
     1
 40
0.0
176
     1
 90
        0
176
     1
290
     0
176
     1
290
     1
176
     1
290
     1
176
     1
290
     0
176
     1
290
     0
176
     1
290
     0
176
     1
290
     0
176
     1
290
     0
176
     1
290
     0
176
     1
 90
       50
176
     1
 40
0.0
176
     1
 40
1.0
176
     1
 90
        0
176
     1
 62
    18
176
     1
 90
       50
176
     1
 90
        3
176
     1
 62
     5
420
      255
176
     1
290
     0
176
     1
 90
       50
176
     1
 90
       50
176
     1
 90
       50
176
     1
290
     0
176
     1
 90
       50
176
     1
 62
   256
176
     0
 40
1.0
176
     0
 90
        2
176
     1
  1
strokes_ogs.tif
176
     1
290
     0
176
     1
 40
1.0
176
     1
 40
1.0
176
     1
  0
VISUALSTYLE
  5
35
102
{ACAD_REACTORS
330
29
102
}
330
29
100
AcDbVisualStyle
  2
Brighten
 70
    12
177
     3
291
     1
 70
    58
 90
        2
176
     1
 90
        2
176
     1
 90
        0
176
     1
 90
        0
176
     1
 40
0.6
176
     1
 40
30.0
176
     1
 62
     7
420
 16777215
176
     1
 90
        1
176
     1
 90
        4
176
     1
 62
     7
176
     1
 62
   257
176
     1
 90
        1
176
     1
 90
        1
176
     1
 40
1.0
176
     1
 90
        8
176
     1
 62
     7
176
     1
 40
1.0
176
     1
 90
        1
176
     1
 90
        6
176
     1
 90
        2
176
     1
 62
     7
176
     1
 90
        5
176
     1
 90
        0
176
     1
 90
        0
176
     1
290
     0
176
     1
 90
        1
176
     1
 40
50.0
176
     1
 90
        0
176
     1
290
     0
176
     1
290
     1
176
     1
290
     1
176
     1
290
     0
176
     1
290
     0
176
     1
290
     0
176
     1
290
     0
176
     1
290
     0
176
     1
290
     0
176
     1
 90
       50
176
     1
 40
0.0
176
     1
 40
1.0
176
     1
 90
        0
176
     1
 62
    18
176
     1
 90
       50
176
     1
 90
        3
176
     1
 62
     5
420
      255
176
     1
290
     0
176
     1
 90
       50
176
     1
 90
       50
176
     1
 90
       50
176
     1
290
     0
176
     1
 90
       50
176
     1
 62
   256
176
     0
 40
1.0
176
     0
 90
        2
176
     1
  1
strokes_ogs.tif
176
     1
290
     0
176
     1
 40
1.0
176
     1
 40
1.0
176
     1
  0
VISUALSTYLE
  5
39
102
{ACAD_REACTORS
330
29
102
}
330
29
100
AcDbVisualStyle
  2
ColorChange
 70
    16
177
     3
291
     1
 70
    58
 90
        2
176
     1
 90
        2
176
     1
 90
        3
176
     1
 90
        0
176
     1
 40
0.6
176
     1
 40
30.0
176
     1
 62
     8
420
  8421504
176
     1
 90
        1
176
     1
 90
        4
176
     1
 62
     7
176
     1
 62
   257
176
     1
 90
        1
176
     1
 90
        1
176
     1
 40
1.0
176
     1
 90
        8
176
     1
 62
     8
420
  8421504
176
     1
 40
1.0
176
     1
 90
        1
176
     1
 90
        6
176
     1
 90
        2
176
     1
 62
     7
176
     1
 90
        5
176
     1
 90
        0
176
     1
 90
        0
176
     1
290
     0
176
     1
 90
        1
176
     1
 40
0.0
176
     1
 90
        0
176
     1
290
     0
176
     1
290
     1
176
     1
290
     1
176
     1
290
     0
176
     1
290
     0
176
     1
290
     0
176
     1
290
     0
176
     1
290
     0
176
     1
290
     0
176
     1
 90
       50
176
     1
 40
0.0
176
     1
 40
1.0
176
     1
 90
        0
176
     1
 62
    18
176
     1
 90
       50
176
     1
 90
        3
176
     1
 62
     5
420
      255
176
     1
290
     0
176
     1
 90
       50
176
     1
 90
       50
176
     1
 90
       50
176
     1
290
     0
176
     1
 90
       50
176
     1
 62
   256
176
     0
 40
1.0
176
     0
 90
        2
176
     1
  1
strokes_ogs.tif
176
     1
290
     0
176
     1
 40
1.0
176
     1
 40
1.0
176
     1
  0
VISUALSTYLE
  5
32
102
{ACAD_REACTORS
330
29
102
}
330
29
100
AcDbVisualStyle
  2
Conceptual
 70
     9
177
     3
291
     0
 70
    58
 90
        3
176
     1
 90
        2
176
     1
 90
        0
176
     1
 90
        0
176
     1
 40
0.6
176
     1
 40
30.0
176
     1
 62
     7
420
 16777215
176
     1
 90
        2
176
     1
 90
        2
176
     1
 62
     7
176
     1
 62
   257
176
     1
 90
        1
176
     1
 90
        1
176
     1
 40
179.0
176
     1
 90
        8
176
     1
 62
     7
176
     1
 40
1.0
176
     1
 90
        1
176
     1
 90
        6
176
     1
 90
        2
176
     1
 62
     7
176
     1
 90
        3
176
     1
 90
        0
176
     1
 90
        0
176
     1
290
     0
176
     1
 90
        1
176
     1
 40
0.0
176
     1
 90
        0
176
     1
290
     0
176
     1
290
     1
176
     1
290
     1
176
     1
290
     0
176
     1
290
     0
176
     1
290
     0
176
     1
290
     0
176
     1
290
     0
176
     1
290
     0
176
     1
 90
       50
176
     1
 40
0.0
176
     1
 40
1.0
176
     1
 90
        0
176
     1
 62
    18
176
     1
 90
       50
176
     1
 90
        3
176
     1
 62
     5
420
      255
176
     1
290
     0
176
     1
 90
       50
176
     1
 90
       50
176
     1
 90
       50
176
     1
290
     0
176
     1
 90
       50
176
     1
 62
   256
176
     0
 40
1.0
176
     0
 90
        2
176
     1
  1
strokes_ogs.tif
176
     1
290
     0
176
     1
 40
1.0
176
     1
 40
1.0
176
     1
  0
VISUALSTYLE
  5
34
102
{ACAD_REACTORS
330
29
102
}
330
29
100
AcDbVisualStyle
  2
Dim
 70
    11
177
     3
291
     1
 70
    58
 90
        2
176
     1
 90
        2
176
     1
 90
        0
176
     1
 90
        0
176
     1
 40
0.6
176
     1
 40
30.0
176
     1
 62
     7
420
 16777215
176
     1
 90
        1
176
     1
 90
        4
176
     1
 62
     7
176
     1
 62
   257
176
     1
 90
        1
176
     1
 90
        1
176
     1
 40
1.0
176
     1
 90
        8
176
     1
 62
     7
176
     1
 40
1.0
176
     1
 90
        1
176
     1
 90
        6
176
     1
 90
        2
176
     1
 62
     7
176
     1
 90
        5
176
     1
 90
        0
176
     1
 90
        0
176
     1
290
     0
176
     1
 90
        1
176
     1
 40
-50.0
176
     1
 90
        0
176
     1
290
     0
176
     1
290
     1
176
     1
290
     1
176
     1
290
     0
176
     1
290
     0
176
     1
290
     0
176
     1
290
     0
176
     1
290
     0
176
     1
290
     0
176
     1
 90
       50
176
     1
 40
0.0
176
     1
 40
1.0
176
     1
 90
        0
176
     1
 62
    18
176
     1
 90
       50
176
     1
 90
        3
176
     1
 62
     5
420
      255
176
     1
290
     0
176
     1
 90
       50
176
     1
 90
       50
176
     1
 90
       50
176
     1
290
     0
176
     1
 90
       50
176
     1
 62
   256
176
     0
 40
1.0
176
     0
 90
        2
176
     1
  1
strokes_ogs.tif
176
     1
290
     0
176
     1
 40
1.0
176
     1
 40
1.0
176
     1
  0
VISUALSTYLE
  5
41
102
{ACAD_REACTORS
330
29
102
}
330
29
100
AcDbVisualStyle
  2
EdgeColorOff
 70
    22
177
     3
291
     1
 70
    58
 90
        2
176
     0
 90
        2
176
     0
 90
        0
176
     0
 90
        0
176
     0
 40
0.6
176
     0
 40
30.0
176
     0
 62
     7
420
 16777215
176
     0
 90
        1
176
     0
 90
        4
176
     0
 62
     7
176
     0
 62
   257
176
     0
 90
        1
176
     0
 90
        1
176
     0
 40
1.0
176
     0
 90
        8
176
     2
 62
     7
176
     0
 40
1.0
176
     0
 90
        1
176
     0
 90
        6
176
     0
 90
        2
176
     0
 62
     7
176
     0
 90
        5
176
     0
 90
        0
176
     0
 90
        0
176
     0
290
     0
176
     0
 90
        1
176
     0
 40
0.0
176
     0
 90
        0
176
     0
290
     0
176
     1
290
     1
176
     1
290
     1
176
     1
290
     0
176
     1
290
     0
176
     1
290
     0
176
     1
290
     0
176
     1
290
     0
176
     1
290
     0
176
     1
 90
       50
176
     0
 40
0.0
176
     0
 40
1.0
176
     0
 90
        0
176
     0
 62
    18
176
     0
 90
       50
176
     0
 90
        3
176
     0
 62
     5
420
      255
176
     0
290
     0
176
     1
 90
       50
176
     0
 90
       50
176
     0
 90
       50
176
     0
290
     0
176
     1
 90
       50
176
     0
 62
   256
176
     0
 40
1.0
176
     0
 90
        2
176
     0
  1
strokes_ogs.tif
176
     0
290
     0
176
     1
 40
1.0
176
     0
 40
1.0
176
     0
  0
VISUALSTYLE
  5
38
102
{ACAD_REACTORS
330
29
102
}
330
29
100
AcDbVisualStyle
  2
Facepattern
 70
    15
177
     3
291
     1
 70
    58
 90
        2
176
     1
 90
        2
176
     1
 90
        0
176
     1
 90
        0
176
     1
 40
0.6
176
     1
 40
30.0
176
     1
 62
     7
420
 16777215
176
     1
 90
        1
176
     1
 90
        4
176
     1
 62
     7
176
     1
 62
   257
176
     1
 90
        1
176
     1
 90
        1
176
     1
 40
1.0
176
     1
 90
        8
176
     1
 62
     7
176
     1
 40
1.0
176
     1
 90
        1
176
     1
 90
        6
176
     1
 90
        2
176
     1
 62
     7
176
     1
 90
        5
176
     1
 90
        0
176
     1
 90
        0
176
     1
290
     0
176
     1
 90
        1
176
     1
 40
0.0
176
     1
 90
        0
176
     1
290
     0
176
     1
290
     1
176
     1
290
     1
176
     1
290
     0
176
     1
290
     0
176
     1
290
     0
176
     1
290
     0
176
     1
290
     0
176
     1
290
     0
176
     1
 90
       50
176
     1
 40
0.0
176
     1
 40
1.0
176
     1
 90
        0
176
     1
 62
    18
176
     1
 90
       50
176
     1
 90
        3
176
     1
 62
     5
420
      255
176
     1
290
     0
176
     1
 90
       50
176
     1
 90
       50
176
     1
 90
       50
176
     1
290
     0
176
     1
 90
       50
176
     1
 62
   256
176
     0
 40
1.0
176
     0
 90
        2
176
     1
  1
strokes_ogs.tif
176
     1
290
     0
176
     1
 40
1.0
176
     1
 40
1.0
176
     1
  0
VISUALSTYLE
  5
2A
102
{ACAD_REACTORS
330
29
102
}
330
29
100
AcDbVisualStyle
  2
Flat
 70
     0
177
     3
291
     1
 70
    58
 90
        2
176
     1
 90
        1
176
     1
 90
        1
176
     1
 90
        2
176
     1
 40
0.6
176
     1
 40
30.0
176
     1
 62
     7
420
 16777215
176
     1
 90
        0
176
     1
 90
        0
176
     1
 62
     7
176
     1
 62
   257
176
     1
 90
        1
176
     1
 90
        1
176
     1
 40
1.0
176
     1
 90
        8
176
     1
 62
     7
176
     1
 40
1.0
176
     1
 90
        1
176
     1
 90
        6
176
     1
 90
        2
176
     1
 62
     7
176
     1
 90
        5
176
     1
 90
        0
176
     1
 90
        0
176
     1
290
     0
176
     1
 90
       13
176
     1
 40
0.0
176
     1
 90
        0
176
     1
290
     0
176
     1
290
     1
176
     1
290
     1
176
     1
290
     0
176
     1
290
     0
176
     1
290
     0
176
     1
290
     0
176
     1
290
     0
176
     1
290
     0
176
     1
 90
       50
176
     1
 40
0.0
176
     1
 40
1.0
176
     1
 90
        0
176
     1
 62
    18
176
     1
 90
       50
176
     1
 90
        3
176
     1
 62
     5
420
      255
176
     1
290
     0
176
     1
 90
       50
176
     1
 90
       50
176
     1
 90
       50
176
     1
290
     0
176
     1
 90
       50
176
     1
 62
   256
176
     0
 40
1.0
176
     0
 90
        2
176
     1
  1
strokes_ogs.tif
176
     1
290
     0
176
     1
 40
1.0
176
     1
 40
1.0
176
     1
  0
VISUALSTYLE
  5
2B
102
{ACAD_REACTORS
330
29
102
}
330
29
100
AcDbVisualStyle
  2
FlatWithEdges
 70
     1
177
     3
291
     1
 70
    58
 90
        2
176
     1
 90
        1
176
     1
 90
        1
176
     1
 90
        2
176
     1
 40
0.6
176
     1
 40
30.0
176
     1
 62
     7
420
 16777215
176
     1
 90
        1
176
     1
 90
        0
176
     1
 62
     7
176
     1
 62
   257
176
     1
 90
        1
176
     1
 90
        1
176
     1
 40
1.0
176
     1
 90
        0
176
     1
 62
   257
176
     1
 40
1.0
176
     1
 90
        1
176
     1
 90
        6
176
     1
 90
        2
176
     1
 62
     7
176
     1
 90
        5
176
     1
 90
        0
176
     1
 90
        0
176
     1
290
     0
176
     1
 90
       13
176
     1
 40
0.0
176
     1
 90
        0
176
     1
290
     0
176
     1
290
     1
176
     1
290
     1
176
     1
290
     0
176
     1
290
     0
176
     1
290
     0
176
     1
290
     0
176
     1
290
     0
176
     1
290
     0
176
     1
 90
       50
176
     1
 40
0.0
176
     1
 40
1.0
176
     1
 90
        0
176
     1
 62
    18
176
     1
 90
       50
176
     1
 90
        3
176
     1
 62
     5
420
      255
176
     1
290
     0
176
     1
 90
       50
176
     1
 90
       50
176
     1
 90
       50
176
     1
290
     0
176
     1
 90
       50
176
     1
 62
   256
176
     0
 40
1.0
176
     0
 90
        2
176
     1
  1
strokes_ogs.tif
176
     1
290
     0
176
     1
 40
1.0
176
     1
 40
1.0
176
     1
  0
VISUALSTYLE
  5
2C
102
{ACAD_REACTORS
330
29
102
}
330
29
100
AcDbVisualStyle
  2
Gouraud
 70
     2
177
     3
291
     1
 70
    58
 90
        2
176
     1
 90
        2
176
     1
 90
        1
176
     1
 90
        2
176
     1
 40
0.6
176
     1
 40
30.0
176
     1
 62
     7
420
 16777215
176
     1
 90
        0
176
     1
 90
        0
176
     1
 62
     7
176
     1
 62
   257
176
     1
 90
        1
176
     1
 90
        1
176
     1
 40
1.0
176
     1
 90
        0
176
     1
 62
     7
176
     1
 40
1.0
176
     1
 90
        1
176
     1
 90
        6
176
     1
 90
        2
176
     1
 62
     7
176
     1
 90
        5
176
     1
 90
        0
176
     1
 90
        0
176
     1
290
     0
176
     1
 90
       13
176
     1
 40
0.0
176
     1
 90
        0
176
     1
290
     0
176
     1
290
     1
176
     1
290
     1
176
     1
290
     0
176
     1
290
     0
176
     1
290
     0
176
     1
290
     0
176
     1
290
     0
176
     1
290
     0
176
     1
 90
       50
176
     1
 40
0.0
176
     1
 40
1.0
176
     1
 90
        0
176
     1
 62
    18
176
     1
 90
       50
176
     1
 90
        3
176
     1
 62
     5
420
      255
176
     1
290
     0
176
     1
 90
       50
176
     1
 90
       50
176
     1
 90
       50
176
     1
290
     0
176
     1
 90
       50
176
     1
 62
   256
176
     0
 40
1.0
176
     0
 90
        2
176
     1
  1
strokes_ogs.tif
176
     1
290
     0
176
     1
 40
1.0
176
     1
 40
1.0
176
     1
  0
VISUALSTYLE
  5
2D
102
{ACAD_REACTORS
330
29
102
}
330
29
100
AcDbVisualStyle
  2
GouraudWithEdges
 70
     3
177
     3
291
     1
 70
    58
 90
        2
176
     1
 90
        2
176
     1
 90
        1
176
     1
 90
        2
176
     1
 40
0.6
176
     1
 40
30.0
176
     1
 62
     7
420
 16777215
176
     1
 90
        1
176
     1
 90
        0
176
     1
 62
     7
176
     1
 62
   257
176
     1
 90
        1
176
     1
 90
        1
176
     1
 40
1.0
176
     1
 90
        0
176
     1
 62
   257
176
     1
 40
1.0
176
     1
 90
        1
176
     1
 90
        6
176
     1
 90
        2
176
     1
 62
     7
176
     1
 90
        5
176
     1
 90
        0
176
     1
 90
        0
176
     1
290
     0
176
     1
 90
       13
176
     1
 40
0.0
176
     1
 90
        0
176
     1
290
     0
176
     1
290
     1
176
     1
290
     1
176
     1
290
     0
176
     1
290
     0
176
     1
290
     0
176
     1
290
     0
176
     1
290
     0
176
     1
290
     0
176
     1
 90
       50
176
     1
 40
0.0
176
     1
 40
1.0
176
     1
 90
        0
176
     1
 62
    18
176
     1
 90
       50
176
     1
 90
        3
176
     1
 62
     5
420
      255
176
     1
290
     0
176
     1
 90
       50
176
     1
 90
       50
176
     1
 90
       50
176
     1
290
     0
176
     1
 90
       50
176
     1
 62
   256
176
     0
 40
1.0
176
     0
 90
        2
176
     1
  1
strokes_ogs.tif
176
     1
290
     0
176
     1
 40
1.0
176
     1
 40
1.0
176
     1
  0
VISUALSTYLE
  5
31
102
{ACAD_REACTORS
330
29
102
}
330
29
100
AcDbVisualStyle
  2
Hidden
 70
     6
177
     3
291
     0
 70
    58
 90
        1
176
     1
 90
        2
176
     1
 90
        2
176
     1
 90
        0
176
     1
 40
0.6
176
     1
 40
30.0
176
     1
 62
     7
420
 16777215
176
     1
 90
        2
176
     1
 90
        2
176
     1
 62
     7
176
     1
 62
   257
176
     1
 90
        2
176
     1
 90
        1
176
     1
 40
40.0
176
     1
 90
        0
176
     1
 62
   257
176
     1
 40
1.0
176
     1
 90
        1
176
     1
 90
        6
176
     1
 90
        2
176
     1
 62
     7
176
     1
 90
        3
176
     1
 90
        0
176
     1
 90
        0
176
     1
290
     0
176
     1
 90
        1
176
     1
 40
0.0
176
     1
 90
        0
176
     1
290
     0
176
     1
290
     1
176
     1
290
     1
176
     1
290
     0
176
     1
290
     0
176
     1
290
     0
176
     1
290
     0
176
     1
290
     0
176
     1
290
     0
176
     1
 90
       50
176
     1
 40
0.0
176
     1
 40
1.0
176
     1
 90
        0
176
     1
 62
    18
176
     1
 90
       50
176
     1
 90
        3
176
     1
 62
     5
420
      255
176
     1
290
     0
176
     1
 90
       50
176
     1
 90
       50
176
     1
 90
       50
176
     1
290
     0
176
     1
 90
       50
176
     1
 62
   256
176
     0
 40
1.0
176
     0
 90
        2
176
     1
  1
strokes_ogs.tif
176
     1
290
     0
176
     1
 40
1.0
176
     1
 40
1.0
176
     1
  0
VISUALSTYLE
  5
3F
102
{ACAD_REACTORS
330
29
102
}
330
29
100
AcDbVisualStyle
  2
JitterOff
 70
    20
177
     3
291
     1
 70
    58
 90
        2
176
     0
 90
        2
176
     0
 90
        0
176
     0
 90
        0
176
     0
 40
0.6
176
     0
 40
30.0
176
     0
 62
     7
420
 16777215
176
     0
 90
        1
176
     0
 90
        4
176
     0
 62
     7
176
     0
 62
   257
176
     0
 90
        1
176
     0
 90
        1
176
     0
 40
1.0
176
     0
 90
       10
176
     2
 62
     7
176
     0
 40
1.0
176
     0
 90
        1
176
     0
 90
        6
176
     0
 90
        2
176
     0
 62
     7
176
     0
 90
        5
176
     0
 90
        0
176
     0
 90
        0
176
     0
290
     0
176
     0
 90
        1
176
     0
 40
0.0
176
     0
 90
        0
176
     0
290
     0
176
     1
290
     1
176
     1
290
     1
176
     1
290
     0
176
     1
290
     0
176
     1
290
     0
176
     1
290
     0
176
     1
290
     0
176
     1
290
     0
176
     1
 90
       50
176
     0
 40
0.0
176
     0
 40
1.0
176
     0
 90
        0
176
     0
 62
    18
176
     0
 90
       50
176
     0
 90
        3
176
     0
 62
     5
420
      255
176
     0
290
     0
176
     1
 90
       50
176
     0
 90
       50
176
     0
 90
       50
176
     0
290
     0
176
     1
 90
       50
176
     0
 62
   256
176
     0
 40
1.0
176
     0
 90
        2
176
     0
  1
strokes_ogs.tif
176
     0
290
     0
176
     1
 40
1.0
176
     0
 40
1.0
176
     0
  0
VISUALSTYLE
  5
37
102
{ACAD_REACTORS
330
29
102
}
330
29
100
AcDbVisualStyle
  2
Linepattern
 70
    14
177
     3
291
     1
 70
    58
 90
        2
176
     1
 90
        2
176
     1
 90
        0
176
     1
 90
        0
176
     1
 40
0.6
176
     1
 40
30.0
176
     1
 62
     7
420
 16777215
176
     1
 90
        1
176
     1
 90
        4
176
     1
 62
     7
176
     1
 62
   257
176
     1
 90
        7
176
     1
 90
        7
176
     1
 40
1.0
176
     1
 90
        8
176
     1
 62
     7
176
     1
 40
1.0
176
     1
 90
        1
176
     1
 90
        6
176
     1
 90
        2
176
     1
 62
     7
176
     1
 90
        5
176
     1
 90
        0
176
     1
 90
        0
176
     1
290
     0
176
     1
 90
        1
176
     1
 40
0.0
176
     1
 90
        0
176
     1
290
     0
176
     1
290
     1
176
     1
290
     1
176
     1
290
     0
176
     1
290
     0
176
     1
290
     0
176
     1
290
     0
176
     1
290
     0
176
     1
290
     0
176
     1
 90
       50
176
     1
 40
0.0
176
     1
 40
1.0
176
     1
 90
        0
176
     1
 62
    18
176
     1
 90
       50
176
     1
 90
        3
176
     1
 62
     5
420
      255
176
     1
290
     0
176
     1
 90
       50
176
     1
 90
       50
176
     1
 90
       50
176
     1
290
     0
176
     1
 90
       50
176
     1
 62
   256
176
     0
 40
1.0
176
     0
 90
        2
176
     1
  1
strokes_ogs.tif
176
     1
290
     0
176
     1
 40
1.0
176
     1
 40
1.0
176
     1
  0
VISUALSTYLE
  5
40
102
{ACAD_REACTORS
330
29
102
}
330
29
100
AcDbVisualStyle
  2
OverhangOff
 70
    21
177
     3
291
     1
 70
    58
 90
        2
176
     0
 90
        2
176
     0
 90
        0
176
     0
 90
        0
176
     0
 40
0.6
176
     0
 40
30.0
176
     0
 62
     7
420
 16777215
176
     0
 90
        1
176
     0
 90
        4
176
     0
 62
     7
176
     0
 62
   257
176
     0
 90
        1
176
     0
 90
        1
176
     0
 40
1.0
176
     0
 90
        9
176
     2
 62
     7
176
     0
 40
1.0
176
     0
 90
        1
176
     0
 90
        6
176
     0
 90
        2
176
     0
 62
     7
176
     0
 90
        5
176
     0
 90
        0
176
     0
 90
        0
176
     0
290
     0
176
     0
 90
        1
176
     0
 40
0.0
176
     0
 90
        0
176
     0
290
     0
176
     1
290
     1
176
     1
290
     1
176
     1
290
     0
176
     1
290
     0
176
     1
290
     0
176
     1
290
     0
176
     1
290
     0
176
     1
290
     0
176
     1
 90
       50
176
     0
 40
0.0
176
     0
 40
1.0
176
     0
 90
        0
176
     0
 62
    18
176
     0
 90
       50
176
     0
 90
        3
176
     0
 62
     5
420
      255
176
     0
290
     0
176
     1
 90
       50
176
     0
 90
       50
176
     0
 90
       50
176
     0
290
     0
176
     1
 90
       50
176
     0
 62
   256
176
     0
 40
1.0
176
     0
 90
        2
176
     0
  1
strokes_ogs.tif
176
     0
290
     0
176
     1
 40
1.0
176
     0
 40
1.0
176
     0
  0
VISUALSTYLE
  5
33
102
{ACAD_REACTORS
330
29
102
}
330
29
100
AcDbVisualStyle
  2
Realistic
 70
     8
177
     3
291
     0
 70
    58
 90
        2
176
     1
 90
        3
176
     1
 90
        0
176
     1
 90
        2
176
     1
 40
0.6
176
     1
 40
30.0
176
     1
 62
     7
420
 16777215
176
     1
 90
        0
176
     1
 90
        0
176
     1
 62
     7
176
     1
 62
   257
176
     1
 90
        1
176
     1
 90
        1
176
     1
 40
1.0
176
     1
 90
        8
176
     1
 62
   257
176
     1
 40
1.0
176
     1
 90
        1
176
     1
 90
        6
176
     1
 90
        2
176
     1
 62
     7
176
     1
 90
        3
176
     1
 90
        0
176
     1
 90
        0
176
     1
290
     0
176
     1
 90
       13
176
     1
 40
0.0
176
     1
 90
        0
176
     1
290
     0
176
     1
290
     1
176
     1
290
     1
176
     1
290
     0
176
     1
290
     0
176
     1
290
     0
176
     1
290
     0
176
     1
290
     0
176
     1
290
     0
176
     1
 90
       50
176
     1
 40
0.0
176
     1
 40
1.0
176
     1
 90
        0
176
     1
 62
    18
176
     1
 90
       50
176
     1
 90
        3
176
     1
 62
     5
420
      255
176
     1
290
     0
176
     1
 90
       50
176
     1
 90
       50
176
     1
 90
       50
176
     1
290
     0
176
     1
 90
       50
176
     1
 62
   256
176
     0
 40
1.0
176
     0
 90
        2
176
     1
  1
strokes_ogs.tif
176
     1
290
     0
176
     1
 40
1.0
176
     1
 40
1.0
176
     1
  0
VISUALSTYLE
  5
3E
102
{ACAD_REACTORS
330
29
102
}
330
29
100
AcDbVisualStyle
  2
Shaded
 70
    27
177
     3
291
     0
 70
    58
 90
        2
176
     1
 90
        2
176
     1
 90
        1
176
     1
 90
        2
176
     1
 40
0.6
176
     1
 40
30.0
176
     1
 62
     7
420
 16777215
176
     1
 90
        0
176
     1
 90
        4
176
     1
 62
     7
176
     1
 62
   257
176
     1
 90
        1
176
     1
 90
        1
176
     1
 40
1.0
176
     1
 90
        8
176
     1
 62
   257
176
     1
 40
1.0
176
     1
 90
        1
176
     1
 90
        6
176
     1
 90
        2
176
     1
 62
     8
420
  7895160
176
     1
 90
        3
176
     1
 90
        0
176
     1
 90
        0
176
     1
290
     0
176
     1
 90
        5
176
     1
 40
0.0
176
     1
 90
        0
176
     1
290
     0
176
     1
290
     1
176
     1
290
     1
176
     1
290
     0
176
     1
290
     0
176
     1
290
     0
176
     1
290
     0
176
     1
290
     0
176
     1
290
     0
176
     1
 90
       50
176
     1
 40
0.0
176
     1
 40
1.0
176
     1
 90
        0
176
     1
 62
    18
176
     1
 90
       50
176
     1
 90
        3
176
     1
 62
     5
420
      255
176
     1
290
     0
176
     1
 90
       50
176
     1
 90
       50
176
     1
 90
       50
176
     1
290
     0
176
     1
 90
       50
176
     1
 62
   256
176
     0
 40
1.0
176
     0
 90
        2
176
     1
  1
strokes_ogs.tif
176
     1
290
     0
176
     1
 40
1.0
176
     1
 40
1.0
176
     1
  0
VISUALSTYLE
  5
3D
102
{ACAD_REACTORS
330
29
102
}
330
29
100
AcDbVisualStyle
  2
Shaded with edges
 70
    26
177
     3
291
     0
 70
    58
 90
        2
176
     1
 90
        2
176
     1
 90
        1
176
     1
 90
        2
176
     1
 40
0.6
176
     1
 40
30.0
176
     1
 62
     7
420
 16777215
176
     1
 90
        1
176
     1
 90
        2
176
     1
 62
     7
176
     1
 62
   257
176
     1
 90
        2
176
     1
 90
        1
176
     1
 40
1.0
176
     1
 90
        8
176
     1
 62
   257
176
     1
 40
1.0
176
     1
 90
        1
176
     1
 90
        6
176
     1
 90
        2
176
     1
 62
     7
176
     1
 90
        3
176
     1
 90
        0
176
     1
 90
        0
176
     1
290
     0
176
     1
 90
        5
176
     1
 40
0.0
176
     1
 90
        0
176
     1
290
     0
176
     1
290
     1
176
     1
290
     1
176
     1
290
     0
176
     1
290
     0
176
     1
290
     0
176
     1
290
     0
176
     1
290
     0
176
     1
290
     0
176
     1
 90
       50
176
     1
 40
0.0
176
     1
 40
1.0
176
     1
 90
        0
176
     1
 62
    18
176
     1
 90
       50
176
     1
 90
        3
176
     1
 62
     5
420
      255
176
     1
290
     0
176
     1
 90
       50
176
     1
 90
       50
176
     1
 90
       50
176
     1
290
     0
176
     1
 90
       50
176
     1
 62
   256
176
     0
 40
1.0
176
     0
 90
        2
176
     1
  1
strokes_ogs.tif
176
     1
290
     0
176
     1
 40
1.0
176
     1
 40
1.0
176
     1
  0
VISUALSTYLE
  5
3A
102
{ACAD_REACTORS
330
29
102
}
330
29
100
AcDbVisualStyle
  2
Shades of Gray
 70
    23
177
     3
291
     0
 70
    58
 90
        2
176
     1
 90
        2
176
     1
 90
        3
176
     1
 90
        0
176
     1
 40
0.6
176
     1
 40
30.0
176
     1
 62
     7
420
 16777215
176
     1
 90
        2
176
     1
 90
        2
176
     1
 62
     7
176
     1
 62
     7
176
     1
 90
        1
176
     1
 90
        1
176
     1
 40
40.0
176
     1
 90
        8
176
     1
 62
     7
176
     1
 40
1.0
176
     1
 90
        1
176
     1
 90
        6
176
     1
 90
        2
176
     1
 62
     7
176
     1
 90
        3
176
     1
 90
        0
176
     1
 90
        0
176
     1
290
     0
176
     1
 90
        1
176
     1
 40
0.0
176
     1
 90
        0
176
     1
290
     0
176
     1
290
     1
176
     1
290
     1
176
     1
290
     0
176
     1
290
     0
176
     1
290
     0
176
     1
290
     0
176
     1
290
     0
176
     1
290
     0
176
     1
 90
       50
176
     1
 40
0.0
176
     1
 40
1.0
176
     1
 90
        0
176
     1
 62
    18
176
     1
 90
       50
176
     1
 90
        3
176
     1
 62
     5
420
      255
176
     1
290
     0
176
     1
 90
       50
176
     1
 90
       50
176
     1
 90
       50
176
     1
290
     0
176
     1
 90
       50
176
     1
 62
   256
176
     0
 40
1.0
176
     0
 90
        2
176
     1
  1
strokes_ogs.tif
176
     1
290
     0
176
     1
 40
1.0
176
     1
 40
1.0
176
     1
  0
VISUALSTYLE
  5
3B
102
{ACAD_REACTORS
330
29
102
}
330
29
100
AcDbVisualStyle
  2
Sketchy
 70
    24
177
     3
291
     0
 70
    58
 90
        1
176
     1
 90
        2
176
     1
 90
        2
176
     1
 90
        0
176
     1
 40
0.6
176
     1
 40
30.0
176
     1
 62
     7
420
 16777215
176
     1
 90
        2
176
     1
 90
        2
176
     1
 62
     7
176
     1
 62
     7
176
     1
 90
        1
176
     1
 90
        1
176
     1
 40
40.0
176
     1
 90
       11
176
     1
 62
     7
176
     1
 40
1.0
176
     1
 90
        1
176
     1
 90
        6
176
     1
 90
        2
176
     1
 62
     7
176
     1
 90
        6
176
     1
 90
        0
176
     1
 90
        0
176
     1
290
     0
176
     1
 90
        1
176
     1
 40
0.0
176
     1
 90
        0
176
     1
290
     0
176
     1
290
     1
176
     1
290
     1
176
     1
290
     0
176
     1
290
     0
176
     1
290
     0
176
     1
290
     0
176
     1
290
     0
176
     1
290
     0
176
     1
 90
       50
176
     1
 40
0.0
176
     1
 40
1.0
176
     1
 90
        0
176
     1
 62
    18
176
     1
 90
       50
176
     1
 90
        3
176
     1
 62
     5
420
      255
176
     1
290
     0
176
     1
 90
       50
176
     1
 90
       50
176
     1
 90
       50
176
     1
290
     0
176
     1
 90
       50
176
     1
 62
   256
176
     0
 40
1.0
176
     0
 90
        2
176
     1
  1
strokes_ogs.tif
176
     1
290
     0
176
     1
 40
1.0
176
     1
 40
1.0
176
     1
  0
VISUALSTYLE
  5
36
102
{ACAD_REACTORS
330
29
102
}
330
29
100
AcDbVisualStyle
  2
Thicken
 70
    13
177
     3
291
     1
 70
    58
 90
        2
176
     1
 90
        2
176
     1
 90
        0
176
     1
 90
        0
176
     1
 40
0.6
176
     1
 40
30.0
176
     1
 62
     7
420
 16777215
176
     1
 90
        1
176
     1
 90
        4
176
     1
 62
     7
176
     1
 62
   257
176
     1
 90
        1
176
     1
 90
        1
176
     1
 40
1.0
176
     1
 90
       12
176
     1
 62
     7
176
     1
 40
1.0
176
     1
 90
        1
176
     1
 90
        6
176
     1
 90
        2
176
     1
 62
     7
176
     1
 90
        5
176
     1
 90
        0
176
     1
 90
        0
176
     1
290
     0
176
     1
 90
        1
176
     1
 40
0.0
176
     1
 90
        0
176
     1
290
     0
176
     1
290
     1
176
     1
290
     1
176
     1
290
     0
176
     1
290
     0
176
     1
290
     0
176
     1
290
     0
176
     1
290
     0
176
     1
290
     0
176
     1
 90
       50
176
     1
 40
0.0
176
     1
 40
1.0
176
     1
 90
        0
176
     1
 62
    18
176
     1
 90
       50
176
     1
 90
        3
176
     1
 62
     5
420
      255
176
     1
290
     0
176
     1
 90
       50
176
     1
 90
       50
176
     1
 90
       50
176
     1
290
     0
176
     1
 90
       50
176
     1
 62
   256
176
     0
 40
1.0
176
     0
 90
        2
176
     1
  1
strokes_ogs.tif
176
     1
290
     0
176
     1
 40
1.0
176
     1
 40
1.0
176
     1
  0
VISUALSTYLE
  5
30
102
{ACAD_REACTORS
330
29
102
}
330
29
100
AcDbVisualStyle
  2
Wireframe
 70
     5
177
     3
291
     0
 70
    58
 90
        0
176
     1
 90
        2
176
     1
 90
        0
176
     1
 90
        0
176
     1
 40
0.6
176
     1
 40
30.0
176
     1
 62
     7
420
 16777215
176
     1
 90
        1
176
     1
 90
        4
176
     1
 62
     7
176
     1
 62
   257
176
     1
 90
        1
176
     1
 90
        1
176
     1
 40
1.0
176
     1
 90
        0
176
     1
 62
   257
176
     1
 40
1.0
176
     1
 90
        1
176
     1
 90
        6
176
     1
 90
        2
176
     1
 62
     7
176
     1
 90
        3
176
     1
 90
        0
176
     1
 90
        0
176
     1
290
     0
176
     1
 90
        1
176
     1
 40
0.0
176
     1
 90
        0
176
     1
290
     0
176
     1
290
     1
176
     1
290
     1
176
     1
290
     0
176
     1
290
     0
176
     1
290
     0
176
     1
290
     0
176
     1
290
     0
176
     1
290
     0
176
     1
 90
       50
176
     1
 40
0.0
176
     1
 40
1.0
176
     1
 90
        0
176
     1
 62
    18
176
     1
 90
       50
176
     1
 90
        3
176
     1
 62
     5
420
      255
176
     1
290
     0
176
     1
 90
       50
176
     1
 90
       50
176
     1
 90
       50
176
     1
290
     0
176
     1
 90
       50
176
     1
 62
   256
176
     0
 40
1.0
176
     0
 90
        2
176
     1
  1
strokes_ogs.tif
176
     1
290
     0
176
     1
 40
1.0
176
     1
 40
1.0
176
     1
  0
VISUALSTYLE
  5
3C
102
{ACAD_REACTORS
330
29
102
}
330
29
100
AcDbVisualStyle
  2
X-Ray
 70
    25
177
     3
291
     0
 70
    58
 90
        2
176
     1
 90
        2
176
     1
 90
        1
176
     1
 90
        1
176
     1
 40
0.5
176
     1
 40
30.0
176
     1
 62
     7
420
 16777215
176
     1
 90
        1
176
     1
 90
        0
176
     1
 62
     7
176
     1
 62
   257
176
     1
 90
        1
176
     1
 90
        1
176
     1
 40
1.0
176
     1
 90
        8
176
     1
 62
     7
176
     1
 40
1.0
176
     1
 90
        1
176
     1
 90
        6
176
     1
 90
        2
176
     1
 62
     7
176
     1
 90
        3
176
     1
 90
        0
176
     1
 90
        0
176
     1
290
     0
176
     1
 90
       13
176
     1
 40
0.0
176
     1
 90
        0
176
     1
290
     0
176
     1
290
     1
176
     1
290
     1
176
     1
290
     0
176
     1
290
     0
176
     1
290
     0
176
     1
290
     0
176
     1
290
     0
176
     1
290
     0
176
     1
 90
       50
176
     1
 40
0.0
176
     1
 40
1.0
176
     1
 90
        0
176
     1
 62
    18
176
     1
 90
       50
176
     1
 90
        3
176
     1
 62
     5
420
      255
176
     1
290
     0
176
     1
 90
       50
176
     1
 90
       50
176
     1
 90
       50
176
     1
290
     0
176
     1
 90
       50
176
     1
 62
   256
176
     0
 40
1.0
176
     0
 90
        2
176
     1
  1
strokes_ogs.tif
176
     1
290
     0
176
     1
 40
1.0
176
     1
 40
1.0
176
     1
  0
DICTIONARYVAR
  5
21E
102
{ACAD_REACTORS
330
218
102
}
330
218
100
DictionaryVariables
280
     0
  1
1:1
  0
DICTIONARYVAR
  5
21A
102
{ACAD_REACTORS
330
218
102
}
330
218
100
DictionaryVariables
280
     0
  1
STANDARD
  0
DICTIONARYVAR
  5
219
102
{ACAD_REACTORS
330
218
102
}
330
218
100
DictionaryVariables
280
     0
  1
STANDARD
  0
DICTIONARYVAR
  5
21B
102
{ACAD_REACTORS
330
218
102
}
330
218
100
DictionaryVariables
280
     0
  1
Imperial24
  0
DICTIONARYVAR
  5
21C
102
{ACAD_REACTORS
330
218
102
}
330
218
100
DictionaryVariables
280
     0
  1
Imperial24
  0
DICTIONARYVAR
  5
220
102
{ACAD_REACTORS
330
218
102
}
330
218
100
DictionaryVariables
280
     0
  1
1
  0
DICTIONARYVAR
  5
221
102
{ACAD_REACTORS
330
218
102
}
330
218
100
DictionaryVariables
280
     0
  1
15
  0
DICTIONARYVAR
  5
21F
102
{ACAD_REACTORS
330
218
102
}
330
218
100
DictionaryVariables
280
     0
  1
0
  0
DICTIONARYVAR
  5
21D
102
{ACAD_REACTORS
330
218
102
}
330
218
100
DictionaryVariables
280
     0
  1
0
  0
DICTIONARY
  5
1A
330
19
100
AcDbDictionary
280
     1
281
     1
  3
BUMPTILE
360
1C
  3
DIFFUSETILE
360
1B
  3
OPACITYTILE
360
1F
  3
REFLECTIONTILE
360
1E
  3
REFRACTIONTILE
360
20
  3
SPECULARTILE
360
1D
  0
DICTIONARY
  5
12
330
11
100
AcDbDictionary
280
     1
281
     1
  3
BUMPTILE
360
14
  3
DIFFUSETILE
360
13
  3
OPACITYTILE
360
17
  3
REFLECTIONTILE
360
16
  3
REFRACTIONTILE
360
18
  3
SPECULARTILE
360
15
  0
DICTIONARY
  5
22
330
21
100
AcDbDictionary
280
     1
281
     1
  3
BUMPTILE
360
24
  3
DIFFUSETILE
360
23
  3
OPACITYTILE
360
27
  3
REFLECTIONTILE
360
26
  3
REFRACTIONTILE
360
28
  3
SPECULARTILE
360
25
  0
DICTIONARY
  5
25B
330
64
100
AcDbDictionary
280
     1
281
     1
  3
ACAD_ROUNDTRIP_2008_TABLESTYLE_CELLSTYLEMAP
360
1351
  0
XRECORD
  5
1C
102
{ACAD_REACTORS
330
1A
102
}
330
1A
100
AcDbXrecord
280
     1
270
     1
271
     1
  0
XRECORD
  5
1B
102
{ACAD_REACTORS
330
1A
102
}
330
1A
100
AcDbXrecord
280
     1
270
     1
271
     1
  0
XRECORD
  5
1F
102
{ACAD_REACTORS
330
1A
102
}
330
1A
100
AcDbXrecord
280
     1
270
     1
271
     1
  0
XRECORD
  5
1E
102
{ACAD_REACTORS
330
1A
102
}
330
1A
100
AcDbXrecord
280
     1
270
     1
271
     1
  0
XRECORD
  5
20
102
{ACAD_REACTORS
330
1A
102
}
330
1A
100
AcDbXrecord
280
     1
270
     1
271
     1
  0
XRECORD
  5
1D
102
{ACAD_REACTORS
330
1A
102
}
330
1A
100
AcDbXrecord
280
     1
270
     1
271
     1
  0
XRECORD
  5
14
102
{ACAD_REACTORS
330
12
102
}
330
12
100
AcDbXrecord
280
     1
270
     1
271
     1
  0
XRECORD
  5
13
102
{ACAD_REACTORS
330
12
102
}
330
12
100
AcDbXrecord
280
     1
270
     1
271
     1
  0
XRECORD
  5
17
102
{ACAD_REACTORS
330
12
102
}
330
12
100
AcDbXrecord
280
     1
270
     1
271
     1
  0
XRECORD
  5
16
102
{ACAD_REACTORS
330
12
102
}
330
12
100
AcDbXrecord
280
     1
270
     1
271
     1
  0
XRECORD
  5
18
102
{ACAD_REACTORS
330
12
102
}
330
12
100
AcDbXrecord
280
     1
270
     1
271
     1
  0
XRECORD
  5
15
102
{ACAD_REACTORS
330
12
102
}
330
12
100
AcDbXrecord
280
     1
270
     1
271
     1
  0
XRECORD
  5
24
102
{ACAD_REACTORS
330
22
102
}
330
22
100
AcDbXrecord
280
     1
270
     1
271
     1
  0
XRECORD
  5
23
102
{ACAD_REACTORS
330
22
102
}
330
22
100
AcDbXrecord
280
     1
270
     1
271
     1
  0
XRECORD
  5
27
102
{ACAD_REACTORS
330
22
102
}
330
22
100
AcDbXrecord
280
     1
270
     1
271
     1
  0
XRECORD
  5
26
102
{ACAD_REACTORS
330
22
102
}
330
22
100
AcDbXrecord
280
     1
270
     1
271
     1
  0
XRECORD
  5
28
102
{ACAD_REACTORS
330
22
102
}
330
22
100
AcDbXrecord
280
     1
270
     1
271
     1
  0
XRECORD
  5
25
102
{ACAD_REACTORS
330
22
102
}
330
22
100
AcDbXrecord
280
     1
270
     1
271
     1
  0
CELLSTYLEMAP
  5
1351
102
{ACAD_REACTORS
330
25B
102
}
330
25B
100
AcDbCellStyleMap
 90
        3
300
CELLSTYLE
  1
TABLEFORMAT_BEGIN
 90
        5
170
     1
 91
        0
 92
    32768
 62
   257
 93
        1
300
CONTENTFORMAT
  1
CONTENTFORMAT_BEGIN
 90
        0
 91
        0
 92
      512
 93
        0
300

 40
0.0
140
1.0
 94
        5
 62
     0
340
55
144
0.25
309
CONTENTFORMAT_END
171
     1
301
MARGIN
  1
CELLMARGIN_BEGIN
 40
0.06
 40
0.06
 40
0.06
 40
0.06
 40
0.18
 40
0.18
309
CELLMARGIN_END
 94
        6
 95
        1
302
GRIDFORMAT
  1
GRIDFORMAT_BEGIN
 90
        0
 91
        1
 62
     0
 92
       -2
340
0
 93
        0
 40
0.045
309
GRIDFORMAT_END
 95
        2
302
GRIDFORMAT
  1
GRIDFORMAT_BEGIN
 90
        0
 91
        1
 62
     0
 92
       -2
340
0
 93
        0
 40
0.045
309
GRIDFORMAT_END
 95
        4
302
GRIDFORMAT
  1
GRIDFORMAT_BEGIN
 90
        0
 91
        1
 62
     0
 92
       -2
340
0
 93
        0
 40
0.045
309
GRIDFORMAT_END
 95
        8
302
GRIDFORMAT
  1
GRIDFORMAT_BEGIN
 90
        0
 91
        1
 62
     0
 92
       -2
340
0
 93
        0
 40
0.045
309
GRIDFORMAT_END
 95
       16
302
GRIDFORMAT
  1
GRIDFORMAT_BEGIN
 90
        0
 91
        1
 62
     0
 92
       -2
340
0
 93
        0
 40
0.045
309
GRIDFORMAT_END
 95
       32
302
GRIDFORMAT
  1
GRIDFORMAT_BEGIN
 90
        0
 91
        1
 62
     0
 92
       -2
340
0
 93
        0
 40
0.045
309
GRIDFORMAT_END
309
TABLEFORMAT_END
  1
CELLSTYLE_BEGIN
 90
        1
 91
        1
300
_TITLE
309
CELLSTYLE_END
300
CELLSTYLE
  1
TABLEFORMAT_BEGIN
 90
        5
170
     1
 91
        0
 92
        0
 62
   257
 93
        1
300
CONTENTFORMAT
  1
CONTENTFORMAT_BEGIN
 90
        0
 91
        0
 92
      512
 93
        0
300

 40
0.0
140
1.0
 94
        5
 62
     0
340
55
144
0.18
309
CONTENTFORMAT_END
171
     1
301
MARGIN
  1
CELLMARGIN_BEGIN
 40
0.06
 40
0.06
 40
0.06
 40
0.06
 40
0.18
 40
0.18
309
CELLMARGIN_END
 94
        6
 95
        1
302
GRIDFORMAT
  1
GRIDFORMAT_BEGIN
 90
        0
 91
        1
 62
     0
 92
       -2
340
0
 93
        0
 40
0.045
309
GRIDFORMAT_END
 95
        2
302
GRIDFORMAT
  1
GRIDFORMAT_BEGIN
 90
        0
 91
        1
 62
     0
 92
       -2
340
0
 93
        0
 40
0.045
309
GRIDFORMAT_END
 95
        4
302
GRIDFORMAT
  1
GRIDFORMAT_BEGIN
 90
        0
 91
        1
 62
     0
 92
       -2
340
0
 93
        0
 40
0.045
309
GRIDFORMAT_END
 95
        8
302
GRIDFORMAT
  1
GRIDFORMAT_BEGIN
 90
        0
 91
        1
 62
     0
 92
       -2
340
0
 93
        0
 40
0.045
309
GRIDFORMAT_END
 95
       16
302
GRIDFORMAT
  1
GRIDFORMAT_BEGIN
 90
        0
 91
        1
 62
     0
 92
       -2
340
0
 93
        0
 40
0.045
309
GRIDFORMAT_END
 95
       32
302
GRIDFORMAT
  1
GRIDFORMAT_BEGIN
 90
        0
 91
        1
 62
     0
 92
       -2
340
0
 93
        0
 40
0.045
309
GRIDFORMAT_END
309
TABLEFORMAT_END
  1
CELLSTYLE_BEGIN
 90
        2
 91
        1
300
_HEADER
309
CELLSTYLE_END
300
CELLSTYLE
  1
TABLEFORMAT_BEGIN
 90
        5
170
     1
 91
        0
 92
        0
 62
   257
 93
        1
300
CONTENTFORMAT
  1
CONTENTFORMAT_BEGIN
 90
        0
 91
        0
 92
      512
 93
        0
300

 40
0.0
140
1.0
 94
        2
 62
     0
340
55
144
0.18
309
CONTENTFORMAT_END
171
     1
301
MARGIN
  1
CELLMARGIN_BEGIN
 40
0.06
 40
0.06
 40
0.06
 40
0.06
 40
0.18
 40
0.18
309
CELLMARGIN_END
 94
        6
 95
        1
302
GRIDFORMAT
  1
GRIDFORMAT_BEGIN
 90
        0
 91
        1
 62
     0
 92
       -2
340
0
 93
        0
 40
0.045
309
GRIDFORMAT_END
 95
        2
302
GRIDFORMAT
  1
GRIDFORMAT_BEGIN
 90
        0
 91
        1
 62
     0
 92
       -2
340
0
 93
        0
 40
0.045
309
GRIDFORMAT_END
 95
        4
302
GRIDFORMAT
  1
GRIDFORMAT_BEGIN
 90
        0
 91
        1
 62
     0
 92
       -2
340
0
 93
        0
 40
0.045
309
GRIDFORMAT_END
 95
        8
302
GRIDFORMAT
  1
GRIDFORMAT_BEGIN
 90
        0
 91
        1
 62
     0
 92
       -2
340
0
 93
        0
 40
0.045
309
GRIDFORMAT_END
 95
       16
302
GRIDFORMAT
  1
GRIDFORMAT_BEGIN
 90
        0
 91
        1
 62
     0
 92
       -2
340
0
 93
        0
 40
0.045
309
GRIDFORMAT_END
 95
       32
302
GRIDFORMAT
  1
GRIDFORMAT_BEGIN
 90
        0
 91
        1
 62
     0
 92
       -2
340
0
 93
        0
 40
0.045
309
GRIDFORMAT_END
309
TABLEFORMAT_END
  1
CELLSTYLE_BEGIN
 90
        3
 91
        2
300
_DATA
309
CELLSTYLE_END
  0
ENDSEC
  0
SECTION
  2
ACDSDATA
 70
     2
 71
     8
  0
ACDSSCHEMA
 90
        0
  1
AcDb_Thumbnail_Schema
  2
AcDbDs::ID
280
    10
 91
        8
  2
Thumbnail_Data
280
    15
 91
        0
101
ACDSRECORD
 95
        0
 90
        1
  2
AcDbDs::TreatedAsObjectData
280
     1
291
     1
101
ACDSRECORD
 95
        0
 90
        2
  2
AcDbDs::Legacy
280
     1
291
     1
101
ACDSRECORD
  1
AcDbDs::ID
 90
        3
  2
AcDs:Indexable
280
     1
291
     1
101
ACDSRECORD
  1
AcDbDs::ID
 90
        4
  2
AcDbDs::HandleAttribute
280
     7
282
     1
  0
ACDSSCHEMA
 90
        1
  1
AcDbDs::TreatedAsObjectDataSchema
  2
AcDbDs::TreatedAsObjectData
280
     1
 91
        0
  0
ACDSSCHEMA
 90
        2
  1
AcDbDs::LegacySchema
  2
AcDbDs::Legacy
280
     1
 91
        0
  0
ACDSSCHEMA
 90
        3
  1
AcDbDs::IndexedPropertySchema
  2
AcDs:Indexable
280
     1
 91
        0
  0
ACDSSCHEMA
 90
        4
  1
AcDbDs::HandleAttributeSchema
  2
AcDbDs::HandleAttribute
280
     7
 91
        1
284
     1
  0
ACDSRECORD
 90
        0
  2
AcDbDs::ID
280
    10
320
72
  2
Thumbnail_Data
280
    15
 94
     7605
310
89504E470D0A1A0A0000000D49484452000001000000007408030000005D681C3700000300504C5445212830FFFFFF2128300000000000000000000000000000000000000000000000000000330000660000990000CC0000FF0033000033330033660033990033CC0033FF0066000066330066660066990066CC0066FF0099
310
000099330099660099990099CC0099FF00CC0000CC3300CC6600CC9900CCCC00CCFF00FF0000FF3300FF6600FF9900FFCC00FFFF3300003300333300663300993300CC3300FF3333003333333333663333993333CC3333FF3366003366333366663366993366CC3366FF3399003399333399663399993399CC3399FF33CC00
310
33CC3333CC6633CC9933CCCC33CCFF33FF0033FF3333FF6633FF9933FFCC33FFFF6600006600336600666600996600CC6600FF6633006633336633666633996633CC6633FF6666006666336666666666996666CC6666FF6699006699336699666699996699CC6699FF66CC0066CC3366CC6666CC9966CCCC66CCFF66FF0066
310
FF3366FF6666FF9966FFCC66FFFF9900009900339900669900999900CC9900FF9933009933339933669933999933CC9933FF9966009966339966669966999966CC9966FF9999009999339999669999999999CC9999FF99CC0099CC3399CC6699CC9999CCCC99CCFF99FF0099FF3399FF6699FF9999FFCC99FFFFCC0000CC00
310
33CC0066CC0099CC00CCCC00FFCC3300CC3333CC3366CC3399CC33CCCC33FFCC6600CC6633CC6666CC6699CC66CCCC66FFCC9900CC9933CC9966CC9999CC99CCCC99FFCCCC00CCCC33CCCC66CCCC99CCCCCCCCCCFFCCFF00CCFF33CCFF66CCFF99CCFFCCCCFFFFFF0000FF0033FF0066FF0099FF00CCFF00FFFF3300FF3333
310
FF3366FF3399FF33CCFF33FFFF6600FF6633FF6666FF6699FF66CCFF66FFFF9900FF9933FF9966FF9999FF99CCFF99FFFFCC00FFCC33FFCC66FFCC99FFCCCCFFCCFFFFFF00FFFF33FFFF66FFFF99FFFFCCFFFFFF0000000D0D0D1A1A1A2828283535354343435050505D5D5D6B6B6B787878868686939393A1A1A1AEAEAEBB
310
BBBBC9C9C9D6D6D6E4E4E4F1F1F1FFFFFF0000000000000000000000000000000000000000000000000000000000002E4550F1000000F04944415478DAEDDC310A84301404D0DCFFBEBF17048344D1345A64DE94E9F28CDF51966D4D444444447E4D4D2D2DBCFFDB8409F4AB5EA785E823600600000020ED29F0B0B0FC09B8
310
3C0314A1026008020000000000007A40A880136006000000000000007A8026E8049801000000000000801EA0093A016600000000000000A007005085CD00000000000000401102E01600000000000000D62B029A2080AC1930EE3D6E08D6300001000000C05320A8074C2CA9C2CB9F803ABD06857E13DCB75DA1AFC3E95518
310
C041107B0BF43F146B953E03628760778803D00334411F451D01FBF70389D7251111111111918FB20114882DA85998063B0000000049454E44AE426082EC00004AC00E10111111111111111111917FE7061E5A5C2322AE3FE90000000049454E44AE426082A70BD6CA03CCCE9FDEF0B9DE20C56FFB0D1E840802BCE6AFD9F0
310
F73DEFC7E583830000200520B342242306AC2F91295E2354BD4AAC7C9D2095A2B4F28D62E9DA6F8C947F6788B7C6786FD00000000000000000000000000000000000000000000000000000000000000000000000000000807F0F408184E7B80AFD63E59C0A211D809C3239A53AB9A8D36E750A8D9F4A515AF96F4056A9ACD0
310
F8CB174BD7CE03CA6782AC05580E03004021801FF1EE7335BA36E1650000000049454E44AE4260825B6569FA166081DE2ADBF2F87B275A0CB018BB40F43C804C10000000000000000000000000BB03F8013C41D53DB49A30550000000049454E44AE426082E800C60200000000000000000000000000000000000000000000
310
0000C032007E00D55089A26E9B5EF70000000049454E44AE4260828C02E133E705B65164238BFBC667CE0CC5C35CCEDE9FC398711E40EBB9C128C3E1D49696B4ED9401D07E76D8C55D3ED7B2B56885C5FDF2530F0021DBBF5A70A04810ECB342E45C2A73F3017F9DF9DFB050B2ABF95D02CEB4E67FE74AD1FE00665A31CEDC
310
E66BBF80768C68CFD0DCE66BDF6058913AEDCED1CC45E5037BC0ECFF45469224499224499224499224499224499224499224499224E9AA7E0063B0D8232B502ECD0000000049454E44AE426082305EF22515CE21F7D9B03B7AE9165BFE6C1052F849F76B9690B7F9C4521898B605904ED04F3626BD9956FA3107864AD8B56D
310
0162E823C59E40C87FED4498632DD8B200DF1A8A2A140A8542A15028140A8542A1505406FC10EA15809E1F8BC1F129896D9DD9ACEC4E10154005781303DE4583F2CDCA9F0DB8CD9FD12CF04B3120E3E9CB015727341104BB16A07B17500170F90F422F88D72E001DEEED2F77FEDD76E702B4500774ED02DD174227057EE1FF
310
5944CDCF536F4FF714BBFDEE84C50554805F13E03FFF001A510FCDC42C0000000049454E44AE42608221B0271B9D00C01C1F78F99103A4A2CA0EA142F8B3620ECE80A4759C0C20C1F9D40C78B2DC0ACBE9452D7FC8EB2EAA93255B3007642A7FC7230704163EAD2356D9B00F9E03E0CA8D25DF6FA67257E300A581F31E0607
310
C2999300F2834182E4A0938428C5814C97106251D0AB9020AC13BE48208D5F05824C0769B6AB71909D957940D07A187609774B8E6C50B3EED004033098388544C2F40208AFA612F8824498870F0135D31BFFC0D36B1CA8DD35CF2104AA3FF5871AA855A00EDA9077299D1A16E128819C075069F89920782B14365A05A24CED
310
A2CE04752AEC4C4BFAAC02A03F4E625E2C79CECA5C193EAF35A426D394992D79CF34780EE07AC5E93C40DCC7258126FFCA0D84B4FC135BB10CB64E570CA88BE6C1CB0D578746674E49B341E4ACD2F2B6282663874090356D1400F86FC36A383AAE6865C9CF4DB4C26ED134B6B611224496CEA224B5C4D987E8FBC0FA11EA15
310
D819BD23F4A21F027974A5E074B1D0156A97CB6BC787446F1D12BDC176EBBA0CDC11F2D58CAF634FFE5015DBE11674815707366F4A4CD24ADAD4E6CDC84ADA6FAAEE0F98BCDE6870008C3C78F32581F0C7C31F364B0870543469FF9EB49B58319205C4A911C84D3BE9476780586DB606813C7C8F882FA3B96D6B042999D3E4
310
72EA7B723A600EF753ED4B0EEB25C33745FD431FB446C10189D78DC678A7034A674E19CBA452E191361A4C3FB9BF8120038327C1F69C1AB01206DE544CBC1223720D5023A470F5289D20450F4E9710E939F0ABA700B9FBF8EF057C4BFE5E538239329ABA73D36687D059FC8F10C858321E3544BAA9DE5C28A0183C3E21076C
310
350FFA1EBCD5855B33AB760C306F6027942D00F681B416784EFA1F47C4B45CE91B229FC08046F6EEC85335C38C8FB3FD52A47DC05E3063001CD03CC0BE91EF29B3C2D78BE2F8F30073FCFC69536DF9AA793EC07C4E087216DBBF6B33B0481324D40279B9853912E1F065B05B7C9A10681EAC7E95379C98DBEFB49D66D74420
310
1CC0B4B8CD99EEB77A0C5006FF03D0F72462C7B516F80000000049454E44AE426082396070FE85FA9BC55AE28BC0D72C4D009010235B6A4043F78B2C2CA3EFA544CF085645807357084C3E4D116C147552687EF21D6CAE99B09A99D74AB13840D5EC58FF079990F43B8B709351605B1201AE497DB575D204036F42C69EF8AA
310
DDAB9429C39316075A42903BABF8D16738BA42D3AA086820988B78DFDB04141126E63AA948105BE0EC4123894504317E6C18B88ACA56048D1C7BCD3CC0FA3F13E777463C5C7773B0BEC21F701077A735D22058E2576C18B81348871899765504A4AB21D0D97FA352441AEDA90AC07AD675BD757C88109162B110F9808C5C40
310
24C9DC205DB323B4DDCAA086FD835AA15840B828F3979B7BF70B3C20A26E21B9B67CA004E4CC5B6FD05BA8F5C6B42B6682530BD0BB5B1F004231C029EF558977255D498E58412CC5A2A3BD1DD7A4CFF662D848B3578C02EAEA73072B5D998BDA9FE0A75CF9D614DF26474794E00B59524250C9F58ABD703584EF0D6599FA8C
310
2BBA40EAD16F735323D7433066F92A9CC23CBB16E1A7FCB0A3406CD173BC9D2553B7842DB38B58574D841A0B3628989383D815FF85E876234B1CB5D3C5183A556ECB21C28562BC55895BCC27D74440CB54D3B4A2A1F45F2CB5EBEBCC23986D76C5302A26EF926FF5BF6079D994505BE37855171815E0F084B686F7D11E1D4F
310
FDB95DD6DDDFB792E79053EE2B2C681BDB5BD322AD4A4A8BA6C269347C4673140C6E315DBAE54783CF42C5F669092918E76FC76829232A9A06410951565D191A95DBD1DE2949F829D9D23BB9B534AC69367A6553BD6F5E92ACB9D63205096DD1806F231631B7590F01BE8B42A21361E2662FFD8F1ED7E86AF4A4615608FBFD
310
9E7F09E13B27342F2AF65658029E5A8DB02402D0BA25E7F7D72348FF6DB923B15FE8AF45A369E9334D7F3E24E1138B4203B15103122AAB2156E50030155F0BCDC59AFE16BBFCD42A69F26DEE92B0773FED0E7EF28E462BAE2F1A811379C715D705F87CADD9B35BE0424563D09816079373B72EF1AD6D7269695E4D13FB0574
310
30F0C08A08380CA13BF2DDD1F689B0E7A73F7923876DBDD7F779E17FA0629B5F29A0C16D45590A79604917D03CCE2280B4BABFCA6CF66D84F72F16FEE752729B276C5D514D1F08875264C54C100FD67799BA14F103EB7E7A7F662C9CDC9DE2AA8C8EB128D4DB615367482438595001D6DD1DE5DFC9903D9AC383D7F812D9D5
310
08E8D6F63D887C5E05F1335DB4DE42CF179652C0ADCE652C2CF29F2BE39FC4DBA6D7291A48EEA8D8E6CB2C96FA45DBE2C2D72047BFA6D49E11CF8D3C37257F73543C662A1CEB489BBBBD6EB7B9A9C1BAA002FEAFFF7AFC5F76889EF18C673CE319CF78C6339EF18C673CE319CF78C6339EF18C673CE319CF78C6339EF18C67
310
3CE319CF78C6339EF18C67AC3BE42F8EB7D7FDA38015DDE09353FC76EF2B2FFAFD05F7732B9A423EFF970BBFDBFBC2927FB840FEDBB9BF36FE010FFBA5D43FC7B0FC0000000049454E44AE4260821BC050B9006F24C3584174915F05B40074118CD054E94F6D05A90AFB136C746DB725CEA325F635A3A6AF162079A893B281
310
D06D991B4773DC4842FD529600A5A51A08F5D3D30426D8AAB62C00EBD1284B22C696376B1E4AA58AD91488852CA8F8C0BFC5BD371690F03945623DDD92AD251AB290D572DF8B41369254B612068C445FB274A86EA9F7570C19CFB6BB013F5AA2F9E1900DBACFE0BD342945A46B7C5B0B38FAAA53F9C187EB026C88C87CBE73
310
87881141477838301C8000CBCDB3446B746D217F12BCC80F3110A07E99DBC49636970566C93815FA810FA00F5A3EFF71C6F0062D80F7F2389F9697D0949A81989904AB7A2CD9C23C22D6FC465D48291B2162748F83C323F812FB31766F53B6F09EF37724583F34F21D0EB0EAC5432A6A9DB351B2F34B92FE11A25A4302564C
310
0F067DA6092F9CB7D50A58378BF86F10A4521C7025A4852725F62C0E84E47E9B066B50CC215D13BBE240389E01C61703AA177E795040D6D8D28041C8BDB44B57A06ED37234EBF527A0AC94656F5C5D99B0A64B96E404940568DB5D0C38577A53A2B9257DA1BC304C8C2C86F23A11A81D2C7EE9B75547B13A3688D2A02FC183
310
9264C248E00A008C50F8A3BEADBD526660F81AAAC62E5A44B23E272CC7770B883AA0960F1217C69121ADF8D73E3EA7019A63DE245A8AAEA871E8F062C5F517144F25D588496A6E1D3B2F7BA0DFDA689EE0FBE05CF53608020AD9AE2561EB2501C47A6B023CD7AE0D1B6F756328044457E5FA896089CEEA9839A4C5C80A4C68
310
68F6E4F3F26B965A63DFB3600B1936BF49A4DDCA0F1610D4D566E9B6628F9F2DCC7775A0EB881772CE8A75E7BD66500A41CC5F2C6144429E88E10BB09B3B803DF0F1093800EA61D003AAE1223145EAB9DCF10150885D054C6749008D8FD5C4E22F2D56C75C228ACA803D5E4D6CA51387FD4A92A6AB99EB8DA2B15AF3CFF8E4
310
DE9A7A75191A81D4621287814F648D2C165DF78CD046B32015A872C6DDB5D6E8A2A24E658FA26B6A6952B7FEBDA2BC905944E41FDBBF939EE87C2CF724733E05548564022C292F816B6F1B257565F450EE8BA186EA3220688D4F88490111869C5FBCC0A0FB12ADDA4434155D40E1A1BB5B65B0FEDC4D9E9137465DAFF6795C
310
7E59C4DF5C41DBCAECF1D706114D0DC27A5B0E57A4644A2696C582A02F6E8D615900AB71D9F0A23E52E3058227664D0A0EE72AF2E202EA750B7AD63BFF3F0C791C3C552C755240D044834D232BDF3B435BC9539736F1491E715E86077D92ECBD8E1810019C0FCBF94111F90042370B76F1F179394CB3EC07E2DB00BCDDF897
310
63B5BEF3C299B0D85A2A246A9E968B7A9844B97CD71BBCE41E756E77D49D1DEE19E8DDB92602850FAB0D97B15ACBBE2F2A30E9D6CF9125C511585B3D0DF89CE2A08F8B1892A30A5EBC7A049ED9A0D3A66FB9E1B5D4E2F5C0770B68D85AABD786BB45B9159CFC38762E196BC82051DFF75727F45D79D527A9D825E60EA986FA
310
6086F523ED71572D1880B0B4B3B36B8DB792B9BF24969ACAC19F9060C1B221CF9CBA746D3106DCA99E8593484B75C6EB900B0A765317EC9734708029095C71BDEEB244BA8F22543B1D6E396022C5930AE76A35E511145D7CB814FA0507900B7A35B34A5670BD750C0CC83AEC3C8BF3590E9890B2C503A47CBD6BB7E4AF0509
310
E4F13C8B2E033F1ECBBE98F2C4A713549F3C9CA0CCB8772A6509406D4341D55D16D8263C9687707B86DD4649703C9DFD390E86F45D953DE900990B2AF75B078C7D455E1D1848BF60F5500214C3EA1DA518CF32E021EE13C0CBF580F2666BD20527FA444F77E0DF226081A74D9D8BFE7761680C9FDBB233B03CF29F7BAE2B59
310
F874DE31BEC5FB32164F5B691A0B0661145CA3B3CBA64FCB6A459EE7027CE6629ACC8FC1152A3FC60051D944346CDB5C5C155E4133D2131310DDC5AF16B299537A1ADC5E3198BFF80886593A745C815CC40A63196AAE3A0F8F5D81AC326408156E6200C6FD8AE560125DBCD8A58236613077BBB76952CCAA78598B7309762B
310
9C57D8F5056A461721E5A915A55E39E90CB378B6654D9AE50A3112FE412174A5DBC3D89AB78B9DF95ADEF3A414AC9701C8DCA71CD8768F936942956EA38B2E4774B101726D43D51F3DA6344802DC317D985BB88D0141837D3AF34383CFCE46008BBC749A51C5397181332853D256DF19EB557066B3C9CB9188E721473C60F3
310
97244A611C45F0A1E9522E9A2C6AF4DBEC706E5C96CBDC7B7F26FB16CB0103362A752DE62856A330CD8D40D1BE8D5890A6725C9076841C31F2BF261D932D66E5CC64AD203400C570FD4D259630A420C8B9192DEC97CE0ABC19455DD32C3C39834904F59B60271686E5C01114939C1B9F2A99000F3451456AAAA426A140490D
310
1614D8FEA00FC0E98E6DD61CD8A717470F685800B85A9AD98CD2054E8BA8AE7D1B53293E87E7095FF9133BD16A589B2E01DBA9061157511732A85F65E8524BFD1E09E64E25C262EDD726B12ACB190222068CB7D2C08542A653B38B6CA5D83103A7811C4B620C4D811C705B92A45A880CB30DC9669F52B46055AF6DBD94007D
310
C6E6DB026C5107CC1DEC44448D257FB1E7E713C16AF945B3FA2FA6D6DA3C0DC131C9B73BD25BD3C93DE1067E94095B87A19FD5C4EF651A982FF9B5E87A9212DFC1A049CD13BCA57FA72325E1C8ADF9BF336D53DA2CB55CF81402EAFF34034B8DE77B7A19CFFE8C1CE02ABCA76EF9A1AA24E56278104B2F941EE358AEE338ED
310
1858A8F85925368DDDA6BEE5F89E7484A598E1EB24E07621B5A7610F61520538F3B2AF6004703A4940C0E129EC85030F10C15D80164280360BA5A2C3F58B509240AA0DCF074F99C8178E4619E7218772D5ECE6B1B1E6476DE897C30DD6E38987D4F8E4C1DBD111C7A8364B86E023D72F6164355AE4EDE7CE1002995A3E4C5F
310
60D83DD860D9C199486F381E5601B116FC4603743CE6120E3FB74247910405F86136920154AAC83ACFC92FA7C1265E2DCE5220080DDF6240BBA8B570B4A326AE76B0156C5180DDC21A5D207452AC62A261CCE19D2993F9C4D57B4FAA39EC017F647F53EA8F7B7C4D0AD43054266D0C1E27F6D3BC00AAD927315E99845B34B4
310
7183A7E298B3C12BAC1F647C0033391F7FC2A12CF2F681492DC4D8F8FD7A2DFB2207D6DA78122F8FC4FD50BB681CC80CE14E2B0C6FAF65CD0501EDDEBC793A1C71BCB32CCC1959A2C6CEB42C5EF78C3409E8CDC3612E71B500308A0FB614DCD18006891E1833E22F1FA76ACC1C7ECA02F938C60CB608CAEE85756E8CD366D7
310
B0BAF6410CE777F1EC15C30DF42442EFA4FAB92E071BC1EAEA65995EE575AA84710845E7C7FD9AF887C6D0653CA162AAC53539D41577DE40AB973526A08548332934A47FD8DD31BED11B0AD65C7EEA98C6808F6DB02D832E35DA84F7B99F84A73411744C7EC301012E6BEEBFE4B53D3F1843BCB0A972E0840F324268CB875B
310
A854C3B020A56367783F56102643C171BE88973FDD08F63768F5772323B712C74C5C06E86EABC154576D0340D5E928008D27AE4666E484648EBB4100AD259F21E632A7A6EA574A7ACC0E8A1674FDC30E32EBB3D95EFD8C7691760C74E27929D0BEF21DA43456493F5783340DB2CD290D70AFDA00DB4828CD155A49E2D8AC41
310
4F714AF4297D683FA80F0704DA0D60EDBC0C23A0478815F9D8F7EB4462682736B26611FF460AD77C3273B8503A405AEAD901D1A7431BA47F9B0260A3F98CCB46B968D34DEC34C91A07F8FA1C02A7793E3E2FE551944E1A8778EE487DB4E99C3DB201DC7B8548CD5D0168BBD479DE7D1C9BC7DD5339F9DA448CD534E4D82635
310
77DE2EB170E082EDB0EB83A7B93E1ED7221DA69E0AC611B6D3F0BD5339EDA7CE509BFB6854B29CEBD3704719F3723B979C06C0EFB732A786AD5CC74280BAD17498B4C927F683336394533AEF7A2C76A6D5F9337B9E429F94E43F650114A8450AD8FCF89F3CB25E5C3E38EC739BCF304BB3B249C288A72C3A875463C4934367
310
EE134AF1B6BC7BDB9B897EE0D5E98CFB07209442E22D2B5CB0E95C5AEA3261BCC601BF718A3003FC6EB057544A4B67C64DE781A0B22F9442837032C6518B4EBE6A58C786C619902C32D4343F907A043769705CDB58DDCD859B5BBC68F3C3D329B343DDF8162E9362EF4F63CD490E5D035CD62979B069CCEC6C53EBB4B5C43F
310
F6158843D02410E2BBB3F0B5FDE002971105421213AF208E09D49260746AAE439078BC65BB1C779903CA36E9BD4D8760AD107E40AF3ACE95EB36AD6868D8C03EC98371647B7CF81107D4F928BBEB171259379DA7613C609F7253BEE2A84C3A434661672D1FF8C7A2059FE9425EB390268E46F2B3CED40B1A66EB9AD57E3FE0
310
00EB6967967D3A200CE733B78557E80FAAC80C65BAD71363EAA509DF66894F67DE576F17F0AB42DAA09212A2B71787177CC06EF437748254CB3CE5AE617A3AF0293A32BD53C6F3D42569FE487361B33165412E4DC704F1E11C703FE34E63F8A62F5BA1CD149D45C613FF5314AA3F8CCC54DB3D029278129ACC46218940048C
310
F3010681F76A92E12106C40198D96F19FA212F3BB1F47A1CE7D0A93B3F09BFD5A2A244F2470B68338530ABD83E9CE74AFD94959729BD5C9F7786DEE6C4DA6659A54D2B69196A2B78C68CCD4B3A1E38CB9D11C13E1CC2AA36600293D30B7634D77EAC50D4DC5F91206E62FDE4BD09B2E2E4E68904B9951C08AFF2BF6925E71E
310
8AA51814B7B19F51F39A4E972B2D32523FEC6571BD416F1ECD31CB71EE0F31603ABE0D9A8D04E3FAF978A05E9F12FA399EDEE123FCC9CF092B830927C031B1AC47D9F16E47D67ED0958FE8B0BB1BF49EC1A35DCF14BE638527E2AE111408D454394697DD338EE232793F2610C90EFEC20303F1CCEC6964F7C243AA0D9C0B50
310
796EB520C9746643AFA2FBAAE511521792DD5BC0004DED22144BF3999EC2931B063D3F4FECA0FEBCDA79D293AA4830E8C57DFAB4DAA083F6923D601AAEED33A107B2C887E9C29C77BD3B4A6BAB9FE6F8B30EF3030EB1EA8199D22F73307920CD822E4A131F703AAC9FB15EF308DD38A0E70C82FCE1DC686BE5CACC92695865
310
A079FAF52EF7EDF10D0565F022A0BE9FDA5F52BBC591C530AFB5E56E2DD92B34685B508DC18796F84117B98D5F5C358A8D95186DBE8517B9B9B28DB18C36F2F2B8F663DAF7188084C0763952A74E2A92924E4C0C9A3FED4D00BC596961B6B44D7C132599E378D14EBFF311A756B732291A6DC1186653789840A33C91721F03
310
92D6B2623D957648B48436E43735616487B632D133784C95934294FA9A69D6219EB777A295126EF36C6D26CA426BD6FB56AF8911A5DB0500C21339454A255D841F0876359F9E9CF94533AE0FB8770A2E753A62D64FBE788BD0F472542C9C3AD091D2099E9F76F42577F9C045E4F983581C0B413002549BB5F2875FB448499F
310
5167961E345B9750F3A9D20BBFF1A6401A2424CB2B31AB8093AADC0FB2A292668E6F0C00DA783831917F5550264B63795A92A85F52472518888723D0629D5B22D2F07747B4C21F8639DA34E3A8C0E9694564EFE0EF99D4FDF302FC1FE64172D60E057BB90000000049454E44AE426082
  0
ENDSEC
  0
EOF
