  0
SECTION
  2
HEADER
  9
$ACADVER
  1
AC1032
  9
$ACADMAINTVER
 90
      174
  9
$DWGCODEPAGE
  3
ANSI_1251
  9
$LASTSAVEDBY
  1
Greenevsky
  9
$REQUIREDVERSIONS
160
                 0
  9
$INSBASE
 10
0.0
 20
0.0
 30
0.0
  9
$EXTMIN
 10
-0.0000000000001159
 20
0.0
 30
0.0
  9
$EXTMAX
 10
288.7
 20
132.0125000000002
 30
0.0
  9
$LIMMIN
 10
0.0
 20
0.0
  9
$LIMMAX
 10
12.0
 20
9.0
  9
$ORTHOMODE
 70
     0
  9
$REGENMODE
 70
     1
  9
$FILLMODE
 70
     0
  9
$QTEXTMODE
 70
     0
  9
$MIRRTEXT
 70
     0
  9
$LTSCALE
 40
1.0
  9
$ATTMODE
 70
     1
  9
$TEXTSIZE
 40
0.2
  9
$TRACEWID
 40
0.05
  9
$TEXTSTYLE
  7
Standard
  9
$CLAYER
  8
0
  9
$CELTYPE
  6
Continuous
  9
$CECOLOR
 62
   256
  9
$CELTSCALE
 40
1.0
  9
$DISPSILH
 70
     0
  9
$DIMSCALE
 40
1.0
  9
$DIMASZ
 40
0.18
  9
$DIMEXO
 40
0.0625
  9
$DIMDLI
 40
0.38
  9
$DIMRND
 40
0.0
  9
$DIMDLE
 40
0.0
  9
$DIMEXE
 40
0.18
  9
$DIMTP
 40
0.0
  9
$DIMTM
 40
0.0
  9
$DIMTXT
 40
0.18
  9
$DIMCEN
 40
0.09
  9
$DIMTSZ
 40
0.0
  9
$DIMTOL
 70
     0
  9
$DIMLIM
 70
     0
  9
$DIMTIH
 70
     1
  9
$DIMTOH
 70
     1
  9
$DIMSE1
 70
     0
  9
$DIMSE2
 70
     0
  9
$DIMTAD
 70
     0
  9
$DIMZIN
 70
     0
  9
$DIMBLK
  1

  9
$DIMASO
 70
     1
  9
$DIMSHO
 70
     1
  9
$DIMPOST
  1

  9
$DIMAPOST
  1

  9
$DIMALT
 70
     0
  9
$DIMALTD
 70
     2
  9
$DIMALTF
 40
25.4
  9
$DIMLFAC
 40
1.0
  9
$DIMTOFL
 70
     0
  9
$DIMTVP
 40
0.0
  9
$DIMTIX
 70
     0
  9
$DIMSOXD
 70
     0
  9
$DIMSAH
 70
     0
  9
$DIMBLK1
  1

  9
$DIMBLK2
  1

  9
$DIMSTYLE
  2
Standard
  9
$DIMCLRD
 70
     0
  9
$DIMCLRE
 70
     0
  9
$DIMCLRT
 70
     0
  9
$DIMTFAC
 40
1.0
  9
$DIMGAP
 40
0.09
  9
$DIMJUST
 70
     0
  9
$DIMSD1
 70
     0
  9
$DIMSD2
 70
     0
  9
$DIMTOLJ
 70
     1
  9
$DIMTZIN
 70
     0
  9
$DIMALTZ
 70
     0
  9
$DIMALTTZ
 70
     0
  9
$DIMUPT
 70
     0
  9
$DIMDEC
 70
     4
  9
$DIMTDEC
 70
     4
  9
$DIMALTU
 70
     2
  9
$DIMALTTD
 70
     2
  9
$DIMTXSTY
  7
Standard
  9
$DIMAUNIT
 70
     0
  9
$DIMADEC
 70
     0
  9
$DIMALTRND
 40
0.0
  9
$DIMAZIN
 70
     0
  9
$DIMDSEP
 70
    46
  9
$DIMATFIT
 70
     3
  9
$DIMFRAC
 70
     0
  9
$DIMLDRBLK
  1

  9
$DIMLUNIT
 70
     2
  9
$DIMLWD
 70
    -2
  9
$DIMLWE
 70
    -2
  9
$DIMTMOVE
 70
     0
  9
$DIMFXL
 40
1.0
  9
$DIMFXLON
 70
     0
  9
$DIMJOGANG
 40
0.7853981633974483
  9
$DIMTFILL
 70
     0
  9
$DIMTFILLCLR
 70
     0
  9
$DIMARCSYM
 70
     0
  9
$DIMLTYPE
  6

  9
$DIMLTEX1
  6

  9
$DIMLTEX2
  6

  9
$DIMTXTDIRECTION
 70
     0
  9
$LUNITS
 70
     2
  9
$LUPREC
 70
     4
  9
$SKETCHINC
 40
0.1
  9
$FILLETRAD
 40
2.0
  9
$AUNITS
 70
     0
  9
$AUPREC
 70
     0
  9
$MENU
  1
.
  9
$ELEVATION
 40
0.0
  9
$PELEVATION
 40
0.0
  9
$THICKNESS
 40
0.0
  9
$LIMCHECK
 70
     0
  9
$CHAMFERA
 40
0.0
  9
$CHAMFERB
 40
0.0
  9
$CHAMFERC
 40
0.0
  9
$CHAMFERD
 40
0.0
  9
$SKPOLY
 70
     0
  9
$TDCREATE
 40
2459482.611990741
  9
$TDUCREATE
 40
2459482.486990741
  9
$TDUPDATE
 40
2459542.978229166
  9
$TDUUPDATE
 40
2459542.853229167
  9
$TDINDWG
 40
0.6506018519
  9
$TDUSRTIMER
 40
0.6505671296
  9
$USRTIMER
 70
     1
  9
$ANGBASE
 50
0.0
  9
$ANGDIR
 70
     0
  9
$PDMODE
 70
     0
  9
$PDSIZE
 40
0.0
  9
$PLINEWID
 40
0.0
  9
$SPLFRAME
 70
     1
  9
$SPLINETYPE
 70
     6
  9
$SPLINESEGS
 70
     8
  9
$HANDSEED
  5
106F
  9
$SURFTAB1
 70
     6
  9
$SURFTAB2
 70
     6
  9
$SURFTYPE
 70
     6
  9
$SURFU
 70
     6
  9
$SURFV
 70
     6
  9
$UCSBASE
  2

  9
$UCSNAME
  2

  9
$UCSORG
 10
0.0
 20
0.0
 30
0.0
  9
$UCSXDIR
 10
1.0
 20
0.0
 30
0.0
  9
$UCSYDIR
 10
0.0
 20
1.0
 30
0.0
  9
$UCSORTHOREF
  2

  9
$UCSORTHOVIEW
 70
     0
  9
$UCSORGTOP
 10
0.0
 20
0.0
 30
0.0
  9
$UCSORGBOTTOM
 10
0.0
 20
0.0
 30
0.0
  9
$UCSORGLEFT
 10
0.0
 20
0.0
 30
0.0
  9
$UCSORGRIGHT
 10
0.0
 20
0.0
 30
0.0
  9
$UCSORGFRONT
 10
0.0
 20
0.0
 30
0.0
  9
$UCSORGBACK
 10
0.0
 20
0.0
 30
0.0
  9
$PUCSBASE
  2

  9
$PUCSNAME
  2

  9
$PUCSORG
 10
0.0
 20
0.0
 30
0.0
  9
$PUCSXDIR
 10
1.0
 20
0.0
 30
0.0
  9
$PUCSYDIR
 10
0.0
 20
1.0
 30
0.0
  9
$PUCSORTHOREF
  2

  9
$PUCSORTHOVIEW
 70
     0
  9
$PUCSORGTOP
 10
0.0
 20
0.0
 30
0.0
  9
$PUCSORGBOTTOM
 10
0.0
 20
0.0
 30
0.0
  9
$PUCSORGLEFT
 10
0.0
 20
0.0
 30
0.0
  9
$PUCSORGRIGHT
 10
0.0
 20
0.0
 30
0.0
  9
$PUCSORGFRONT
 10
0.0
 20
0.0
 30
0.0
  9
$PUCSORGBACK
 10
0.0
 20
0.0
 30
0.0
  9
$USERI1
 70
     0
  9
$USERI2
 70
     0
  9
$USERI3
 70
     0
  9
$USERI4
 70
     0
  9
$USERI5
 70
     0
  9
$USERR1
 40
0.0
  9
$USERR2
 40
0.0
  9
$USERR3
 40
0.0
  9
$USERR4
 40
0.0
  9
$USERR5
 40
0.0
  9
$WORLDVIEW
 70
     1
  9
$SHADEDGE
 70
     3
  9
$SHADEDIF
 70
    70
  9
$TILEMODE
 70
     1
  9
$MAXACTVP
 70
    64
  9
$PINSBASE
 10
0.0
 20
0.0
 30
0.0
  9
$PLIMCHECK
 70
     0
  9
$PEXTMIN
 10
1.000000000000000E+20
 20
1.000000000000000E+20
 30
1.000000000000000E+20
  9
$PEXTMAX
 10
-1.000000000000000E+20
 20
-1.000000000000000E+20
 30
-1.000000000000000E+20
  9
$PLIMMIN
 10
0.0
 20
0.0
  9
$PLIMMAX
 10
12.0
 20
9.0
  9
$UNITMODE
 70
     0
  9
$VISRETAIN
 70
     1
  9
$PLINEGEN
 70
     0
  9
$PSLTSCALE
 70
     1
  9
$TREEDEPTH
 70
  3020
  9
$CMLSTYLE
  2
Standard
  9
$CMLJUST
 70
     0
  9
$CMLSCALE
 40
1.0
  9
$PROXYGRAPHICS
 70
     1
  9
$MEASUREMENT
 70
     0
  9
$CELWEIGHT
370
    -1
  9
$ENDCAPS
280
     0
  9
$JOINSTYLE
280
     0
  9
$LWDISPLAY
290
     0
  9
$INSUNITS
 70
     4
  9
$HYPERLINKBASE
  1

  9
$STYLESHEET
  1

  9
$XEDIT
290
     1
  9
$CEPSNTYPE
380
     0
  9
$PSTYLEMODE
290
     1
  9
$FINGERPRINTGUID
  2
{6F052757-BA4A-2E41-9CA6-91206D721FFF}
  9
$VERSIONGUID
  2
{A845ADF7-7665-7547-B541-A035A807D493}
  9
$EXTNAMES
290
     1
  9
$PSVPSCALE
 40
0.0
  9
$OLESTARTUP
290
     0
  9
$SORTENTS
280
   127
  9
$INDEXCTL
280
     0
  9
$HIDETEXT
280
     0
  9
$XCLIPFRAME
280
     2
  9
$HALOGAP
280
     0
  9
$OBSCOLOR
 70
   257
  9
$OBSLTYPE
280
     0
  9
$INTERSECTIONDISPLAY
280
     0
  9
$INTERSECTIONCOLOR
 70
   257
  9
$DIMASSOC
280
     1
  9
$PROJECTNAME
  1

  9
$CAMERADISPLAY
290
     0
  9
$LENSLENGTH
 40
50.0
  9
$CAMERAHEIGHT
 40
0.0
  9
$STEPSPERSEC
 40
2.0
  9
$STEPSIZE
 40
6.0
  9
$3DDWFPREC
 40
2.0
  9
$PSOLWIDTH
 40
0.25
  9
$PSOLHEIGHT
 40
4.0
  9
$LOFTANG1
 40
1.570796326794896
  9
$LOFTANG2
 40
1.570796326794896
  9
$LOFTMAG1
 40
0.0
  9
$LOFTMAG2
 40
0.0
  9
$LOFTPARAM
 70
     7
  9
$LOFTNORMALS
280
     1
  9
$LATITUDE
 40
37.795
  9
$LONGITUDE
 40
-122.394
  9
$NORTHDIRECTION
 40
0.0
  9
$TIMEZONE
 70
 -8000
  9
$LIGHTGLYPHDISPLAY
280
     1
  9
$TILEMODELIGHTSYNCH
280
     1
  9
$CMATERIAL
347
11
  9
$SOLIDHIST
280
     0
  9
$SHOWHIST
280
     1
  9
$DWFFRAME
280
     2
  9
$DGNFRAME
280
     0
  9
$REALWORLDSCALE
290
     1
  9
$INTERFERECOLOR
 62
     1
  9
$INTERFEREOBJVS
345
33
  9
$INTERFEREVPVS
346
30
  9
$CSHADOW
280
     0
  9
$SHADOWPLANELOCATION
 40
0.0
  0
ENDSEC
  0
SECTION
  2
CLASSES
  0
CLASS
  1
ACDBDICTIONARYWDFLT
  2
AcDbDictionaryWithDefault
  3
ObjectDBX Classes
 90
        0
 91
        1
280
     0
281
     0
  0
CLASS
  1
MATERIAL
  2
AcDbMaterial
  3
ObjectDBX Classes
 90
     1153
 91
        3
280
     0
281
     0
  0
CLASS
  1
VISUALSTYLE
  2
AcDbVisualStyle
  3
ObjectDBX Classes
 90
     4095
 91
       24
280
     0
281
     0
  0
CLASS
  1
SCALE
  2
AcDbScale
  3
ObjectDBX Classes
 90
     1153
 91
       17
280
     0
281
     0
  0
CLASS
  1
TABLESTYLE
  2
AcDbTableStyle
  3
ObjectDBX Classes
 90
     4095
 91
        1
280
     0
281
     0
  0
CLASS
  1
MLEADERSTYLE
  2
AcDbMLeaderStyle
  3
ACDB_MLEADERSTYLE_CLASS
 90
     4095
 91
        1
280
     0
281
     0
  0
CLASS
  1
ACDBSECTIONVIEWSTYLE
  2
AcDbSectionViewStyle
  3
ObjectDBX Classes
 90
     1025
 91
        1
280
     0
281
     0
  0
CLASS
  1
ACDBDETAILVIEWSTYLE
  2
AcDbDetailViewStyle
  3
ObjectDBX Classes
 90
     1025
 91
        1
280
     0
281
     0
  0
CLASS
  1
DICTIONARYVAR
  2
AcDbDictionaryVar
  3
ObjectDBX Classes
 90
        0
 91
        9
280
     0
281
     0
  0
CLASS
  1
CELLSTYLEMAP
  2
AcDbCellStyleMap
  3
ObjectDBX Classes
 90
     1152
 91
        2
280
     0
281
     0
  0
CLASS
  1
RASTERVARIABLES
  2
AcDbRasterVariables
  3
ISM
 90
        0
 91
        1
280
     0
281
     0
  0
CLASS
  1
IMAGEDEF
  2
AcDbRasterImageDef
  3
ISM
 90
        0
 91
        0
280
     0
281
     0
  0
CLASS
  1
IMAGEDEF_REACTOR
  2
AcDbRasterImageDefReactor
  3
ISM
 90
        1
 91
        0
280
     0
281
     0
  0
CLASS
  1
IMAGE
  2
AcDbRasterImage
  3
ISM
 90
     2175
 91
        0
280
     0
281
     1
  0
CLASS
  1
SORTENTSTABLE
  2
AcDbSortentsTable
  3
ObjectDBX Classes
 90
        0
 91
        1
280
     0
281
     0
  0
CLASS
  1
EXACXREFPANELOBJECT
  2
ExAcXREFPanelObject
  3
EXAC_ESW
 90
     1025
 91
        0
280
     0
281
     0
  0
CLASS
  1
NPOCOLLECTION
  2
AcDbImpNonPersistentObjectsCollection
  3
ObjectDBX Classes
 90
     1153
 91
        0
280
     0
281
     0
  0
CLASS
  1
RAPIDRTRENDERSETTINGS
  2
AcDbRapidRTRenderSettings
  3
ObjectDBX Classes
 90
     1024
 91
       14
280
     0
281
     0
  0
ENDSEC
  0
SECTION
  2
TABLES
  0
TABLE
  2
VPORT
  5
8
330
0
100
AcDbSymbolTable
 70
     1
  0
VPORT
  5
74
330
8
100
AcDbSymbolTableRecord
100
AcDbViewportTableRecord
  2
*Active
 70
     0
 10
0.0
 20
0.0
 11
1.0
 21
1.0
 12
246.3285428516092
 22
71.32939371519237
 13
0.0
 23
0.0
 14
1.0
 24
1.0
 15
0.0
 25
0.0
 16
0.0
 26
0.0
 36
1.0
 17
0.0
 27
0.0
 37
0.0
 40
59.80488930197719
 41
2.190639269406392
 42
50.0
 43
0.0
 44
0.0
 50
0.0
 51
0.0
 71
     0
 72
   100
 73
     1
 74
     1
 75
     0
 76
     1
 77
     0
 78
     1
281
     0
 65
     1
110
0.0
120
0.0
130
0.0
111
1.0
121
0.0
131
0.0
112
0.0
122
1.0
132
0.0
 79
     0
146
0.0
348
2F
 60
     3
 61
     5
292
     1
282
     1
141
0.0
142
0.0
 63
   250
421
  3355443
1001
ACAD_NAV_VCDISPLAY
1070
     3
  0
ENDTAB
  0
TABLE
  2
LTYPE
  5
5
330
0
100
AcDbSymbolTable
 70
     2
  0
LTYPE
  5
5A
330
5
100
AcDbSymbolTableRecord
100
AcDbLinetypeTableRecord
  2
ByBlock
 70
     0
  3

 72
    65
 73
     0
 40
0.0
  0
LTYPE
  5
5B
330
5
100
AcDbSymbolTableRecord
100
AcDbLinetypeTableRecord
  2
ByLayer
 70
     0
  3

 72
    65
 73
     0
 40
0.0
  0
LTYPE
  5
5C
330
5
100
AcDbSymbolTableRecord
100
AcDbLinetypeTableRecord
  2
Continuous
 70
     0
  3
Solid line
 72
    65
 73
     0
 40
0.0
  0
ENDTAB
  0
TABLE
  2
LAYER
  5
2
102
{ACAD_XDICTIONARY
360
22B
102
}
330
0
100
AcDbSymbolTable
 70
     1
  0
LAYER
  5
54
102
{ACAD_XDICTIONARY
360
216
102
}
330
2
100
AcDbSymbolTableRecord
100
AcDbLayerTableRecord
  2
0
 70
     0
 62
     7
  6
Continuous
370
    -3
390
F
347
21
348
0
  0
ENDTAB
  0
TABLE
  2
STYLE
  5
3
330
0
100
AcDbSymbolTable
 70
     2
  0
STYLE
  5
55
330
3
100
AcDbSymbolTableRecord
100
AcDbTextStyleTableRecord
  2
Standard
 70
     0
 40
0.0
 41
1.0
 50
0.0
 71
     0
 42
0.2
  3
txt
  4

  0
STYLE
  5
59
330
3
100
AcDbSymbolTableRecord
100
AcDbTextStyleTableRecord
  2
Annotative
 70
     0
 40
0.0
 41
1.0
 50
0.0
 71
     0
 42
0.2
  3
txt
  4

1001
AcadAnnotative
1000
AnnotativeData
1002
{
1070
     1
1070
     1
1002
}
  0
ENDTAB
  0
TABLE
  2
VIEW
  5
6
330
0
100
AcDbSymbolTable
 70
     0
  0
ENDTAB
  0
TABLE
  2
UCS
  5
7
330
0
100
AcDbSymbolTable
 70
     0
  0
ENDTAB
  0
TABLE
  2
APPID
  5
9
330
0
100
AcDbSymbolTable
 70
     4
  0
APPID
  5
56
330
9
100
AcDbSymbolTableRecord
100
AcDbRegAppTableRecord
  2
ACAD
 70
     0
  0
APPID
  5
5D
330
9
100
AcDbSymbolTableRecord
100
AcDbRegAppTableRecord
  2
AcadAnnotative
 70
     0
  0
APPID
  5
20F
330
9
100
AcDbSymbolTableRecord
100
AcDbRegAppTableRecord
  2
ACAD_EXEMPT_FROM_CAD_STANDARDS
 70
     0
  0
APPID
  5
222
330
9
100
AcDbSymbolTableRecord
100
AcDbRegAppTableRecord
  2
ACAD_NAV_VCDISPLAY
 70
     0
  0
ENDTAB
  0
TABLE
  2
DIMSTYLE
  5
A
330
0
100
AcDbSymbolTable
 70
     3
100
AcDbDimStyleTable
 71
     1
340
57
  0
DIMSTYLE
105
57
330
A
100
AcDbSymbolTableRecord
100
AcDbDimStyleTableRecord
  2
Standard
 70
     0
340
55
  0
DIMSTYLE
105
58
330
A
100
AcDbSymbolTableRecord
100
AcDbDimStyleTableRecord
  2
Annotative
 70
     0
340
55
1001
AcadAnnotative
1000
AnnotativeData
1002
{
1070
     1
1070
     1
1002
}
  0
ENDTAB
  0
TABLE
  2
BLOCK_RECORD
  5
1
330
0
100
AcDbSymbolTable
 70
     1
  0
BLOCK_RECORD
  5
6F
102
{ACAD_XDICTIONARY
360
396
102
}
330
1
100
AcDbSymbolTableRecord
100
AcDbBlockTableRecord
  2
*Model_Space
340
72
 70
     0
280
     1
281
     0
  0
BLOCK_RECORD
  5
6B
330
1
100
AcDbSymbolTableRecord
100
AcDbBlockTableRecord
  2
*Paper_Space
340
6E
 70
     0
280
     1
281
     0
  0
ENDTAB
  0
ENDSEC
  0
SECTION
  2
BLOCKS
  0
BLOCK
  5
70
330
6F
100
AcDbEntity
  8
0
100
AcDbBlockBegin
  2
*Model_Space
 70
     0
 10
0.0
 20
0.0
 30
0.0
  3
*Model_Space
  1

  0
ENDBLK
  5
71
330
6F
100
AcDbEntity
  8
0
100
AcDbBlockEnd
  0
BLOCK
  5
6C
330
6B
100
AcDbEntity
 67
     1
  8
0
100
AcDbBlockBegin
  2
*Paper_Space
 70
     0
 10
0.0
 20
0.0
 30
0.0
  3
*Paper_Space
  1

  0
ENDBLK
  5
6D
330
6B
100
AcDbEntity
 67
     1
  8
0
100
AcDbBlockEnd
  0
ENDSEC
  0
SECTION
  2
ENTITIES
  0
LINE
  5
D3D
330
6F
100
AcDbEntity
  8
0
  6
Continuous
100
AcDbLine
 10
27.01249999999987
 20
122.4124999999994
 30
0.0
 11
42.61250000000001
 21
122.4124999999994
 31
0.0
  0
LINE
  5
D3E
330
6F
100
AcDbEntity
  8
0
  6
Continuous
100
AcDbLine
 10
42.61250000000001
 20
122.4124999999994
 30
0.0
 11
42.61250000000001
 21
109.6125000000004
 31
0.0
  0
LINE
  5
D3F
330
6F
100
AcDbEntity
  8
0
  6
Continuous
100
AcDbLine
 10
42.61250000000001
 20
109.6125000000004
 30
0.0
 11
27.01249999999987
 21
109.6125000000004
 31
0.0
  0
LINE
  5
D40
330
6F
100
AcDbEntity
  8
0
  6
Continuous
100
AcDbLine
 10
27.01249999999987
 20
109.6125000000004
 30
0.0
 11
27.01249999999987
 21
122.4124999999994
 31
0.0
  0
LINE
  5
D41
330
6F
100
AcDbEntity
  8
0
  6
Continuous
100
AcDbLine
 10
46.0625
 20
122.4124999999994
 30
0.0
 11
61.66250000000001
 21
122.4124999999994
 31
0.0
  0
LINE
  5
D42
330
6F
100
AcDbEntity
  8
0
  6
Continuous
100
AcDbLine
 10
61.66250000000001
 20
122.4124999999994
 30
0.0
 11
61.66250000000001
 21
109.6125000000004
 31
0.0
  0
LINE
  5
D43
330
6F
100
AcDbEntity
  8
0
  6
Continuous
100
AcDbLine
 10
61.66250000000001
 20
109.6125000000004
 30
0.0
 11
46.0625
 21
109.6125000000004
 31
0.0
  0
LINE
  5
D44
330
6F
100
AcDbEntity
  8
0
  6
Continuous
100
AcDbLine
 10
46.0625
 20
109.6125000000004
 30
0.0
 11
46.0625
 21
122.4124999999994
 31
0.0
  0
LINE
  5
D45
330
6F
100
AcDbEntity
  8
0
  6
Continuous
100
AcDbLine
 10
65.11249999999984
 20
122.4124999999994
 30
0.0
 11
80.71249999999986
 21
122.4124999999994
 31
0.0
  0
LINE
  5
D46
330
6F
100
AcDbEntity
  8
0
  6
Continuous
100
AcDbLine
 10
80.71249999999986
 20
122.4124999999994
 30
0.0
 11
80.71249999999986
 21
109.6125000000004
 31
0.0
  0
LINE
  5
D47
330
6F
100
AcDbEntity
  8
0
  6
Continuous
100
AcDbLine
 10
80.71249999999986
 20
109.6125000000004
 30
0.0
 11
65.11249999999984
 21
109.6125000000004
 31
0.0
  0
LINE
  5
D48
330
6F
100
AcDbEntity
  8
0
  6
Continuous
100
AcDbLine
 10
65.11249999999984
 20
109.6125000000004
 30
0.0
 11
65.11249999999984
 21
122.4124999999994
 31
0.0
  0
LINE
  5
D49
330
6F
100
AcDbEntity
  8
0
  6
Continuous
100
AcDbLine
 10
84.16249999999985
 20
122.4124999999994
 30
0.0
 11
99.76249999999986
 21
122.4124999999994
 31
0.0
  0
LINE
  5
D4A
330
6F
100
AcDbEntity
  8
0
  6
Continuous
100
AcDbLine
 10
99.76249999999986
 20
122.4124999999994
 30
0.0
 11
99.76249999999986
 21
109.6125000000004
 31
0.0
  0
LINE
  5
D4B
330
6F
100
AcDbEntity
  8
0
  6
Continuous
100
AcDbLine
 10
99.76249999999986
 20
109.6125000000004
 30
0.0
 11
84.16249999999985
 21
109.6125000000004
 31
0.0
  0
LINE
  5
D4C
330
6F
100
AcDbEntity
  8
0
  6
Continuous
100
AcDbLine
 10
84.16249999999985
 20
109.6125000000004
 30
0.0
 11
84.16249999999985
 21
122.4124999999994
 31
0.0
  0
LINE
  5
D4D
330
6F
100
AcDbEntity
  8
0
  6
Continuous
100
AcDbLine
 10
3.199999999999873
 20
122.4124999999994
 30
0.0
 11
18.7999999999999
 21
122.4124999999994
 31
0.0
  0
LINE
  5
D4E
330
6F
100
AcDbEntity
  8
0
  6
Continuous
100
AcDbLine
 10
18.7999999999999
 20
122.4124999999994
 30
0.0
 11
18.7999999999999
 21
109.6125000000004
 31
0.0
  0
LINE
  5
D4F
330
6F
100
AcDbEntity
  8
0
  6
Continuous
100
AcDbLine
 10
18.7999999999999
 20
109.6125000000004
 30
0.0
 11
3.199999999999873
 21
109.6125000000004
 31
0.0
  0
LINE
  5
D50
330
6F
100
AcDbEntity
  8
0
  6
Continuous
100
AcDbLine
 10
3.199999999999873
 20
109.6125000000004
 30
0.0
 11
3.199999999999873
 21
122.4124999999994
 31
0.0
  0
LINE
  5
D51
330
6F
100
AcDbEntity
  8
0
  6
Continuous
100
AcDbLine
 10
107.9749999999998
 20
122.4124999999994
 30
0.0
 11
123.5749999999999
 21
122.4124999999994
 31
0.0
  0
LINE
  5
D52
330
6F
100
AcDbEntity
  8
0
  6
Continuous
100
AcDbLine
 10
123.5749999999999
 20
122.4124999999994
 30
0.0
 11
123.5749999999999
 21
109.6125000000004
 31
0.0
  0
LINE
  5
D53
330
6F
100
AcDbEntity
  8
0
  6
Continuous
100
AcDbLine
 10
123.5749999999999
 20
109.6125000000004
 30
0.0
 11
107.9749999999998
 21
109.6125000000004
 31
0.0
  0
LINE
  5
D54
330
6F
100
AcDbEntity
  8
0
  6
Continuous
100
AcDbLine
 10
107.9749999999998
 20
109.6125000000004
 30
0.0
 11
107.9749999999998
 21
122.4124999999994
 31
0.0
  0
LINE
  5
D55
330
6F
100
AcDbEntity
  8
0
  6
Continuous
100
AcDbLine
 10
127.0249999999998
 20
122.4124999999994
 30
0.0
 11
142.6249999999998
 21
122.4124999999994
 31
0.0
  0
LINE
  5
D56
330
6F
100
AcDbEntity
  8
0
  6
Continuous
100
AcDbLine
 10
142.6249999999998
 20
122.4124999999994
 30
0.0
 11
142.6249999999998
 21
109.6125000000004
 31
0.0
  0
LINE
  5
D57
330
6F
100
AcDbEntity
  8
0
  6
Continuous
100
AcDbLine
 10
142.6249999999998
 20
109.6125000000004
 30
0.0
 11
127.0249999999998
 21
109.6125000000004
 31
0.0
  0
LINE
  5
D58
330
6F
100
AcDbEntity
  8
0
  6
Continuous
100
AcDbLine
 10
127.0249999999998
 20
109.6125000000004
 30
0.0
 11
127.0249999999998
 21
122.4124999999994
 31
0.0
  0
LINE
  5
D59
330
6F
100
AcDbEntity
  8
0
  6
Continuous
100
AcDbLine
 10
146.0749999999999
 20
122.4124999999994
 30
0.0
 11
161.6749999999998
 21
122.4124999999994
 31
0.0
  0
LINE
  5
D5A
330
6F
100
AcDbEntity
  8
0
  6
Continuous
100
AcDbLine
 10
161.6749999999998
 20
122.4124999999994
 30
0.0
 11
161.6749999999998
 21
109.6125000000004
 31
0.0
  0
LINE
  5
D5B
330
6F
100
AcDbEntity
  8
0
  6
Continuous
100
AcDbLine
 10
161.6749999999998
 20
109.6125000000004
 30
0.0
 11
146.0749999999999
 21
109.6125000000004
 31
0.0
  0
LINE
  5
D5C
330
6F
100
AcDbEntity
  8
0
  6
Continuous
100
AcDbLine
 10
146.0749999999999
 20
109.6125000000004
 30
0.0
 11
146.0749999999999
 21
122.4124999999994
 31
0.0
  0
LINE
  5
D5D
330
6F
100
AcDbEntity
  8
0
  6
Continuous
100
AcDbLine
 10
165.1249999999998
 20
122.4124999999994
 30
0.0
 11
180.7249999999998
 21
122.4124999999994
 31
0.0
  0
LINE
  5
D5E
330
6F
100
AcDbEntity
  8
0
  6
Continuous
100
AcDbLine
 10
180.7249999999998
 20
122.4124999999994
 30
0.0
 11
180.7249999999998
 21
109.6125000000004
 31
0.0
  0
LINE
  5
D5F
330
6F
100
AcDbEntity
  8
0
  6
Continuous
100
AcDbLine
 10
180.7249999999998
 20
109.6125000000004
 30
0.0
 11
165.1249999999998
 21
109.6125000000004
 31
0.0
  0
LINE
  5
D60
330
6F
100
AcDbEntity
  8
0
  6
Continuous
100
AcDbLine
 10
165.1249999999998
 20
109.6125000000004
 30
0.0
 11
165.1249999999998
 21
122.4124999999994
 31
0.0
  0
LINE
  5
D61
330
6F
100
AcDbEntity
  8
0
  6
Continuous
100
AcDbLine
 10
188.9375
 20
122.4124999999994
 30
0.0
 11
204.5374999999999
 21
122.4124999999994
 31
0.0
  0
LINE
  5
D62
330
6F
100
AcDbEntity
  8
0
  6
Continuous
100
AcDbLine
 10
204.5374999999999
 20
122.4124999999994
 30
0.0
 11
204.5374999999999
 21
109.6125000000004
 31
0.0
  0
LINE
  5
D63
330
6F
100
AcDbEntity
  8
0
  6
Continuous
100
AcDbLine
 10
204.5374999999999
 20
109.6125000000004
 30
0.0
 11
188.9375
 21
109.6125000000004
 31
0.0
  0
LINE
  5
D64
330
6F
100
AcDbEntity
  8
0
  6
Continuous
100
AcDbLine
 10
188.9375
 20
109.6125000000004
 30
0.0
 11
188.9375
 21
122.4124999999994
 31
0.0
  0
LINE
  5
D65
330
6F
100
AcDbEntity
  8
0
  6
Continuous
100
AcDbLine
 10
207.9874999999999
 20
122.4124999999994
 30
0.0
 11
223.5874999999999
 21
122.4124999999994
 31
0.0
  0
LINE
  5
D66
330
6F
100
AcDbEntity
  8
0
  6
Continuous
100
AcDbLine
 10
223.5874999999999
 20
122.4124999999994
 30
0.0
 11
223.5874999999999
 21
109.6125000000004
 31
0.0
  0
LINE
  5
D67
330
6F
100
AcDbEntity
  8
0
  6
Continuous
100
AcDbLine
 10
223.5874999999999
 20
109.6125000000004
 30
0.0
 11
207.9874999999999
 21
109.6125000000004
 31
0.0
  0
LINE
  5
D68
330
6F
100
AcDbEntity
  8
0
  6
Continuous
100
AcDbLine
 10
207.9874999999999
 20
109.6125000000004
 30
0.0
 11
207.9874999999999
 21
122.4124999999994
 31
0.0
  0
LINE
  5
D69
330
6F
100
AcDbEntity
  8
0
  6
Continuous
100
AcDbLine
 10
227.0374999999998
 20
122.4124999999994
 30
0.0
 11
242.6375000000001
 21
122.4124999999994
 31
0.0
  0
LINE
  5
D6A
330
6F
100
AcDbEntity
  8
0
  6
Continuous
100
AcDbLine
 10
242.6375000000001
 20
122.4124999999994
 30
0.0
 11
242.6375000000001
 21
109.6125000000004
 31
0.0
  0
LINE
  5
D6B
330
6F
100
AcDbEntity
  8
0
  6
Continuous
100
AcDbLine
 10
242.6375000000001
 20
109.6125000000004
 30
0.0
 11
227.0374999999998
 21
109.6125000000004
 31
0.0
  0
LINE
  5
D6C
330
6F
100
AcDbEntity
  8
0
  6
Continuous
100
AcDbLine
 10
227.0374999999998
 20
109.6125000000004
 30
0.0
 11
227.0374999999998
 21
122.4124999999994
 31
0.0
  0
LINE
  5
D6D
330
6F
100
AcDbEntity
  8
0
  6
Continuous
100
AcDbLine
 10
246.0874999999999
 20
122.4124999999994
 30
0.0
 11
261.6875
 21
122.4124999999994
 31
0.0
  0
LINE
  5
D6E
330
6F
100
AcDbEntity
  8
0
  6
Continuous
100
AcDbLine
 10
261.6875
 20
122.4124999999994
 30
0.0
 11
261.6875
 21
109.6125000000004
 31
0.0
  0
LINE
  5
D6F
330
6F
100
AcDbEntity
  8
0
  6
Continuous
100
AcDbLine
 10
261.6875
 20
109.6125000000004
 30
0.0
 11
246.0874999999999
 21
109.6125000000004
 31
0.0
  0
LINE
  5
D70
330
6F
100
AcDbEntity
  8
0
  6
Continuous
100
AcDbLine
 10
246.0874999999999
 20
109.6125000000004
 30
0.0
 11
246.0874999999999
 21
122.4124999999994
 31
0.0
  0
LINE
  5
D71
330
6F
100
AcDbEntity
  8
0
  6
Continuous
100
AcDbLine
 10
269.8999999999998
 20
122.4124999999994
 30
0.0
 11
285.5
 21
122.4124999999994
 31
0.0
  0
LINE
  5
D72
330
6F
100
AcDbEntity
  8
0
  6
Continuous
100
AcDbLine
 10
285.5
 20
122.4124999999994
 30
0.0
 11
285.5
 21
109.6125000000004
 31
0.0
  0
LINE
  5
D73
330
6F
100
AcDbEntity
  8
0
  6
Continuous
100
AcDbLine
 10
285.5
 20
109.6125000000004
 30
0.0
 11
269.8999999999998
 21
109.6125000000004
 31
0.0
  0
LINE
  5
D74
330
6F
100
AcDbEntity
  8
0
  6
Continuous
100
AcDbLine
 10
269.8999999999998
 20
109.6125000000004
 30
0.0
 11
269.8999999999998
 21
122.4124999999994
 31
0.0
  0
LINE
  5
D75
330
6F
100
AcDbEntity
  8
0
  6
Continuous
100
AcDbLine
 10
3.199999999999873
 20
98.59999999999944
 30
0.0
 11
18.7999999999999
 21
98.59999999999944
 31
0.0
  0
LINE
  5
D76
330
6F
100
AcDbEntity
  8
0
  6
Continuous
100
AcDbLine
 10
18.7999999999999
 20
98.59999999999944
 30
0.0
 11
18.7999999999999
 21
85.8000000000004
 31
0.0
  0
LINE
  5
D77
330
6F
100
AcDbEntity
  8
0
  6
Continuous
100
AcDbLine
 10
18.7999999999999
 20
85.8000000000004
 30
0.0
 11
3.199999999999873
 21
85.8000000000004
 31
0.0
  0
LINE
  5
D78
330
6F
100
AcDbEntity
  8
0
  6
Continuous
100
AcDbLine
 10
3.199999999999873
 20
85.8000000000004
 30
0.0
 11
3.199999999999873
 21
98.59999999999944
 31
0.0
  0
LINE
  5
D79
330
6F
100
AcDbEntity
  8
0
  6
Continuous
100
AcDbLine
 10
22.24999999999988
 20
98.59999999999944
 30
0.0
 11
37.85000000000002
 21
98.59999999999944
 31
0.0
  0
LINE
  5
D7A
330
6F
100
AcDbEntity
  8
0
  6
Continuous
100
AcDbLine
 10
37.85000000000002
 20
98.59999999999944
 30
0.0
 11
37.85000000000002
 21
85.8000000000004
 31
0.0
  0
LINE
  5
D7B
330
6F
100
AcDbEntity
  8
0
  6
Continuous
100
AcDbLine
 10
37.85000000000002
 20
85.8000000000004
 30
0.0
 11
22.24999999999988
 21
85.8000000000004
 31
0.0
  0
LINE
  5
D7C
330
6F
100
AcDbEntity
  8
0
  6
Continuous
100
AcDbLine
 10
22.24999999999988
 20
85.8000000000004
 30
0.0
 11
22.24999999999988
 21
98.59999999999944
 31
0.0
  0
LINE
  5
D7D
330
6F
100
AcDbEntity
  8
0
  6
Continuous
100
AcDbLine
 10
41.30000000000001
 20
98.59999999999944
 30
0.0
 11
56.89999999999997
 21
98.59999999999944
 31
0.0
  0
LINE
  5
D7E
330
6F
100
AcDbEntity
  8
0
  6
Continuous
100
AcDbLine
 10
56.89999999999997
 20
98.59999999999944
 30
0.0
 11
56.89999999999997
 21
85.8000000000004
 31
0.0
  0
LINE
  5
D7F
330
6F
100
AcDbEntity
  8
0
  6
Continuous
100
AcDbLine
 10
56.89999999999997
 20
85.8000000000004
 30
0.0
 11
41.30000000000001
 21
85.8000000000004
 31
0.0
  0
LINE
  5
D80
330
6F
100
AcDbEntity
  8
0
  6
Continuous
100
AcDbLine
 10
41.30000000000001
 20
85.8000000000004
 30
0.0
 11
41.30000000000001
 21
98.59999999999944
 31
0.0
  0
LINE
  5
D81
330
6F
100
AcDbEntity
  8
0
  6
Continuous
100
AcDbLine
 10
60.35000000000001
 20
98.59999999999944
 30
0.0
 11
75.94999999999997
 21
98.59999999999944
 31
0.0
  0
LINE
  5
D82
330
6F
100
AcDbEntity
  8
0
  6
Continuous
100
AcDbLine
 10
75.94999999999997
 20
98.59999999999944
 30
0.0
 11
75.94999999999997
 21
85.8000000000004
 31
0.0
  0
LINE
  5
D83
330
6F
100
AcDbEntity
  8
0
  6
Continuous
100
AcDbLine
 10
75.94999999999997
 20
85.8000000000004
 30
0.0
 11
60.35000000000001
 21
85.8000000000004
 31
0.0
  0
LINE
  5
D84
330
6F
100
AcDbEntity
  8
0
  6
Continuous
100
AcDbLine
 10
60.35000000000001
 20
85.8000000000004
 30
0.0
 11
60.35000000000001
 21
98.59999999999944
 31
0.0
  0
LINE
  5
D85
330
6F
100
AcDbEntity
  8
0
  6
Continuous
100
AcDbLine
 10
79.39999999999997
 20
98.59999999999944
 30
0.0
 11
95.0
 21
98.59999999999944
 31
0.0
  0
LINE
  5
D86
330
6F
100
AcDbEntity
  8
0
  6
Continuous
100
AcDbLine
 10
95.0
 20
98.59999999999944
 30
0.0
 11
95.0
 21
85.8000000000004
 31
0.0
  0
LINE
  5
D87
330
6F
100
AcDbEntity
  8
0
  6
Continuous
100
AcDbLine
 10
95.0
 20
85.8000000000004
 30
0.0
 11
79.39999999999997
 21
85.8000000000004
 31
0.0
  0
LINE
  5
D88
330
6F
100
AcDbEntity
  8
0
  6
Continuous
100
AcDbLine
 10
79.39999999999997
 20
85.8000000000004
 30
0.0
 11
79.39999999999997
 21
98.59999999999944
 31
0.0
  0
LINE
  5
D89
330
6F
100
AcDbEntity
  8
0
  6
Continuous
100
AcDbLine
 10
98.44999999999986
 20
98.59999999999944
 30
0.0
 11
114.05
 21
98.59999999999944
 31
0.0
  0
LINE
  5
D8A
330
6F
100
AcDbEntity
  8
0
  6
Continuous
100
AcDbLine
 10
114.05
 20
98.59999999999944
 30
0.0
 11
114.05
 21
85.8000000000004
 31
0.0
  0
LINE
  5
D8B
330
6F
100
AcDbEntity
  8
0
  6
Continuous
100
AcDbLine
 10
114.05
 20
85.8000000000004
 30
0.0
 11
98.44999999999986
 21
85.8000000000004
 31
0.0
  0
LINE
  5
D8C
330
6F
100
AcDbEntity
  8
0
  6
Continuous
100
AcDbLine
 10
98.44999999999986
 20
85.8000000000004
 30
0.0
 11
98.44999999999986
 21
98.59999999999944
 31
0.0
  0
LINE
  5
D8D
330
6F
100
AcDbEntity
  8
0
  6
Continuous
100
AcDbLine
 10
117.4999999999998
 20
98.59999999999944
 30
0.0
 11
133.1
 21
98.59999999999944
 31
0.0
  0
LINE
  5
D8E
330
6F
100
AcDbEntity
  8
0
  6
Continuous
100
AcDbLine
 10
133.1
 20
98.59999999999944
 30
0.0
 11
133.1
 21
85.8000000000004
 31
0.0
  0
LINE
  5
D8F
330
6F
100
AcDbEntity
  8
0
  6
Continuous
100
AcDbLine
 10
133.1
 20
85.8000000000004
 30
0.0
 11
117.4999999999998
 21
85.8000000000004
 31
0.0
  0
LINE
  5
D90
330
6F
100
AcDbEntity
  8
0
  6
Continuous
100
AcDbLine
 10
117.4999999999998
 20
85.8000000000004
 30
0.0
 11
117.4999999999998
 21
98.59999999999944
 31
0.0
  0
LINE
  5
D91
330
6F
100
AcDbEntity
  8
0
  6
Continuous
100
AcDbLine
 10
136.55
 20
98.59999999999944
 30
0.0
 11
152.15
 21
98.59999999999944
 31
0.0
  0
LINE
  5
D92
330
6F
100
AcDbEntity
  8
0
  6
Continuous
100
AcDbLine
 10
152.15
 20
98.59999999999944
 30
0.0
 11
152.15
 21
85.8000000000004
 31
0.0
  0
LINE
  5
D93
330
6F
100
AcDbEntity
  8
0
  6
Continuous
100
AcDbLine
 10
152.15
 20
85.8000000000004
 30
0.0
 11
136.55
 21
85.8000000000004
 31
0.0
  0
LINE
  5
D94
330
6F
100
AcDbEntity
  8
0
  6
Continuous
100
AcDbLine
 10
136.55
 20
85.8000000000004
 30
0.0
 11
136.55
 21
98.59999999999944
 31
0.0
  0
LINE
  5
D95
330
6F
100
AcDbEntity
  8
0
  6
Continuous
100
AcDbLine
 10
155.5999999999998
 20
98.59999999999944
 30
0.0
 11
171.1999999999999
 21
98.59999999999944
 31
0.0
  0
LINE
  5
D96
330
6F
100
AcDbEntity
  8
0
  6
Continuous
100
AcDbLine
 10
171.1999999999999
 20
98.59999999999944
 30
0.0
 11
171.1999999999999
 21
85.8000000000004
 31
0.0
  0
LINE
  5
D97
330
6F
100
AcDbEntity
  8
0
  6
Continuous
100
AcDbLine
 10
171.1999999999999
 20
85.8000000000004
 30
0.0
 11
155.5999999999998
 21
85.8000000000004
 31
0.0
  0
LINE
  5
D98
330
6F
100
AcDbEntity
  8
0
  6
Continuous
100
AcDbLine
 10
155.5999999999998
 20
85.8000000000004
 30
0.0
 11
155.5999999999998
 21
98.59999999999944
 31
0.0
  0
LINE
  5
D99
330
6F
100
AcDbEntity
  8
0
  6
Continuous
100
AcDbLine
 10
174.6499999999998
 20
98.59999999999944
 30
0.0
 11
190.25
 21
98.59999999999944
 31
0.0
  0
LINE
  5
D9A
330
6F
100
AcDbEntity
  8
0
  6
Continuous
100
AcDbLine
 10
190.25
 20
98.59999999999944
 30
0.0
 11
190.25
 21
85.8000000000004
 31
0.0
  0
LINE
  5
D9B
330
6F
100
AcDbEntity
  8
0
  6
Continuous
100
AcDbLine
 10
190.25
 20
85.8000000000004
 30
0.0
 11
174.6499999999998
 21
85.8000000000004
 31
0.0
  0
LINE
  5
D9C
330
6F
100
AcDbEntity
  8
0
  6
Continuous
100
AcDbLine
 10
174.6499999999998
 20
85.8000000000004
 30
0.0
 11
174.6499999999998
 21
98.59999999999944
 31
0.0
  0
LINE
  5
D9D
330
6F
100
AcDbEntity
  8
0
  6
Continuous
100
AcDbLine
 10
193.6999999999999
 20
98.59999999999944
 30
0.0
 11
209.2999999999999
 21
98.59999999999944
 31
0.0
  0
LINE
  5
D9E
330
6F
100
AcDbEntity
  8
0
  6
Continuous
100
AcDbLine
 10
209.2999999999999
 20
98.59999999999944
 30
0.0
 11
209.2999999999999
 21
85.8000000000004
 31
0.0
  0
LINE
  5
D9F
330
6F
100
AcDbEntity
  8
0
  6
Continuous
100
AcDbLine
 10
209.2999999999999
 20
85.8000000000004
 30
0.0
 11
193.6999999999999
 21
85.8000000000004
 31
0.0
  0
LINE
  5
DA0
330
6F
100
AcDbEntity
  8
0
  6
Continuous
100
AcDbLine
 10
193.6999999999999
 20
85.8000000000004
 30
0.0
 11
193.6999999999999
 21
98.59999999999944
 31
0.0
  0
LINE
  5
DA1
330
6F
100
AcDbEntity
  8
0
  6
Continuous
100
AcDbLine
 10
212.7499999999997
 20
98.59999999999944
 30
0.0
 11
228.3499999999998
 21
98.59999999999944
 31
0.0
  0
LINE
  5
DA2
330
6F
100
AcDbEntity
  8
0
  6
Continuous
100
AcDbLine
 10
228.3499999999998
 20
98.59999999999944
 30
0.0
 11
228.3499999999998
 21
85.8000000000004
 31
0.0
  0
LINE
  5
DA3
330
6F
100
AcDbEntity
  8
0
  6
Continuous
100
AcDbLine
 10
228.3499999999998
 20
85.8000000000004
 30
0.0
 11
212.7499999999997
 21
85.8000000000004
 31
0.0
  0
LINE
  5
DA4
330
6F
100
AcDbEntity
  8
0
  6
Continuous
100
AcDbLine
 10
212.7499999999997
 20
85.8000000000004
 30
0.0
 11
212.7499999999997
 21
98.59999999999944
 31
0.0
  0
LINE
  5
DA5
330
6F
100
AcDbEntity
  8
0
  6
Continuous
100
AcDbLine
 10
231.7999999999998
 20
98.59999999999944
 30
0.0
 11
247.3999999999999
 21
98.59999999999944
 31
0.0
  0
LINE
  5
DA6
330
6F
100
AcDbEntity
  8
0
  6
Continuous
100
AcDbLine
 10
247.3999999999999
 20
98.59999999999944
 30
0.0
 11
247.3999999999999
 21
85.8000000000004
 31
0.0
  0
LINE
  5
DA7
330
6F
100
AcDbEntity
  8
0
  6
Continuous
100
AcDbLine
 10
247.3999999999999
 20
85.8000000000004
 30
0.0
 11
231.7999999999998
 21
85.8000000000004
 31
0.0
  0
LINE
  5
DA8
330
6F
100
AcDbEntity
  8
0
  6
Continuous
100
AcDbLine
 10
231.7999999999998
 20
85.8000000000004
 30
0.0
 11
231.7999999999998
 21
98.59999999999944
 31
0.0
  0
LINE
  5
DA9
330
6F
100
AcDbEntity
  8
0
  6
Continuous
100
AcDbLine
 10
250.8499999999998
 20
98.59999999999944
 30
0.0
 11
266.4499999999998
 21
98.59999999999944
 31
0.0
  0
LINE
  5
DAA
330
6F
100
AcDbEntity
  8
0
  6
Continuous
100
AcDbLine
 10
266.4499999999998
 20
98.59999999999944
 30
0.0
 11
266.4499999999998
 21
85.8000000000004
 31
0.0
  0
LINE
  5
DAB
330
6F
100
AcDbEntity
  8
0
  6
Continuous
100
AcDbLine
 10
266.4499999999998
 20
85.8000000000004
 30
0.0
 11
250.8499999999998
 21
85.8000000000004
 31
0.0
  0
LINE
  5
DAC
330
6F
100
AcDbEntity
  8
0
  6
Continuous
100
AcDbLine
 10
250.8499999999998
 20
85.8000000000004
 30
0.0
 11
250.8499999999998
 21
98.59999999999944
 31
0.0
  0
LINE
  5
DAD
330
6F
100
AcDbEntity
  8
0
  6
Continuous
100
AcDbLine
 10
269.8999999999998
 20
98.59999999999944
 30
0.0
 11
285.5
 21
98.59999999999944
 31
0.0
  0
LINE
  5
DAE
330
6F
100
AcDbEntity
  8
0
  6
Continuous
100
AcDbLine
 10
285.5
 20
98.59999999999944
 30
0.0
 11
285.5
 21
85.8000000000004
 31
0.0
  0
LINE
  5
DAF
330
6F
100
AcDbEntity
  8
0
  6
Continuous
100
AcDbLine
 10
285.5
 20
85.8000000000004
 30
0.0
 11
269.8999999999998
 21
85.8000000000004
 31
0.0
  0
LINE
  5
DB0
330
6F
100
AcDbEntity
  8
0
  6
Continuous
100
AcDbLine
 10
269.8999999999998
 20
85.8000000000004
 30
0.0
 11
269.8999999999998
 21
98.59999999999944
 31
0.0
  0
LINE
  5
DCA
330
6F
100
AcDbEntity
  8
0
  6
Continuous
100
AcDbLine
 10
31.77499999999986
 20
79.5500000000004
 30
0.0
 11
47.37499999999999
 21
79.5500000000004
 31
0.0
  0
LINE
  5
DCB
330
6F
100
AcDbEntity
  8
0
  6
Continuous
100
AcDbLine
 10
47.37499999999999
 20
79.5500000000004
 30
0.0
 11
47.37499999999999
 21
66.75000000000046
 31
0.0
  0
LINE
  5
DCC
330
6F
100
AcDbEntity
  8
0
  6
Continuous
100
AcDbLine
 10
47.37499999999999
 20
66.75000000000046
 30
0.0
 11
31.77499999999986
 21
66.75000000000046
 31
0.0
  0
LINE
  5
DCD
330
6F
100
AcDbEntity
  8
0
  6
Continuous
100
AcDbLine
 10
31.77499999999986
 20
66.75000000000046
 30
0.0
 11
31.77499999999986
 21
79.5500000000004
 31
0.0
  0
LINE
  5
DCE
330
6F
100
AcDbEntity
  8
0
  6
Continuous
100
AcDbLine
 10
50.82499999999988
 20
79.5500000000004
 30
0.0
 11
66.42500000000001
 21
79.5500000000004
 31
0.0
  0
LINE
  5
DCF
330
6F
100
AcDbEntity
  8
0
  6
Continuous
100
AcDbLine
 10
66.42500000000001
 20
79.5500000000004
 30
0.0
 11
66.42500000000001
 21
66.75000000000046
 31
0.0
  0
LINE
  5
DD0
330
6F
100
AcDbEntity
  8
0
  6
Continuous
100
AcDbLine
 10
66.42500000000001
 20
66.75000000000046
 30
0.0
 11
50.82499999999988
 21
66.75000000000046
 31
0.0
  0
LINE
  5
DD1
330
6F
100
AcDbEntity
  8
0
  6
Continuous
100
AcDbLine
 10
50.82499999999988
 20
66.75000000000046
 30
0.0
 11
50.82499999999988
 21
79.5500000000004
 31
0.0
  0
LINE
  5
DD2
330
6F
100
AcDbEntity
  8
0
  6
Continuous
100
AcDbLine
 10
69.87499999999982
 20
79.5500000000004
 30
0.0
 11
85.47500000000002
 21
79.5500000000004
 31
0.0
  0
LINE
  5
DD3
330
6F
100
AcDbEntity
  8
0
  6
Continuous
100
AcDbLine
 10
85.47500000000002
 20
79.5500000000004
 30
0.0
 11
85.47500000000002
 21
66.75000000000046
 31
0.0
  0
LINE
  5
DD4
330
6F
100
AcDbEntity
  8
0
  6
Continuous
100
AcDbLine
 10
85.47500000000002
 20
66.75000000000046
 30
0.0
 11
69.87499999999982
 21
66.75000000000046
 31
0.0
  0
LINE
  5
DD5
330
6F
100
AcDbEntity
  8
0
  6
Continuous
100
AcDbLine
 10
69.87499999999982
 20
66.75000000000046
 30
0.0
 11
69.87499999999982
 21
79.5500000000004
 31
0.0
  0
LINE
  5
DD6
330
6F
100
AcDbEntity
  8
0
  6
Continuous
100
AcDbLine
 10
88.92499999999984
 20
79.5500000000004
 30
0.0
 11
104.525
 21
79.5500000000004
 31
0.0
  0
LINE
  5
DD7
330
6F
100
AcDbEntity
  8
0
  6
Continuous
100
AcDbLine
 10
104.525
 20
79.5500000000004
 30
0.0
 11
104.525
 21
66.75000000000046
 31
0.0
  0
LINE
  5
DD8
330
6F
100
AcDbEntity
  8
0
  6
Continuous
100
AcDbLine
 10
104.525
 20
66.75000000000046
 30
0.0
 11
88.92499999999984
 21
66.75000000000046
 31
0.0
  0
LINE
  5
DD9
330
6F
100
AcDbEntity
  8
0
  6
Continuous
100
AcDbLine
 10
88.92499999999984
 20
66.75000000000046
 30
0.0
 11
88.92499999999984
 21
79.5500000000004
 31
0.0
  0
LINE
  5
DDA
330
6F
100
AcDbEntity
  8
0
  6
Continuous
100
AcDbLine
 10
107.9749999999998
 20
79.5500000000004
 30
0.0
 11
123.575
 21
79.5500000000004
 31
0.0
  0
LINE
  5
DDB
330
6F
100
AcDbEntity
  8
0
  6
Continuous
100
AcDbLine
 10
123.575
 20
79.5500000000004
 30
0.0
 11
123.575
 21
66.75000000000046
 31
0.0
  0
LINE
  5
DDC
330
6F
100
AcDbEntity
  8
0
  6
Continuous
100
AcDbLine
 10
123.575
 20
66.75000000000046
 30
0.0
 11
107.9749999999998
 21
66.75000000000046
 31
0.0
  0
LINE
  5
DDD
330
6F
100
AcDbEntity
  8
0
  6
Continuous
100
AcDbLine
 10
107.9749999999998
 20
66.75000000000046
 30
0.0
 11
107.9749999999998
 21
79.5500000000004
 31
0.0
  0
LINE
  5
DDE
330
6F
100
AcDbEntity
  8
0
  6
Continuous
100
AcDbLine
 10
127.0249999999998
 20
79.5500000000004
 30
0.0
 11
142.625
 21
79.5500000000004
 31
0.0
  0
LINE
  5
DDF
330
6F
100
AcDbEntity
  8
0
  6
Continuous
100
AcDbLine
 10
142.625
 20
79.5500000000004
 30
0.0
 11
142.625
 21
66.75000000000046
 31
0.0
  0
LINE
  5
DE0
330
6F
100
AcDbEntity
  8
0
  6
Continuous
100
AcDbLine
 10
142.625
 20
66.75000000000046
 30
0.0
 11
127.0249999999998
 21
66.75000000000046
 31
0.0
  0
LINE
  5
DE1
330
6F
100
AcDbEntity
  8
0
  6
Continuous
100
AcDbLine
 10
127.0249999999998
 20
66.75000000000046
 30
0.0
 11
127.0249999999998
 21
79.5500000000004
 31
0.0
  0
LINE
  5
DE2
330
6F
100
AcDbEntity
  8
0
  6
Continuous
100
AcDbLine
 10
146.0749999999999
 20
79.5500000000004
 30
0.0
 11
161.675
 21
79.5500000000004
 31
0.0
  0
LINE
  5
DE3
330
6F
100
AcDbEntity
  8
0
  6
Continuous
100
AcDbLine
 10
161.675
 20
79.5500000000004
 30
0.0
 11
161.675
 21
66.75000000000046
 31
0.0
  0
LINE
  5
DE4
330
6F
100
AcDbEntity
  8
0
  6
Continuous
100
AcDbLine
 10
161.675
 20
66.75000000000046
 30
0.0
 11
146.0749999999999
 21
66.75000000000046
 31
0.0
  0
LINE
  5
DE5
330
6F
100
AcDbEntity
  8
0
  6
Continuous
100
AcDbLine
 10
146.0749999999999
 20
66.75000000000046
 30
0.0
 11
146.0749999999999
 21
79.5500000000004
 31
0.0
  0
LINE
  5
DE6
330
6F
100
AcDbEntity
  8
0
  6
Continuous
100
AcDbLine
 10
165.1249999999998
 20
79.5500000000004
 30
0.0
 11
180.7249999999998
 21
79.5500000000004
 31
0.0
  0
LINE
  5
DE7
330
6F
100
AcDbEntity
  8
0
  6
Continuous
100
AcDbLine
 10
180.7249999999998
 20
79.5500000000004
 30
0.0
 11
180.7249999999998
 21
66.75000000000046
 31
0.0
  0
LINE
  5
DE8
330
6F
100
AcDbEntity
  8
0
  6
Continuous
100
AcDbLine
 10
180.7249999999998
 20
66.75000000000046
 30
0.0
 11
165.1249999999998
 21
66.75000000000046
 31
0.0
  0
LINE
  5
DE9
330
6F
100
AcDbEntity
  8
0
  6
Continuous
100
AcDbLine
 10
165.1249999999998
 20
66.75000000000046
 30
0.0
 11
165.1249999999998
 21
79.5500000000004
 31
0.0
  0
LINE
  5
DEA
330
6F
100
AcDbEntity
  8
0
  6
Continuous
100
AcDbLine
 10
184.175
 20
79.5500000000004
 30
0.0
 11
199.7749999999998
 21
79.5500000000004
 31
0.0
  0
LINE
  5
DEB
330
6F
100
AcDbEntity
  8
0
  6
Continuous
100
AcDbLine
 10
199.7749999999998
 20
79.5500000000004
 30
0.0
 11
199.7749999999998
 21
66.75000000000046
 31
0.0
  0
LINE
  5
DEC
330
6F
100
AcDbEntity
  8
0
  6
Continuous
100
AcDbLine
 10
199.7749999999998
 20
66.75000000000046
 30
0.0
 11
184.175
 21
66.75000000000046
 31
0.0
  0
LINE
  5
DED
330
6F
100
AcDbEntity
  8
0
  6
Continuous
100
AcDbLine
 10
184.175
 20
66.75000000000046
 30
0.0
 11
184.175
 21
79.5500000000004
 31
0.0
  0
LINE
  5
DEE
330
6F
100
AcDbEntity
  8
0
  6
Continuous
100
AcDbLine
 10
203.225
 20
79.5500000000004
 30
0.0
 11
218.8249999999998
 21
79.5500000000004
 31
0.0
  0
LINE
  5
DEF
330
6F
100
AcDbEntity
  8
0
  6
Continuous
100
AcDbLine
 10
218.8249999999998
 20
79.5500000000004
 30
0.0
 11
218.8249999999998
 21
66.75000000000046
 31
0.0
  0
LINE
  5
DF0
330
6F
100
AcDbEntity
  8
0
  6
Continuous
100
AcDbLine
 10
218.8249999999998
 20
66.75000000000046
 30
0.0
 11
203.225
 21
66.75000000000046
 31
0.0
  0
LINE
  5
DF1
330
6F
100
AcDbEntity
  8
0
  6
Continuous
100
AcDbLine
 10
203.225
 20
66.75000000000046
 30
0.0
 11
203.225
 21
79.5500000000004
 31
0.0
  0
LINE
  5
DF2
330
6F
100
AcDbEntity
  8
0
  6
Continuous
100
AcDbLine
 10
222.2749999999999
 20
79.5500000000004
 30
0.0
 11
237.8749999999999
 21
79.5500000000004
 31
0.0
  0
LINE
  5
DF3
330
6F
100
AcDbEntity
  8
0
  6
Continuous
100
AcDbLine
 10
237.8749999999999
 20
79.5500000000004
 30
0.0
 11
237.8749999999999
 21
66.75000000000046
 31
0.0
  0
LINE
  5
DF4
330
6F
100
AcDbEntity
  8
0
  6
Continuous
100
AcDbLine
 10
237.8749999999999
 20
66.75000000000046
 30
0.0
 11
222.2749999999999
 21
66.75000000000046
 31
0.0
  0
LINE
  5
DF5
330
6F
100
AcDbEntity
  8
0
  6
Continuous
100
AcDbLine
 10
222.2749999999999
 20
66.75000000000046
 30
0.0
 11
222.2749999999999
 21
79.5500000000004
 31
0.0
  0
LINE
  5
DF6
330
6F
100
AcDbEntity
  8
0
  6
Continuous
100
AcDbLine
 10
241.3249999999998
 20
79.5500000000004
 30
0.0
 11
256.925
 21
79.5500000000004
 31
0.0
  0
LINE
  5
DF7
330
6F
100
AcDbEntity
  8
0
  6
Continuous
100
AcDbLine
 10
256.925
 20
79.5500000000004
 30
0.0
 11
256.925
 21
66.75000000000046
 31
0.0
  0
LINE
  5
DF8
330
6F
100
AcDbEntity
  8
0
  6
Continuous
100
AcDbLine
 10
256.925
 20
66.75000000000046
 30
0.0
 11
241.3249999999998
 21
66.75000000000046
 31
0.0
  0
LINE
  5
DF9
330
6F
100
AcDbEntity
  8
0
  6
Continuous
100
AcDbLine
 10
241.3249999999998
 20
66.75000000000046
 30
0.0
 11
241.3249999999998
 21
79.5500000000004
 31
0.0
  0
LINE
  5
E02
330
6F
100
AcDbEntity
  8
0
  6
Continuous
100
AcDbLine
 10
10.34374999999987
 20
60.50000000000046
 30
0.0
 11
25.9437499999999
 21
60.50000000000046
 31
0.0
  0
LINE
  5
E03
330
6F
100
AcDbEntity
  8
0
  6
Continuous
100
AcDbLine
 10
25.9437499999999
 20
60.50000000000046
 30
0.0
 11
25.9437499999999
 21
47.70000000000037
 31
0.0
  0
LINE
  5
E04
330
6F
100
AcDbEntity
  8
0
  6
Continuous
100
AcDbLine
 10
25.9437499999999
 20
47.70000000000037
 30
0.0
 11
10.34374999999987
 21
47.70000000000037
 31
0.0
  0
LINE
  5
E05
330
6F
100
AcDbEntity
  8
0
  6
Continuous
100
AcDbLine
 10
10.34374999999987
 20
47.70000000000037
 30
0.0
 11
10.34374999999987
 21
60.50000000000046
 31
0.0
  0
LINE
  5
E06
330
6F
100
AcDbEntity
  8
0
  6
Continuous
100
AcDbLine
 10
36.53750000000002
 20
60.50000000000046
 30
0.0
 11
52.13749999999999
 21
60.50000000000046
 31
0.0
  0
LINE
  5
E07
330
6F
100
AcDbEntity
  8
0
  6
Continuous
100
AcDbLine
 10
52.13749999999999
 20
60.50000000000046
 30
0.0
 11
52.13749999999999
 21
47.70000000000037
 31
0.0
  0
LINE
  5
E08
330
6F
100
AcDbEntity
  8
0
  6
Continuous
100
AcDbLine
 10
52.13749999999999
 20
47.70000000000037
 30
0.0
 11
36.53750000000002
 21
47.70000000000037
 31
0.0
  0
LINE
  5
E09
330
6F
100
AcDbEntity
  8
0
  6
Continuous
100
AcDbLine
 10
36.53750000000002
 20
47.70000000000037
 30
0.0
 11
36.53750000000002
 21
60.50000000000046
 31
0.0
  0
LINE
  5
E0A
330
6F
100
AcDbEntity
  8
0
  6
Continuous
100
AcDbLine
 10
55.58749999999998
 20
60.50000000000046
 30
0.0
 11
71.1875
 21
60.50000000000046
 31
0.0
  0
LINE
  5
E0B
330
6F
100
AcDbEntity
  8
0
  6
Continuous
100
AcDbLine
 10
71.1875
 20
60.50000000000046
 30
0.0
 11
71.1875
 21
47.70000000000037
 31
0.0
  0
LINE
  5
E0C
330
6F
100
AcDbEntity
  8
0
  6
Continuous
100
AcDbLine
 10
71.1875
 20
47.70000000000037
 30
0.0
 11
55.58749999999998
 21
47.70000000000037
 31
0.0
  0
LINE
  5
E0D
330
6F
100
AcDbEntity
  8
0
  6
Continuous
100
AcDbLine
 10
55.58749999999998
 20
47.70000000000037
 30
0.0
 11
55.58749999999998
 21
60.50000000000046
 31
0.0
  0
LINE
  5
E0E
330
6F
100
AcDbEntity
  8
0
  6
Continuous
100
AcDbLine
 10
74.63749999999997
 20
60.50000000000046
 30
0.0
 11
90.23749999999999
 21
60.50000000000046
 31
0.0
  0
LINE
  5
E0F
330
6F
100
AcDbEntity
  8
0
  6
Continuous
100
AcDbLine
 10
90.23749999999999
 20
60.50000000000046
 30
0.0
 11
90.23749999999999
 21
47.70000000000037
 31
0.0
  0
LINE
  5
E10
330
6F
100
AcDbEntity
  8
0
  6
Continuous
100
AcDbLine
 10
90.23749999999999
 20
47.70000000000037
 30
0.0
 11
74.63749999999997
 21
47.70000000000037
 31
0.0
  0
LINE
  5
E11
330
6F
100
AcDbEntity
  8
0
  6
Continuous
100
AcDbLine
 10
74.63749999999997
 20
47.70000000000037
 30
0.0
 11
74.63749999999997
 21
60.50000000000046
 31
0.0
  0
LINE
  5
E12
330
6F
100
AcDbEntity
  8
0
  6
Continuous
100
AcDbLine
 10
93.6875
 20
60.50000000000046
 30
0.0
 11
109.2875
 21
60.50000000000046
 31
0.0
  0
LINE
  5
E13
330
6F
100
AcDbEntity
  8
0
  6
Continuous
100
AcDbLine
 10
109.2875
 20
60.50000000000046
 30
0.0
 11
109.2875
 21
47.70000000000037
 31
0.0
  0
LINE
  5
E14
330
6F
100
AcDbEntity
  8
0
  6
Continuous
100
AcDbLine
 10
109.2875
 20
47.70000000000037
 30
0.0
 11
93.6875
 21
47.70000000000037
 31
0.0
  0
LINE
  5
E15
330
6F
100
AcDbEntity
  8
0
  6
Continuous
100
AcDbLine
 10
93.6875
 20
47.70000000000037
 30
0.0
 11
93.6875
 21
60.50000000000046
 31
0.0
  0
LINE
  5
E16
330
6F
100
AcDbEntity
  8
0
  6
Continuous
100
AcDbLine
 10
112.7375
 20
60.50000000000046
 30
0.0
 11
128.3374999999999
 21
60.50000000000046
 31
0.0
  0
LINE
  5
E17
330
6F
100
AcDbEntity
  8
0
  6
Continuous
100
AcDbLine
 10
128.3374999999999
 20
60.50000000000046
 30
0.0
 11
128.3374999999999
 21
47.70000000000037
 31
0.0
  0
LINE
  5
E18
330
6F
100
AcDbEntity
  8
0
  6
Continuous
100
AcDbLine
 10
128.3374999999999
 20
47.70000000000037
 30
0.0
 11
112.7375
 21
47.70000000000037
 31
0.0
  0
LINE
  5
E19
330
6F
100
AcDbEntity
  8
0
  6
Continuous
100
AcDbLine
 10
112.7375
 20
47.70000000000037
 30
0.0
 11
112.7375
 21
60.50000000000046
 31
0.0
  0
LINE
  5
E1A
330
6F
100
AcDbEntity
  8
0
  6
Continuous
100
AcDbLine
 10
131.7875
 20
60.50000000000046
 30
0.0
 11
147.3875
 21
60.50000000000046
 31
0.0
  0
LINE
  5
E1B
330
6F
100
AcDbEntity
  8
0
  6
Continuous
100
AcDbLine
 10
147.3875
 20
60.50000000000046
 30
0.0
 11
147.3875
 21
47.70000000000037
 31
0.0
  0
LINE
  5
E1C
330
6F
100
AcDbEntity
  8
0
  6
Continuous
100
AcDbLine
 10
147.3875
 20
47.70000000000037
 30
0.0
 11
131.7875
 21
47.70000000000037
 31
0.0
  0
LINE
  5
E1D
330
6F
100
AcDbEntity
  8
0
  6
Continuous
100
AcDbLine
 10
131.7875
 20
47.70000000000037
 30
0.0
 11
131.7875
 21
60.50000000000046
 31
0.0
  0
LINE
  5
E1E
330
6F
100
AcDbEntity
  8
0
  6
Continuous
100
AcDbLine
 10
150.8375
 20
60.50000000000046
 30
0.0
 11
166.4375
 21
60.50000000000046
 31
0.0
  0
LINE
  5
E1F
330
6F
100
AcDbEntity
  8
0
  6
Continuous
100
AcDbLine
 10
166.4375
 20
60.50000000000046
 30
0.0
 11
166.4375
 21
47.70000000000037
 31
0.0
  0
LINE
  5
E20
330
6F
100
AcDbEntity
  8
0
  6
Continuous
100
AcDbLine
 10
166.4375
 20
47.70000000000037
 30
0.0
 11
150.8375
 21
47.70000000000037
 31
0.0
  0
LINE
  5
E21
330
6F
100
AcDbEntity
  8
0
  6
Continuous
100
AcDbLine
 10
150.8375
 20
47.70000000000037
 30
0.0
 11
150.8375
 21
60.50000000000046
 31
0.0
  0
LINE
  5
E22
330
6F
100
AcDbEntity
  8
0
  6
Continuous
100
AcDbLine
 10
169.8874999999999
 20
60.50000000000046
 30
0.0
 11
185.4875
 21
60.50000000000046
 31
0.0
  0
LINE
  5
E23
330
6F
100
AcDbEntity
  8
0
  6
Continuous
100
AcDbLine
 10
185.4875
 20
60.50000000000046
 30
0.0
 11
185.4875
 21
47.70000000000037
 31
0.0
  0
LINE
  5
E24
330
6F
100
AcDbEntity
  8
0
  6
Continuous
100
AcDbLine
 10
185.4875
 20
47.70000000000037
 30
0.0
 11
169.8874999999999
 21
47.70000000000037
 31
0.0
  0
LINE
  5
E25
330
6F
100
AcDbEntity
  8
0
  6
Continuous
100
AcDbLine
 10
169.8874999999999
 20
47.70000000000037
 30
0.0
 11
169.8874999999999
 21
60.50000000000046
 31
0.0
  0
LINE
  5
E26
330
6F
100
AcDbEntity
  8
0
  6
Continuous
100
AcDbLine
 10
188.9375
 20
60.50000000000046
 30
0.0
 11
204.5374999999999
 21
60.50000000000046
 31
0.0
  0
LINE
  5
E27
330
6F
100
AcDbEntity
  8
0
  6
Continuous
100
AcDbLine
 10
204.5374999999999
 20
60.50000000000046
 30
0.0
 11
204.5374999999999
 21
47.70000000000037
 31
0.0
  0
LINE
  5
E28
330
6F
100
AcDbEntity
  8
0
  6
Continuous
100
AcDbLine
 10
204.5374999999999
 20
47.70000000000037
 30
0.0
 11
188.9375
 21
47.70000000000037
 31
0.0
  0
LINE
  5
E29
330
6F
100
AcDbEntity
  8
0
  6
Continuous
100
AcDbLine
 10
188.9375
 20
47.70000000000037
 30
0.0
 11
188.9375
 21
60.50000000000046
 31
0.0
  0
LINE
  5
E2A
330
6F
100
AcDbEntity
  8
0
  6
Continuous
100
AcDbLine
 10
207.9874999999999
 20
60.50000000000046
 30
0.0
 11
223.5874999999999
 21
60.50000000000046
 31
0.0
  0
LINE
  5
E2B
330
6F
100
AcDbEntity
  8
0
  6
Continuous
100
AcDbLine
 10
223.5874999999999
 20
60.50000000000046
 30
0.0
 11
223.5874999999999
 21
47.70000000000037
 31
0.0
  0
LINE
  5
E2C
330
6F
100
AcDbEntity
  8
0
  6
Continuous
100
AcDbLine
 10
223.5874999999999
 20
47.70000000000037
 30
0.0
 11
207.9874999999999
 21
47.70000000000037
 31
0.0
  0
LINE
  5
E2D
330
6F
100
AcDbEntity
  8
0
  6
Continuous
100
AcDbLine
 10
207.9874999999999
 20
47.70000000000037
 30
0.0
 11
207.9874999999999
 21
60.50000000000046
 31
0.0
  0
LINE
  5
E2E
330
6F
100
AcDbEntity
  8
0
  6
Continuous
100
AcDbLine
 10
227.0374999999998
 20
60.50000000000046
 30
0.0
 11
242.6375000000001
 21
60.50000000000046
 31
0.0
  0
LINE
  5
E2F
330
6F
100
AcDbEntity
  8
0
  6
Continuous
100
AcDbLine
 10
242.6375000000001
 20
60.50000000000046
 30
0.0
 11
242.6375000000001
 21
47.70000000000037
 31
0.0
  0
LINE
  5
E30
330
6F
100
AcDbEntity
  8
0
  6
Continuous
100
AcDbLine
 10
242.6375000000001
 20
47.70000000000037
 30
0.0
 11
227.0374999999998
 21
47.70000000000037
 31
0.0
  0
LINE
  5
E31
330
6F
100
AcDbEntity
  8
0
  6
Continuous
100
AcDbLine
 10
227.0374999999998
 20
47.70000000000037
 30
0.0
 11
227.0374999999998
 21
60.50000000000046
 31
0.0
  0
LINE
  5
E3E
330
6F
100
AcDbEntity
  8
0
  6
Continuous
100
AcDbLine
 10
5.649999999999886
 20
41.45000000000035
 30
0.0
 11
21.24999999999991
 21
41.45000000000035
 31
0.0
  0
LINE
  5
E3F
330
6F
100
AcDbEntity
  8
0
  6
Continuous
100
AcDbLine
 10
21.24999999999991
 20
41.45000000000035
 30
0.0
 11
21.24999999999991
 21
28.65000000000021
 31
0.0
  0
LINE
  5
E40
330
6F
100
AcDbEntity
  8
0
  6
Continuous
100
AcDbLine
 10
21.24999999999991
 20
28.65000000000021
 30
0.0
 11
5.649999999999886
 21
28.65000000000021
 31
0.0
  0
LINE
  5
E41
330
6F
100
AcDbEntity
  8
0
  6
Continuous
100
AcDbLine
 10
5.649999999999886
 20
28.65000000000021
 30
0.0
 11
5.649999999999886
 21
41.45000000000035
 31
0.0
  0
LINE
  5
E46
330
6F
100
AcDbEntity
  8
0
  6
Continuous
100
AcDbLine
 10
46.0625
 20
41.45000000000035
 30
0.0
 11
61.66250000000001
 21
41.45000000000035
 31
0.0
  0
LINE
  5
E47
330
6F
100
AcDbEntity
  8
0
  6
Continuous
100
AcDbLine
 10
61.66250000000001
 20
41.45000000000035
 30
0.0
 11
61.66250000000001
 21
28.65000000000021
 31
0.0
  0
LINE
  5
E48
330
6F
100
AcDbEntity
  8
0
  6
Continuous
100
AcDbLine
 10
61.66250000000001
 20
28.65000000000021
 30
0.0
 11
46.0625
 21
28.65000000000021
 31
0.0
  0
LINE
  5
E49
330
6F
100
AcDbEntity
  8
0
  6
Continuous
100
AcDbLine
 10
46.0625
 20
28.65000000000021
 30
0.0
 11
46.0625
 21
41.45000000000035
 31
0.0
  0
LINE
  5
E4A
330
6F
100
AcDbEntity
  8
0
  6
Continuous
100
AcDbLine
 10
65.11250000000001
 20
41.45000000000035
 30
0.0
 11
80.71249999999997
 21
41.45000000000035
 31
0.0
  0
LINE
  5
E4B
330
6F
100
AcDbEntity
  8
0
  6
Continuous
100
AcDbLine
 10
80.71249999999997
 20
41.45000000000035
 30
0.0
 11
80.71249999999997
 21
28.65000000000021
 31
0.0
  0
LINE
  5
E4C
330
6F
100
AcDbEntity
  8
0
  6
Continuous
100
AcDbLine
 10
80.71249999999997
 20
28.65000000000021
 30
0.0
 11
65.11250000000001
 21
28.65000000000021
 31
0.0
  0
LINE
  5
E4D
330
6F
100
AcDbEntity
  8
0
  6
Continuous
100
AcDbLine
 10
65.11250000000001
 20
28.65000000000021
 30
0.0
 11
65.11250000000001
 21
41.45000000000035
 31
0.0
  0
LINE
  5
E4E
330
6F
100
AcDbEntity
  8
0
  6
Continuous
100
AcDbLine
 10
84.16250000000003
 20
41.45000000000035
 30
0.0
 11
99.7625
 21
41.45000000000035
 31
0.0
  0
LINE
  5
E4F
330
6F
100
AcDbEntity
  8
0
  6
Continuous
100
AcDbLine
 10
99.7625
 20
41.45000000000035
 30
0.0
 11
99.7625
 21
28.65000000000021
 31
0.0
  0
LINE
  5
E50
330
6F
100
AcDbEntity
  8
0
  6
Continuous
100
AcDbLine
 10
99.7625
 20
28.65000000000021
 30
0.0
 11
84.16250000000003
 21
28.65000000000021
 31
0.0
  0
LINE
  5
E51
330
6F
100
AcDbEntity
  8
0
  6
Continuous
100
AcDbLine
 10
84.16250000000003
 20
28.65000000000021
 30
0.0
 11
84.16250000000003
 21
41.45000000000035
 31
0.0
  0
LINE
  5
E52
330
6F
100
AcDbEntity
  8
0
  6
Continuous
100
AcDbLine
 10
103.2124999999998
 20
41.45000000000035
 30
0.0
 11
118.8125
 21
41.45000000000035
 31
0.0
  0
LINE
  5
E53
330
6F
100
AcDbEntity
  8
0
  6
Continuous
100
AcDbLine
 10
118.8125
 20
41.45000000000035
 30
0.0
 11
118.8125
 21
28.65000000000021
 31
0.0
  0
LINE
  5
E54
330
6F
100
AcDbEntity
  8
0
  6
Continuous
100
AcDbLine
 10
118.8125
 20
28.65000000000021
 30
0.0
 11
103.2124999999998
 21
28.65000000000021
 31
0.0
  0
LINE
  5
E55
330
6F
100
AcDbEntity
  8
0
  6
Continuous
100
AcDbLine
 10
103.2124999999998
 20
28.65000000000021
 30
0.0
 11
103.2124999999998
 21
41.45000000000035
 31
0.0
  0
LINE
  5
E56
330
6F
100
AcDbEntity
  8
0
  6
Continuous
100
AcDbLine
 10
122.2624999999998
 20
41.45000000000035
 30
0.0
 11
137.8625
 21
41.45000000000035
 31
0.0
  0
LINE
  5
E57
330
6F
100
AcDbEntity
  8
0
  6
Continuous
100
AcDbLine
 10
137.8625
 20
41.45000000000035
 30
0.0
 11
137.8625
 21
28.65000000000021
 31
0.0
  0
LINE
  5
E58
330
6F
100
AcDbEntity
  8
0
  6
Continuous
100
AcDbLine
 10
137.8625
 20
28.65000000000021
 30
0.0
 11
122.2624999999998
 21
28.65000000000021
 31
0.0
  0
LINE
  5
E59
330
6F
100
AcDbEntity
  8
0
  6
Continuous
100
AcDbLine
 10
122.2624999999998
 20
28.65000000000021
 30
0.0
 11
122.2624999999998
 21
41.45000000000035
 31
0.0
  0
LINE
  5
E5A
330
6F
100
AcDbEntity
  8
0
  6
Continuous
100
AcDbLine
 10
141.3124999999998
 20
41.45000000000035
 30
0.0
 11
156.9125
 21
41.45000000000035
 31
0.0
  0
LINE
  5
E5B
330
6F
100
AcDbEntity
  8
0
  6
Continuous
100
AcDbLine
 10
156.9125
 20
41.45000000000035
 30
0.0
 11
156.9125
 21
28.65000000000021
 31
0.0
  0
LINE
  5
E5C
330
6F
100
AcDbEntity
  8
0
  6
Continuous
100
AcDbLine
 10
156.9125
 20
28.65000000000021
 30
0.0
 11
141.3124999999998
 21
28.65000000000021
 31
0.0
  0
LINE
  5
E5D
330
6F
100
AcDbEntity
  8
0
  6
Continuous
100
AcDbLine
 10
141.3124999999998
 20
28.65000000000021
 30
0.0
 11
141.3124999999998
 21
41.45000000000035
 31
0.0
  0
LINE
  5
E5E
330
6F
100
AcDbEntity
  8
0
  6
Continuous
100
AcDbLine
 10
160.3624999999998
 20
41.45000000000035
 30
0.0
 11
175.9624999999998
 21
41.45000000000035
 31
0.0
  0
LINE
  5
E5F
330
6F
100
AcDbEntity
  8
0
  6
Continuous
100
AcDbLine
 10
175.9624999999998
 20
41.45000000000035
 30
0.0
 11
175.9624999999998
 21
28.65000000000021
 31
0.0
  0
LINE
  5
E60
330
6F
100
AcDbEntity
  8
0
  6
Continuous
100
AcDbLine
 10
175.9624999999998
 20
28.65000000000021
 30
0.0
 11
160.3624999999998
 21
28.65000000000021
 31
0.0
  0
LINE
  5
E61
330
6F
100
AcDbEntity
  8
0
  6
Continuous
100
AcDbLine
 10
160.3624999999998
 20
28.65000000000021
 30
0.0
 11
160.3624999999998
 21
41.45000000000035
 31
0.0
  0
LINE
  5
E62
330
6F
100
AcDbEntity
  8
0
  6
Continuous
100
AcDbLine
 10
179.4125
 20
41.45000000000035
 30
0.0
 11
195.0124999999998
 21
41.45000000000035
 31
0.0
  0
LINE
  5
E63
330
6F
100
AcDbEntity
  8
0
  6
Continuous
100
AcDbLine
 10
195.0124999999998
 20
41.45000000000035
 30
0.0
 11
195.0124999999998
 21
28.65000000000021
 31
0.0
  0
LINE
  5
E64
330
6F
100
AcDbEntity
  8
0
  6
Continuous
100
AcDbLine
 10
195.0124999999998
 20
28.65000000000021
 30
0.0
 11
179.4125
 21
28.65000000000021
 31
0.0
  0
LINE
  5
E65
330
6F
100
AcDbEntity
  8
0
  6
Continuous
100
AcDbLine
 10
179.4125
 20
28.65000000000021
 30
0.0
 11
179.4125
 21
41.45000000000035
 31
0.0
  0
LINE
  5
E66
330
6F
100
AcDbEntity
  8
0
  6
Continuous
100
AcDbLine
 10
198.4624999999999
 20
41.45000000000035
 30
0.0
 11
214.0624999999999
 21
41.45000000000035
 31
0.0
  0
LINE
  5
E67
330
6F
100
AcDbEntity
  8
0
  6
Continuous
100
AcDbLine
 10
214.0624999999999
 20
41.45000000000035
 30
0.0
 11
214.0624999999999
 21
28.65000000000021
 31
0.0
  0
LINE
  5
E68
330
6F
100
AcDbEntity
  8
0
  6
Continuous
100
AcDbLine
 10
214.0624999999999
 20
28.65000000000021
 30
0.0
 11
198.4624999999999
 21
28.65000000000021
 31
0.0
  0
LINE
  5
E69
330
6F
100
AcDbEntity
  8
0
  6
Continuous
100
AcDbLine
 10
198.4624999999999
 20
28.65000000000021
 30
0.0
 11
198.4624999999999
 21
41.45000000000035
 31
0.0
  0
LINE
  5
E6A
330
6F
100
AcDbEntity
  8
0
  6
Continuous
100
AcDbLine
 10
217.5124999999998
 20
41.45000000000035
 30
0.0
 11
233.1124999999998
 21
41.45000000000035
 31
0.0
  0
LINE
  5
E6B
330
6F
100
AcDbEntity
  8
0
  6
Continuous
100
AcDbLine
 10
233.1124999999998
 20
41.45000000000035
 30
0.0
 11
233.1124999999998
 21
28.65000000000021
 31
0.0
  0
LINE
  5
E6C
330
6F
100
AcDbEntity
  8
0
  6
Continuous
100
AcDbLine
 10
233.1124999999998
 20
28.65000000000021
 30
0.0
 11
217.5124999999998
 21
28.65000000000021
 31
0.0
  0
LINE
  5
E6D
330
6F
100
AcDbEntity
  8
0
  6
Continuous
100
AcDbLine
 10
217.5124999999998
 20
28.65000000000021
 30
0.0
 11
217.5124999999998
 21
41.45000000000035
 31
0.0
  0
LINE
  5
E76
330
6F
100
AcDbEntity
  8
0
  6
Continuous
100
AcDbLine
 10
253.2312499999998
 20
41.45000000000035
 30
0.0
 11
268.8312499999997
 21
41.45000000000035
 31
0.0
  0
LINE
  5
E77
330
6F
100
AcDbEntity
  8
0
  6
Continuous
100
AcDbLine
 10
268.8312499999997
 20
41.45000000000035
 30
0.0
 11
268.8312499999997
 21
28.65000000000021
 31
0.0
  0
LINE
  5
E78
330
6F
100
AcDbEntity
  8
0
  6
Continuous
100
AcDbLine
 10
268.8312499999997
 20
28.65000000000021
 30
0.0
 11
253.2312499999998
 21
28.65000000000021
 31
0.0
  0
LINE
  5
E79
330
6F
100
AcDbEntity
  8
0
  6
Continuous
100
AcDbLine
 10
253.2312499999998
 20
28.65000000000021
 30
0.0
 11
253.2312499999998
 21
41.45000000000035
 31
0.0
  0
LINE
  5
E7A
330
6F
100
AcDbEntity
  8
0
  6
Continuous
100
AcDbLine
 10
27.01249999999987
 20
41.45000000000035
 30
0.0
 11
42.61250000000001
 21
41.45000000000035
 31
0.0
  0
LINE
  5
E7B
330
6F
100
AcDbEntity
  8
0
  6
Continuous
100
AcDbLine
 10
42.61250000000001
 20
41.45000000000035
 30
0.0
 11
42.61250000000001
 21
28.65000000000021
 31
0.0
  0
LINE
  5
E7C
330
6F
100
AcDbEntity
  8
0
  6
Continuous
100
AcDbLine
 10
42.61250000000001
 20
28.65000000000021
 30
0.0
 11
27.01249999999987
 21
28.65000000000021
 31
0.0
  0
LINE
  5
E7D
330
6F
100
AcDbEntity
  8
0
  6
Continuous
100
AcDbLine
 10
27.01249999999987
 20
28.65000000000021
 30
0.0
 11
27.01249999999987
 21
41.45000000000035
 31
0.0
  0
LINE
  5
E7E
330
6F
100
AcDbEntity
  8
0
  6
Continuous
100
AcDbLine
 10
217.5124999999998
 20
22.40000000000021
 30
0.0
 11
233.1124999999998
 21
22.40000000000021
 31
0.0
  0
LINE
  5
E7F
330
6F
100
AcDbEntity
  8
0
  6
Continuous
100
AcDbLine
 10
233.1124999999998
 20
22.40000000000021
 30
0.0
 11
233.1124999999998
 21
9.600000000000136
 31
0.0
  0
LINE
  5
E80
330
6F
100
AcDbEntity
  8
0
  6
Continuous
100
AcDbLine
 10
233.1124999999998
 20
9.600000000000136
 30
0.0
 11
217.5124999999998
 21
9.600000000000136
 31
0.0
  0
LINE
  5
E81
330
6F
100
AcDbEntity
  8
0
  6
Continuous
100
AcDbLine
 10
217.5124999999998
 20
9.600000000000136
 30
0.0
 11
217.5124999999998
 21
22.40000000000021
 31
0.0
  0
LINE
  5
E82
330
6F
100
AcDbEntity
  8
0
  6
Continuous
100
AcDbLine
 10
27.01249999999987
 20
22.40000000000021
 30
0.0
 11
42.61250000000001
 21
22.40000000000021
 31
0.0
  0
LINE
  5
E83
330
6F
100
AcDbEntity
  8
0
  6
Continuous
100
AcDbLine
 10
42.61250000000001
 20
22.40000000000021
 30
0.0
 11
42.61250000000001
 21
9.600000000000136
 31
0.0
  0
LINE
  5
E84
330
6F
100
AcDbEntity
  8
0
  6
Continuous
100
AcDbLine
 10
42.61250000000001
 20
9.600000000000136
 30
0.0
 11
27.01249999999987
 21
9.600000000000136
 31
0.0
  0
LINE
  5
E85
330
6F
100
AcDbEntity
  8
0
  6
Continuous
100
AcDbLine
 10
27.01249999999987
 20
9.600000000000136
 30
0.0
 11
27.01249999999987
 21
22.40000000000021
 31
0.0
  0
LINE
  5
E8C
330
6F
100
AcDbEntity
  8
0
  6
Continuous
100
AcDbLine
 10
55.58749999999998
 20
22.40000000000021
 30
0.0
 11
71.1875
 21
22.40000000000021
 31
0.0
  0
LINE
  5
E8D
330
6F
100
AcDbEntity
  8
0
  6
Continuous
100
AcDbLine
 10
71.1875
 20
22.40000000000021
 30
0.0
 11
71.1875
 21
9.600000000000136
 31
0.0
  0
LINE
  5
E8E
330
6F
100
AcDbEntity
  8
0
  6
Continuous
100
AcDbLine
 10
71.1875
 20
9.600000000000136
 30
0.0
 11
55.58749999999998
 21
9.600000000000136
 31
0.0
  0
LINE
  5
E8F
330
6F
100
AcDbEntity
  8
0
  6
Continuous
100
AcDbLine
 10
55.58749999999998
 20
9.600000000000136
 30
0.0
 11
55.58749999999998
 21
22.40000000000021
 31
0.0
  0
LINE
  5
E96
330
6F
100
AcDbEntity
  8
0
  6
Continuous
100
AcDbLine
 10
136.55
 20
22.40000000000021
 30
0.0
 11
152.15
 21
22.40000000000021
 31
0.0
  0
LINE
  5
E97
330
6F
100
AcDbEntity
  8
0
  6
Continuous
100
AcDbLine
 10
152.15
 20
22.40000000000021
 30
0.0
 11
152.15
 21
9.600000000000136
 31
0.0
  0
LINE
  5
E98
330
6F
100
AcDbEntity
  8
0
  6
Continuous
100
AcDbLine
 10
152.15
 20
9.600000000000136
 30
0.0
 11
136.55
 21
9.600000000000136
 31
0.0
  0
LINE
  5
E99
330
6F
100
AcDbEntity
  8
0
  6
Continuous
100
AcDbLine
 10
136.55
 20
9.600000000000136
 30
0.0
 11
136.55
 21
22.40000000000021
 31
0.0
  0
LINE
  5
E9A
330
6F
100
AcDbEntity
  8
0
  6
Continuous
100
AcDbLine
 10
246.0874999999999
 20
22.40000000000021
 30
0.0
 11
261.6875
 21
22.40000000000021
 31
0.0
  0
LINE
  5
E9B
330
6F
100
AcDbEntity
  8
0
  6
Continuous
100
AcDbLine
 10
261.6875
 20
22.40000000000021
 30
0.0
 11
261.6875
 21
9.600000000000136
 31
0.0
  0
LINE
  5
E9C
330
6F
100
AcDbEntity
  8
0
  6
Continuous
100
AcDbLine
 10
261.6875
 20
9.600000000000136
 30
0.0
 11
246.0874999999999
 21
9.600000000000136
 31
0.0
  0
LINE
  5
E9D
330
6F
100
AcDbEntity
  8
0
  6
Continuous
100
AcDbLine
 10
246.0874999999999
 20
9.600000000000136
 30
0.0
 11
246.0874999999999
 21
22.40000000000021
 31
0.0
  0
LINE
  5
EA2
330
6F
100
AcDbEntity
  8
0
  6
Continuous
100
AcDbLine
 10
90.35000000000003
 20
21.40000000000021
 30
0.0
 11
87.05000000000003
 21
21.40000000000021
 31
0.0
  0
LINE
  5
EA3
330
6F
100
AcDbEntity
  8
0
  6
Continuous
100
AcDbLine
 10
87.05000000000003
 20
21.40000000000021
 30
0.0
 11
87.05000000000003
 21
7.20000000000016
 31
0.0
  0
LINE
  5
EA4
330
6F
100
AcDbEntity
  8
0
  6
Continuous
100
AcDbLine
 10
87.05000000000003
 20
7.20000000000016
 30
0.0
 11
90.35000000000003
 21
7.20000000000016
 31
0.0
  0
LINE
  5
EA5
330
6F
100
AcDbEntity
  8
0
  6
Continuous
100
AcDbLine
 10
90.35000000000003
 20
7.20000000000016
 30
0.0
 11
90.35000000000003
 21
21.40000000000021
 31
0.0
  0
LINE
  5
EA6
330
6F
100
AcDbEntity
  8
0
  6
Continuous
100
AcDbLine
 10
201.6499999999998
 20
21.40000000000021
 30
0.0
 11
198.3499999999998
 21
21.40000000000021
 31
0.0
  0
LINE
  5
EA7
330
6F
100
AcDbEntity
  8
0
  6
Continuous
100
AcDbLine
 10
198.3499999999998
 20
21.40000000000021
 30
0.0
 11
198.3499999999998
 21
7.20000000000016
 31
0.0
  0
LINE
  5
EA8
330
6F
100
AcDbEntity
  8
0
  6
Continuous
100
AcDbLine
 10
198.3499999999998
 20
7.20000000000016
 30
0.0
 11
201.6499999999998
 21
7.20000000000016
 31
0.0
  0
LINE
  5
EA9
330
6F
100
AcDbEntity
  8
0
  6
Continuous
100
AcDbLine
 10
201.6499999999998
 20
7.20000000000016
 30
0.0
 11
201.6499999999998
 21
21.40000000000021
 31
0.0
  0
LINE
  5
EAC
330
6F
100
AcDbEntity
  8
0
  6
Continuous
100
AcDbLine
 10
270.7489999999998
 20
78.05000000000041
 30
0.0
 11
270.7489999999998
 21
74.75000000000045
 31
0.0
  0
LINE
  5
EAD
330
6F
100
AcDbEntity
  8
0
  6
Continuous
100
AcDbLine
 10
270.7489999999998
 20
74.75000000000045
 30
0.0
 11
284.9489999999998
 21
74.75000000000045
 31
0.0
  0
LINE
  5
EAF
330
6F
100
AcDbEntity
  8
0
  6
Continuous
100
AcDbLine
 10
284.9489999999998
 20
74.75000000000045
 30
0.0
 11
284.9489999999998
 21
78.05000000000041
 31
0.0
  0
LINE
  5
EB0
330
6F
100
AcDbEntity
  8
0
  6
Continuous
100
AcDbLine
 10
284.9489999999998
 20
78.05000000000041
 30
0.0
 11
270.7489999999998
 21
78.05000000000041
 31
0.0
  0
LINE
  5
EB5
330
6F
100
AcDbEntity
  8
0
  6
Continuous
100
AcDbLine
 10
241.1252499999998
 20
25.97000000000014
 30
0.0
 11
241.1252499999998
 21
31.17620000000022
 31
0.0
  0
LINE
  5
EB6
330
6F
100
AcDbEntity
  8
0
  6
Continuous
100
AcDbLine
 10
241.1252499999998
 20
31.17620000000022
 30
0.0
 11
238.4602499999999
 21
31.17620000000022
 31
0.0
  0
LINE
  5
EB7
330
6F
100
AcDbEntity
  8
0
  6
Continuous
100
AcDbLine
 10
238.4602499999999
 20
31.17620000000022
 30
0.0
 11
238.4602499999999
 21
25.97000000000014
 31
0.0
  0
LINE
  5
EB8
330
6F
100
AcDbEntity
  8
0
  6
Continuous
100
AcDbLine
 10
238.4602499999999
 20
25.97000000000014
 30
0.0
 11
241.1252499999998
 21
25.97000000000014
 31
0.0
  0
LINE
  5
EBC
330
6F
100
AcDbEntity
  8
0
  6
Continuous
100
AcDbLine
 10
283.6022499999996
 20
25.97000000000014
 30
0.0
 11
283.6022499999996
 21
31.17620000000022
 31
0.0
  0
LINE
  5
EBD
330
6F
100
AcDbEntity
  8
0
  6
Continuous
100
AcDbLine
 10
283.6022499999996
 20
31.17620000000022
 30
0.0
 11
280.9372499999997
 21
31.17620000000022
 31
0.0
  0
LINE
  5
EBE
330
6F
100
AcDbEntity
  8
0
  6
Continuous
100
AcDbLine
 10
280.9372499999997
 20
31.17620000000022
 30
0.0
 11
280.9372499999997
 21
25.97000000000014
 31
0.0
  0
LINE
  5
EBF
330
6F
100
AcDbEntity
  8
0
  6
Continuous
100
AcDbLine
 10
280.9372499999997
 20
25.97000000000014
 30
0.0
 11
283.6022499999996
 21
25.97000000000014
 31
0.0
  0
LINE
  5
EC4
330
6F
100
AcDbEntity
  8
0
  6
Continuous
100
AcDbLine
 10
257.0374999999998
 20
60.50000000000046
 30
0.0
 11
272.6375
 21
60.50000000000046
 31
0.0
  0
LINE
  5
EC5
330
6F
100
AcDbEntity
  8
0
  6
Continuous
100
AcDbLine
 10
272.6375
 20
60.50000000000046
 30
0.0
 11
272.6375
 21
47.70000000000037
 31
0.0
  0
LINE
  5
EC6
330
6F
100
AcDbEntity
  8
0
  6
Continuous
100
AcDbLine
 10
272.6375
 20
47.70000000000037
 30
0.0
 11
257.0374999999998
 21
47.70000000000037
 31
0.0
  0
LINE
  5
EC7
330
6F
100
AcDbEntity
  8
0
  6
Continuous
100
AcDbLine
 10
257.0374999999998
 20
47.70000000000037
 30
0.0
 11
257.0374999999998
 21
60.50000000000046
 31
0.0
  0
LINE
  5
ECA
330
6F
100
AcDbEntity
  8
0
  6
Continuous
100
AcDbLine
 10
275.4655
 20
60.50000000000046
 30
0.0
 11
278.7654999999999
 21
60.50000000000046
 31
0.0
  0
LINE
  5
ECB
330
6F
100
AcDbEntity
  8
0
  6
Continuous
100
AcDbLine
 10
278.7654999999999
 20
60.50000000000046
 30
0.0
 11
278.7654999999999
 21
46.30000000000027
 31
0.0
  0
LINE
  5
ECC
330
6F
100
AcDbEntity
  8
0
  6
Continuous
100
AcDbLine
 10
278.7654999999999
 20
46.30000000000027
 30
0.0
 11
275.4655
 21
46.30000000000027
 31
0.0
  0
LINE
  5
ECD
330
6F
100
AcDbEntity
  8
0
  6
Continuous
100
AcDbLine
 10
275.4655
 20
46.30000000000027
 30
0.0
 11
275.4655
 21
60.50000000000046
 31
0.0
  0
LINE
  5
ECE
330
6F
100
AcDbEntity
  8
0
  6
Continuous
100
AcDbLine
 10
254.2094999999998
 20
60.50000000000046
 30
0.0
 11
250.9094999999999
 21
60.50000000000046
 31
0.0
  0
LINE
  5
ECF
330
6F
100
AcDbEntity
  8
0
  6
Continuous
100
AcDbLine
 10
250.9094999999999
 20
60.50000000000046
 30
0.0
 11
250.9094999999999
 21
46.30000000000027
 31
0.0
  0
LINE
  5
ED0
330
6F
100
AcDbEntity
  8
0
  6
Continuous
100
AcDbLine
 10
250.9094999999999
 20
46.30000000000027
 30
0.0
 11
254.2094999999998
 21
46.30000000000027
 31
0.0
  0
LINE
  5
ED1
330
6F
100
AcDbEntity
  8
0
  6
Continuous
100
AcDbLine
 10
254.2094999999998
 20
46.30000000000027
 30
0.0
 11
254.2094999999998
 21
60.50000000000046
 31
0.0
  0
LINE
  5
ED3
330
6F
100
AcDbEntity
  8
0
  6
Continuous
100
AcDbLine
 10
270.7489999999998
 20
66.76270000000046
 30
0.0
 11
270.7489999999998
 21
63.46270000000026
 31
0.0
  0
LINE
  5
ED4
330
6F
100
AcDbEntity
  8
0
  6
Continuous
100
AcDbLine
 10
270.7489999999998
 20
63.46270000000026
 30
0.0
 11
284.9489999999998
 21
63.46270000000026
 31
0.0
  0
LINE
  5
ED5
330
6F
100
AcDbEntity
  8
0
  6
Continuous
100
AcDbLine
 10
284.9489999999998
 20
63.46270000000026
 30
0.0
 11
284.9489999999998
 21
66.76270000000046
 31
0.0
  0
LINE
  5
ED6
330
6F
100
AcDbEntity
  8
0
  6
Continuous
100
AcDbLine
 10
284.9489999999998
 20
66.76270000000046
 30
0.0
 11
270.7489999999998
 21
66.76270000000046
 31
0.0
  0
LINE
  5
EE2
330
6F
100
AcDbEntity
  8
0
  6
Continuous
100
AcDbLine
 10
1.999999999999884
 20
127.0125000000003
 30
0.0
 11
35.4999999999999
 21
127.0125000000003
 31
0.0
  0
LINE
  5
EE3
330
6F
100
AcDbEntity
  8
0
  6
Continuous
100
AcDbLine
 10
-0.0000000000001137
 20
125.0125000000003
 30
0.0
 11
0.0
 21
7.0
 31
0.0
  0
LINE
  5
EE4
330
6F
100
AcDbEntity
  8
0
  6
Continuous
100
AcDbLine
 10
288.7
 20
125.0125000000003
 30
0.0
 11
288.7
 21
7.0
 31
0.0
  0
LINE
  5
EE5
330
6F
100
AcDbEntity
  8
0
  6
Continuous
100
AcDbLine
 10
286.7
 20
5.000000000000226
 30
0.0
 11
253.2
 21
5.000000000000226
 31
0.0
  0
LINE
  5
EE8
330
6F
100
AcDbEntity
  8
0
  6
Continuous
100
AcDbLine
 10
131.85
 20
127.0125000000003
 30
0.0
 11
131.85
 21
132.0125000000002
 31
0.0
  0
LINE
  5
EEA
330
6F
100
AcDbEntity
  8
0
  6
Continuous
100
AcDbLine
 10
131.85
 20
132.0125000000002
 30
0.0
 11
156.85
 21
132.0125000000002
 31
0.0
  0
LINE
  5
EEB
330
6F
100
AcDbEntity
  8
0
  6
Continuous
100
AcDbLine
 10
156.85
 20
132.0125000000002
 30
0.0
 11
156.85
 21
127.0125000000003
 31
0.0
  0
LINE
  5
EEE
330
6F
100
AcDbEntity
  8
0
  6
Continuous
100
AcDbLine
 10
156.85
 20
0.0
 30
0.0
 11
131.85
 21
0.0
 31
0.0
  0
LINE
  5
EEF
330
6F
100
AcDbEntity
  8
0
  6
Continuous
100
AcDbLine
 10
131.85
 20
0.0
 30
0.0
 11
131.85
 21
5.000000000000226
 31
0.0
  0
LINE
  5
EF0
330
6F
100
AcDbEntity
  8
0
  6
Continuous
100
AcDbLine
 10
156.85
 20
0.0
 30
0.0
 11
156.85
 21
5.000000000000226
 31
0.0
  0
LINE
  5
EF1
330
6F
100
AcDbEntity
  8
0
  6
Continuous
100
AcDbLine
 10
35.4999999999999
 20
127.0125000000003
 30
0.0
 11
35.4999999999999
 21
132.0125000000002
 31
0.0
  0
LINE
  5
EF2
330
6F
100
AcDbEntity
  8
0
  6
Continuous
100
AcDbLine
 10
35.4999999999999
 20
132.0125000000002
 30
0.0
 11
60.49999999999982
 21
132.0125000000002
 31
0.0
  0
LINE
  5
EF3
330
6F
100
AcDbEntity
  8
0
  6
Continuous
100
AcDbLine
 10
60.49999999999982
 20
132.0125000000002
 30
0.0
 11
60.49999999999982
 21
127.0125000000003
 31
0.0
  0
LINE
  5
EF4
330
6F
100
AcDbEntity
  8
0
  6
Continuous
100
AcDbLine
 10
60.49999999999982
 20
0.0
 30
0.0
 11
35.4999999999999
 21
0.0
 31
0.0
  0
LINE
  5
EF5
330
6F
100
AcDbEntity
  8
0
  6
Continuous
100
AcDbLine
 10
35.4999999999999
 20
0.0
 30
0.0
 11
35.4999999999999
 21
5.000000000000226
 31
0.0
  0
LINE
  5
EF6
330
6F
100
AcDbEntity
  8
0
  6
Continuous
100
AcDbLine
 10
60.49999999999982
 20
0.0
 30
0.0
 11
60.49999999999982
 21
5.000000000000226
 31
0.0
  0
LINE
  5
EF7
330
6F
100
AcDbEntity
  8
0
  6
Continuous
100
AcDbLine
 10
228.2
 20
127.0125000000003
 30
0.0
 11
228.2
 21
132.0125000000002
 31
0.0
  0
LINE
  5
EF8
330
6F
100
AcDbEntity
  8
0
  6
Continuous
100
AcDbLine
 10
228.2
 20
132.0125000000002
 30
0.0
 11
253.2
 21
132.0125000000002
 31
0.0
  0
LINE
  5
EF9
330
6F
100
AcDbEntity
  8
0
  6
Continuous
100
AcDbLine
 10
253.2
 20
132.0125000000002
 30
0.0
 11
253.2
 21
127.0125000000003
 31
0.0
  0
LINE
  5
EFA
330
6F
100
AcDbEntity
  8
0
  6
Continuous
100
AcDbLine
 10
253.2
 20
0.0
 30
0.0
 11
228.2
 21
0.0
 31
0.0
  0
LINE
  5
EFB
330
6F
100
AcDbEntity
  8
0
  6
Continuous
100
AcDbLine
 10
228.2
 20
0.0
 30
0.0
 11
228.2
 21
5.000000000000226
 31
0.0
  0
LINE
  5
EFC
330
6F
100
AcDbEntity
  8
0
  6
Continuous
100
AcDbLine
 10
253.2
 20
0.0
 30
0.0
 11
253.2
 21
5.000000000000226
 31
0.0
  0
LINE
  5
EFD
330
6F
100
AcDbEntity
  8
0
  6
Continuous
100
AcDbLine
 10
60.49999999999982
 20
127.0125000000003
 30
0.0
 11
131.85
 21
127.0125000000003
 31
0.0
  0
LINE
  5
EFE
330
6F
100
AcDbEntity
  8
0
  6
Continuous
100
AcDbLine
 10
156.85
 20
127.0125000000003
 30
0.0
 11
228.2
 21
127.0124999999993
 31
0.0
  0
LINE
  5
EFF
330
6F
100
AcDbEntity
  8
0
  6
Continuous
100
AcDbLine
 10
253.2
 20
127.0125000000003
 30
0.0
 11
286.7
 21
127.0125000000003
 31
0.0
  0
LINE
  5
F00
330
6F
100
AcDbEntity
  8
0
  6
Continuous
100
AcDbLine
 10
228.2
 20
5.000000000000226
 30
0.0
 11
156.85
 21
5.000000000000226
 31
0.0
  0
LINE
  5
F01
330
6F
100
AcDbEntity
  8
0
  6
Continuous
100
AcDbLine
 10
131.85
 20
5.000000000000226
 30
0.0
 11
60.49999999999982
 21
5.000000000000226
 31
0.0
  0
LINE
  5
F02
330
6F
100
AcDbEntity
  8
0
  6
Continuous
100
AcDbLine
 10
35.4999999999999
 20
5.000000000000226
 30
0.0
 11
2.0
 21
5.000000000000226
 31
0.0
  0
ARC
  5
F03
330
6F
100
AcDbEntity
  8
0
  6
Continuous
100
AcDbCircle
 10
2.0
 20
7.0
 30
0.0
 40
2.0
100
AcDbArc
 50
180.0
 51
270.0
  0
ARC
  5
F04
330
6F
100
AcDbEntity
  8
0
  6
Continuous
100
AcDbCircle
 10
1.999999999999884
 20
125.0125000000003
 30
0.0
 40
2.0
100
AcDbArc
 50
90.0
 51
180.0
  0
ARC
  5
F05
330
6F
100
AcDbEntity
  8
0
  6
Continuous
100
AcDbCircle
 10
286.7
 20
125.0125000000003
 30
0.0
 40
2.0
100
AcDbArc
 50
0.0
 51
90.0
  0
ARC
  5
F06
330
6F
100
AcDbEntity
  8
0
  6
Continuous
100
AcDbCircle
 10
286.7
 20
7.0
 30
0.0
 40
2.0
100
AcDbArc
 50
270.0
 51
0.0
  0
LINE
  5
1013
330
6F
100
AcDbEntity
  8
0
  6
Continuous
100
AcDbLine
 10
7.962499999999868
 20
79.54999999999945
 30
0.0
 11
23.56249999999989
 21
79.54999999999945
 31
0.0
  0
LINE
  5
1014
330
6F
100
AcDbEntity
  8
0
  6
Continuous
100
AcDbLine
 10
23.56249999999989
 20
79.54999999999945
 30
0.0
 11
23.56249999999989
 21
66.75000000000041
 31
0.0
  0
LINE
  5
1015
330
6F
100
AcDbEntity
  8
0
  6
Continuous
100
AcDbLine
 10
23.56249999999989
 20
66.75000000000041
 30
0.0
 11
7.962499999999868
 21
66.75000000000041
 31
0.0
  0
LINE
  5
1016
330
6F
100
AcDbEntity
  8
0
  6
Continuous
100
AcDbLine
 10
7.962499999999868
 20
66.75000000000041
 30
0.0
 11
7.962499999999868
 21
79.54999999999945
 31
0.0
  0
ENDSEC
  0
SECTION
  2
OBJECTS
  0
DICTIONARY
  5
C
330
0
100
AcDbDictionary
281
     1
  3
ACAD_CIP_PREVIOUS_PRODUCT_INFO
350
20E
  3
ACAD_COLOR
350
62
  3
ACAD_DETAILVIEWSTYLE
350
69
  3
ACAD_GROUP
350
D
  3
ACAD_IMAGE_DICT
350
354
  3
ACAD_IMAGE_VARS
350
355
  3
ACAD_LAYOUT
350
61
  3
ACAD_MATERIAL
350
10
  3
ACAD_MLEADERSTYLE
350
65
  3
ACAD_MLINESTYLE
350
5E
  3
ACAD_PLOTSETTINGS
350
60
  3
ACAD_PLOTSTYLENAME
350
E
  3
ACAD_RENDER_ACTIVE_RAPIDRT_SETTINGS
350
69A
  3
ACAD_RENDER_RAPIDRT_SETTINGS
350
693
  3
ACAD_SCALELIST
350
42
  3
ACAD_SECTIONVIEWSTYLE
350
67
  3
ACAD_TABLESTYLE
350
63
  3
ACAD_VISUALSTYLE
350
29
  3
ACDB_RECOMPOSE_DATA
350
106E
  3
AcDbVariableDictionary
350
218
  0
DICTIONARY
  5
22B
330
2
100
AcDbDictionary
280
     1
281
     1
  3
ACAD_LAYERSTATES
360
22C
  0
DICTIONARY
  5
216
330
54
100
AcDbDictionary
280
     1
281
     1
  3
ADSK_XREC_LAYER_RECONCILED
360
217
  0
DICTIONARY
  5
396
330
6F
100
AcDbDictionary
280
     1
281
     1
  3
ACAD_SORTENTS
360
397
  0
XRECORD
  5
20E
102
{ACAD_REACTORS
330
C
102
}
330
C
100
AcDbXrecord
280
     1
300
ACD
300
2021
300

  0
DICTIONARY
  5
62
102
{ACAD_REACTORS
330
C
102
}
330
C
100
AcDbDictionary
281
     1
  0
DICTIONARY
  5
69
102
{ACAD_REACTORS
330
C
102
}
330
C
100
AcDbDictionary
281
     1
  3
Imperial24
350
6A
  0
DICTIONARY
  5
D
102
{ACAD_REACTORS
330
C
102
}
330
C
100
AcDbDictionary
281
     1
  0
DICTIONARY
  5
354
102
{ACAD_REACTORS
330
C
102
}
330
C
100
AcDbDictionary
281
     1
  0
RASTERVARIABLES
  5
355
102
{ACAD_REACTORS
330
C
102
}
330
C
100
AcDbRasterVariables
 90
        0
 70
     1
 71
     1
 72
     1
  0
DICTIONARY
  5
61
102
{ACAD_REACTORS
330
C
102
}
330
C
100
AcDbDictionary
281
     1
  3
Model
350
72
  3
1
350
6E
  0
DICTIONARY
  5
10
102
{ACAD_REACTORS
330
C
102
}
330
C
100
AcDbDictionary
281
     1
  3
ByBlock
350
19
  3
ByLayer
350
11
  3
Global
350
21
  0
DICTIONARY
  5
65
102
{ACAD_REACTORS
330
C
102
}
330
C
100
AcDbDictionary
281
     1
  3
Standard
350
66
  0
DICTIONARY
  5
5E
102
{ACAD_REACTORS
330
C
102
}
330
C
100
AcDbDictionary
281
     1
  3
Standard
350
5F
  0
DICTIONARY
  5
60
102
{ACAD_REACTORS
330
C
102
}
330
C
100
AcDbDictionary
281
     1
  0
ACDBDICTIONARYWDFLT
  5
E
102
{ACAD_REACTORS
330
C
102
}
330
C
100
AcDbDictionary
281
     1
  3
Normal
350
F
100
AcDbDictionaryWithDefault
340
F
  0
RAPIDRTRENDERSETTINGS
  5
69A
102
{ACAD_REACTORS
330
C
102
}
330
C
100
AcDbRenderSettings
 90
        2
  1

290
     1
290
     0
290
     1
290
     1
  1

  1
 5  
 90
        0
100
AcDbRapidRTRenderSettings
 90
        3
 70
     0
 90
        5
 90
        1
 70
     1
 70
     2
 40
3.0
 40
3.0
290
     1
  0
DICTIONARY
  5
693
102
{ACAD_REACTORS
330
C
102
}
330
C
100
AcDbDictionary
281
     1
  3
1- 
350
699
  3
2- 
350
698
  3
3- 
350
697
  3

350
696
  3

350
694
  3

350
695
  0
DICTIONARY
  5
42
102
{ACAD_REACTORS
330
C
102
}
330
C
100
AcDbDictionary
281
     1
  3
A0
350
43
  3
A1
350
44
  3
A2
350
45
  3
A3
350
46
  3
A4
350
47
  3
A5
350
48
  3
A6
350
49
  3
A7
350
4A
  3
A8
350
4B
  3
A9
350
4C
  3
B0
350
4D
  3
B1
350
4E
  3
B2
350
4F
  3
B3
350
50
  3
B4
350
51
  3
B5
350
52
  3
B6
350
53
  0
DICTIONARY
  5
67
102
{ACAD_REACTORS
330
C
102
}
330
C
100
AcDbDictionary
281
     1
  3
Imperial24
350
68
  0
DICTIONARY
  5
63
102
{ACAD_REACTORS
330
C
102
}
330
C
100
AcDbDictionary
281
     1
  3
Standard
350
64
  0
DICTIONARY
  5
29
102
{ACAD_REACTORS
330
C
102
}
330
C
100
AcDbDictionary
281
     1
  3
2dWireframe
350
2F
  3
Basic
350
2E
  3
Brighten
350
35
  3
ColorChange
350
39
  3
Conceptual
350
32
  3
Dim
350
34
  3
EdgeColorOff
350
41
  3
Facepattern
350
38
  3
Flat
350
2A
  3
FlatWithEdges
350
2B
  3
Gouraud
350
2C
  3
GouraudWithEdges
350
2D
  3
Hidden
350
31
  3
JitterOff
350
3F
  3
Linepattern
350
37
  3
OverhangOff
350
40
  3
Realistic
350
33
  3
Shaded
350
3E
  3
Shaded with edges
350
3D
  3
Shades of Gray
350
3A
  3
Sketchy
350
3B
  3
Thicken
350
36
  3
Wireframe
350
30
  3
X-Ray
350
3C
  0
XRECORD
  5
106E
102
{ACAD_REACTORS
330
C
102
}
330
C
100
AcDbXrecord
280
     1
 90
        1
330
64
  0
DICTIONARY
  5
218
102
{ACAD_REACTORS
330
C
102
}
330
C
100
AcDbDictionary
281
     1
  3
CANNOSCALE
350
21E
  3
CMLEADERSTYLE
350
21A
  3
CTABLESTYLE
350
219
  3
CVIEWDETAILSTYLE
350
21B
  3
CVIEWSECTIONSTYLE
350
21C
  3
LAYEREVAL
350
220
  3
LAYERNOTIFY
350
221
  3
LIGHTINGUNITS
350
21F
  3
MSLTSCALE
350
21D
  0
DICTIONARY
  5
22C
102
{ACAD_REACTORS
330
22B
102
}
330
22B
100
AcDbDictionary
281
     1
  0
XRECORD
  5
217
102
{ACAD_REACTORS
330
216
102
}
330
216
100
AcDbXrecord
280
     1
290
     1
  0
SORTENTSTABLE
  5
397
102
{ACAD_REACTORS
330
396
102
}
330
396
100
AcDbSortentsTable
330
6F
331
EE3
  5
EE8
331
EE4
  5
EEE
331
EE5
  5
EF1
331
EE8
  5
EF5
331
EEA
  5
EF6
331
EEB
  5
EF7
331
EEE
  5
EF8
331
EEF
  5
EF9
331
EF0
  5
EFA
331
EF1
  5
EFB
331
EF2
  5
EFC
331
EF3
  5
EFD
331
EF4
  5
EFE
331
EF5
  5
EFF
331
EF6
  5
F00
331
EF7
  5
F01
331
EF8
  5
F02
331
EF9
  5
F03
331
EFA
  5
F04
331
EFB
  5
F05
331
EFC
  5
F06
331
EFD
  5
EE3
331
EFE
  5
EE4
331
EFF
  5
EE5
331
F00
  5
EF2
331
F01
  5
EF3
331
F02
  5
EF4
331
F03
  5
EEB
331
F04
  5
EEA
331
F05
  5
EF0
331
F06
  5
EEF
  0
ACDBDETAILVIEWSTYLE
  5
6A
102
{ACAD_REACTORS
330
69
102
}
330
69
100
AcDbModelDocViewStyle
 70
     0
  3
Imperial24
290
     0
300
Imperial24
 90
        0
100
AcDbDetailViewStyle
 70
     0
 71
     0
 90
        3
 71
     1
340
55
 62
   256
 40
0.24
340
0
 62
   256
 40
0.24
300

 40
0.36
280
     3
 71
     2
340
5C
 90
       25
 62
   256
 71
     3
340
55
 62
   256
 40
0.24
 90
        1
 40
0.75
 90
        1
300
%<\AcVar ViewType \f "%tc1">% %<\AcVar ViewDetailId>%\P %<\AcVar ViewScale \f "%sn">%
 71
     4
340
5C
 90
       25
 62
   256
340
5C
 90
       25
 62
   256
280
     0
  0
LAYOUT
  5
72
102
{ACAD_REACTORS
330
61
102
}
330
61
100
AcDbPlotSettings
  1

  2
Epson Stylus SX130
  4

  6

 40
0.0
 41
0.0
 42
0.0
 43
0.0
 44
0.0
 45
0.0
 46
0.0
 47
0.0
 48
0.0
 49
0.0
140
0.0
141
0.0
142
1.0
143
1.0
 70
  1712
 72
     0
 73
     0
 74
     0
  7

 75
     0
147
1.0
 76
     0
 77
     2
 78
   300
148
0.0
149
0.0
100
AcDbLayout
  1
Model
 70
     1
 71
     0
 10
0.0
 20
0.0
 11
12.0
 21
9.0
 12
0.0
 22
0.0
 32
0.0
 14
0.0
 24
0.0
 34
0.0
 15
0.0
 25
0.0
 35
0.0
146
0.0
 13
0.0
 23
0.0
 33
0.0
 16
1.0
 26
0.0
 36
0.0
 17
0.0
 27
1.0
 37
0.0
 76
     0
330
6F
331
74
  0
LAYOUT
  5
6E
102
{ACAD_REACTORS
330
61
102
}
330
61
100
AcDbPlotSettings
  1

  2
Epson Stylus SX130
  4

  6

 40
0.0
 41
0.0
 42
0.0
 43
0.0
 44
0.0
 45
0.0
 46
0.0
 47
0.0
 48
0.0
 49
0.0
140
0.0
141
0.0
142
1.0
143
1.0
 70
   688
 72
     0
 73
     0
 74
     5
  7

 75
    16
147
1.0
 76
     0
 77
     2
 78
   300
148
0.0
149
0.0
100
AcDbLayout
  1
1
 70
     1
 71
     1
 10
0.0
 20
0.0
 11
12.0
 21
9.0
 12
0.0
 22
0.0
 32
0.0
 14
1.000000000000000E+20
 24
1.000000000000000E+20
 34
1.000000000000000E+20
 15
-1.000000000000000E+20
 25
-1.000000000000000E+20
 35
-1.000000000000000E+20
146
0.0
 13
0.0
 23
0.0
 33
0.0
 16
1.0
 26
0.0
 36
0.0
 17
0.0
 27
1.0
 37
0.0
 76
     0
330
6B
  0
MATERIAL
  5
19
102
{ACAD_XDICTIONARY
360
1A
102
}
102
{ACAD_REACTORS
330
10
102
}
330
10
100
AcDbMaterial
  1
ByBlock
 72
     0
 43
0.0208333333333333
 43
0.0
 43
0.0
 43
0.0
 43
0.0
 43
0.0208333333333333
 43
0.0
 43
0.0
 43
0.0
 43
0.0
 43
1.0
 43
0.0
 43
0.0
 43
0.0
 43
0.0
 43
1.0
 77
     0
 47
0.0208333333333333
 47
0.0
 47
0.0
 47
0.0
 47
0.0
 47
0.0208333333333333
 47
0.0
 47
0.0
 47
0.0
 47
0.0
 47
1.0
 47
0.0
 47
0.0
 47
0.0
 47
0.0
 47
1.0
171
     0
 49
0.0208333333333333
 49
0.0
 49
0.0
 49
0.0
 49
0.0
 49
0.0208333333333333
 49
0.0
 49
0.0
 49
0.0
 49
0.0
 49
1.0
 49
0.0
 49
0.0
 49
0.0
 49
0.0
 49
1.0
175
     0
142
0.0208333333333333
142
0.0
142
0.0
142
0.0
142
0.0
142
0.0208333333333333
142
0.0
142
0.0
142
0.0
142
0.0
142
1.0
142
0.0
142
0.0
142
0.0
142
0.0
142
1.0
179
     0
144
0.0208333333333333
144
0.0
144
0.0
144
0.0
144
0.0
144
0.0208333333333333
144
0.0
144
0.0
144
0.0
144
0.0
144
1.0
144
0.0
144
0.0
144
0.0
144
0.0
144
1.0
147
0.0208333333333333
147
0.0
147
0.0
147
0.0
147
0.0
147
0.0208333333333333
147
0.0
147
0.0
147
0.0
147
0.0
147
1.0
147
0.0
147
0.0
147
0.0
147
0.0
147
1.0
  0
MATERIAL
  5
11
102
{ACAD_XDICTIONARY
360
12
102
}
102
{ACAD_REACTORS
330
10
102
}
330
10
100
AcDbMaterial
  1
ByLayer
 72
     0
 43
0.0208333333333333
 43
0.0
 43
0.0
 43
0.0
 43
0.0
 43
0.0208333333333333
 43
0.0
 43
0.0
 43
0.0
 43
0.0
 43
1.0
 43
0.0
 43
0.0
 43
0.0
 43
0.0
 43
1.0
 77
     0
 47
0.0208333333333333
 47
0.0
 47
0.0
 47
0.0
 47
0.0
 47
0.0208333333333333
 47
0.0
 47
0.0
 47
0.0
 47
0.0
 47
1.0
 47
0.0
 47
0.0
 47
0.0
 47
0.0
 47
1.0
171
     0
 49
0.0208333333333333
 49
0.0
 49
0.0
 49
0.0
 49
0.0
 49
0.0208333333333333
 49
0.0
 49
0.0
 49
0.0
 49
0.0
 49
1.0
 49
0.0
 49
0.0
 49
0.0
 49
0.0
 49
1.0
175
     0
142
0.0208333333333333
142
0.0
142
0.0
142
0.0
142
0.0
142
0.0208333333333333
142
0.0
142
0.0
142
0.0
142
0.0
142
1.0
142
0.0
142
0.0
142
0.0
142
0.0
142
1.0
179
     0
144
0.0208333333333333
144
0.0
144
0.0
144
0.0
144
0.0
144
0.0208333333333333
144
0.0
144
0.0
144
0.0
144
0.0
144
1.0
144
0.0
144
0.0
144
0.0
144
0.0
144
1.0
147
0.0208333333333333
147
0.0
147
0.0
147
0.0
147
0.0
147
0.0208333333333333
147
0.0
147
0.0
147
0.0
147
0.0
147
1.0
147
0.0
147
0.0
147
0.0
147
0.0
147
1.0
  0
MATERIAL
  5
21
102
{ACAD_XDICTIONARY
360
22
102
}
102
{ACAD_REACTORS
330
10
102
}
330
10
100
AcDbMaterial
  1
Global
 72
     0
 43
0.0208333333333333
 43
0.0
 43
0.0
 43
0.0
 43
0.0
 43
0.0208333333333333
 43
0.0
 43
0.0
 43
0.0
 43
0.0
 43
1.0
 43
0.0
 43
0.0
 43
0.0
 43
0.0
 43
1.0
 77
     0
 47
0.0208333333333333
 47
0.0
 47
0.0
 47
0.0
 47
0.0
 47
0.0208333333333333
 47
0.0
 47
0.0
 47
0.0
 47
0.0
 47
1.0
 47
0.0
 47
0.0
 47
0.0
 47
0.0
 47
1.0
171
     0
 49
0.0208333333333333
 49
0.0
 49
0.0
 49
0.0
 49
0.0
 49
0.0208333333333333
 49
0.0
 49
0.0
 49
0.0
 49
0.0
 49
1.0
 49
0.0
 49
0.0
 49
0.0
 49
0.0
 49
1.0
175
     0
142
0.0208333333333333
142
0.0
142
0.0
142
0.0
142
0.0
142
0.0208333333333333
142
0.0
142
0.0
142
0.0
142
0.0
142
1.0
142
0.0
142
0.0
142
0.0
142
0.0
142
1.0
179
     0
144
0.0208333333333333
144
0.0
144
0.0
144
0.0
144
0.0
144
0.0208333333333333
144
0.0
144
0.0
144
0.0
144
0.0
144
1.0
144
0.0
144
0.0
144
0.0
144
0.0
144
1.0
147
0.0208333333333333
147
0.0
147
0.0
147
0.0
147
0.0
147
0.0208333333333333
147
0.0
147
0.0
147
0.0
147
0.0
147
1.0
147
0.0
147
0.0
147
0.0
147
0.0
147
1.0
  0
MLEADERSTYLE
  5
66
102
{ACAD_REACTORS
330
65
102
}
330
65
100
AcDbMLeaderStyle
179
     2
170
     2
171
     1
172
     0
 90
        2
 40
0.0
 41
0.0
173
     1
 91
-1056964608
340
5A
 92
       -2
290
     1
 42
0.09
291
     1
 43
0.36
  3
Standard
 44
0.18
300

342
55
174
     1
178
     6
175
     1
176
     0
 93
-1056964608
 45
0.18
292
     0
297
     0
 46
0.18
 94
-1056964608
 47
1.0
 49
1.0
140
1.0
293
     1
141
0.0
294
     1
177
     0
142
1.0
295
     0
296
     0
143
0.125
271
     0
272
     9
273
     9
298
     0
  0
MLINESTYLE
  5
5F
102
{ACAD_REACTORS
330
5E
102
}
330
5E
100
AcDbMlineStyle
  2
STANDARD
 70
     0
  3

 62
   256
 51
90.0
 52
90.0
 71
     2
 49
0.5
 62
   256
  6
BYLAYER
 49
-0.5
 62
   256
  6
BYLAYER
  0
ACDBPLACEHOLDER
  5
F
102
{ACAD_REACTORS
330
E
102
}
330
E
  0
RAPIDRTRENDERSETTINGS
  5
699
102
{ACAD_REACTORS
330
693
102
}
330
693
100
AcDbRenderSettings
 90
        2
  1
1- 
290
     1
290
     0
290
     1
290
     1
  1

  1
   12 
 90
        5
100
AcDbRapidRTRenderSettings
 90
        3
 70
     1
 90
        1
 90
      720
 70
     2
 70
     2
 40
3.0
 40
3.0
290
     1
  0
RAPIDRTRENDERSETTINGS
  5
698
102
{ACAD_REACTORS
330
693
102
}
330
693
100
AcDbRenderSettings
 90
        2
  1
2- 
290
     1
290
     0
290
     1
290
     1
  1

  1
   60 
 90
        4
100
AcDbRapidRTRenderSettings
 90
        3
 70
     1
 90
        1
 90
       60
 70
     2
 70
     2
 40
3.0
 40
3.0
290
     1
  0
RAPIDRTRENDERSETTINGS
  5
697
102
{ACAD_REACTORS
330
693
102
}
330
693
100
AcDbRenderSettings
 90
        2
  1
3- 
290
     1
290
     0
290
     1
290
     1
  1

  1
   10 
 90
        3
100
AcDbRapidRTRenderSettings
 90
        3
 70
     1
 90
        1
 90
       10
 70
     1
 70
     2
 40
3.0
 40
3.0
290
     1
  0
RAPIDRTRENDERSETTINGS
  5
696
102
{ACAD_REACTORS
330
693
102
}
330
693
100
AcDbRenderSettings
 90
        2
  1

290
     1
290
     0
290
     1
290
     1
  1

  1
 10  
 90
        2
100
AcDbRapidRTRenderSettings
 90
        3
 70
     0
 90
       10
 90
        1
 70
     2
 70
     2
 40
3.0
 40
3.0
290
     1
  0
RAPIDRTRENDERSETTINGS
  5
694
102
{ACAD_REACTORS
330
693
102
}
330
693
100
AcDbRenderSettings
 90
        2
  1

290
     1
290
     0
290
     1
290
     1
  1

  1
 1  
 90
        0
100
AcDbRapidRTRenderSettings
 90
        3
 70
     0
 90
        1
 90
        1
 70
     0
 70
     2
 40
3.0
 40
3.0
290
     1
  0
RAPIDRTRENDERSETTINGS
  5
695
102
{ACAD_REACTORS
330
693
102
}
330
693
100
AcDbRenderSettings
 90
        2
  1

290
     1
290
     0
290
     1
290
     1
  1

  1
 5  
 90
        1
100
AcDbRapidRTRenderSettings
 90
        3
 70
     0
 90
        5
 90
        1
 70
     1
 70
     2
 40
3.0
 40
3.0
290
     1
  0
SCALE
  5
43
102
{ACAD_REACTORS
330
42
102
}
330
42
100
AcDbScale
 70
     0
300
1:1
140
1.0
141
1.0
290
     1
  0
SCALE
  5
44
102
{ACAD_REACTORS
330
42
102
}
330
42
100
AcDbScale
 70
     0
300
1/128" = 1'-0"
140
0.0078125
141
12.0
290
     0
  0
SCALE
  5
45
102
{ACAD_REACTORS
330
42
102
}
330
42
100
AcDbScale
 70
     0
300
1/64" = 1'-0"
140
0.015625
141
12.0
290
     0
  0
SCALE
  5
46
102
{ACAD_REACTORS
330
42
102
}
330
42
100
AcDbScale
 70
     0
300
1/32" = 1'-0"
140
0.03125
141
12.0
290
     0
  0
SCALE
  5
47
102
{ACAD_REACTORS
330
42
102
}
330
42
100
AcDbScale
 70
     0
300
1/16" = 1'-0"
140
0.0625
141
12.0
290
     0
  0
SCALE
  5
48
102
{ACAD_REACTORS
330
42
102
}
330
42
100
AcDbScale
 70
     0
300
3/32" = 1'-0"
140
0.09375
141
12.0
290
     0
  0
SCALE
  5
49
102
{ACAD_REACTORS
330
42
102
}
330
42
100
AcDbScale
 70
     0
300
1/8" = 1'-0"
140
0.125
141
12.0
290
     0
  0
SCALE
  5
4A
102
{ACAD_REACTORS
330
42
102
}
330
42
100
AcDbScale
 70
     0
300
3/16" = 1'-0"
140
0.1875
141
12.0
290
     0
  0
SCALE
  5
4B
102
{ACAD_REACTORS
330
42
102
}
330
42
100
AcDbScale
 70
     0
300
1/4" = 1'-0"
140
0.25
141
12.0
290
     0
  0
SCALE
  5
4C
102
{ACAD_REACTORS
330
42
102
}
330
42
100
AcDbScale
 70
     0
300
3/8" = 1'-0"
140
0.375
141
12.0
290
     0
  0
SCALE
  5
4D
102
{ACAD_REACTORS
330
42
102
}
330
42
100
AcDbScale
 70
     0
300
1/2" = 1'-0"
140
0.5
141
12.0
290
     0
  0
SCALE
  5
4E
102
{ACAD_REACTORS
330
42
102
}
330
42
100
AcDbScale
 70
     0
300
3/4" = 1'-0"
140
0.75
141
12.0
290
     0
  0
SCALE
  5
4F
102
{ACAD_REACTORS
330
42
102
}
330
42
100
AcDbScale
 70
     0
300
1" = 1'-0"
140
1.0
141
12.0
290
     0
  0
SCALE
  5
50
102
{ACAD_REACTORS
330
42
102
}
330
42
100
AcDbScale
 70
     0
300
1-1/2" = 1'-0"
140
1.5
141
12.0
290
     0
  0
SCALE
  5
51
102
{ACAD_REACTORS
330
42
102
}
330
42
100
AcDbScale
 70
     0
300
3" = 1'-0"
140
3.0
141
12.0
290
     0
  0
SCALE
  5
52
102
{ACAD_REACTORS
330
42
102
}
330
42
100
AcDbScale
 70
     0
300
6" = 1'-0"
140
6.0
141
12.0
290
     0
  0
SCALE
  5
53
102
{ACAD_REACTORS
330
42
102
}
330
42
100
AcDbScale
 70
     0
300
1'-0" = 1'-0"
140
12.0
141
12.0
290
     0
  0
ACDBSECTIONVIEWSTYLE
  5
68
102
{ACAD_REACTORS
330
67
102
}
330
67
100
AcDbModelDocViewStyle
 70
     0
  3
Imperial24
290
     0
300
Imperial24
 90
        0
100
AcDbSectionViewStyle
 70
     0
 71
     0
 90
       78
 71
     1
340
55
 62
   256
 40
0.24
340
0
340
0
 62
   256
 40
0.24
300
I, O, Q, S, X, Z
 40
0.48
 90
        3
 40
0.18
 90
        1
 71
     2
340
5C
 90
       25
 62
   256
340
5C
 90
       50
 62
   256
 40
0.24
 40
0.0
 40
0.24
 71
     3
340
55
 62
   256
 40
0.24
 90
        1
 40
0.75
 90
        1
300
%<\AcVar ViewType \f "%tc1">% %<\AcVar ViewSectionStartId>%-%<\AcVar ViewSectionEndId>%\P %<\AcVar ViewScale \f "%sn">%
 71
     4
 62
   256
 62
   257
300
ANSI31
 40
1.0
 90
        0
290
     0
290
     0
 90
        6
 40
0.0
 40
1.570796326794896
 40
0.2617993877991494
 40
1.308996938995747
 40
-0.2617993877991494
 40
1.832595714594044
  0
TABLESTYLE
  5
64
102
{ACAD_XDICTIONARY
360
25B
102
}
102
{ACAD_REACTORS
330
63
102
}
330
63
100
AcDbTableStyle
280
     0
  3
Standard
 70
     0
 71
     0
 40
0.06
 41
0.06
280
     0
281
     0
  7
Standard
140
0.18
170
     2
 62
     0
 63
     7
283
     0
 90
      512
 91
        0
  1

274
    -2
284
     1
 64
     0
275
    -2
285
     1
 65
     0
276
    -2
286
     1
 66
     0
277
    -2
287
     1
 67
     0
278
    -2
288
     1
 68
     0
279
    -2
289
     1
 69
     0
  7
Standard
140
0.25
170
     5
 62
     0
 63
     7
283
     0
 90
      512
 91
        0
  1

274
    -2
284
     1
 64
     0
275
    -2
285
     1
 65
     0
276
    -2
286
     1
 66
     0
277
    -2
287
     1
 67
     0
278
    -2
288
     1
 68
     0
279
    -2
289
     1
 69
     0
  7
Standard
140
0.18
170
     5
 62
     0
 63
     7
283
     0
 90
      512
 91
        0
  1

274
    -2
284
     1
 64
     0
275
    -2
285
     1
 65
     0
276
    -2
286
     1
 66
     0
277
    -2
287
     1
 67
     0
278
    -2
288
     1
 68
     0
279
    -2
289
     1
 69
     0
  0
VISUALSTYLE
  5
2F
102
{ACAD_REACTORS
330
29
102
}
330
29
100
AcDbVisualStyle
  2
2dWireframe
 70
     4
177
     3
291
     0
 70
    58
 90
        0
176
     1
 90
        2
176
     1
 90
        0
176
     1
 90
        0
176
     1
 40
0.6
176
     1
 40
30.0
176
     1
 62
     7
420
 16777215
176
     1
 90
        1
176
     1
 90
        4
176
     1
 62
     7
176
     1
 62
   257
176
     1
 90
        1
176
     1
 90
        1
176
     1
 40
1.0
176
     1
 90
        0
176
     1
 62
   257
176
     1
 40
1.0
176
     1
 90
        1
176
     1
 90
        6
176
     1
 90
        2
176
     1
 62
     7
176
     1
 90
        5
176
     1
 90
        0
176
     1
 90
        0
176
     1
290
     0
176
     1
 90
        1
176
     1
 40
0.0
176
     1
 90
        0
176
     1
290
     1
176
     1
290
     1
176
     1
290
     0
176
     1
290
     0
176
     1
290
     0
176
     1
290
     0
176
     1
290
     0
176
     1
290
     0
176
     1
290
     0
176
     1
 90
       50
176
     1
 40
0.0
176
     1
 40
1.0
176
     1
 90
        0
176
     1
 62
    18
176
     1
 90
       50
176
     1
 90
        3
176
     1
 62
     5
420
      255
176
     1
290
     0
176
     1
 90
       50
176
     1
 90
       50
176
     1
 90
       50
176
     1
290
     0
176
     1
 90
       50
176
     1
 62
   256
176
     0
 40
1.0
176
     0
 90
        2
176
     1
  1
strokes_ogs.tif
176
     1
290
     0
176
     1
 40
1.0
176
     1
 40
1.0
176
     1
  0
VISUALSTYLE
  5
2E
102
{ACAD_REACTORS
330
29
102
}
330
29
100
AcDbVisualStyle
  2
Basic
 70
     7
177
     3
291
     1
 70
    58
 90
        1
176
     1
 90
        0
176
     1
 90
        1
176
     1
 90
        0
176
     1
 40
0.6
176
     1
 40
30.0
176
     1
 62
     7
420
 16777215
176
     1
 90
        0
176
     1
 90
        4
176
     1
 62
     7
176
     1
 62
   257
176
     1
 90
        1
176
     1
 90
        1
176
     1
 40
1.0
176
     1
 90
        8
176
     1
 62
     7
176
     1
 40
1.0
176
     1
 90
        1
176
     1
 90
        6
176
     1
 90
        2
176
     1
 62
     7
176
     1
 90
        5
176
     1
 90
        0
176
     1
 90
        0
176
     1
290
     0
176
     1
 90
        1
176
     1
 40
0.0
176
     1
 90
        0
176
     1
290
     0
176
     1
290
     1
176
     1
290
     1
176
     1
290
     0
176
     1
290
     0
176
     1
290
     0
176
     1
290
     0
176
     1
290
     0
176
     1
290
     0
176
     1
 90
       50
176
     1
 40
0.0
176
     1
 40
1.0
176
     1
 90
        0
176
     1
 62
    18
176
     1
 90
       50
176
     1
 90
        3
176
     1
 62
     5
420
      255
176
     1
290
     0
176
     1
 90
       50
176
     1
 90
       50
176
     1
 90
       50
176
     1
290
     0
176
     1
 90
       50
176
     1
 62
   256
176
     0
 40
1.0
176
     0
 90
        2
176
     1
  1
strokes_ogs.tif
176
     1
290
     0
176
     1
 40
1.0
176
     1
 40
1.0
176
     1
  0
VISUALSTYLE
  5
35
102
{ACAD_REACTORS
330
29
102
}
330
29
100
AcDbVisualStyle
  2
Brighten
 70
    12
177
     3
291
     1
 70
    58
 90
        2
176
     1
 90
        2
176
     1
 90
        0
176
     1
 90
        0
176
     1
 40
0.6
176
     1
 40
30.0
176
     1
 62
     7
420
 16777215
176
     1
 90
        1
176
     1
 90
        4
176
     1
 62
     7
176
     1
 62
   257
176
     1
 90
        1
176
     1
 90
        1
176
     1
 40
1.0
176
     1
 90
        8
176
     1
 62
     7
176
     1
 40
1.0
176
     1
 90
        1
176
     1
 90
        6
176
     1
 90
        2
176
     1
 62
     7
176
     1
 90
        5
176
     1
 90
        0
176
     1
 90
        0
176
     1
290
     0
176
     1
 90
        1
176
     1
 40
50.0
176
     1
 90
        0
176
     1
290
     0
176
     1
290
     1
176
     1
290
     1
176
     1
290
     0
176
     1
290
     0
176
     1
290
     0
176
     1
290
     0
176
     1
290
     0
176
     1
290
     0
176
     1
 90
       50
176
     1
 40
0.0
176
     1
 40
1.0
176
     1
 90
        0
176
     1
 62
    18
176
     1
 90
       50
176
     1
 90
        3
176
     1
 62
     5
420
      255
176
     1
290
     0
176
     1
 90
       50
176
     1
 90
       50
176
     1
 90
       50
176
     1
290
     0
176
     1
 90
       50
176
     1
 62
   256
176
     0
 40
1.0
176
     0
 90
        2
176
     1
  1
strokes_ogs.tif
176
     1
290
     0
176
     1
 40
1.0
176
     1
 40
1.0
176
     1
  0
VISUALSTYLE
  5
39
102
{ACAD_REACTORS
330
29
102
}
330
29
100
AcDbVisualStyle
  2
ColorChange
 70
    16
177
     3
291
     1
 70
    58
 90
        2
176
     1
 90
        2
176
     1
 90
        3
176
     1
 90
        0
176
     1
 40
0.6
176
     1
 40
30.0
176
     1
 62
     8
420
  8421504
176
     1
 90
        1
176
     1
 90
        4
176
     1
 62
     7
176
     1
 62
   257
176
     1
 90
        1
176
     1
 90
        1
176
     1
 40
1.0
176
     1
 90
        8
176
     1
 62
     8
420
  8421504
176
     1
 40
1.0
176
     1
 90
        1
176
     1
 90
        6
176
     1
 90
        2
176
     1
 62
     7
176
     1
 90
        5
176
     1
 90
        0
176
     1
 90
        0
176
     1
290
     0
176
     1
 90
        1
176
     1
 40
0.0
176
     1
 90
        0
176
     1
290
     0
176
     1
290
     1
176
     1
290
     1
176
     1
290
     0
176
     1
290
     0
176
     1
290
     0
176
     1
290
     0
176
     1
290
     0
176
     1
290
     0
176
     1
 90
       50
176
     1
 40
0.0
176
     1
 40
1.0
176
     1
 90
        0
176
     1
 62
    18
176
     1
 90
       50
176
     1
 90
        3
176
     1
 62
     5
420
      255
176
     1
290
     0
176
     1
 90
       50
176
     1
 90
       50
176
     1
 90
       50
176
     1
290
     0
176
     1
 90
       50
176
     1
 62
   256
176
     0
 40
1.0
176
     0
 90
        2
176
     1
  1
strokes_ogs.tif
176
     1
290
     0
176
     1
 40
1.0
176
     1
 40
1.0
176
     1
  0
VISUALSTYLE
  5
32
102
{ACAD_REACTORS
330
29
102
}
330
29
100
AcDbVisualStyle
  2
Conceptual
 70
     9
177
     3
291
     0
 70
    58
 90
        3
176
     1
 90
        2
176
     1
 90
        0
176
     1
 90
        0
176
     1
 40
0.6
176
     1
 40
30.0
176
     1
 62
     7
420
 16777215
176
     1
 90
        2
176
     1
 90
        2
176
     1
 62
     7
176
     1
 62
   257
176
     1
 90
        1
176
     1
 90
        1
176
     1
 40
179.0
176
     1
 90
        8
176
     1
 62
     7
176
     1
 40
1.0
176
     1
 90
        1
176
     1
 90
        6
176
     1
 90
        2
176
     1
 62
     7
176
     1
 90
        3
176
     1
 90
        0
176
     1
 90
        0
176
     1
290
     0
176
     1
 90
        1
176
     1
 40
0.0
176
     1
 90
        0
176
     1
290
     0
176
     1
290
     1
176
     1
290
     1
176
     1
290
     0
176
     1
290
     0
176
     1
290
     0
176
     1
290
     0
176
     1
290
     0
176
     1
290
     0
176
     1
 90
       50
176
     1
 40
0.0
176
     1
 40
1.0
176
     1
 90
        0
176
     1
 62
    18
176
     1
 90
       50
176
     1
 90
        3
176
     1
 62
     5
420
      255
176
     1
290
     0
176
     1
 90
       50
176
     1
 90
       50
176
     1
 90
       50
176
     1
290
     0
176
     1
 90
       50
176
     1
 62
   256
176
     0
 40
1.0
176
     0
 90
        2
176
     1
  1
strokes_ogs.tif
176
     1
290
     0
176
     1
 40
1.0
176
     1
 40
1.0
176
     1
  0
VISUALSTYLE
  5
34
102
{ACAD_REACTORS
330
29
102
}
330
29
100
AcDbVisualStyle
  2
Dim
 70
    11
177
     3
291
     1
 70
    58
 90
        2
176
     1
 90
        2
176
     1
 90
        0
176
     1
 90
        0
176
     1
 40
0.6
176
     1
 40
30.0
176
     1
 62
     7
420
 16777215
176
     1
 90
        1
176
     1
 90
        4
176
     1
 62
     7
176
     1
 62
   257
176
     1
 90
        1
176
     1
 90
        1
176
     1
 40
1.0
176
     1
 90
        8
176
     1
 62
     7
176
     1
 40
1.0
176
     1
 90
        1
176
     1
 90
        6
176
     1
 90
        2
176
     1
 62
     7
176
     1
 90
        5
176
     1
 90
        0
176
     1
 90
        0
176
     1
290
     0
176
     1
 90
        1
176
     1
 40
-50.0
176
     1
 90
        0
176
     1
290
     0
176
     1
290
     1
176
     1
290
     1
176
     1
290
     0
176
     1
290
     0
176
     1
290
     0
176
     1
290
     0
176
     1
290
     0
176
     1
290
     0
176
     1
 90
       50
176
     1
 40
0.0
176
     1
 40
1.0
176
     1
 90
        0
176
     1
 62
    18
176
     1
 90
       50
176
     1
 90
        3
176
     1
 62
     5
420
      255
176
     1
290
     0
176
     1
 90
       50
176
     1
 90
       50
176
     1
 90
       50
176
     1
290
     0
176
     1
 90
       50
176
     1
 62
   256
176
     0
 40
1.0
176
     0
 90
        2
176
     1
  1
strokes_ogs.tif
176
     1
290
     0
176
     1
 40
1.0
176
     1
 40
1.0
176
     1
  0
VISUALSTYLE
  5
41
102
{ACAD_REACTORS
330
29
102
}
330
29
100
AcDbVisualStyle
  2
EdgeColorOff
 70
    22
177
     3
291
     1
 70
    58
 90
        2
176
     0
 90
        2
176
     0
 90
        0
176
     0
 90
        0
176
     0
 40
0.6
176
     0
 40
30.0
176
     0
 62
     7
420
 16777215
176
     0
 90
        1
176
     0
 90
        4
176
     0
 62
     7
176
     0
 62
   257
176
     0
 90
        1
176
     0
 90
        1
176
     0
 40
1.0
176
     0
 90
        8
176
     2
 62
     7
176
     0
 40
1.0
176
     0
 90
        1
176
     0
 90
        6
176
     0
 90
        2
176
     0
 62
     7
176
     0
 90
        5
176
     0
 90
        0
176
     0
 90
        0
176
     0
290
     0
176
     0
 90
        1
176
     0
 40
0.0
176
     0
 90
        0
176
     0
290
     0
176
     1
290
     1
176
     1
290
     1
176
     1
290
     0
176
     1
290
     0
176
     1
290
     0
176
     1
290
     0
176
     1
290
     0
176
     1
290
     0
176
     1
 90
       50
176
     0
 40
0.0
176
     0
 40
1.0
176
     0
 90
        0
176
     0
 62
    18
176
     0
 90
       50
176
     0
 90
        3
176
     0
 62
     5
420
      255
176
     0
290
     0
176
     1
 90
       50
176
     0
 90
       50
176
     0
 90
       50
176
     0
290
     0
176
     1
 90
       50
176
     0
 62
   256
176
     0
 40
1.0
176
     0
 90
        2
176
     0
  1
strokes_ogs.tif
176
     0
290
     0
176
     1
 40
1.0
176
     0
 40
1.0
176
     0
  0
VISUALSTYLE
  5
38
102
{ACAD_REACTORS
330
29
102
}
330
29
100
AcDbVisualStyle
  2
Facepattern
 70
    15
177
     3
291
     1
 70
    58
 90
        2
176
     1
 90
        2
176
     1
 90
        0
176
     1
 90
        0
176
     1
 40
0.6
176
     1
 40
30.0
176
     1
 62
     7
420
 16777215
176
     1
 90
        1
176
     1
 90
        4
176
     1
 62
     7
176
     1
 62
   257
176
     1
 90
        1
176
     1
 90
        1
176
     1
 40
1.0
176
     1
 90
        8
176
     1
 62
     7
176
     1
 40
1.0
176
     1
 90
        1
176
     1
 90
        6
176
     1
 90
        2
176
     1
 62
     7
176
     1
 90
        5
176
     1
 90
        0
176
     1
 90
        0
176
     1
290
     0
176
     1
 90
        1
176
     1
 40
0.0
176
     1
 90
        0
176
     1
290
     0
176
     1
290
     1
176
     1
290
     1
176
     1
290
     0
176
     1
290
     0
176
     1
290
     0
176
     1
290
     0
176
     1
290
     0
176
     1
290
     0
176
     1
 90
       50
176
     1
 40
0.0
176
     1
 40
1.0
176
     1
 90
        0
176
     1
 62
    18
176
     1
 90
       50
176
     1
 90
        3
176
     1
 62
     5
420
      255
176
     1
290
     0
176
     1
 90
       50
176
     1
 90
       50
176
     1
 90
       50
176
     1
290
     0
176
     1
 90
       50
176
     1
 62
   256
176
     0
 40
1.0
176
     0
 90
        2
176
     1
  1
strokes_ogs.tif
176
     1
290
     0
176
     1
 40
1.0
176
     1
 40
1.0
176
     1
  0
VISUALSTYLE
  5
2A
102
{ACAD_REACTORS
330
29
102
}
330
29
100
AcDbVisualStyle
  2
Flat
 70
     0
177
     3
291
     1
 70
    58
 90
        2
176
     1
 90
        1
176
     1
 90
        1
176
     1
 90
        2
176
     1
 40
0.6
176
     1
 40
30.0
176
     1
 62
     7
420
 16777215
176
     1
 90
        0
176
     1
 90
        0
176
     1
 62
     7
176
     1
 62
   257
176
     1
 90
        1
176
     1
 90
        1
176
     1
 40
1.0
176
     1
 90
        8
176
     1
 62
     7
176
     1
 40
1.0
176
     1
 90
        1
176
     1
 90
        6
176
     1
 90
        2
176
     1
 62
     7
176
     1
 90
        5
176
     1
 90
        0
176
     1
 90
        0
176
     1
290
     0
176
     1
 90
       13
176
     1
 40
0.0
176
     1
 90
        0
176
     1
290
     0
176
     1
290
     1
176
     1
290
     1
176
     1
290
     0
176
     1
290
     0
176
     1
290
     0
176
     1
290
     0
176
     1
290
     0
176
     1
290
     0
176
     1
 90
       50
176
     1
 40
0.0
176
     1
 40
1.0
176
     1
 90
        0
176
     1
 62
    18
176
     1
 90
       50
176
     1
 90
        3
176
     1
 62
     5
420
      255
176
     1
290
     0
176
     1
 90
       50
176
     1
 90
       50
176
     1
 90
       50
176
     1
290
     0
176
     1
 90
       50
176
     1
 62
   256
176
     0
 40
1.0
176
     0
 90
        2
176
     1
  1
strokes_ogs.tif
176
     1
290
     0
176
     1
 40
1.0
176
     1
 40
1.0
176
     1
  0
VISUALSTYLE
  5
2B
102
{ACAD_REACTORS
330
29
102
}
330
29
100
AcDbVisualStyle
  2
FlatWithEdges
 70
     1
177
     3
291
     1
 70
    58
 90
        2
176
     1
 90
        1
176
     1
 90
        1
176
     1
 90
        2
176
     1
 40
0.6
176
     1
 40
30.0
176
     1
 62
     7
420
 16777215
176
     1
 90
        1
176
     1
 90
        0
176
     1
 62
     7
176
     1
 62
   257
176
     1
 90
        1
176
     1
 90
        1
176
     1
 40
1.0
176
     1
 90
        0
176
     1
 62
   257
176
     1
 40
1.0
176
     1
 90
        1
176
     1
 90
        6
176
     1
 90
        2
176
     1
 62
     7
176
     1
 90
        5
176
     1
 90
        0
176
     1
 90
        0
176
     1
290
     0
176
     1
 90
       13
176
     1
 40
0.0
176
     1
 90
        0
176
     1
290
     0
176
     1
290
     1
176
     1
290
     1
176
     1
290
     0
176
     1
290
     0
176
     1
290
     0
176
     1
290
     0
176
     1
290
     0
176
     1
290
     0
176
     1
 90
       50
176
     1
 40
0.0
176
     1
 40
1.0
176
     1
 90
        0
176
     1
 62
    18
176
     1
 90
       50
176
     1
 90
        3
176
     1
 62
     5
420
      255
176
     1
290
     0
176
     1
 90
       50
176
     1
 90
       50
176
     1
 90
       50
176
     1
290
     0
176
     1
 90
       50
176
     1
 62
   256
176
     0
 40
1.0
176
     0
 90
        2
176
     1
  1
strokes_ogs.tif
176
     1
290
     0
176
     1
 40
1.0
176
     1
 40
1.0
176
     1
  0
VISUALSTYLE
  5
2C
102
{ACAD_REACTORS
330
29
102
}
330
29
100
AcDbVisualStyle
  2
Gouraud
 70
     2
177
     3
291
     1
 70
    58
 90
        2
176
     1
 90
        2
176
     1
 90
        1
176
     1
 90
        2
176
     1
 40
0.6
176
     1
 40
30.0
176
     1
 62
     7
420
 16777215
176
     1
 90
        0
176
     1
 90
        0
176
     1
 62
     7
176
     1
 62
   257
176
     1
 90
        1
176
     1
 90
        1
176
     1
 40
1.0
176
     1
 90
        0
176
     1
 62
     7
176
     1
 40
1.0
176
     1
 90
        1
176
     1
 90
        6
176
     1
 90
        2
176
     1
 62
     7
176
     1
 90
        5
176
     1
 90
        0
176
     1
 90
        0
176
     1
290
     0
176
     1
 90
       13
176
     1
 40
0.0
176
     1
 90
        0
176
     1
290
     0
176
     1
290
     1
176
     1
290
     1
176
     1
290
     0
176
     1
290
     0
176
     1
290
     0
176
     1
290
     0
176
     1
290
     0
176
     1
290
     0
176
     1
 90
       50
176
     1
 40
0.0
176
     1
 40
1.0
176
     1
 90
        0
176
     1
 62
    18
176
     1
 90
       50
176
     1
 90
        3
176
     1
 62
     5
420
      255
176
     1
290
     0
176
     1
 90
       50
176
     1
 90
       50
176
     1
 90
       50
176
     1
290
     0
176
     1
 90
       50
176
     1
 62
   256
176
     0
 40
1.0
176
     0
 90
        2
176
     1
  1
strokes_ogs.tif
176
     1
290
     0
176
     1
 40
1.0
176
     1
 40
1.0
176
     1
  0
VISUALSTYLE
  5
2D
102
{ACAD_REACTORS
330
29
102
}
330
29
100
AcDbVisualStyle
  2
GouraudWithEdges
 70
     3
177
     3
291
     1
 70
    58
 90
        2
176
     1
 90
        2
176
     1
 90
        1
176
     1
 90
        2
176
     1
 40
0.6
176
     1
 40
30.0
176
     1
 62
     7
420
 16777215
176
     1
 90
        1
176
     1
 90
        0
176
     1
 62
     7
176
     1
 62
   257
176
     1
 90
        1
176
     1
 90
        1
176
     1
 40
1.0
176
     1
 90
        0
176
     1
 62
   257
176
     1
 40
1.0
176
     1
 90
        1
176
     1
 90
        6
176
     1
 90
        2
176
     1
 62
     7
176
     1
 90
        5
176
     1
 90
        0
176
     1
 90
        0
176
     1
290
     0
176
     1
 90
       13
176
     1
 40
0.0
176
     1
 90
        0
176
     1
290
     0
176
     1
290
     1
176
     1
290
     1
176
     1
290
     0
176
     1
290
     0
176
     1
290
     0
176
     1
290
     0
176
     1
290
     0
176
     1
290
     0
176
     1
 90
       50
176
     1
 40
0.0
176
     1
 40
1.0
176
     1
 90
        0
176
     1
 62
    18
176
     1
 90
       50
176
     1
 90
        3
176
     1
 62
     5
420
      255
176
     1
290
     0
176
     1
 90
       50
176
     1
 90
       50
176
     1
 90
       50
176
     1
290
     0
176
     1
 90
       50
176
     1
 62
   256
176
     0
 40
1.0
176
     0
 90
        2
176
     1
  1
strokes_ogs.tif
176
     1
290
     0
176
     1
 40
1.0
176
     1
 40
1.0
176
     1
  0
VISUALSTYLE
  5
31
102
{ACAD_REACTORS
330
29
102
}
330
29
100
AcDbVisualStyle
  2
Hidden
 70
     6
177
     3
291
     0
 70
    58
 90
        1
176
     1
 90
        2
176
     1
 90
        2
176
     1
 90
        0
176
     1
 40
0.6
176
     1
 40
30.0
176
     1
 62
     7
420
 16777215
176
     1
 90
        2
176
     1
 90
        2
176
     1
 62
     7
176
     1
 62
   257
176
     1
 90
        2
176
     1
 90
        1
176
     1
 40
40.0
176
     1
 90
        0
176
     1
 62
   257
176
     1
 40
1.0
176
     1
 90
        1
176
     1
 90
        6
176
     1
 90
        2
176
     1
 62
     7
176
     1
 90
        3
176
     1
 90
        0
176
     1
 90
        0
176
     1
290
     0
176
     1
 90
        1
176
     1
 40
0.0
176
     1
 90
        0
176
     1
290
     0
176
     1
290
     1
176
     1
290
     1
176
     1
290
     0
176
     1
290
     0
176
     1
290
     0
176
     1
290
     0
176
     1
290
     0
176
     1
290
     0
176
     1
 90
       50
176
     1
 40
0.0
176
     1
 40
1.0
176
     1
 90
        0
176
     1
 62
    18
176
     1
 90
       50
176
     1
 90
        3
176
     1
 62
     5
420
      255
176
     1
290
     0
176
     1
 90
       50
176
     1
 90
       50
176
     1
 90
       50
176
     1
290
     0
176
     1
 90
       50
176
     1
 62
   256
176
     0
 40
1.0
176
     0
 90
        2
176
     1
  1
strokes_ogs.tif
176
     1
290
     0
176
     1
 40
1.0
176
     1
 40
1.0
176
     1
  0
VISUALSTYLE
  5
3F
102
{ACAD_REACTORS
330
29
102
}
330
29
100
AcDbVisualStyle
  2
JitterOff
 70
    20
177
     3
291
     1
 70
    58
 90
        2
176
     0
 90
        2
176
     0
 90
        0
176
     0
 90
        0
176
     0
 40
0.6
176
     0
 40
30.0
176
     0
 62
     7
420
 16777215
176
     0
 90
        1
176
     0
 90
        4
176
     0
 62
     7
176
     0
 62
   257
176
     0
 90
        1
176
     0
 90
        1
176
     0
 40
1.0
176
     0
 90
       10
176
     2
 62
     7
176
     0
 40
1.0
176
     0
 90
        1
176
     0
 90
        6
176
     0
 90
        2
176
     0
 62
     7
176
     0
 90
        5
176
     0
 90
        0
176
     0
 90
        0
176
     0
290
     0
176
     0
 90
        1
176
     0
 40
0.0
176
     0
 90
        0
176
     0
290
     0
176
     1
290
     1
176
     1
290
     1
176
     1
290
     0
176
     1
290
     0
176
     1
290
     0
176
     1
290
     0
176
     1
290
     0
176
     1
290
     0
176
     1
 90
       50
176
     0
 40
0.0
176
     0
 40
1.0
176
     0
 90
        0
176
     0
 62
    18
176
     0
 90
       50
176
     0
 90
        3
176
     0
 62
     5
420
      255
176
     0
290
     0
176
     1
 90
       50
176
     0
 90
       50
176
     0
 90
       50
176
     0
290
     0
176
     1
 90
       50
176
     0
 62
   256
176
     0
 40
1.0
176
     0
 90
        2
176
     0
  1
strokes_ogs.tif
176
     0
290
     0
176
     1
 40
1.0
176
     0
 40
1.0
176
     0
  0
VISUALSTYLE
  5
37
102
{ACAD_REACTORS
330
29
102
}
330
29
100
AcDbVisualStyle
  2
Linepattern
 70
    14
177
     3
291
     1
 70
    58
 90
        2
176
     1
 90
        2
176
     1
 90
        0
176
     1
 90
        0
176
     1
 40
0.6
176
     1
 40
30.0
176
     1
 62
     7
420
 16777215
176
     1
 90
        1
176
     1
 90
        4
176
     1
 62
     7
176
     1
 62
   257
176
     1
 90
        7
176
     1
 90
        7
176
     1
 40
1.0
176
     1
 90
        8
176
     1
 62
     7
176
     1
 40
1.0
176
     1
 90
        1
176
     1
 90
        6
176
     1
 90
        2
176
     1
 62
     7
176
     1
 90
        5
176
     1
 90
        0
176
     1
 90
        0
176
     1
290
     0
176
     1
 90
        1
176
     1
 40
0.0
176
     1
 90
        0
176
     1
290
     0
176
     1
290
     1
176
     1
290
     1
176
     1
290
     0
176
     1
290
     0
176
     1
290
     0
176
     1
290
     0
176
     1
290
     0
176
     1
290
     0
176
     1
 90
       50
176
     1
 40
0.0
176
     1
 40
1.0
176
     1
 90
        0
176
     1
 62
    18
176
     1
 90
       50
176
     1
 90
        3
176
     1
 62
     5
420
      255
176
     1
290
     0
176
     1
 90
       50
176
     1
 90
       50
176
     1
 90
       50
176
     1
290
     0
176
     1
 90
       50
176
     1
 62
   256
176
     0
 40
1.0
176
     0
 90
        2
176
     1
  1
strokes_ogs.tif
176
     1
290
     0
176
     1
 40
1.0
176
     1
 40
1.0
176
     1
  0
VISUALSTYLE
  5
40
102
{ACAD_REACTORS
330
29
102
}
330
29
100
AcDbVisualStyle
  2
OverhangOff
 70
    21
177
     3
291
     1
 70
    58
 90
        2
176
     0
 90
        2
176
     0
 90
        0
176
     0
 90
        0
176
     0
 40
0.6
176
     0
 40
30.0
176
     0
 62
     7
420
 16777215
176
     0
 90
        1
176
     0
 90
        4
176
     0
 62
     7
176
     0
 62
   257
176
     0
 90
        1
176
     0
 90
        1
176
     0
 40
1.0
176
     0
 90
        9
176
     2
 62
     7
176
     0
 40
1.0
176
     0
 90
        1
176
     0
 90
        6
176
     0
 90
        2
176
     0
 62
     7
176
     0
 90
        5
176
     0
 90
        0
176
     0
 90
        0
176
     0
290
     0
176
     0
 90
        1
176
     0
 40
0.0
176
     0
 90
        0
176
     0
290
     0
176
     1
290
     1
176
     1
290
     1
176
     1
290
     0
176
     1
290
     0
176
     1
290
     0
176
     1
290
     0
176
     1
290
     0
176
     1
290
     0
176
     1
 90
       50
176
     0
 40
0.0
176
     0
 40
1.0
176
     0
 90
        0
176
     0
 62
    18
176
     0
 90
       50
176
     0
 90
        3
176
     0
 62
     5
420
      255
176
     0
290
     0
176
     1
 90
       50
176
     0
 90
       50
176
     0
 90
       50
176
     0
290
     0
176
     1
 90
       50
176
     0
 62
   256
176
     0
 40
1.0
176
     0
 90
        2
176
     0
  1
strokes_ogs.tif
176
     0
290
     0
176
     1
 40
1.0
176
     0
 40
1.0
176
     0
  0
VISUALSTYLE
  5
33
102
{ACAD_REACTORS
330
29
102
}
330
29
100
AcDbVisualStyle
  2
Realistic
 70
     8
177
     3
291
     0
 70
    58
 90
        2
176
     1
 90
        3
176
     1
 90
        0
176
     1
 90
        2
176
     1
 40
0.6
176
     1
 40
30.0
176
     1
 62
     7
420
 16777215
176
     1
 90
        0
176
     1
 90
        0
176
     1
 62
     7
176
     1
 62
   257
176
     1
 90
        1
176
     1
 90
        1
176
     1
 40
1.0
176
     1
 90
        8
176
     1
 62
   257
176
     1
 40
1.0
176
     1
 90
        1
176
     1
 90
        6
176
     1
 90
        2
176
     1
 62
     7
176
     1
 90
        3
176
     1
 90
        0
176
     1
 90
        0
176
     1
290
     0
176
     1
 90
       13
176
     1
 40
0.0
176
     1
 90
        0
176
     1
290
     0
176
     1
290
     1
176
     1
290
     1
176
     1
290
     0
176
     1
290
     0
176
     1
290
     0
176
     1
290
     0
176
     1
290
     0
176
     1
290
     0
176
     1
 90
       50
176
     1
 40
0.0
176
     1
 40
1.0
176
     1
 90
        0
176
     1
 62
    18
176
     1
 90
       50
176
     1
 90
        3
176
     1
 62
     5
420
      255
176
     1
290
     0
176
     1
 90
       50
176
     1
 90
       50
176
     1
 90
       50
176
     1
290
     0
176
     1
 90
       50
176
     1
 62
   256
176
     0
 40
1.0
176
     0
 90
        2
176
     1
  1
strokes_ogs.tif
176
     1
290
     0
176
     1
 40
1.0
176
     1
 40
1.0
176
     1
  0
VISUALSTYLE
  5
3E
102
{ACAD_REACTORS
330
29
102
}
330
29
100
AcDbVisualStyle
  2
Shaded
 70
    27
177
     3
291
     0
 70
    58
 90
        2
176
     1
 90
        2
176
     1
 90
        1
176
     1
 90
        2
176
     1
 40
0.6
176
     1
 40
30.0
176
     1
 62
     7
420
 16777215
176
     1
 90
        0
176
     1
 90
        4
176
     1
 62
     7
176
     1
 62
   257
176
     1
 90
        1
176
     1
 90
        1
176
     1
 40
1.0
176
     1
 90
        8
176
     1
 62
   257
176
     1
 40
1.0
176
     1
 90
        1
176
     1
 90
        6
176
     1
 90
        2
176
     1
 62
     8
420
  7895160
176
     1
 90
        3
176
     1
 90
        0
176
     1
 90
        0
176
     1
290
     0
176
     1
 90
        5
176
     1
 40
0.0
176
     1
 90
        0
176
     1
290
     0
176
     1
290
     1
176
     1
290
     1
176
     1
290
     0
176
     1
290
     0
176
     1
290
     0
176
     1
290
     0
176
     1
290
     0
176
     1
290
     0
176
     1
 90
       50
176
     1
 40
0.0
176
     1
 40
1.0
176
     1
 90
        0
176
     1
 62
    18
176
     1
 90
       50
176
     1
 90
        3
176
     1
 62
     5
420
      255
176
     1
290
     0
176
     1
 90
       50
176
     1
 90
       50
176
     1
 90
       50
176
     1
290
     0
176
     1
 90
       50
176
     1
 62
   256
176
     0
 40
1.0
176
     0
 90
        2
176
     1
  1
strokes_ogs.tif
176
     1
290
     0
176
     1
 40
1.0
176
     1
 40
1.0
176
     1
  0
VISUALSTYLE
  5
3D
102
{ACAD_REACTORS
330
29
102
}
330
29
100
AcDbVisualStyle
  2
Shaded with edges
 70
    26
177
     3
291
     0
 70
    58
 90
        2
176
     1
 90
        2
176
     1
 90
        1
176
     1
 90
        2
176
     1
 40
0.6
176
     1
 40
30.0
176
     1
 62
     7
420
 16777215
176
     1
 90
        1
176
     1
 90
        2
176
     1
 62
     7
176
     1
 62
   257
176
     1
 90
        2
176
     1
 90
        1
176
     1
 40
1.0
176
     1
 90
        8
176
     1
 62
   257
176
     1
 40
1.0
176
     1
 90
        1
176
     1
 90
        6
176
     1
 90
        2
176
     1
 62
     7
176
     1
 90
        3
176
     1
 90
        0
176
     1
 90
        0
176
     1
290
     0
176
     1
 90
        5
176
     1
 40
0.0
176
     1
 90
        0
176
     1
290
     0
176
     1
290
     1
176
     1
290
     1
176
     1
290
     0
176
     1
290
     0
176
     1
290
     0
176
     1
290
     0
176
     1
290
     0
176
     1
290
     0
176
     1
 90
       50
176
     1
 40
0.0
176
     1
 40
1.0
176
     1
 90
        0
176
     1
 62
    18
176
     1
 90
       50
176
     1
 90
        3
176
     1
 62
     5
420
      255
176
     1
290
     0
176
     1
 90
       50
176
     1
 90
       50
176
     1
 90
       50
176
     1
290
     0
176
     1
 90
       50
176
     1
 62
   256
176
     0
 40
1.0
176
     0
 90
        2
176
     1
  1
strokes_ogs.tif
176
     1
290
     0
176
     1
 40
1.0
176
     1
 40
1.0
176
     1
  0
VISUALSTYLE
  5
3A
102
{ACAD_REACTORS
330
29
102
}
330
29
100
AcDbVisualStyle
  2
Shades of Gray
 70
    23
177
     3
291
     0
 70
    58
 90
        2
176
     1
 90
        2
176
     1
 90
        3
176
     1
 90
        0
176
     1
 40
0.6
176
     1
 40
30.0
176
     1
 62
     7
420
 16777215
176
     1
 90
        2
176
     1
 90
        2
176
     1
 62
     7
176
     1
 62
     7
176
     1
 90
        1
176
     1
 90
        1
176
     1
 40
40.0
176
     1
 90
        8
176
     1
 62
     7
176
     1
 40
1.0
176
     1
 90
        1
176
     1
 90
        6
176
     1
 90
        2
176
     1
 62
     7
176
     1
 90
        3
176
     1
 90
        0
176
     1
 90
        0
176
     1
290
     0
176
     1
 90
        1
176
     1
 40
0.0
176
     1
 90
        0
176
     1
290
     0
176
     1
290
     1
176
     1
290
     1
176
     1
290
     0
176
     1
290
     0
176
     1
290
     0
176
     1
290
     0
176
     1
290
     0
176
     1
290
     0
176
     1
 90
       50
176
     1
 40
0.0
176
     1
 40
1.0
176
     1
 90
        0
176
     1
 62
    18
176
     1
 90
       50
176
     1
 90
        3
176
     1
 62
     5
420
      255
176
     1
290
     0
176
     1
 90
       50
176
     1
 90
       50
176
     1
 90
       50
176
     1
290
     0
176
     1
 90
       50
176
     1
 62
   256
176
     0
 40
1.0
176
     0
 90
        2
176
     1
  1
strokes_ogs.tif
176
     1
290
     0
176
     1
 40
1.0
176
     1
 40
1.0
176
     1
  0
VISUALSTYLE
  5
3B
102
{ACAD_REACTORS
330
29
102
}
330
29
100
AcDbVisualStyle
  2
Sketchy
 70
    24
177
     3
291
     0
 70
    58
 90
        1
176
     1
 90
        2
176
     1
 90
        2
176
     1
 90
        0
176
     1
 40
0.6
176
     1
 40
30.0
176
     1
 62
     7
420
 16777215
176
     1
 90
        2
176
     1
 90
        2
176
     1
 62
     7
176
     1
 62
     7
176
     1
 90
        1
176
     1
 90
        1
176
     1
 40
40.0
176
     1
 90
       11
176
     1
 62
     7
176
     1
 40
1.0
176
     1
 90
        1
176
     1
 90
        6
176
     1
 90
        2
176
     1
 62
     7
176
     1
 90
        6
176
     1
 90
        0
176
     1
 90
        0
176
     1
290
     0
176
     1
 90
        1
176
     1
 40
0.0
176
     1
 90
        0
176
     1
290
     0
176
     1
290
     1
176
     1
290
     1
176
     1
290
     0
176
     1
290
     0
176
     1
290
     0
176
     1
290
     0
176
     1
290
     0
176
     1
290
     0
176
     1
 90
       50
176
     1
 40
0.0
176
     1
 40
1.0
176
     1
 90
        0
176
     1
 62
    18
176
     1
 90
       50
176
     1
 90
        3
176
     1
 62
     5
420
      255
176
     1
290
     0
176
     1
 90
       50
176
     1
 90
       50
176
     1
 90
       50
176
     1
290
     0
176
     1
 90
       50
176
     1
 62
   256
176
     0
 40
1.0
176
     0
 90
        2
176
     1
  1
strokes_ogs.tif
176
     1
290
     0
176
     1
 40
1.0
176
     1
 40
1.0
176
     1
  0
VISUALSTYLE
  5
36
102
{ACAD_REACTORS
330
29
102
}
330
29
100
AcDbVisualStyle
  2
Thicken
 70
    13
177
     3
291
     1
 70
    58
 90
        2
176
     1
 90
        2
176
     1
 90
        0
176
     1
 90
        0
176
     1
 40
0.6
176
     1
 40
30.0
176
     1
 62
     7
420
 16777215
176
     1
 90
        1
176
     1
 90
        4
176
     1
 62
     7
176
     1
 62
   257
176
     1
 90
        1
176
     1
 90
        1
176
     1
 40
1.0
176
     1
 90
       12
176
     1
 62
     7
176
     1
 40
1.0
176
     1
 90
        1
176
     1
 90
        6
176
     1
 90
        2
176
     1
 62
     7
176
     1
 90
        5
176
     1
 90
        0
176
     1
 90
        0
176
     1
290
     0
176
     1
 90
        1
176
     1
 40
0.0
176
     1
 90
        0
176
     1
290
     0
176
     1
290
     1
176
     1
290
     1
176
     1
290
     0
176
     1
290
     0
176
     1
290
     0
176
     1
290
     0
176
     1
290
     0
176
     1
290
     0
176
     1
 90
       50
176
     1
 40
0.0
176
     1
 40
1.0
176
     1
 90
        0
176
     1
 62
    18
176
     1
 90
       50
176
     1
 90
        3
176
     1
 62
     5
420
      255
176
     1
290
     0
176
     1
 90
       50
176
     1
 90
       50
176
     1
 90
       50
176
     1
290
     0
176
     1
 90
       50
176
     1
 62
   256
176
     0
 40
1.0
176
     0
 90
        2
176
     1
  1
strokes_ogs.tif
176
     1
290
     0
176
     1
 40
1.0
176
     1
 40
1.0
176
     1
  0
VISUALSTYLE
  5
30
102
{ACAD_REACTORS
330
29
102
}
330
29
100
AcDbVisualStyle
  2
Wireframe
 70
     5
177
     3
291
     0
 70
    58
 90
        0
176
     1
 90
        2
176
     1
 90
        0
176
     1
 90
        0
176
     1
 40
0.6
176
     1
 40
30.0
176
     1
 62
     7
420
 16777215
176
     1
 90
        1
176
     1
 90
        4
176
     1
 62
     7
176
     1
 62
   257
176
     1
 90
        1
176
     1
 90
        1
176
     1
 40
1.0
176
     1
 90
        0
176
     1
 62
   257
176
     1
 40
1.0
176
     1
 90
        1
176
     1
 90
        6
176
     1
 90
        2
176
     1
 62
     7
176
     1
 90
        3
176
     1
 90
        0
176
     1
 90
        0
176
     1
290
     0
176
     1
 90
        1
176
     1
 40
0.0
176
     1
 90
        0
176
     1
290
     0
176
     1
290
     1
176
     1
290
     1
176
     1
290
     0
176
     1
290
     0
176
     1
290
     0
176
     1
290
     0
176
     1
290
     0
176
     1
290
     0
176
     1
 90
       50
176
     1
 40
0.0
176
     1
 40
1.0
176
     1
 90
        0
176
     1
 62
    18
176
     1
 90
       50
176
     1
 90
        3
176
     1
 62
     5
420
      255
176
     1
290
     0
176
     1
 90
       50
176
     1
 90
       50
176
     1
 90
       50
176
     1
290
     0
176
     1
 90
       50
176
     1
 62
   256
176
     0
 40
1.0
176
     0
 90
        2
176
     1
  1
strokes_ogs.tif
176
     1
290
     0
176
     1
 40
1.0
176
     1
 40
1.0
176
     1
  0
VISUALSTYLE
  5
3C
102
{ACAD_REACTORS
330
29
102
}
330
29
100
AcDbVisualStyle
  2
X-Ray
 70
    25
177
     3
291
     0
 70
    58
 90
        2
176
     1
 90
        2
176
     1
 90
        1
176
     1
 90
        1
176
     1
 40
0.5
176
     1
 40
30.0
176
     1
 62
     7
420
 16777215
176
     1
 90
        1
176
     1
 90
        0
176
     1
 62
     7
176
     1
 62
   257
176
     1
 90
        1
176
     1
 90
        1
176
     1
 40
1.0
176
     1
 90
        8
176
     1
 62
     7
176
     1
 40
1.0
176
     1
 90
        1
176
     1
 90
        6
176
     1
 90
        2
176
     1
 62
     7
176
     1
 90
        3
176
     1
 90
        0
176
     1
 90
        0
176
     1
290
     0
176
     1
 90
       13
176
     1
 40
0.0
176
     1
 90
        0
176
     1
290
     0
176
     1
290
     1
176
     1
290
     1
176
     1
290
     0
176
     1
290
     0
176
     1
290
     0
176
     1
290
     0
176
     1
290
     0
176
     1
290
     0
176
     1
 90
       50
176
     1
 40
0.0
176
     1
 40
1.0
176
     1
 90
        0
176
     1
 62
    18
176
     1
 90
       50
176
     1
 90
        3
176
     1
 62
     5
420
      255
176
     1
290
     0
176
     1
 90
       50
176
     1
 90
       50
176
     1
 90
       50
176
     1
290
     0
176
     1
 90
       50
176
     1
 62
   256
176
     0
 40
1.0
176
     0
 90
        2
176
     1
  1
strokes_ogs.tif
176
     1
290
     0
176
     1
 40
1.0
176
     1
 40
1.0
176
     1
  0
DICTIONARYVAR
  5
21E
102
{ACAD_REACTORS
330
218
102
}
330
218
100
DictionaryVariables
280
     0
  1
1:1
  0
DICTIONARYVAR
  5
21A
102
{ACAD_REACTORS
330
218
102
}
330
218
100
DictionaryVariables
280
     0
  1
STANDARD
  0
DICTIONARYVAR
  5
219
102
{ACAD_REACTORS
330
218
102
}
330
218
100
DictionaryVariables
280
     0
  1
STANDARD
  0
DICTIONARYVAR
  5
21B
102
{ACAD_REACTORS
330
218
102
}
330
218
100
DictionaryVariables
280
     0
  1
Imperial24
  0
DICTIONARYVAR
  5
21C
102
{ACAD_REACTORS
330
218
102
}
330
218
100
DictionaryVariables
280
     0
  1
Imperial24
  0
DICTIONARYVAR
  5
220
102
{ACAD_REACTORS
330
218
102
}
330
218
100
DictionaryVariables
280
     0
  1
1
  0
DICTIONARYVAR
  5
221
102
{ACAD_REACTORS
330
218
102
}
330
218
100
DictionaryVariables
280
     0
  1
15
  0
DICTIONARYVAR
  5
21F
102
{ACAD_REACTORS
330
218
102
}
330
218
100
DictionaryVariables
280
     0
  1
2
  0
DICTIONARYVAR
  5
21D
102
{ACAD_REACTORS
330
218
102
}
330
218
100
DictionaryVariables
280
     0
  1
0
  0
DICTIONARY
  5
1A
330
19
100
AcDbDictionary
280
     1
281
     1
  3
BUMPTILE
360
1C
  3
DIFFUSETILE
360
1B
  3
OPACITYTILE
360
1F
  3
REFLECTIONTILE
360
1E
  3
REFRACTIONTILE
360
20
  3
SPECULARTILE
360
1D
  0
DICTIONARY
  5
12
330
11
100
AcDbDictionary
280
     1
281
     1
  3
BUMPTILE
360
14
  3
DIFFUSETILE
360
13
  3
OPACITYTILE
360
17
  3
REFLECTIONTILE
360
16
  3
REFRACTIONTILE
360
18
  3
SPECULARTILE
360
15
  0
DICTIONARY
  5
22
330
21
100
AcDbDictionary
280
     1
281
     1
  3
BUMPTILE
360
24
  3
DIFFUSETILE
360
23
  3
OPACITYTILE
360
27
  3
REFLECTIONTILE
360
26
  3
REFRACTIONTILE
360
28
  3
SPECULARTILE
360
25
  0
DICTIONARY
  5
25B
330
64
100
AcDbDictionary
280
     1
281
     1
  3
ACAD_ROUNDTRIP_2008_TABLESTYLE_CELLSTYLEMAP
360
106D
  0
XRECORD
  5
1C
102
{ACAD_REACTORS
330
1A
102
}
330
1A
100
AcDbXrecord
280
     1
270
     1
271
     1
  0
XRECORD
  5
1B
102
{ACAD_REACTORS
330
1A
102
}
330
1A
100
AcDbXrecord
280
     1
270
     1
271
     1
  0
XRECORD
  5
1F
102
{ACAD_REACTORS
330
1A
102
}
330
1A
100
AcDbXrecord
280
     1
270
     1
271
     1
  0
XRECORD
  5
1E
102
{ACAD_REACTORS
330
1A
102
}
330
1A
100
AcDbXrecord
280
     1
270
     1
271
     1
  0
XRECORD
  5
20
102
{ACAD_REACTORS
330
1A
102
}
330
1A
100
AcDbXrecord
280
     1
270
     1
271
     1
  0
XRECORD
  5
1D
102
{ACAD_REACTORS
330
1A
102
}
330
1A
100
AcDbXrecord
280
     1
270
     1
271
     1
  0
XRECORD
  5
14
102
{ACAD_REACTORS
330
12
102
}
330
12
100
AcDbXrecord
280
     1
270
     1
271
     1
  0
XRECORD
  5
13
102
{ACAD_REACTORS
330
12
102
}
330
12
100
AcDbXrecord
280
     1
270
     1
271
     1
  0
XRECORD
  5
17
102
{ACAD_REACTORS
330
12
102
}
330
12
100
AcDbXrecord
280
     1
270
     1
271
     1
  0
XRECORD
  5
16
102
{ACAD_REACTORS
330
12
102
}
330
12
100
AcDbXrecord
280
     1
270
     1
271
     1
  0
XRECORD
  5
18
102
{ACAD_REACTORS
330
12
102
}
330
12
100
AcDbXrecord
280
     1
270
     1
271
     1
  0
XRECORD
  5
15
102
{ACAD_REACTORS
330
12
102
}
330
12
100
AcDbXrecord
280
     1
270
     1
271
     1
  0
XRECORD
  5
24
102
{ACAD_REACTORS
330
22
102
}
330
22
100
AcDbXrecord
280
     1
270
     1
271
     1
  0
XRECORD
  5
23
102
{ACAD_REACTORS
330
22
102
}
330
22
100
AcDbXrecord
280
     1
270
     1
271
     1
  0
XRECORD
  5
27
102
{ACAD_REACTORS
330
22
102
}
330
22
100
AcDbXrecord
280
     1
270
     1
271
     1
  0
XRECORD
  5
26
102
{ACAD_REACTORS
330
22
102
}
330
22
100
AcDbXrecord
280
     1
270
     1
271
     1
  0
XRECORD
  5
28
102
{ACAD_REACTORS
330
22
102
}
330
22
100
AcDbXrecord
280
     1
270
     1
271
     1
  0
XRECORD
  5
25
102
{ACAD_REACTORS
330
22
102
}
330
22
100
AcDbXrecord
280
     1
270
     1
271
     1
  0
CELLSTYLEMAP
  5
106D
102
{ACAD_REACTORS
330
25B
102
}
330
25B
100
AcDbCellStyleMap
 90
        3
300
CELLSTYLE
  1
TABLEFORMAT_BEGIN
 90
        5
170
     1
 91
        0
 92
    32768
 62
   257
 93
        1
300
CONTENTFORMAT
  1
CONTENTFORMAT_BEGIN
 90
        0
 91
        0
 92
      512
 93
        0
300

 40
0.0
140
1.0
 94
        5
 62
     0
340
55
144
0.25
309
CONTENTFORMAT_END
171
     1
301
MARGIN
  1
CELLMARGIN_BEGIN
 40
0.06
 40
0.06
 40
0.06
 40
0.06
 40
0.18
 40
0.18
309
CELLMARGIN_END
 94
        6
 95
        1
302
GRIDFORMAT
  1
GRIDFORMAT_BEGIN
 90
        0
 91
        1
 62
     0
 92
       -2
340
0
 93
        0
 40
0.045
309
GRIDFORMAT_END
 95
        2
302
GRIDFORMAT
  1
GRIDFORMAT_BEGIN
 90
        0
 91
        1
 62
     0
 92
       -2
340
0
 93
        0
 40
0.045
309
GRIDFORMAT_END
 95
        4
302
GRIDFORMAT
  1
GRIDFORMAT_BEGIN
 90
        0
 91
        1
 62
     0
 92
       -2
340
0
 93
        0
 40
0.045
309
GRIDFORMAT_END
 95
        8
302
GRIDFORMAT
  1
GRIDFORMAT_BEGIN
 90
        0
 91
        1
 62
     0
 92
       -2
340
0
 93
        0
 40
0.045
309
GRIDFORMAT_END
 95
       16
302
GRIDFORMAT
  1
GRIDFORMAT_BEGIN
 90
        0
 91
        1
 62
     0
 92
       -2
340
0
 93
        0
 40
0.045
309
GRIDFORMAT_END
 95
       32
302
GRIDFORMAT
  1
GRIDFORMAT_BEGIN
 90
        0
 91
        1
 62
     0
 92
       -2
340
0
 93
        0
 40
0.045
309
GRIDFORMAT_END
309
TABLEFORMAT_END
  1
CELLSTYLE_BEGIN
 90
        1
 91
        1
300
_TITLE
309
CELLSTYLE_END
300
CELLSTYLE
  1
TABLEFORMAT_BEGIN
 90
        5
170
     1
 91
        0
 92
        0
 62
   257
 93
        1
300
CONTENTFORMAT
  1
CONTENTFORMAT_BEGIN
 90
        0
 91
        0
 92
      512
 93
        0
300

 40
0.0
140
1.0
 94
        5
 62
     0
340
55
144
0.18
309
CONTENTFORMAT_END
171
     1
301
MARGIN
  1
CELLMARGIN_BEGIN
 40
0.06
 40
0.06
 40
0.06
 40
0.06
 40
0.18
 40
0.18
309
CELLMARGIN_END
 94
        6
 95
        1
302
GRIDFORMAT
  1
GRIDFORMAT_BEGIN
 90
        0
 91
        1
 62
     0
 92
       -2
340
0
 93
        0
 40
0.045
309
GRIDFORMAT_END
 95
        2
302
GRIDFORMAT
  1
GRIDFORMAT_BEGIN
 90
        0
 91
        1
 62
     0
 92
       -2
340
0
 93
        0
 40
0.045
309
GRIDFORMAT_END
 95
        4
302
GRIDFORMAT
  1
GRIDFORMAT_BEGIN
 90
        0
 91
        1
 62
     0
 92
       -2
340
0
 93
        0
 40
0.045
309
GRIDFORMAT_END
 95
        8
302
GRIDFORMAT
  1
GRIDFORMAT_BEGIN
 90
        0
 91
        1
 62
     0
 92
       -2
340
0
 93
        0
 40
0.045
309
GRIDFORMAT_END
 95
       16
302
GRIDFORMAT
  1
GRIDFORMAT_BEGIN
 90
        0
 91
        1
 62
     0
 92
       -2
340
0
 93
        0
 40
0.045
309
GRIDFORMAT_END
 95
       32
302
GRIDFORMAT
  1
GRIDFORMAT_BEGIN
 90
        0
 91
        1
 62
     0
 92
       -2
340
0
 93
        0
 40
0.045
309
GRIDFORMAT_END
309
TABLEFORMAT_END
  1
CELLSTYLE_BEGIN
 90
        2
 91
        1
300
_HEADER
309
CELLSTYLE_END
300
CELLSTYLE
  1
TABLEFORMAT_BEGIN
 90
        5
170
     1
 91
        0
 92
        0
 62
   257
 93
        1
300
CONTENTFORMAT
  1
CONTENTFORMAT_BEGIN
 90
        0
 91
        0
 92
      512
 93
        0
300

 40
0.0
140
1.0
 94
        2
 62
     0
340
55
144
0.18
309
CONTENTFORMAT_END
171
     1
301
MARGIN
  1
CELLMARGIN_BEGIN
 40
0.06
 40
0.06
 40
0.06
 40
0.06
 40
0.18
 40
0.18
309
CELLMARGIN_END
 94
        6
 95
        1
302
GRIDFORMAT
  1
GRIDFORMAT_BEGIN
 90
        0
 91
        1
 62
     0
 92
       -2
340
0
 93
        0
 40
0.045
309
GRIDFORMAT_END
 95
        2
302
GRIDFORMAT
  1
GRIDFORMAT_BEGIN
 90
        0
 91
        1
 62
     0
 92
       -2
340
0
 93
        0
 40
0.045
309
GRIDFORMAT_END
 95
        4
302
GRIDFORMAT
  1
GRIDFORMAT_BEGIN
 90
        0
 91
        1
 62
     0
 92
       -2
340
0
 93
        0
 40
0.045
309
GRIDFORMAT_END
 95
        8
302
GRIDFORMAT
  1
GRIDFORMAT_BEGIN
 90
        0
 91
        1
 62
     0
 92
       -2
340
0
 93
        0
 40
0.045
309
GRIDFORMAT_END
 95
       16
302
GRIDFORMAT
  1
GRIDFORMAT_BEGIN
 90
        0
 91
        1
 62
     0
 92
       -2
340
0
 93
        0
 40
0.045
309
GRIDFORMAT_END
 95
       32
302
GRIDFORMAT
  1
GRIDFORMAT_BEGIN
 90
        0
 91
        1
 62
     0
 92
       -2
340
0
 93
        0
 40
0.045
309
GRIDFORMAT_END
309
TABLEFORMAT_END
  1
CELLSTYLE_BEGIN
 90
        3
 91
        2
300
_DATA
309
CELLSTYLE_END
  0
ENDSEC
  0
SECTION
  2
ACDSDATA
 70
     2
 71
     8
  0
ACDSSCHEMA
 90
        0
  1
AcDb_Thumbnail_Schema
  2
AcDbDs::ID
280
    10
 91
        8
  2
Thumbnail_Data
280
    15
 91
        0
101
ACDSRECORD
 95
        0
 90
        1
  2
AcDbDs::TreatedAsObjectData
280
     1
291
     1
101
ACDSRECORD
 95
        0
 90
        2
  2
AcDbDs::Legacy
280
     1
291
     1
101
ACDSRECORD
  1
AcDbDs::ID
 90
        3
  2
AcDs:Indexable
280
     1
291
     1
101
ACDSRECORD
  1
AcDbDs::ID
 90
        4
  2
AcDbDs::HandleAttribute
280
     7
282
     1
  0
ACDSSCHEMA
 90
        1
  1
AcDbDs::TreatedAsObjectDataSchema
  2
AcDbDs::TreatedAsObjectData
280
     1
 91
        0
  0
ACDSSCHEMA
 90
        2
  1
AcDbDs::LegacySchema
  2
AcDbDs::Legacy
280
     1
 91
        0
  0
ACDSSCHEMA
 90
        3
  1
AcDbDs::IndexedPropertySchema
  2
AcDs:Indexable
280
     1
 91
        0
  0
ACDSSCHEMA
 90
        4
  1
AcDbDs::HandleAttributeSchema
  2
AcDbDs::HandleAttribute
280
     7
 91
        1
284
     1
  0
ACDSRECORD
 90
        0
  2
AcDbDs::ID
280
    10
320
72
  2
Thumbnail_Data
280
    15
 94
     7605
310
89504E470D0A1A0A0000000D49484452000001000000007408030000005D681C3700000300504C5445212830FFFFFF2128300000000000000000000000000000000000000000000000000000330000660000990000CC0000FF0033000033330033660033990033CC0033FF0066000066330066660066990066CC0066FF0099
310
000099330099660099990099CC0099FF00CC0000CC3300CC6600CC9900CCCC00CCFF00FF0000FF3300FF6600FF9900FFCC00FFFF3300003300333300663300993300CC3300FF3333003333333333663333993333CC3333FF3366003366333366663366993366CC3366FF3399003399333399663399993399CC3399FF33CC00
310
33CC3333CC6633CC9933CCCC33CCFF33FF0033FF3333FF6633FF9933FFCC33FFFF6600006600336600666600996600CC6600FF6633006633336633666633996633CC6633FF6666006666336666666666996666CC6666FF6699006699336699666699996699CC6699FF66CC0066CC3366CC6666CC9966CCCC66CCFF66FF0066
310
FF3366FF6666FF9966FFCC66FFFF9900009900339900669900999900CC9900FF9933009933339933669933999933CC9933FF9966009966339966669966999966CC9966FF9999009999339999669999999999CC9999FF99CC0099CC3399CC6699CC9999CCCC99CCFF99FF0099FF3399FF6699FF9999FFCC99FFFFCC0000CC00
310
33CC0066CC0099CC00CCCC00FFCC3300CC3333CC3366CC3399CC33CCCC33FFCC6600CC6633CC6666CC6699CC66CCCC66FFCC9900CC9933CC9966CC9999CC99CCCC99FFCCCC00CCCC33CCCC66CCCC99CCCCCCCCCCFFCCFF00CCFF33CCFF66CCFF99CCFFCCCCFFFFFF0000FF0033FF0066FF0099FF00CCFF00FFFF3300FF3333
310
FF3366FF3399FF33CCFF33FFFF6600FF6633FF6666FF6699FF66CCFF66FFFF9900FF9933FF9966FF9999FF99CCFF99FFFFCC00FFCC33FFCC66FFCC99FFCCCCFFCCFFFFFF00FFFF33FFFF66FFFF99FFFFCCFFFFFF0000000D0D0D1A1A1A2828283535354343435050505D5D5D6B6B6B787878868686939393A1A1A1AEAEAEBB
310
BBBBC9C9C9D6D6D6E4E4E4F1F1F1FFFFFF0000000000000000000000000000000000000000000000000000000000002E4550F1000001CF4944415478DAED9BD1B2C2200C44F3FFFF9B779DDBD15A2D2DBD25B0C0D97174D0CAD4D3109255CDCCFCEFB6CA370FEFC1D5F1E91CCFD1D9786F92ED312504000000000000981680
310
3FB5DCAF5A5FF97CEEEAF87C0E3F1DEF4D523E023A1300CA2F81AE347B043811400E00000022B340ED714631149D03EE96BCB7C639E570742F0000000000000000000000302F80B94B61FC001C21220057B845F2B3BC2F45AA3942AEB71D2696E9940062EB0022401EC0F439000000000000A804832340BBFA9FDB0FA85309
310
4A377FA100BA8800FC800ABB805AE64F6F095E6BB5B5DAFB7F139F2DE8A60190782700000000000000000018BF12F457E1F3D511C6478066FBF7132D837783D501085EFE5D3F2CAC17D08B8006ED707B43F4F0A2849BA20296F8D14704000000000000000000A303F82C785200966346056019002C00804A29ECDB2BBD5B0A
310
8700D069033DF39831BB41CB6904A37280860D10726C4711D00CC05D6445B0673A012A000A9C4D7AA33B9FDCC3AE6B2480EF9F3F0802B05800E97F00000000000000000000808E00FCA714F6833FC26994C2C13F42F67227DEBC14BE613C2903E8C73A68EB0714B714AE4FA8E7DCB8D28400004070062ABC2A059739420821
310
841042082184D0E07A00951975CB9BE0CB9C0000000049454E44AE426082000049454E44AE4260825B6569FA166081DE2ADBF2F87B275A0CB018BB40F43C804C10000000000000000000000000BB03F8013C41D53DB49A30550000000049454E44AE426082E800C60200000000000000000000000000000000000000000000
310
0000C032007E00D55089A26E9B5EF70000000049454E44AE4260828C02E133E705B65164238BFBC667CE0CC5C35CCEDE9FC398711E40EBB9C128C3E1D49696B4ED9401D07E76D8C55D3ED7B2B56885C5FDF2530F0021DBBF5A70A04810ECB342E45C2A73F3017F9DF9DFB050B2ABF95D02CEB4E67FE74AD1FE00665A31CEDC
310
E66BBF80768C68CFD0DCE66BDF6058913AEDCED1CC45E5037BC0ECFF45469224499224499224499224499224499224499224499224E9AA7E0063B0D8232B502ECD0000000049454E44AE426082305EF22515CE21F7D9B03B7AE9165BFE6C1052F849F76B9690B7F9C4521898B605904ED04F3626BD9956FA3107864AD8B56D
310
0162E823C59E40C87FED4498632DD8B200DF1A8A2A140A8542A15028140A8542A1505406FC10EA15809E1F8BC1F129896D9DD9ACEC4E10154005781303DE4583F2CDCA9F0DB8CD9FD12CF04B3120E3E9CB015727341104BB16A07B17500170F90F422F88D72E001DEEED2F77FEDD76E702B4500774ED02DD174227057EE1FF
310
5944CDCF536F4FF714BBFDEE84C50554805F13E03FFF001A510FCDC42C0000000049454E44AE42608221B0271B9D00C01C1F78F99103A4A2CA0EA142F8B3620ECE80A4759C0C20C1F9D40C78B2DC0ACBE9452D7FC8EB2EAA93255B3007642A7FC7230704163EAD2356D9B00F9E03E0CA8D25DF6FA67257E300A581F31E0607
310
C2999300F2834182E4A0938428C5814C97106251D0AB9020AC13BE48208D5F05824C0769B6AB71909D957940D07A187609774B8E6C50B3EED004033098388544C2F40208AFA612F8824498870F0135D31BFFC0D36B1CA8DD35CF2104AA3FF5871AA855A00EDA9077299D1A16E128819C075069F89920782B14365A05A24CED
310
A2CE04752AEC4C4BFAAC02A03F4E625E2C79CECA5C193EAF35A426D394992D79CF34780EE07AC5E93C40DCC7258126FFCA0D84B4FC135BB10CB64E570CA88BE6C1CB0D578746674E49B341E4ACD2F2B6282663874090356D1400F86FC36A383AAE6865C9CF4DB4C26ED134B6B611224496CEA224B5C4D987E8FBC0FA11EA15
310
D819BD23F4A21F027974A5E074B1D0156A97CB6BC787446F1D12BDC176EBBA0CDC11F2D58CAF634FFE5015DBE11674815707366F4A4CD24ADAD4E6CDC84ADA6FAAEE0F98BCDE6870008C3C78F32581F0C7C31F364B0870543469FF9EB49B58319205C4A911C84D3BE9476780586DB606813C7C8F882FA3B96D6B042999D3E4
310
72EA7B723A600EF753ED4B0EEB25C33745FD431FB446C10189D78DC678A7034A674E19CBA452E191361A4C3FB9BF8120038327C1F69C1AB01206DE544CBC1223720D5023A470F5289D20450F4E9710E939F0ABA700B9FBF8EF057C4BFE5E538239329ABA73D36687D059FC8F10C858321E3544BAA9DE5C28A0183C3E21076C
310
350FFA1EBCD5855B33AB760C306F6027942D00F681B416784EFA1F47C4B45CE91B229FC08046F6EEC85335C38C8FB3FD52A47DC05E3063001CD03CC0BE91EF29B3C2D78BE2F8F30073FCFC69536DF9AA793EC07C4E087216DBBF6B33B0481324D40279B9853912E1F065B05B7C9A10681EAC7E95379C98DBEFB49D66D74420
310
1CC0B4B8CD99EEB77A0C5006FF03D0F72462C7B516F80000000049454E44AE426082396070FE85FA9BC55AE28BC0D72C4D009010235B6A4043F78B2C2CA3EFA544CF085645807357084C3E4D116C147552687EF21D6CAE99B09A99D74AB13840D5EC58FF079990F43B8B709351605B1201AE497DB575D204036F42C69EF8AA
310
DDAB9429C39316075A42903BABF8D16738BA42D3AA086820988B78DFDB04141126E63AA948105BE0EC4123894504317E6C18B88ACA56048D1C7BCD3CC0FA3F13E777463C5C7773B0BEC21F701077A735D22058E2576C18B81348871899765504A4AB21D0D97FA352441AEDA90AC07AD675BD757C88109162B110F9808C5C40
310
24C9DC205DB323B4DDCAA086FD835AA15840B828F3979B7BF70B3C20A26E21B9B67CA004E4CC5B6FD05BA8F5C6B42B6682530BD0BB5B1F004231C029EF558977255D498E58412CC5A2A3BD1DD7A4CFF662D848B3578C02EAEA73072B5D998BDA9FE0A75CF9D614DF26474794E00B59524250C9F58ABD703584EF0D6599FA8C
310
2BBA40EAD16F735323D7433066F92A9CC23CBB16E1A7FCB0A3406CD173BC9D2553B7842DB38B58574D841A0B3628989383D815FF85E876234B1CB5D3C5183A556ECB21C28562BC55895BCC27D74440CB54D3B4A2A1F45F2CB5EBEBCC23986D76C5302A26EF926FF5BF6079D994505BE37855171815E0F084B686F7D11E1D4F
310
FDB95DD6DDDFB792E79053EE2B2C681BDB5BD322AD4A4A8BA6C269347C4673140C6E315DBAE54783CF42C5F669092918E76FC76829232A9A06410951565D191A95DBD1DE2949F829D9D23BB9B534AC69367A6553BD6F5E92ACB9D63205096DD1806F231631B7590F01BE8B42A21361E2662FFD8F1ED7E86AF4A4615608FBFD
310
9E7F09E13B27342F2AF65658029E5A8DB02402D0BA25E7F7D72348FF6DB923B15FE8AF45A369E9334D7F3E24E1138B4203B15103122AAB2156E50030155F0BCDC59AFE16BBFCD42A69F26DEE92B0773FED0E7EF28E462BAE2F1A811379C715D705F87CADD9B35BE0424563D09816079373B72EF1AD6D7269695E4D13FB0574
310
30F0C08A08380CA13BF2DDD1F689B0E7A73F7923876DBDD7F779E17FA0629B5F29A0C16D45590A79604917D03CCE2280B4BABFCA6CF66D84F72F16FEE752729B276C5D514D1F08875264C54C100FD67799BA14F103EB7E7A7F662C9CDC9DE2AA8C8EB128D4DB615367482438595001D6DD1DE5DFC9903D9AC383D7F812D9D5
310
08E8D6F63D887C5E05F1335DB4DE42CF179652C0ADCE652C2CF29F2BE39FC4DBA6D7291A48EEA8D8E6CB2C96FA45DBE2C2D72047BFA6D49E11CF8D3C37257F73543C662A1CEB489BBBBD6EB7B9A9C1BAA002FEAFFF7AFC5F76889EF18C673CE319CF78C6339EF18C673CE319CF78C6339EF18C673CE319CF78C6339EF18C67
310
3CE319CF78C6339EF18C67AC3BE42F8EB7D7FDA38015DDE09353FC76EF2B2FFAFD05F7732B9A423EFF970BBFDBFBC2927FB840FEDBB9BF36FE010FFBA5D43FC7B0FC0000000049454E44AE4260821BC050B9006F24C3584174915F05B40074118CD054E94F6D05A90AFB136C746DB725CEA325F635A3A6AF162079A893B281
310
D06D991B4773DC4842FD529600A5A51A08F5D3D30426D8AAB62C00EBD1284B22C696376B1E4AA58AD91488852CA8F8C0BFC5BD371690F03945623DDD92AD251AB290D572DF8B41369254B612068C445FB274A86EA9F7570C19CFB6BB013F5AA2F9E1900DBACFE0BD342945A46B7C5B0B38FAAA53F9C187EB026C88C87CBE73
310
87881141477838301C8000CBCDB3446B746D217F12BCC80F3110A07E99DBC49636970566C93815FA810FA00F5A3EFF71C6F0062D80F7F2389F9697D0949A81989904AB7A2CD9C23C22D6FC465D48291B2162748F83C323F812FB31766F53B6F09EF37724583F34F21D0EB0EAC5432A6A9DB351B2F34B92FE11A25A4302564C
310
0F067DA6092F9CB7D50A58378BF86F10A4521C7025A4852725F62C0E84E47E9B066B50CC215D13BBE240389E01C61703AA177E795040D6D8D28041C8BDB44B57A06ED37234EBF527A0AC94656F5C5D99B0A64B96E404940568DB5D0C38577A53A2B9257DA1BC304C8C2C86F23A11A81D2C7EE9B75547B13A3688D2A02FC183
310
9264C248E00A008C50F8A3BEADBD526660F81AAAC62E5A44B23E272CC7770B883AA0960F1217C69121ADF8D73E3EA7019A63DE245A8AAEA871E8F062C5F517144F25D588496A6E1D3B2F7BA0DFDA689EE0FBE05CF53608020AD9AE2561EB2501C47A6B023CD7AE0D1B6F756328044457E5FA896089CEEA9839A4C5C80A4C68
310
68F6E4F3F26B965A63DFB3600B1936BF49A4DDCA0F1610D4D566E9B6628F9F2DCC7775A0EB881772CE8A75E7BD66500A41CC5F2C6144429E88E10BB09B3B803DF0F1093800EA61D003AAE1223145EAB9DCF10150885D054C6749008D8FD5C4E22F2D56C75C228ACA803D5E4D6CA51387FD4A92A6AB99EB8DA2B15AF3CFF8E4
310
DE9A7A75191A81D4621287814F648D2C165DF78CD046B32015A872C6DDB5D6E8A2A24E658FA26B6A6952B7FEBDA2BC905944E41FDBBF939EE87C2CF724733E05548564022C292F816B6F1B257565F450EE8BA186EA3220688D4F88490111869C5FBCC0A0FB12ADDA4434155D40E1A1BB5B65B0FEDC4D9E9137465DAFF6795C
310
7E59C4DF5C41DBCAECF1D706114D0DC27A5B0E57A4644A2696C582A02F6E8D615900AB71D9F0A23E52E3058227664D0A0EE72AF2E202EA750B7AD63BFF3F0C791C3C552C755240D044834D232BDF3B435BC9539736F1491E715E86077D92ECBD8E1810019C0FCBF94111F90042370B76F1F179394CB3EC07E2DB00BCDDF897
310
63B5BEF3C299B0D85A2A246A9E968B7A9844B97CD71BBCE41E756E77D49D1DEE19E8DDB92602850FAB0D97B15ACBBE2F2A30E9D6CF9125C511585B3D0DF89CE2A08F8B1892A30A5EBC7A049ED9A0D3A66FB9E1B5D4E2F5C0770B68D85AABD786BB45B9159CFC38762E196BC82051DFF75727F45D79D527A9D825E60EA986FA
310
6086F523ED71572D1880B0B4B3B36B8DB792B9BF24969ACAC19F9060C1B221CF9CBA746D3106DCA99E8593484B75C6EB900B0A765317EC9734708029095C71BDEEB244BA8F22543B1D6E396022C5930AE76A35E511145D7CB814FA0507900B7A35B34A5670BD750C0CC83AEC3C8BF3590E9890B2C503A47CBD6BB7E4AF0509
310
E4F13C8B2E033F1ECBBE98F2C4A713549F3C9CA0CCB8772A6509406D4341D55D16D8263C9687707B86DD4649703C9DFD390E86F45D953DE900990B2AF75B078C7D455E1D1848BF60F5500214C3EA1DA518CF32E021EE13C0CBF580F2666BD20527FA444F77E0DF226081A74D9D8BFE7761680C9FDBB233B03CF29F7BAE2B59
310
F874DE31BEC5FB32164F5B691A0B0661145CA3B3CBA64FCB6A459EE7027CE6629ACC8FC1152A3FC60051D944346CDB5C5C155E4133D2131310DDC5AF16B299537A1ADC5E3198BFF80886593A745C815CC40A63196AAE3A0F8F5D81AC326408156E6200C6FD8AE560125DBCD8A58236613077BBB76952CCAA78598B7309762B
310
9C57D8F5056A461721E5A915A55E39E90CB378B6654D9AE50A3112FE412174A5DBC3D89AB78B9DF95ADEF3A414AC9701C8DCA71CD8768F936942956EA38B2E4774B101726D43D51F3DA6344802DC317D985BB88D0141837D3AF34383CFCE46008BBC749A51C5397181332853D256DF19EB557066B3C9CB9188E721473C60F3
310
97244A611C45F0A1E9522E9A2C6AF4DBEC706E5C96CBDC7B7F26FB16CB0103362A752DE62856A330CD8D40D1BE8D5890A6725C9076841C31F2BF261D932D66E5CC64AD203400C570FD4D259630A420C8B9192DEC97CE0ABC19455DD32C3C39834904F59B60271686E5C01114939C1B9F2A99000F3451456AAAA426A140490D
310
1614D8FEA00FC0E98E6DD61CD8A717470F685800B85A9AD98CD2054E8BA8AE7D1B53293E87E7095FF9133BD16A589B2E01DBA9061157511732A85F65E8524BFD1E09E64E25C262EDD726B12ACB190222068CB7D2C08542A653B38B6CA5D83103A7811C4B620C4D811C705B92A45A880CB30DC9669F52B46055AF6DBD94007D
310
C6E6DB026C5107CC1DEC44448D257FB1E7E713C16AF945B3FA2FA6D6DA3C0DC131C9B73BD25BD3C93DE1067E94095B87A19FD5C4EF651A982FF9B5E87A9212DFC1A049CD13BCA57FA72325E1C8ADF9BF336D53DA2CB55CF81402EAFF34034B8DE77B7A19CFFE8C1CE02ABCA76EF9A1AA24E56278104B2F941EE358AEE338ED
310
1858A8F85925368DDDA6BEE5F89E7484A598E1EB24E07621B5A7610F61520538F3B2AF6004703A4940C0E129EC85030F10C15D80164280360BA5A2C3F58B509240AA0DCF074F99C8178E4619E7218772D5ECE6B1B1E6476DE897C30DD6E38987D4F8E4C1DBD111C7A8364B86E023D72F6164355AE4EDE7CE1002995A3E4C5F
310
60D83DD860D9C199486F381E5601B116FC4603743CE6120E3FB74247910405F86136920154AAC83ACFC92FA7C1265E2DCE5220080DDF6240BBA8B570B4A326AE76B0156C5180DDC21A5D207452AC62A261CCE19D2993F9C4D57B4FAA39EC017F647F53EA8F7B7C4D0AD43054266D0C1E27F6D3BC00AAD927315E99845B34B4
310
7183A7E298B3C12BAC1F647C0033391F7FC2A12CF2F681492DC4D8F8FD7A2DFB2207D6DA78122F8FC4FD50BB681CC80CE14E2B0C6FAF65CD0501EDDEBC793A1C71BCB32CCC1959A2C6CEB42C5EF78C3409E8CDC3612E71B500308A0FB614DCD18006891E1833E22F1FA76ACC1C7ECA02F938C60CB608CAEE85756E8CD366D7
310
B0BAF6410CE777F1EC15C30DF42442EFA4FAB92E071BC1EAEA65995EE575AA84710845E7C7FD9AF887C6D0653CA162AAC53539D41577DE40AB973526A08548332934A47FD8DD31BED11B0AD65C7EEA98C6808F6DB02D832E35DA84F7B99F84A73411744C7EC301012E6BEEBFE4B53D3F1843BCB0A972E0840F324268CB875B
310
A854C3B020A56367783F56102643C171BE88973FDD08F63768F5772323B712C74C5C06E86EABC154576D0340D5E928008D27AE4666E484648EBB4100AD259F21E632A7A6EA574A7ACC0E8A1674FDC30E32EBB3D95EFD8C7691760C74E27929D0BEF21DA43456493F5783340DB2CD290D70AFDA00DB4828CD155A49E2D8AC41
310
4F714AF4297D683FA80F0704DA0D60EDBC0C23A0478815F9D8F7EB4462682736B26611FF460AD77C3273B8503A405AEAD901D1A7431BA47F9B0260A3F98CCB46B968D34DEC34C91A07F8FA1C02A7793E3E2FE551944E1A8778EE487DB4E99C3DB201DC7B8548CD5D0168BBD479DE7D1C9BC7DD5339F9DA448CD534E4D82635
310
77DE2EB170E082EDB0EB83A7B93E1ED7221DA69E0AC611B6D3F0BD5339EDA7CE509BFB6854B29CEBD3704719F3723B979C06C0EFB732A786AD5CC74280BAD17498B4C927F683336394533AEF7A2C76A6D5F9337B9E429F94E43F650114A8450AD8FCF89F3CB25E5C3E38EC739BCF304BB3B249C288A72C3A875463C4934367
310
EE134AF1B6BC7BDB9B897EE0D5E98CFB07209442E22D2B5CB0E95C5AEA3261BCC601BF718A3003FC6EB057544A4B67C64DE781A0B22F9442837032C6518B4EBE6A58C786C619902C32D4343F907A043769705CDB58DDCD859B5BBC68F3C3D329B343DDF8162E9362EF4F63CD490E5D035CD62979B069CCEC6C53EBB4B5C43F
310
F6158843D02410E2BBB3F0B5FDE002971105421213AF208E09D49260746AAE439078BC65BB1C779903CA36E9BD4D8760AD107E40AF3ACE95EB36AD6868D8C03EC98371647B7CF81107D4F928BBEB171259379DA7613C609F7253BEE2A84C3A434661672D1FF8C7A2059FE9425EB390268E46F2B3CED40B1A66EB9AD57E3FE0
310
00EB6967967D3A200CE733B78557E80FAAC80C65BAD71363EAA509DF66894F67DE576F17F0AB42DAA09212A2B71787177CC06EF437748254CB3CE5AE617A3AF0293A32BD53C6F3D42569FE487361B33165412E4DC704F1E11C703FE34E63F8A62F5BA1CD149D45C613FF5314AA3F8CCC54DB3D029278129ACC46218940048C
310
F3010681F76A92E12106C40198D96F19FA212F3BB1F47A1CE7D0A93B3F09BFD5A2A244F2470B68338530ABD83E9CE74AFD94959729BD5C9F7786DEE6C4DA6659A54D2B69196A2B78C68CCD4B3A1E38CB9D11C13E1CC2AA36600293D30B7634D77EAC50D4DC5F91206E62FDE4BD09B2E2E4E68904B9951C08AFF2BF6925E71E
310
8AA51814B7B19F51F39A4E972B2D32523FEC6571BD416F1ECD31CB71EE0F31603ABE0D9A8D04E3FAF978A05E9F12FA399EDEE123FCC9CF092B830927C031B1AC47D9F16E47D67ED0958FE8B0BB1BF49EC1A35DCF14BE638527E2AE111408D454394697DD338EE232793F2610C90EFEC20303F1CCEC6964F7C243AA0D9C0B50
310
796EB520C9746643AFA2FBAAE511521792DD5BC0004DED22144BF3999EC2931B063D3F4FECA0FEBCDA79D293AA4830E8C57DFAB4DAA083F6923D601AAEED33A107B2C887E9C29C77BD3B4A6BAB9FE6F8B30EF3030EB1EA8199D22F73307920CD822E4A131F703AAC9FB15EF308DD38A0E70C82FCE1DC686BE5CACC92695865
310
A079FAF52EF7EDF10D0565F022A0BE9FDA5F52BBC591C530AFB5E56E2DD92B34685B508DC18796F84117B98D5F5C358A8D95186DBE8517B9B9B28DB18C36F2F2B8F663DAF7188084C0763952A74E2A92924E4C0C9A3FED4D00BC596961B6B44D7C132599E378D14EBFF311A756B732291A6DC1186653789840A33C91721F03
310
92D6B2623D957648B48436E43735616487B632D133784C95934294FA9A69D6219EB777A295126EF36C6D26CA426BD6FB56AF8911A5DB0500C21339454A255D841F0876359F9E9CF94533AE0FB8770A2E753A62D64FBE788BD0F472542C9C3AD091D2099E9F76F42577F9C045E4F983581C0B413002549BB5F2875FB448499F
310
5167961E345B9750F3A9D20BBFF1A6401A2424CB2B31AB8093AADC0FB2A292668E6F0C00DA783831917F5550264B63795A92A85F52472518888723D0629D5B22D2F07747B4C21F8639DA34E3A8C0E9694564EFE0EF99D4FDF302FC1FE64172D60E057BB90000000049454E44AE426082
  0
ENDSEC
  0
EOF
